%TF.GenerationSoftware,KiCad,Pcbnew,8.0.6*%
%TF.CreationDate,2025-02-17T13:53:16+01:00*%
%TF.ProjectId,ReSDMAC,52655344-4d41-4432-9e6b-696361645f70,rev?*%
%TF.SameCoordinates,Original*%
%TF.FileFunction,Legend,Bot*%
%TF.FilePolarity,Positive*%
%FSLAX46Y46*%
G04 Gerber Fmt 4.6, Leading zero omitted, Abs format (unit mm)*
G04 Created by KiCad (PCBNEW 8.0.6) date 2025-02-17 13:53:16*
%MOMM*%
%LPD*%
G01*
G04 APERTURE LIST*
G04 Aperture macros list*
%AMRoundRect*
0 Rectangle with rounded corners*
0 $1 Rounding radius*
0 $2 $3 $4 $5 $6 $7 $8 $9 X,Y pos of 4 corners*
0 Add a 4 corners polygon primitive as box body*
4,1,4,$2,$3,$4,$5,$6,$7,$8,$9,$2,$3,0*
0 Add four circle primitives for the rounded corners*
1,1,$1+$1,$2,$3*
1,1,$1+$1,$4,$5*
1,1,$1+$1,$6,$7*
1,1,$1+$1,$8,$9*
0 Add four rect primitives between the rounded corners*
20,1,$1+$1,$2,$3,$4,$5,0*
20,1,$1+$1,$4,$5,$6,$7,0*
20,1,$1+$1,$6,$7,$8,$9,0*
20,1,$1+$1,$8,$9,$2,$3,0*%
G04 Aperture macros list end*
%ADD10C,0.150000*%
%ADD11C,0.120000*%
%ADD12C,0.300000*%
%ADD13O,1.500000X1.500000*%
%ADD14R,0.800000X1.300000*%
%ADD15R,1.300000X0.800000*%
%ADD16RoundRect,0.075000X-0.425000X-0.075000X0.425000X-0.075000X0.425000X0.075000X-0.425000X0.075000X0*%
%ADD17RoundRect,0.075000X0.425000X0.075000X-0.425000X0.075000X-0.425000X-0.075000X0.425000X-0.075000X0*%
%ADD18RoundRect,0.237500X-0.237500X0.287500X-0.237500X-0.287500X0.237500X-0.287500X0.237500X0.287500X0*%
%ADD19RoundRect,0.237500X0.237500X-0.287500X0.237500X0.287500X-0.237500X0.287500X-0.237500X-0.287500X0*%
%ADD20R,0.800000X2.800000*%
%ADD21R,2.800000X0.800000*%
G04 APERTURE END LIST*
D10*
X144087939Y-70615457D02*
X144040320Y-70663076D01*
X144040320Y-70663076D02*
X143992700Y-70805933D01*
X143992700Y-70805933D02*
X143992700Y-70901171D01*
X143992700Y-70901171D02*
X144040320Y-71044028D01*
X144040320Y-71044028D02*
X144135558Y-71139266D01*
X144135558Y-71139266D02*
X144230796Y-71186885D01*
X144230796Y-71186885D02*
X144421272Y-71234504D01*
X144421272Y-71234504D02*
X144564129Y-71234504D01*
X144564129Y-71234504D02*
X144754605Y-71186885D01*
X144754605Y-71186885D02*
X144849843Y-71139266D01*
X144849843Y-71139266D02*
X144945081Y-71044028D01*
X144945081Y-71044028D02*
X144992700Y-70901171D01*
X144992700Y-70901171D02*
X144992700Y-70805933D01*
X144992700Y-70805933D02*
X144945081Y-70663076D01*
X144945081Y-70663076D02*
X144897462Y-70615457D01*
X144897462Y-70234504D02*
X144945081Y-70186885D01*
X144945081Y-70186885D02*
X144992700Y-70091647D01*
X144992700Y-70091647D02*
X144992700Y-69853552D01*
X144992700Y-69853552D02*
X144945081Y-69758314D01*
X144945081Y-69758314D02*
X144897462Y-69710695D01*
X144897462Y-69710695D02*
X144802224Y-69663076D01*
X144802224Y-69663076D02*
X144706986Y-69663076D01*
X144706986Y-69663076D02*
X144564129Y-69710695D01*
X144564129Y-69710695D02*
X143992700Y-70282123D01*
X143992700Y-70282123D02*
X143992700Y-69663076D01*
X144992700Y-69044028D02*
X144992700Y-68948790D01*
X144992700Y-68948790D02*
X144945081Y-68853552D01*
X144945081Y-68853552D02*
X144897462Y-68805933D01*
X144897462Y-68805933D02*
X144802224Y-68758314D01*
X144802224Y-68758314D02*
X144611748Y-68710695D01*
X144611748Y-68710695D02*
X144373653Y-68710695D01*
X144373653Y-68710695D02*
X144183177Y-68758314D01*
X144183177Y-68758314D02*
X144087939Y-68805933D01*
X144087939Y-68805933D02*
X144040320Y-68853552D01*
X144040320Y-68853552D02*
X143992700Y-68948790D01*
X143992700Y-68948790D02*
X143992700Y-69044028D01*
X143992700Y-69044028D02*
X144040320Y-69139266D01*
X144040320Y-69139266D02*
X144087939Y-69186885D01*
X144087939Y-69186885D02*
X144183177Y-69234504D01*
X144183177Y-69234504D02*
X144373653Y-69282123D01*
X144373653Y-69282123D02*
X144611748Y-69282123D01*
X144611748Y-69282123D02*
X144802224Y-69234504D01*
X144802224Y-69234504D02*
X144897462Y-69186885D01*
X144897462Y-69186885D02*
X144945081Y-69139266D01*
X144945081Y-69139266D02*
X144992700Y-69044028D01*
X130637939Y-82025457D02*
X130590320Y-82073076D01*
X130590320Y-82073076D02*
X130542700Y-82215933D01*
X130542700Y-82215933D02*
X130542700Y-82311171D01*
X130542700Y-82311171D02*
X130590320Y-82454028D01*
X130590320Y-82454028D02*
X130685558Y-82549266D01*
X130685558Y-82549266D02*
X130780796Y-82596885D01*
X130780796Y-82596885D02*
X130971272Y-82644504D01*
X130971272Y-82644504D02*
X131114129Y-82644504D01*
X131114129Y-82644504D02*
X131304605Y-82596885D01*
X131304605Y-82596885D02*
X131399843Y-82549266D01*
X131399843Y-82549266D02*
X131495081Y-82454028D01*
X131495081Y-82454028D02*
X131542700Y-82311171D01*
X131542700Y-82311171D02*
X131542700Y-82215933D01*
X131542700Y-82215933D02*
X131495081Y-82073076D01*
X131495081Y-82073076D02*
X131447462Y-82025457D01*
X131447462Y-81644504D02*
X131495081Y-81596885D01*
X131495081Y-81596885D02*
X131542700Y-81501647D01*
X131542700Y-81501647D02*
X131542700Y-81263552D01*
X131542700Y-81263552D02*
X131495081Y-81168314D01*
X131495081Y-81168314D02*
X131447462Y-81120695D01*
X131447462Y-81120695D02*
X131352224Y-81073076D01*
X131352224Y-81073076D02*
X131256986Y-81073076D01*
X131256986Y-81073076D02*
X131114129Y-81120695D01*
X131114129Y-81120695D02*
X130542700Y-81692123D01*
X130542700Y-81692123D02*
X130542700Y-81073076D01*
X131447462Y-80692123D02*
X131495081Y-80644504D01*
X131495081Y-80644504D02*
X131542700Y-80549266D01*
X131542700Y-80549266D02*
X131542700Y-80311171D01*
X131542700Y-80311171D02*
X131495081Y-80215933D01*
X131495081Y-80215933D02*
X131447462Y-80168314D01*
X131447462Y-80168314D02*
X131352224Y-80120695D01*
X131352224Y-80120695D02*
X131256986Y-80120695D01*
X131256986Y-80120695D02*
X131114129Y-80168314D01*
X131114129Y-80168314D02*
X130542700Y-80739742D01*
X130542700Y-80739742D02*
X130542700Y-80120695D01*
X143717939Y-86975457D02*
X143670320Y-87023076D01*
X143670320Y-87023076D02*
X143622700Y-87165933D01*
X143622700Y-87165933D02*
X143622700Y-87261171D01*
X143622700Y-87261171D02*
X143670320Y-87404028D01*
X143670320Y-87404028D02*
X143765558Y-87499266D01*
X143765558Y-87499266D02*
X143860796Y-87546885D01*
X143860796Y-87546885D02*
X144051272Y-87594504D01*
X144051272Y-87594504D02*
X144194129Y-87594504D01*
X144194129Y-87594504D02*
X144384605Y-87546885D01*
X144384605Y-87546885D02*
X144479843Y-87499266D01*
X144479843Y-87499266D02*
X144575081Y-87404028D01*
X144575081Y-87404028D02*
X144622700Y-87261171D01*
X144622700Y-87261171D02*
X144622700Y-87165933D01*
X144622700Y-87165933D02*
X144575081Y-87023076D01*
X144575081Y-87023076D02*
X144527462Y-86975457D01*
X143622700Y-86023076D02*
X143622700Y-86594504D01*
X143622700Y-86308790D02*
X144622700Y-86308790D01*
X144622700Y-86308790D02*
X144479843Y-86404028D01*
X144479843Y-86404028D02*
X144384605Y-86499266D01*
X144384605Y-86499266D02*
X144336986Y-86594504D01*
X144194129Y-85451647D02*
X144241748Y-85546885D01*
X144241748Y-85546885D02*
X144289367Y-85594504D01*
X144289367Y-85594504D02*
X144384605Y-85642123D01*
X144384605Y-85642123D02*
X144432224Y-85642123D01*
X144432224Y-85642123D02*
X144527462Y-85594504D01*
X144527462Y-85594504D02*
X144575081Y-85546885D01*
X144575081Y-85546885D02*
X144622700Y-85451647D01*
X144622700Y-85451647D02*
X144622700Y-85261171D01*
X144622700Y-85261171D02*
X144575081Y-85165933D01*
X144575081Y-85165933D02*
X144527462Y-85118314D01*
X144527462Y-85118314D02*
X144432224Y-85070695D01*
X144432224Y-85070695D02*
X144384605Y-85070695D01*
X144384605Y-85070695D02*
X144289367Y-85118314D01*
X144289367Y-85118314D02*
X144241748Y-85165933D01*
X144241748Y-85165933D02*
X144194129Y-85261171D01*
X144194129Y-85261171D02*
X144194129Y-85451647D01*
X144194129Y-85451647D02*
X144146510Y-85546885D01*
X144146510Y-85546885D02*
X144098891Y-85594504D01*
X144098891Y-85594504D02*
X144003653Y-85642123D01*
X144003653Y-85642123D02*
X143813177Y-85642123D01*
X143813177Y-85642123D02*
X143717939Y-85594504D01*
X143717939Y-85594504D02*
X143670320Y-85546885D01*
X143670320Y-85546885D02*
X143622700Y-85451647D01*
X143622700Y-85451647D02*
X143622700Y-85261171D01*
X143622700Y-85261171D02*
X143670320Y-85165933D01*
X143670320Y-85165933D02*
X143717939Y-85118314D01*
X143717939Y-85118314D02*
X143813177Y-85070695D01*
X143813177Y-85070695D02*
X144003653Y-85070695D01*
X144003653Y-85070695D02*
X144098891Y-85118314D01*
X144098891Y-85118314D02*
X144146510Y-85165933D01*
X144146510Y-85165933D02*
X144194129Y-85261171D01*
X157547939Y-83815457D02*
X157500320Y-83863076D01*
X157500320Y-83863076D02*
X157452700Y-84005933D01*
X157452700Y-84005933D02*
X157452700Y-84101171D01*
X157452700Y-84101171D02*
X157500320Y-84244028D01*
X157500320Y-84244028D02*
X157595558Y-84339266D01*
X157595558Y-84339266D02*
X157690796Y-84386885D01*
X157690796Y-84386885D02*
X157881272Y-84434504D01*
X157881272Y-84434504D02*
X158024129Y-84434504D01*
X158024129Y-84434504D02*
X158214605Y-84386885D01*
X158214605Y-84386885D02*
X158309843Y-84339266D01*
X158309843Y-84339266D02*
X158405081Y-84244028D01*
X158405081Y-84244028D02*
X158452700Y-84101171D01*
X158452700Y-84101171D02*
X158452700Y-84005933D01*
X158452700Y-84005933D02*
X158405081Y-83863076D01*
X158405081Y-83863076D02*
X158357462Y-83815457D01*
X158357462Y-83434504D02*
X158405081Y-83386885D01*
X158405081Y-83386885D02*
X158452700Y-83291647D01*
X158452700Y-83291647D02*
X158452700Y-83053552D01*
X158452700Y-83053552D02*
X158405081Y-82958314D01*
X158405081Y-82958314D02*
X158357462Y-82910695D01*
X158357462Y-82910695D02*
X158262224Y-82863076D01*
X158262224Y-82863076D02*
X158166986Y-82863076D01*
X158166986Y-82863076D02*
X158024129Y-82910695D01*
X158024129Y-82910695D02*
X157452700Y-83482123D01*
X157452700Y-83482123D02*
X157452700Y-82863076D01*
X158119367Y-82005933D02*
X157452700Y-82005933D01*
X158500320Y-82244028D02*
X157786034Y-82482123D01*
X157786034Y-82482123D02*
X157786034Y-81863076D01*
X143831415Y-76126885D02*
X143793320Y-76164981D01*
X143793320Y-76164981D02*
X143755224Y-76279266D01*
X143755224Y-76279266D02*
X143755224Y-76355457D01*
X143755224Y-76355457D02*
X143793320Y-76469743D01*
X143793320Y-76469743D02*
X143869510Y-76545933D01*
X143869510Y-76545933D02*
X143945700Y-76584028D01*
X143945700Y-76584028D02*
X144098081Y-76622124D01*
X144098081Y-76622124D02*
X144212367Y-76622124D01*
X144212367Y-76622124D02*
X144364748Y-76584028D01*
X144364748Y-76584028D02*
X144440939Y-76545933D01*
X144440939Y-76545933D02*
X144517129Y-76469743D01*
X144517129Y-76469743D02*
X144555224Y-76355457D01*
X144555224Y-76355457D02*
X144555224Y-76279266D01*
X144555224Y-76279266D02*
X144517129Y-76164981D01*
X144517129Y-76164981D02*
X144479034Y-76126885D01*
X143755224Y-75364981D02*
X143755224Y-75822124D01*
X143755224Y-75593552D02*
X144555224Y-75593552D01*
X144555224Y-75593552D02*
X144440939Y-75669743D01*
X144440939Y-75669743D02*
X144364748Y-75745933D01*
X144364748Y-75745933D02*
X144326653Y-75822124D01*
X143755224Y-74984028D02*
X143755224Y-74831647D01*
X143755224Y-74831647D02*
X143793320Y-74755457D01*
X143793320Y-74755457D02*
X143831415Y-74717361D01*
X143831415Y-74717361D02*
X143945700Y-74641171D01*
X143945700Y-74641171D02*
X144098081Y-74603076D01*
X144098081Y-74603076D02*
X144402843Y-74603076D01*
X144402843Y-74603076D02*
X144479034Y-74641171D01*
X144479034Y-74641171D02*
X144517129Y-74679266D01*
X144517129Y-74679266D02*
X144555224Y-74755457D01*
X144555224Y-74755457D02*
X144555224Y-74907838D01*
X144555224Y-74907838D02*
X144517129Y-74984028D01*
X144517129Y-74984028D02*
X144479034Y-75022123D01*
X144479034Y-75022123D02*
X144402843Y-75060219D01*
X144402843Y-75060219D02*
X144212367Y-75060219D01*
X144212367Y-75060219D02*
X144136177Y-75022123D01*
X144136177Y-75022123D02*
X144098081Y-74984028D01*
X144098081Y-74984028D02*
X144059986Y-74907838D01*
X144059986Y-74907838D02*
X144059986Y-74755457D01*
X144059986Y-74755457D02*
X144098081Y-74679266D01*
X144098081Y-74679266D02*
X144136177Y-74641171D01*
X144136177Y-74641171D02*
X144212367Y-74603076D01*
X130689439Y-66967457D02*
X130641820Y-67015076D01*
X130641820Y-67015076D02*
X130594200Y-67157933D01*
X130594200Y-67157933D02*
X130594200Y-67253171D01*
X130594200Y-67253171D02*
X130641820Y-67396028D01*
X130641820Y-67396028D02*
X130737058Y-67491266D01*
X130737058Y-67491266D02*
X130832296Y-67538885D01*
X130832296Y-67538885D02*
X131022772Y-67586504D01*
X131022772Y-67586504D02*
X131165629Y-67586504D01*
X131165629Y-67586504D02*
X131356105Y-67538885D01*
X131356105Y-67538885D02*
X131451343Y-67491266D01*
X131451343Y-67491266D02*
X131546581Y-67396028D01*
X131546581Y-67396028D02*
X131594200Y-67253171D01*
X131594200Y-67253171D02*
X131594200Y-67157933D01*
X131594200Y-67157933D02*
X131546581Y-67015076D01*
X131546581Y-67015076D02*
X131498962Y-66967457D01*
X131498962Y-66586504D02*
X131546581Y-66538885D01*
X131546581Y-66538885D02*
X131594200Y-66443647D01*
X131594200Y-66443647D02*
X131594200Y-66205552D01*
X131594200Y-66205552D02*
X131546581Y-66110314D01*
X131546581Y-66110314D02*
X131498962Y-66062695D01*
X131498962Y-66062695D02*
X131403724Y-66015076D01*
X131403724Y-66015076D02*
X131308486Y-66015076D01*
X131308486Y-66015076D02*
X131165629Y-66062695D01*
X131165629Y-66062695D02*
X130594200Y-66634123D01*
X130594200Y-66634123D02*
X130594200Y-66015076D01*
X130594200Y-65062695D02*
X130594200Y-65634123D01*
X130594200Y-65348409D02*
X131594200Y-65348409D01*
X131594200Y-65348409D02*
X131451343Y-65443647D01*
X131451343Y-65443647D02*
X131356105Y-65538885D01*
X131356105Y-65538885D02*
X131308486Y-65634123D01*
X157547939Y-66945457D02*
X157500320Y-66993076D01*
X157500320Y-66993076D02*
X157452700Y-67135933D01*
X157452700Y-67135933D02*
X157452700Y-67231171D01*
X157452700Y-67231171D02*
X157500320Y-67374028D01*
X157500320Y-67374028D02*
X157595558Y-67469266D01*
X157595558Y-67469266D02*
X157690796Y-67516885D01*
X157690796Y-67516885D02*
X157881272Y-67564504D01*
X157881272Y-67564504D02*
X158024129Y-67564504D01*
X158024129Y-67564504D02*
X158214605Y-67516885D01*
X158214605Y-67516885D02*
X158309843Y-67469266D01*
X158309843Y-67469266D02*
X158405081Y-67374028D01*
X158405081Y-67374028D02*
X158452700Y-67231171D01*
X158452700Y-67231171D02*
X158452700Y-67135933D01*
X158452700Y-67135933D02*
X158405081Y-66993076D01*
X158405081Y-66993076D02*
X158357462Y-66945457D01*
X158357462Y-66564504D02*
X158405081Y-66516885D01*
X158405081Y-66516885D02*
X158452700Y-66421647D01*
X158452700Y-66421647D02*
X158452700Y-66183552D01*
X158452700Y-66183552D02*
X158405081Y-66088314D01*
X158405081Y-66088314D02*
X158357462Y-66040695D01*
X158357462Y-66040695D02*
X158262224Y-65993076D01*
X158262224Y-65993076D02*
X158166986Y-65993076D01*
X158166986Y-65993076D02*
X158024129Y-66040695D01*
X158024129Y-66040695D02*
X157452700Y-66612123D01*
X157452700Y-66612123D02*
X157452700Y-65993076D01*
X158452700Y-65659742D02*
X158452700Y-65040695D01*
X158452700Y-65040695D02*
X158071748Y-65374028D01*
X158071748Y-65374028D02*
X158071748Y-65231171D01*
X158071748Y-65231171D02*
X158024129Y-65135933D01*
X158024129Y-65135933D02*
X157976510Y-65088314D01*
X157976510Y-65088314D02*
X157881272Y-65040695D01*
X157881272Y-65040695D02*
X157643177Y-65040695D01*
X157643177Y-65040695D02*
X157547939Y-65088314D01*
X157547939Y-65088314D02*
X157500320Y-65135933D01*
X157500320Y-65135933D02*
X157452700Y-65231171D01*
X157452700Y-65231171D02*
X157452700Y-65516885D01*
X157452700Y-65516885D02*
X157500320Y-65612123D01*
X157500320Y-65612123D02*
X157547939Y-65659742D01*
D11*
%TO.C,U6*%
X135377820Y-74867600D02*
X135377820Y-75067600D01*
X135377820Y-87387600D02*
X134087820Y-87387600D01*
X135377820Y-87587600D02*
X135377820Y-87387600D01*
X138537820Y-74867600D02*
X135377820Y-74867600D01*
X138537820Y-74867600D02*
X140569820Y-74877600D01*
X138537820Y-87587600D02*
X135377820Y-87587600D01*
X138537820Y-87587600D02*
X141697820Y-87587600D01*
X141697820Y-87587600D02*
X141697820Y-87387600D01*
D12*
X136122420Y-86968000D02*
G75*
G02*
X135822420Y-86968000I-150000J0D01*
G01*
X135822420Y-86968000D02*
G75*
G02*
X136122420Y-86968000I150000J0D01*
G01*
D11*
%TO.C,U3*%
X147197220Y-61317600D02*
X147197220Y-61517600D01*
X147197220Y-74037600D02*
X147197220Y-73837600D01*
X148604620Y-74037600D02*
X147197220Y-74037600D01*
X149163420Y-74037600D02*
X153517220Y-74037600D01*
X150357220Y-61317600D02*
X147197220Y-61317600D01*
X150357220Y-61317600D02*
X153517220Y-61317600D01*
X153517220Y-61317600D02*
X153517220Y-61517600D01*
X153517220Y-61517600D02*
X154807220Y-61517600D01*
X153517220Y-74037600D02*
X153517220Y-73837600D01*
D12*
X153047220Y-61937200D02*
G75*
G02*
X152747220Y-61937200I-150000J0D01*
G01*
X152747220Y-61937200D02*
G75*
G02*
X153047220Y-61937200I150000J0D01*
G01*
D11*
%TO.C,C20*%
X144957520Y-72833533D02*
X144957520Y-73176067D01*
%TO.C,C22*%
X131887520Y-81553867D02*
X131887520Y-81211333D01*
X132907520Y-81553867D02*
X132907520Y-81211333D01*
%TO.C,C18*%
X144997520Y-82611333D02*
X144997520Y-82953867D01*
%TO.C,C24*%
X155987520Y-83001333D02*
X155987520Y-83343867D01*
X157007520Y-83001333D02*
X157007520Y-83343867D01*
%TO.C,C19*%
X143677520Y-78493867D02*
X143677520Y-78151333D01*
%TO.C,U5*%
X147197220Y-74867600D02*
X147197220Y-75067600D01*
X147197220Y-87587600D02*
X147197220Y-87387600D01*
X147842620Y-74867600D02*
X147197220Y-74867600D01*
X148655420Y-74867600D02*
X148325220Y-74867600D01*
X150357220Y-74867600D02*
X149112620Y-74867600D01*
X150357220Y-74867600D02*
X153517220Y-74867600D01*
X150357220Y-87587600D02*
X147197220Y-87587600D01*
X150357220Y-87587600D02*
X153517220Y-87587600D01*
X153517220Y-74867600D02*
X153517220Y-75067600D01*
X153517220Y-75067600D02*
X154807220Y-75067600D01*
X153517220Y-87587600D02*
X153517220Y-87387600D01*
D12*
X153072620Y-75487200D02*
G75*
G02*
X152772620Y-75487200I-150000J0D01*
G01*
X152772620Y-75487200D02*
G75*
G02*
X153072620Y-75487200I150000J0D01*
G01*
D11*
%TO.C,U4*%
X135377820Y-61317600D02*
X135377820Y-61517600D01*
X135377820Y-73837600D02*
X134087820Y-73837600D01*
X135377820Y-74037600D02*
X135377820Y-73837600D01*
X138537820Y-61317600D02*
X135377820Y-61317600D01*
X138537820Y-61317600D02*
X141697820Y-61317600D01*
X138537820Y-74037600D02*
X135377820Y-74037600D01*
X138537820Y-74037600D02*
X141697820Y-74037600D01*
X141697820Y-61317600D02*
X141697820Y-61517600D01*
X141697820Y-74037600D02*
X141697820Y-73837600D01*
D12*
X136122420Y-73418000D02*
G75*
G02*
X135822420Y-73418000I-150000J0D01*
G01*
X135822420Y-73418000D02*
G75*
G02*
X136122420Y-73418000I150000J0D01*
G01*
D11*
%TO.C,C21*%
X131887520Y-65861333D02*
X131887520Y-66203867D01*
X132907520Y-65861333D02*
X132907520Y-66203867D01*
%TO.C,C23*%
X155987520Y-66511333D02*
X155987520Y-66853867D01*
%TO.C,U7*%
X129681720Y-60862018D02*
X130856938Y-59686800D01*
X129681720Y-61192600D02*
X129681720Y-60862018D01*
X129681720Y-87712600D02*
X129681720Y-89218400D01*
X129681720Y-89218400D02*
X131187520Y-89218400D01*
X130856938Y-59686800D02*
X131187520Y-59686800D01*
X159213320Y-59686800D02*
X157707520Y-59686800D01*
X159213320Y-61192600D02*
X159213320Y-59686800D01*
X159213320Y-87712600D02*
X159213320Y-89218400D01*
X159213320Y-89218400D02*
X157707520Y-89218400D01*
%TD*%
%LPC*%
D13*
%TO.C,U8*%
X132382520Y-62387600D03*
X132382520Y-86517600D03*
X156512520Y-62387600D03*
X156512520Y-86517600D03*
D14*
X144447520Y-59407100D03*
X143177520Y-59407100D03*
X141907520Y-59407100D03*
X140637520Y-59407100D03*
X139367520Y-59407100D03*
X138097520Y-59407100D03*
X136827520Y-59407100D03*
X135557520Y-59407100D03*
X134287520Y-59407100D03*
X133017520Y-59407100D03*
X131747520Y-59407100D03*
D15*
X129402020Y-61752600D03*
X129402020Y-63022600D03*
X129402020Y-64292600D03*
X129402020Y-65562600D03*
X129402020Y-66832600D03*
X129402020Y-68102600D03*
X129402020Y-69372600D03*
X129402020Y-70642600D03*
X129402020Y-71912600D03*
X129402020Y-73182600D03*
X129402020Y-74452600D03*
X129402020Y-75722600D03*
X129402020Y-76992600D03*
X129402020Y-78262600D03*
X129402020Y-79532600D03*
X129402020Y-80802600D03*
X129402020Y-82072600D03*
X129402020Y-83342600D03*
X129402020Y-84612600D03*
X129402020Y-85882600D03*
X129402020Y-87152600D03*
D14*
X131747520Y-89498100D03*
X133017520Y-89498100D03*
X134287520Y-89498100D03*
X135557120Y-89498100D03*
X136827520Y-89498100D03*
X138097520Y-89498100D03*
X139367520Y-89498100D03*
X140637520Y-89498100D03*
X141907520Y-89498100D03*
X143177520Y-89498100D03*
X144447520Y-89498100D03*
X145717520Y-89498100D03*
X146987520Y-89498100D03*
X148257520Y-89498100D03*
X149527520Y-89498100D03*
X150797520Y-89498100D03*
X152067520Y-89498100D03*
X153337520Y-89498100D03*
X154607520Y-89498100D03*
X155877520Y-89498100D03*
X157147520Y-89498100D03*
D15*
X159493020Y-87152600D03*
X159493020Y-85882600D03*
X159493020Y-84612600D03*
X159493020Y-83342600D03*
X159493020Y-82072600D03*
X159493020Y-80802600D03*
X159493020Y-79532600D03*
X159493020Y-78262600D03*
X159493020Y-76992600D03*
X159493020Y-75722600D03*
X159493020Y-74452600D03*
X159493020Y-73182600D03*
X159493020Y-71912600D03*
X159493020Y-70642600D03*
X159493020Y-69372600D03*
X159493020Y-68102600D03*
X159493020Y-66832600D03*
X159493020Y-65562600D03*
X159493020Y-64292600D03*
X159493020Y-63022600D03*
X159493020Y-61752600D03*
D14*
X157147520Y-59407100D03*
X155877520Y-59407100D03*
X154607520Y-59407100D03*
X153337520Y-59407100D03*
X152067520Y-59407100D03*
X150797520Y-59407100D03*
X149527520Y-59407100D03*
X148257520Y-59407100D03*
X146987520Y-59407100D03*
X145717520Y-59407100D03*
%TD*%
D16*
%TO.C,U6*%
X134588120Y-86977600D03*
X134588120Y-86477600D03*
X134588120Y-85977600D03*
X134588120Y-85477600D03*
X134588120Y-84977600D03*
X134588120Y-84477600D03*
X134588120Y-83977600D03*
X134588120Y-83477600D03*
X134588120Y-82977600D03*
X134588120Y-82477600D03*
X134588120Y-81977600D03*
X134588120Y-81477600D03*
X134588120Y-80977600D03*
X134588120Y-80477600D03*
X134588120Y-79977600D03*
X134588120Y-79477600D03*
X134588120Y-78977600D03*
X134588120Y-78477600D03*
X134588120Y-77977600D03*
X134588120Y-77477600D03*
X134588120Y-76977600D03*
X134588120Y-76477600D03*
X134588120Y-75977600D03*
X134588120Y-75477600D03*
X142487520Y-75477600D03*
X142487520Y-75977600D03*
X142487520Y-76477600D03*
X142487520Y-76977600D03*
X142487520Y-77477600D03*
X142487520Y-77977600D03*
X142487520Y-78477600D03*
X142487520Y-78977600D03*
X142487520Y-79477600D03*
X142487520Y-79977600D03*
X142487520Y-80477600D03*
X142487520Y-80977600D03*
X142487520Y-81477600D03*
X142487520Y-81977600D03*
X142487520Y-82477600D03*
X142487520Y-82977600D03*
X142487520Y-83477600D03*
X142487520Y-83977600D03*
X142487520Y-84477600D03*
X142487520Y-84977600D03*
X142487520Y-85477600D03*
X142487520Y-85977600D03*
X142487520Y-86477600D03*
X142487520Y-86977600D03*
%TD*%
D17*
%TO.C,U3*%
X154306920Y-61927600D03*
X154306920Y-62427600D03*
X154306920Y-62927600D03*
X154306920Y-63427600D03*
X154306920Y-63927600D03*
X154306920Y-64427600D03*
X154306920Y-64927600D03*
X154306920Y-65427600D03*
X154306920Y-65927600D03*
X154306920Y-66427600D03*
X154306920Y-66927600D03*
X154306920Y-67427600D03*
X154306920Y-67927600D03*
X154306920Y-68427600D03*
X154306920Y-68927600D03*
X154306920Y-69427600D03*
X154306920Y-69927600D03*
X154306920Y-70427600D03*
X154306920Y-70927600D03*
X154306920Y-71427600D03*
X154306920Y-71927600D03*
X154306920Y-72427600D03*
X154306920Y-72927600D03*
X154306920Y-73427600D03*
X146407520Y-73427600D03*
X146407520Y-72927600D03*
X146407520Y-72427600D03*
X146407520Y-71927600D03*
X146407520Y-71427600D03*
X146407520Y-70927600D03*
X146407520Y-70427600D03*
X146407520Y-69927600D03*
X146407520Y-69427600D03*
X146407520Y-68927600D03*
X146407520Y-68427600D03*
X146407520Y-67927600D03*
X146407520Y-67427600D03*
X146407520Y-66927600D03*
X146407520Y-66427600D03*
X146407520Y-65927600D03*
X146407520Y-65427600D03*
X146407520Y-64927600D03*
X146407520Y-64427600D03*
X146407520Y-63927600D03*
X146407520Y-63427600D03*
X146407520Y-62927600D03*
X146407520Y-62427600D03*
X146407520Y-61927600D03*
%TD*%
D18*
%TO.C,C20*%
X144447520Y-72129800D03*
X144447520Y-73879800D03*
%TD*%
D19*
%TO.C,C22*%
X132397520Y-82257600D03*
X132397520Y-80507600D03*
%TD*%
D18*
%TO.C,C18*%
X144487520Y-81907600D03*
X144487520Y-83657600D03*
%TD*%
%TO.C,C24*%
X156497520Y-82297600D03*
X156497520Y-84047600D03*
%TD*%
D19*
%TO.C,C19*%
X144187520Y-79197600D03*
X144187520Y-77447600D03*
%TD*%
D17*
%TO.C,U5*%
X154306920Y-75477600D03*
X154306920Y-75977600D03*
X154306920Y-76477600D03*
X154306920Y-76977600D03*
X154306920Y-77477600D03*
X154306920Y-77977600D03*
X154306920Y-78477600D03*
X154306920Y-78977600D03*
X154306920Y-79477600D03*
X154306920Y-79977600D03*
X154306920Y-80477600D03*
X154306920Y-80977600D03*
X154306920Y-81477600D03*
X154306920Y-81977600D03*
X154306920Y-82477600D03*
X154306920Y-82977600D03*
X154306920Y-83477600D03*
X154306920Y-83977600D03*
X154306920Y-84477600D03*
X154306920Y-84977600D03*
X154306920Y-85477600D03*
X154306920Y-85977600D03*
X154306920Y-86477600D03*
X154306920Y-86977600D03*
X146407520Y-86977600D03*
X146407520Y-86477600D03*
X146407520Y-85977600D03*
X146407520Y-85477600D03*
X146407520Y-84977600D03*
X146407520Y-84477600D03*
X146407520Y-83977600D03*
X146407520Y-83477600D03*
X146407520Y-82977600D03*
X146407520Y-82477600D03*
X146407520Y-81977600D03*
X146407520Y-81477600D03*
X146407520Y-80977600D03*
X146407520Y-80477600D03*
X146407520Y-79977600D03*
X146407520Y-79477600D03*
X146407520Y-78977600D03*
X146407520Y-78477600D03*
X146407520Y-77977600D03*
X146407520Y-77477600D03*
X146407520Y-76977600D03*
X146407520Y-76477600D03*
X146407520Y-75977600D03*
X146407520Y-75477600D03*
%TD*%
D16*
%TO.C,U4*%
X134588120Y-73427600D03*
X134588120Y-72927600D03*
X134588120Y-72427600D03*
X134588120Y-71927600D03*
X134588120Y-71427600D03*
X134588120Y-70927600D03*
X134588120Y-70427600D03*
X134588120Y-69927600D03*
X134588120Y-69427600D03*
X134588120Y-68927600D03*
X134588120Y-68427600D03*
X134588120Y-67927600D03*
X134588120Y-67427600D03*
X134588120Y-66927600D03*
X134588120Y-66427600D03*
X134588120Y-65927600D03*
X134588120Y-65427600D03*
X134588120Y-64927600D03*
X134588120Y-64427600D03*
X134588120Y-63927600D03*
X134588120Y-63427600D03*
X134588120Y-62927600D03*
X134588120Y-62427600D03*
X134588120Y-61927600D03*
X142487520Y-61927600D03*
X142487520Y-62427600D03*
X142487520Y-62927600D03*
X142487520Y-63427600D03*
X142487520Y-63927600D03*
X142487520Y-64427600D03*
X142487520Y-64927600D03*
X142487520Y-65427600D03*
X142487520Y-65927600D03*
X142487520Y-66427600D03*
X142487520Y-66927600D03*
X142487520Y-67427600D03*
X142487520Y-67927600D03*
X142487520Y-68427600D03*
X142487520Y-68927600D03*
X142487520Y-69427600D03*
X142487520Y-69927600D03*
X142487520Y-70427600D03*
X142487520Y-70927600D03*
X142487520Y-71427600D03*
X142487520Y-71927600D03*
X142487520Y-72427600D03*
X142487520Y-72927600D03*
X142487520Y-73427600D03*
%TD*%
D18*
%TO.C,C21*%
X132397520Y-65157600D03*
X132397520Y-66907600D03*
%TD*%
%TO.C,C23*%
X156497520Y-65807600D03*
X156497520Y-67557600D03*
%TD*%
D20*
%TO.C,U7*%
X144447520Y-57790200D03*
X143177520Y-57790200D03*
X141907520Y-57790200D03*
X140637520Y-57790200D03*
X139367520Y-57790200D03*
X138097520Y-57790200D03*
X136827520Y-57790200D03*
X135557520Y-57790200D03*
X134287520Y-57790200D03*
X133017520Y-57790200D03*
X131747520Y-57790200D03*
D21*
X127785120Y-61752600D03*
X127785120Y-63022600D03*
X127785120Y-64292600D03*
X127785120Y-65562600D03*
X127785120Y-66832600D03*
X127785120Y-68102600D03*
X127785120Y-69372600D03*
X127785120Y-70642600D03*
X127785120Y-71912600D03*
X127785120Y-73182600D03*
X127785120Y-74452600D03*
X127785120Y-75722600D03*
X127785120Y-76992600D03*
X127785120Y-78262600D03*
X127785120Y-79532600D03*
X127785120Y-80802600D03*
X127785120Y-82072600D03*
X127785120Y-83342600D03*
X127785120Y-84612600D03*
X127785120Y-85882600D03*
X127785120Y-87152600D03*
D20*
X131747520Y-91115000D03*
X133017520Y-91115000D03*
X134287520Y-91115000D03*
X135557520Y-91115000D03*
X136827520Y-91115000D03*
X138097520Y-91115000D03*
X139367520Y-91115000D03*
X140637520Y-91115000D03*
X141907520Y-91115000D03*
X143177520Y-91115000D03*
X144447520Y-91115000D03*
X145717520Y-91115000D03*
X146987520Y-91115000D03*
X148257520Y-91115000D03*
X149527520Y-91115000D03*
X150797520Y-91115000D03*
X152067520Y-91115000D03*
X153337520Y-91115000D03*
X154607520Y-91115000D03*
X155877520Y-91115000D03*
X157147520Y-91115000D03*
D21*
X161109920Y-87152600D03*
X161109920Y-85882600D03*
X161109920Y-84612600D03*
X161109920Y-83342600D03*
X161109920Y-82072600D03*
X161109920Y-80802600D03*
X161109920Y-79532600D03*
X161109920Y-78262600D03*
X161109920Y-76992600D03*
X161109920Y-75722600D03*
X161109920Y-74452600D03*
X161109920Y-73182600D03*
X161109920Y-71912600D03*
X161109920Y-70642600D03*
X161109920Y-69372600D03*
X161109920Y-68102600D03*
X161109920Y-66832600D03*
X161109920Y-65562600D03*
X161109920Y-64292600D03*
X161109920Y-63022600D03*
X161109920Y-61752600D03*
D20*
X157147520Y-57790200D03*
X155877520Y-57790200D03*
X154607520Y-57790200D03*
X153337520Y-57790200D03*
X152067520Y-57790200D03*
X150797520Y-57790200D03*
X149527520Y-57790200D03*
X148257520Y-57790200D03*
X146987520Y-57790200D03*
X145717520Y-57790200D03*
%TD*%
%LPD*%
M02*
