M48
; DRILL file {KiCad 8.0.6} date 2025-02-17T13:53:16+0100
; FORMAT={-:-/ absolute / inch / decimal}
; #@! TF.CreationDate,2025-02-17T13:53:16+01:00
; #@! TF.GenerationSoftware,Kicad,Pcbnew,8.0.6
; #@! TF.FileFunction,Plated,1,4,PTH
FMAT,2
INCH
; #@! TA.AperFunction,Plated,PTH,ViaDrill
T1C0.0079
; #@! TA.AperFunction,Plated,PTH,ViaDrill
T2C0.0118
; #@! TA.AperFunction,Plated,PTH,ViaDrill
T3C0.0157
; #@! TA.AperFunction,Plated,PTH,ComponentDrill
T4C0.0236
; #@! TA.AperFunction,Plated,PTH,ComponentDrill
T5C0.0315
%
G90
G05
T1
X5.4657Y-3.0584
X5.4771Y-3.2639
X5.4822Y-3.2985
X5.4853Y-3.0812
X5.5105Y-3.2324
X5.5137Y-2.9836
X5.5137Y-3.0151
X5.5137Y-3.0466
X5.5137Y-3.0781
X5.5137Y-3.141
X5.5137Y-3.1725
X5.5137Y-3.204
X5.5137Y-3.2985
X5.5164Y-3.2627
X5.5353Y-2.8914
X5.5408Y-3.1379
X5.5432Y-3.2021
X5.5452Y-2.9521
X5.5452Y-2.9836
X5.5452Y-3.0151
X5.5452Y-3.0466
X5.5452Y-3.0781
X5.5452Y-3.1725
X5.5452Y-3.2355
X5.5452Y-3.267
X5.5452Y-3.2985
X5.5452Y-3.33
X5.5483Y-2.9237
X5.5731Y-3.2001
X5.5735Y-3.33
X5.5747Y-2.9816
X5.5747Y-3.1096
X5.5755Y-3.0477
X5.5767Y-2.9521
X5.5767Y-3.2363
X5.5767Y-3.267
X5.5767Y-3.2985
X5.5802Y-3.1454
X5.5924Y-2.9135
X5.6082Y-2.9521
X5.6164Y-2.9107
X5.6365Y-2.9237
X5.6397Y-2.9521
X5.6397Y-3.1096
X5.644Y-2.9792
X5.6444Y-3.0119
X5.6444Y-3.0749
X5.6444Y-3.2702
X5.6444Y-3.3017
X5.6464Y-3.3367
X5.6712Y-3.1725
X5.7027Y-2.9521
X5.7027Y-3.0151
X5.7027Y-3.1725
X5.7027Y-3.204
X5.7066Y-3.145
X5.7101Y-3.0509
X5.7251Y-2.8966
X5.7298Y-3.1753
X5.7302Y-3.0808
X5.7306Y-3.2962
X5.7306Y-3.3513
X5.731Y-3.3261
X5.7322Y-3.2336
X5.7334Y-2.9214
X5.7342Y-2.9836
X5.7342Y-3.1096
X5.7345Y-3.047
X5.7373Y-3.0107
X5.7629Y-2.9493
X5.7838Y-2.9127
X5.7944Y-3.271
X5.7971Y-3.1725
X5.7979Y-2.9836
X5.7979Y-3.0781
X5.7979Y-3.141
X5.7979Y-3.2355
X5.7983Y-3.3328
X5.7995Y-3.2962
X5.7999Y-3.0123
X5.8003Y-3.1048
X5.8003Y-3.2088
X5.8113Y-2.8922
X5.8255Y-3.0505
X5.8275Y-2.9824
X5.8275Y-3.1399
X5.8286Y-3.0143
X5.8286Y-3.0781
X5.8286Y-3.1096
X5.8286Y-3.2355
X5.8286Y-3.2985
X5.8302Y-2.9536
X5.8322Y-3.1761
X5.8566Y-3.019
X5.8601Y-2.9828
X5.8601Y-3.0781
X5.8601Y-3.1096
X5.8601Y-3.1403
X5.8601Y-3.2355
X5.8601Y-3.267
X5.8601Y-3.2985
X5.8601Y-3.33
X5.8617Y-2.9147
X5.8617Y-2.9536
X5.8885Y-3.2639
X5.892Y-3.0151
X5.892Y-3.0777
X5.9038Y-3.2221
X5.9046Y-3.1143
X5.9204Y-3.1359
X5.9216Y-3.2021
X5.9306Y-3.2942
X5.9408Y-3.0942
T2
X5.1414Y-3.0062
X5.244Y-3.1458
X5.2653Y-3.1088
X5.3617Y-2.391
X5.5479Y-3.1096
X5.6712Y-2.9859
X5.6735Y-2.8765
X5.6739Y-3.0808
X5.6743Y-3.2623
X5.694Y-2.6509
X5.6956Y-2.8765
X5.6995Y-3.2623
X5.7168Y-2.8694
X5.7188Y-2.6895
X5.7204Y-2.7344
X5.7227Y-2.6229
X5.933Y-3.1135
X5.9983Y-2.5812
X6.1151Y-3.1094
X6.1298Y-2.7269
X6.1371Y-3.1094
X6.1664Y-3.1094
X6.1849Y-3.0178
X6.1849Y-3.0454
X6.1849Y-3.3505
X6.1928Y-2.6655
X6.2117Y-3.0316
T3
X5.1456Y-3.3296
X5.1574Y-2.5615
X5.1679Y-2.6137
X5.1679Y-2.6477
X5.2125Y-3.1316
X5.2479Y-2.5973
X5.2554Y-2.7454
X5.257Y-3.3434
X5.2672Y-2.9379
X5.4468Y-3.1221
X5.4471Y-3.1548
X5.4645Y-3.1907
X5.5519Y-3.4119
X5.6369Y-2.4013
X5.6515Y-2.7363
X5.6515Y-2.7733
X5.666Y-3.3607
X5.6873Y-2.4481
X5.6979Y-3.3828
X5.7094Y-3.4159
X5.8487Y-2.7847
X5.9058Y-3.171
X5.9259Y-3.3245
X5.9405Y-3.171
X5.9804Y-3.3977
X6.1192Y-2.6576
X6.1444Y-2.7706
X6.1495Y-3.3497
X6.1515Y-3.2013
X6.1865Y-2.63
X6.2282Y-2.5277
T4
X5.1044Y-2.4312
X5.1044Y-2.4812
X5.1044Y-2.5312
X5.1044Y-2.5812
X5.1044Y-2.6312
X5.1044Y-2.6812
X5.1044Y-2.7312
X5.1044Y-2.7812
X5.1044Y-2.8312
X5.1044Y-2.8812
X5.1044Y-2.9312
X5.1044Y-2.9812
X5.1044Y-3.0312
X5.1044Y-3.0812
X5.1044Y-3.1312
X5.1044Y-3.1812
X5.1044Y-3.2312
X5.1044Y-3.2812
X5.1044Y-3.3312
X5.1044Y-3.3812
X5.1044Y-3.4312
X5.1869Y-2.3487
X5.1869Y-3.5137
X5.2369Y-2.3487
X5.2369Y-3.5137
X5.2869Y-2.3487
X5.2869Y-3.5137
X5.3369Y-3.5137
X5.3369Y-2.3487
X5.3869Y-2.3487
X5.3869Y-3.5137
X5.4369Y-2.3487
X5.4369Y-3.5137
X5.4869Y-2.3487
X5.4869Y-3.5137
X5.5369Y-2.3487
X5.5369Y-3.5137
X5.5869Y-2.3487
X5.5869Y-3.5137
X5.6369Y-2.3487
X5.6369Y-3.5137
X5.6869Y-2.3487
X5.6869Y-3.5137
X5.7369Y-2.3487
X5.7369Y-3.5137
X5.7869Y-2.3487
X5.7869Y-3.5137
X5.8369Y-2.3487
X5.8369Y-3.5137
X5.8869Y-2.3487
X5.8869Y-3.5137
X5.9369Y-2.3487
X5.9369Y-3.5137
X5.9869Y-2.3487
X5.9869Y-3.5137
X6.0369Y-2.3487
X6.0369Y-3.5137
X6.0869Y-2.3487
X6.0869Y-3.5137
X6.1369Y-2.3487
X6.1369Y-3.5137
X6.1869Y-2.3487
X6.1869Y-3.5137
X6.2694Y-2.4312
X6.2694Y-2.4812
X6.2694Y-2.5312
X6.2694Y-2.5812
X6.2694Y-2.6312
X6.2694Y-2.6812
X6.2694Y-2.7312
X6.2694Y-2.7812
X6.2694Y-2.8312
X6.2694Y-2.8812
X6.2694Y-2.9312
X6.2694Y-2.9812
X6.2694Y-3.0312
X6.2694Y-3.0812
X6.2694Y-3.1312
X6.2694Y-3.1812
X6.2694Y-3.2312
X6.2694Y-3.2812
X6.2694Y-3.3312
X6.2694Y-3.3812
X6.2694Y-3.4312
T5
X5.2119Y-2.4562
X5.2119Y-3.4062
X6.1619Y-2.4562
X6.1619Y-3.4062
M30
