%TF.GenerationSoftware,KiCad,Pcbnew,8.0.6*%
%TF.CreationDate,2025-04-08T14:13:57+02:00*%
%TF.ProjectId,ReSDMAC,52655344-4d41-4432-9e6b-696361645f70,rev?*%
%TF.SameCoordinates,Original*%
%TF.FileFunction,Soldermask,Bot*%
%TF.FilePolarity,Negative*%
%FSLAX46Y46*%
G04 Gerber Fmt 4.6, Leading zero omitted, Abs format (unit mm)*
G04 Created by KiCad (PCBNEW 8.0.6) date 2025-04-08 14:13:57*
%MOMM*%
%LPD*%
G01*
G04 APERTURE LIST*
G04 Aperture macros list*
%AMRoundRect*
0 Rectangle with rounded corners*
0 $1 Rounding radius*
0 $2 $3 $4 $5 $6 $7 $8 $9 X,Y pos of 4 corners*
0 Add a 4 corners polygon primitive as box body*
4,1,4,$2,$3,$4,$5,$6,$7,$8,$9,$2,$3,0*
0 Add four circle primitives for the rounded corners*
1,1,$1+$1,$2,$3*
1,1,$1+$1,$4,$5*
1,1,$1+$1,$6,$7*
1,1,$1+$1,$8,$9*
0 Add four rect primitives between the rounded corners*
20,1,$1+$1,$2,$3,$4,$5,0*
20,1,$1+$1,$4,$5,$6,$7,0*
20,1,$1+$1,$6,$7,$8,$9,0*
20,1,$1+$1,$8,$9,$2,$3,0*%
G04 Aperture macros list end*
%ADD10O,1.500000X1.500000*%
%ADD11R,0.800000X1.300000*%
%ADD12R,1.300000X0.800000*%
%ADD13RoundRect,0.075000X-0.425000X-0.075000X0.425000X-0.075000X0.425000X0.075000X-0.425000X0.075000X0*%
%ADD14RoundRect,0.075000X0.425000X0.075000X-0.425000X0.075000X-0.425000X-0.075000X0.425000X-0.075000X0*%
%ADD15RoundRect,0.237500X-0.237500X0.287500X-0.237500X-0.287500X0.237500X-0.287500X0.237500X0.287500X0*%
%ADD16RoundRect,0.237500X0.237500X-0.287500X0.237500X0.287500X-0.237500X0.287500X-0.237500X-0.287500X0*%
%ADD17R,0.800000X2.800000*%
%ADD18R,2.800000X0.800000*%
G04 APERTURE END LIST*
D10*
%TO.C,U8*%
X132382520Y-62387600D03*
X132382520Y-86517600D03*
X156512520Y-62387600D03*
X156512520Y-86517600D03*
D11*
X144447520Y-59407100D03*
X143177520Y-59407100D03*
X141907520Y-59407100D03*
X140637520Y-59407100D03*
X139367520Y-59407100D03*
X138097520Y-59407100D03*
X136827520Y-59407100D03*
X135557520Y-59407100D03*
X134287520Y-59407100D03*
X133017520Y-59407100D03*
X131747520Y-59407100D03*
D12*
X129402020Y-61752600D03*
X129402020Y-63022600D03*
X129402020Y-64292600D03*
X129402020Y-65562600D03*
X129402020Y-66832600D03*
X129402020Y-68102600D03*
X129402020Y-69372600D03*
X129402020Y-70642600D03*
X129402020Y-71912600D03*
X129402020Y-73182600D03*
X129402020Y-74452600D03*
X129402020Y-75722600D03*
X129402020Y-76992600D03*
X129402020Y-78262600D03*
X129402020Y-79532600D03*
X129402020Y-80802600D03*
X129402020Y-82072600D03*
X129402020Y-83342600D03*
X129402020Y-84612600D03*
X129402020Y-85882600D03*
X129402020Y-87152600D03*
D11*
X131747520Y-89498100D03*
X133017520Y-89498100D03*
X134287520Y-89498100D03*
X135557120Y-89498100D03*
X136827520Y-89498100D03*
X138097520Y-89498100D03*
X139367520Y-89498100D03*
X140637520Y-89498100D03*
X141907520Y-89498100D03*
X143177520Y-89498100D03*
X144447520Y-89498100D03*
X145717520Y-89498100D03*
X146987520Y-89498100D03*
X148257520Y-89498100D03*
X149527520Y-89498100D03*
X150797520Y-89498100D03*
X152067520Y-89498100D03*
X153337520Y-89498100D03*
X154607520Y-89498100D03*
X155877520Y-89498100D03*
X157147520Y-89498100D03*
D12*
X159493020Y-87152600D03*
X159493020Y-85882600D03*
X159493020Y-84612600D03*
X159493020Y-83342600D03*
X159493020Y-82072600D03*
X159493020Y-80802600D03*
X159493020Y-79532600D03*
X159493020Y-78262600D03*
X159493020Y-76992600D03*
X159493020Y-75722600D03*
X159493020Y-74452600D03*
X159493020Y-73182600D03*
X159493020Y-71912600D03*
X159493020Y-70642600D03*
X159493020Y-69372600D03*
X159493020Y-68102600D03*
X159493020Y-66832600D03*
X159493020Y-65562600D03*
X159493020Y-64292600D03*
X159493020Y-63022600D03*
X159493020Y-61752600D03*
D11*
X157147520Y-59407100D03*
X155877520Y-59407100D03*
X154607520Y-59407100D03*
X153337520Y-59407100D03*
X152067520Y-59407100D03*
X150797520Y-59407100D03*
X149527520Y-59407100D03*
X148257520Y-59407100D03*
X146987520Y-59407100D03*
X145717520Y-59407100D03*
%TD*%
D13*
%TO.C,U6*%
X134588120Y-86977600D03*
X134588120Y-86477600D03*
X134588120Y-85977600D03*
X134588120Y-85477600D03*
X134588120Y-84977600D03*
X134588120Y-84477600D03*
X134588120Y-83977600D03*
X134588120Y-83477600D03*
X134588120Y-82977600D03*
X134588120Y-82477600D03*
X134588120Y-81977600D03*
X134588120Y-81477600D03*
X134588120Y-80977600D03*
X134588120Y-80477600D03*
X134588120Y-79977600D03*
X134588120Y-79477600D03*
X134588120Y-78977600D03*
X134588120Y-78477600D03*
X134588120Y-77977600D03*
X134588120Y-77477600D03*
X134588120Y-76977600D03*
X134588120Y-76477600D03*
X134588120Y-75977600D03*
X134588120Y-75477600D03*
X142487520Y-75477600D03*
X142487520Y-75977600D03*
X142487520Y-76477600D03*
X142487520Y-76977600D03*
X142487520Y-77477600D03*
X142487520Y-77977600D03*
X142487520Y-78477600D03*
X142487520Y-78977600D03*
X142487520Y-79477600D03*
X142487520Y-79977600D03*
X142487520Y-80477600D03*
X142487520Y-80977600D03*
X142487520Y-81477600D03*
X142487520Y-81977600D03*
X142487520Y-82477600D03*
X142487520Y-82977600D03*
X142487520Y-83477600D03*
X142487520Y-83977600D03*
X142487520Y-84477600D03*
X142487520Y-84977600D03*
X142487520Y-85477600D03*
X142487520Y-85977600D03*
X142487520Y-86477600D03*
X142487520Y-86977600D03*
%TD*%
D14*
%TO.C,U3*%
X154306920Y-61927600D03*
X154306920Y-62427600D03*
X154306920Y-62927600D03*
X154306920Y-63427600D03*
X154306920Y-63927600D03*
X154306920Y-64427600D03*
X154306920Y-64927600D03*
X154306920Y-65427600D03*
X154306920Y-65927600D03*
X154306920Y-66427600D03*
X154306920Y-66927600D03*
X154306920Y-67427600D03*
X154306920Y-67927600D03*
X154306920Y-68427600D03*
X154306920Y-68927600D03*
X154306920Y-69427600D03*
X154306920Y-69927600D03*
X154306920Y-70427600D03*
X154306920Y-70927600D03*
X154306920Y-71427600D03*
X154306920Y-71927600D03*
X154306920Y-72427600D03*
X154306920Y-72927600D03*
X154306920Y-73427600D03*
X146407520Y-73427600D03*
X146407520Y-72927600D03*
X146407520Y-72427600D03*
X146407520Y-71927600D03*
X146407520Y-71427600D03*
X146407520Y-70927600D03*
X146407520Y-70427600D03*
X146407520Y-69927600D03*
X146407520Y-69427600D03*
X146407520Y-68927600D03*
X146407520Y-68427600D03*
X146407520Y-67927600D03*
X146407520Y-67427600D03*
X146407520Y-66927600D03*
X146407520Y-66427600D03*
X146407520Y-65927600D03*
X146407520Y-65427600D03*
X146407520Y-64927600D03*
X146407520Y-64427600D03*
X146407520Y-63927600D03*
X146407520Y-63427600D03*
X146407520Y-62927600D03*
X146407520Y-62427600D03*
X146407520Y-61927600D03*
%TD*%
D15*
%TO.C,C20*%
X144447520Y-72129800D03*
X144447520Y-73879800D03*
%TD*%
D16*
%TO.C,C22*%
X132397520Y-82257600D03*
X132397520Y-80507600D03*
%TD*%
D15*
%TO.C,C18*%
X144487520Y-81907600D03*
X144487520Y-83657600D03*
%TD*%
%TO.C,C24*%
X156497520Y-82297600D03*
X156497520Y-84047600D03*
%TD*%
D16*
%TO.C,C19*%
X144187520Y-79197600D03*
X144187520Y-77447600D03*
%TD*%
D14*
%TO.C,U5*%
X154306920Y-75477600D03*
X154306920Y-75977600D03*
X154306920Y-76477600D03*
X154306920Y-76977600D03*
X154306920Y-77477600D03*
X154306920Y-77977600D03*
X154306920Y-78477600D03*
X154306920Y-78977600D03*
X154306920Y-79477600D03*
X154306920Y-79977600D03*
X154306920Y-80477600D03*
X154306920Y-80977600D03*
X154306920Y-81477600D03*
X154306920Y-81977600D03*
X154306920Y-82477600D03*
X154306920Y-82977600D03*
X154306920Y-83477600D03*
X154306920Y-83977600D03*
X154306920Y-84477600D03*
X154306920Y-84977600D03*
X154306920Y-85477600D03*
X154306920Y-85977600D03*
X154306920Y-86477600D03*
X154306920Y-86977600D03*
X146407520Y-86977600D03*
X146407520Y-86477600D03*
X146407520Y-85977600D03*
X146407520Y-85477600D03*
X146407520Y-84977600D03*
X146407520Y-84477600D03*
X146407520Y-83977600D03*
X146407520Y-83477600D03*
X146407520Y-82977600D03*
X146407520Y-82477600D03*
X146407520Y-81977600D03*
X146407520Y-81477600D03*
X146407520Y-80977600D03*
X146407520Y-80477600D03*
X146407520Y-79977600D03*
X146407520Y-79477600D03*
X146407520Y-78977600D03*
X146407520Y-78477600D03*
X146407520Y-77977600D03*
X146407520Y-77477600D03*
X146407520Y-76977600D03*
X146407520Y-76477600D03*
X146407520Y-75977600D03*
X146407520Y-75477600D03*
%TD*%
D13*
%TO.C,U4*%
X134588120Y-73427600D03*
X134588120Y-72927600D03*
X134588120Y-72427600D03*
X134588120Y-71927600D03*
X134588120Y-71427600D03*
X134588120Y-70927600D03*
X134588120Y-70427600D03*
X134588120Y-69927600D03*
X134588120Y-69427600D03*
X134588120Y-68927600D03*
X134588120Y-68427600D03*
X134588120Y-67927600D03*
X134588120Y-67427600D03*
X134588120Y-66927600D03*
X134588120Y-66427600D03*
X134588120Y-65927600D03*
X134588120Y-65427600D03*
X134588120Y-64927600D03*
X134588120Y-64427600D03*
X134588120Y-63927600D03*
X134588120Y-63427600D03*
X134588120Y-62927600D03*
X134588120Y-62427600D03*
X134588120Y-61927600D03*
X142487520Y-61927600D03*
X142487520Y-62427600D03*
X142487520Y-62927600D03*
X142487520Y-63427600D03*
X142487520Y-63927600D03*
X142487520Y-64427600D03*
X142487520Y-64927600D03*
X142487520Y-65427600D03*
X142487520Y-65927600D03*
X142487520Y-66427600D03*
X142487520Y-66927600D03*
X142487520Y-67427600D03*
X142487520Y-67927600D03*
X142487520Y-68427600D03*
X142487520Y-68927600D03*
X142487520Y-69427600D03*
X142487520Y-69927600D03*
X142487520Y-70427600D03*
X142487520Y-70927600D03*
X142487520Y-71427600D03*
X142487520Y-71927600D03*
X142487520Y-72427600D03*
X142487520Y-72927600D03*
X142487520Y-73427600D03*
%TD*%
D15*
%TO.C,C21*%
X132397520Y-65157600D03*
X132397520Y-66907600D03*
%TD*%
%TO.C,C23*%
X156497520Y-65807600D03*
X156497520Y-67557600D03*
%TD*%
D17*
%TO.C,U7*%
X144447520Y-57790200D03*
X143177520Y-57790200D03*
X141907520Y-57790200D03*
X140637520Y-57790200D03*
X139367520Y-57790200D03*
X138097520Y-57790200D03*
X136827520Y-57790200D03*
X135557520Y-57790200D03*
X134287520Y-57790200D03*
X133017520Y-57790200D03*
X131747520Y-57790200D03*
D18*
X127785120Y-61752600D03*
X127785120Y-63022600D03*
X127785120Y-64292600D03*
X127785120Y-65562600D03*
X127785120Y-66832600D03*
X127785120Y-68102600D03*
X127785120Y-69372600D03*
X127785120Y-70642600D03*
X127785120Y-71912600D03*
X127785120Y-73182600D03*
X127785120Y-74452600D03*
X127785120Y-75722600D03*
X127785120Y-76992600D03*
X127785120Y-78262600D03*
X127785120Y-79532600D03*
X127785120Y-80802600D03*
X127785120Y-82072600D03*
X127785120Y-83342600D03*
X127785120Y-84612600D03*
X127785120Y-85882600D03*
X127785120Y-87152600D03*
D17*
X131747520Y-91115000D03*
X133017520Y-91115000D03*
X134287520Y-91115000D03*
X135557520Y-91115000D03*
X136827520Y-91115000D03*
X138097520Y-91115000D03*
X139367520Y-91115000D03*
X140637520Y-91115000D03*
X141907520Y-91115000D03*
X143177520Y-91115000D03*
X144447520Y-91115000D03*
X145717520Y-91115000D03*
X146987520Y-91115000D03*
X148257520Y-91115000D03*
X149527520Y-91115000D03*
X150797520Y-91115000D03*
X152067520Y-91115000D03*
X153337520Y-91115000D03*
X154607520Y-91115000D03*
X155877520Y-91115000D03*
X157147520Y-91115000D03*
D18*
X161109920Y-87152600D03*
X161109920Y-85882600D03*
X161109920Y-84612600D03*
X161109920Y-83342600D03*
X161109920Y-82072600D03*
X161109920Y-80802600D03*
X161109920Y-79532600D03*
X161109920Y-78262600D03*
X161109920Y-76992600D03*
X161109920Y-75722600D03*
X161109920Y-74452600D03*
X161109920Y-73182600D03*
X161109920Y-71912600D03*
X161109920Y-70642600D03*
X161109920Y-69372600D03*
X161109920Y-68102600D03*
X161109920Y-66832600D03*
X161109920Y-65562600D03*
X161109920Y-64292600D03*
X161109920Y-63022600D03*
X161109920Y-61752600D03*
D17*
X157147520Y-57790200D03*
X155877520Y-57790200D03*
X154607520Y-57790200D03*
X153337520Y-57790200D03*
X152067520Y-57790200D03*
X150797520Y-57790200D03*
X149527520Y-57790200D03*
X148257520Y-57790200D03*
X146987520Y-57790200D03*
X145717520Y-57790200D03*
%TD*%
M02*
