%TF.GenerationSoftware,KiCad,Pcbnew,8.0.6*%
%TF.CreationDate,2025-04-08T14:13:57+02:00*%
%TF.ProjectId,ReSDMAC,52655344-4d41-4432-9e6b-696361645f70,rev?*%
%TF.SameCoordinates,Original*%
%TF.FileFunction,Copper,L3,Inr*%
%TF.FilePolarity,Positive*%
%FSLAX46Y46*%
G04 Gerber Fmt 4.6, Leading zero omitted, Abs format (unit mm)*
G04 Created by KiCad (PCBNEW 8.0.6) date 2025-04-08 14:13:57*
%MOMM*%
%LPD*%
G01*
G04 APERTURE LIST*
%TA.AperFunction,ComponentPad*%
%ADD10O,1.500000X1.500000*%
%TD*%
%TA.AperFunction,ComponentPad*%
%ADD11R,0.800000X1.300000*%
%TD*%
%TA.AperFunction,ComponentPad*%
%ADD12R,1.300000X0.800000*%
%TD*%
%TA.AperFunction,ViaPad*%
%ADD13C,0.800000*%
%TD*%
%TA.AperFunction,ViaPad*%
%ADD14C,0.500000*%
%TD*%
%TA.AperFunction,ViaPad*%
%ADD15C,0.450000*%
%TD*%
%TA.AperFunction,Conductor*%
%ADD16C,0.500000*%
%TD*%
%TA.AperFunction,Conductor*%
%ADD17C,0.150000*%
%TD*%
G04 APERTURE END LIST*
D10*
%TO.N,*%
%TO.C,U8*%
X132382520Y-62387600D03*
X132382520Y-86517600D03*
X156512520Y-62387600D03*
X156512520Y-86517600D03*
D11*
%TO.N,D0*%
X144447520Y-59407100D03*
%TO.N,D1*%
X143177520Y-59407100D03*
%TO.N,D2*%
X141907520Y-59407100D03*
%TO.N,D3*%
X140637520Y-59407100D03*
%TO.N,D4*%
X139367520Y-59407100D03*
%TO.N,D5*%
X138097520Y-59407100D03*
%TO.N,D6*%
X136827520Y-59407100D03*
%TO.N,D7*%
X135557520Y-59407100D03*
%TO.N,D8*%
X134287520Y-59407100D03*
%TO.N,D9*%
X133017520Y-59407100D03*
%TO.N,D10*%
X131747520Y-59407100D03*
D12*
%TO.N,D11*%
X129402020Y-61752600D03*
%TO.N,D12*%
X129402020Y-63022600D03*
%TO.N,D13*%
X129402020Y-64292600D03*
%TO.N,D14*%
X129402020Y-65562600D03*
%TO.N,D15*%
X129402020Y-66832600D03*
%TO.N,D16*%
X129402020Y-68102600D03*
%TO.N,D17*%
X129402020Y-69372600D03*
%TO.N,D18*%
X129402020Y-70642600D03*
%TO.N,D19*%
X129402020Y-71912600D03*
%TO.N,VCC*%
X129402020Y-73182600D03*
%TO.N,D20*%
X129402020Y-74452600D03*
%TO.N,D21*%
X129402020Y-75722600D03*
%TO.N,D22*%
X129402020Y-76992600D03*
%TO.N,D23*%
X129402020Y-78262600D03*
%TO.N,D24*%
X129402020Y-79532600D03*
%TO.N,D25*%
X129402020Y-80802600D03*
%TO.N,D26*%
X129402020Y-82072600D03*
%TO.N,D27*%
X129402020Y-83342600D03*
%TO.N,D28*%
X129402020Y-84612600D03*
%TO.N,D29*%
X129402020Y-85882600D03*
%TO.N,D30*%
X129402020Y-87152600D03*
D11*
%TO.N,D31*%
X131747520Y-89498100D03*
%TO.N,INTB*%
X133017520Y-89498100D03*
%TO.N,INT2*%
X134287520Y-89498100D03*
%TO.N,SIZ1*%
X135557120Y-89498100D03*
%TO.N,RW*%
X136827520Y-89498100D03*
%TO.N,AS*%
X138097520Y-89498100D03*
%TO.N,DS*%
X139367520Y-89498100D03*
%TO.N,DSACK1*%
X140637520Y-89498100D03*
%TO.N,DSACK0*%
X141907520Y-89498100D03*
%TO.N,GND*%
X143177520Y-89498100D03*
%TO.N,STERM*%
X144447520Y-89498100D03*
%TO.N,CPUCLK*%
X145717520Y-89498100D03*
%TO.N,SCSI*%
X146987520Y-89498100D03*
%TO.N,IORST*%
X148257520Y-89498100D03*
%TO.N,BERR*%
X149527520Y-89498100D03*
%TO.N,PD0*%
X150797520Y-89498100D03*
%TO.N,PD1*%
X152067520Y-89498100D03*
%TO.N,PD2*%
X153337520Y-89498100D03*
%TO.N,PD3*%
X154607520Y-89498100D03*
%TO.N,PD4*%
X155877520Y-89498100D03*
%TO.N,PD5*%
X157147520Y-89498100D03*
D12*
%TO.N,PD6*%
X159493020Y-87152600D03*
%TO.N,PD7*%
X159493020Y-85882600D03*
%TO.N,PD8*%
X159493020Y-84612600D03*
%TO.N,PD9*%
X159493020Y-83342600D03*
%TO.N,PD10*%
X159493020Y-82072600D03*
%TO.N,PD11*%
X159493020Y-80802600D03*
%TO.N,PD12*%
X159493020Y-79532600D03*
%TO.N,PD13*%
X159493020Y-78262600D03*
%TO.N,PD14*%
X159493020Y-76992600D03*
%TO.N,VCC*%
X159493020Y-75722600D03*
%TO.N,PD15*%
X159493020Y-74452600D03*
%TO.N,DREQ*%
X159493020Y-73182600D03*
%TO.N,DACK*%
X159493020Y-71912600D03*
%TO.N,CSS*%
X159493020Y-70642600D03*
%TO.N,IOW*%
X159493020Y-69372600D03*
%TO.N,IOR*%
X159493020Y-68102600D03*
%TO.N,CSX0*%
X159493020Y-66832600D03*
%TO.N,CSX1*%
X159493020Y-65562600D03*
%TO.N,IORDY*%
X159493020Y-64292600D03*
%TO.N,INTA*%
X159493020Y-63022600D03*
%TO.N,INC_ADD*%
X159493020Y-61752600D03*
D11*
%TO.N,DMAEN*%
X157147520Y-59407100D03*
%TO.N,A2*%
X155877520Y-59407100D03*
%TO.N,A3*%
X154607520Y-59407100D03*
%TO.N,A4*%
X153337520Y-59407100D03*
%TO.N,A5*%
X152067520Y-59407100D03*
%TO.N,A6*%
X150797520Y-59407100D03*
%TO.N,SBR*%
X149527520Y-59407100D03*
%TO.N,SBG*%
X148257520Y-59407100D03*
%TO.N,BGACK*%
X146987520Y-59407100D03*
%TO.N,GND*%
X145717520Y-59407100D03*
%TD*%
D13*
%TO.N,VCC*%
X131264920Y-66388100D03*
D14*
X157097520Y-85102600D03*
D13*
X131264920Y-67251700D03*
X156197520Y-85082600D03*
D14*
X157297520Y-67702600D03*
X133197520Y-79902600D03*
D13*
X132397520Y-79542600D03*
X157137520Y-66802600D03*
D15*
%TO.N,GND*%
X144847520Y-80582600D03*
X143367520Y-83062600D03*
X140047520Y-78182600D03*
X145647520Y-75782600D03*
D13*
X130697520Y-84572600D03*
D15*
X144947520Y-79882600D03*
X143247520Y-78982600D03*
D14*
X133737520Y-78962600D03*
D13*
X143547520Y-69502600D03*
X150517520Y-84442600D03*
D15*
X150897520Y-78592600D03*
D13*
X148557520Y-70732600D03*
X156067520Y-70372600D03*
X155427520Y-67502600D03*
X143177520Y-60992600D03*
D15*
X141557520Y-81282600D03*
X142657520Y-73932600D03*
X143367520Y-78102600D03*
X145647520Y-78982600D03*
X144847520Y-81382600D03*
D13*
X130997520Y-65062600D03*
D15*
X140847520Y-75782600D03*
X147317520Y-76512600D03*
X143247520Y-74982600D03*
D14*
X155882520Y-78977600D03*
D13*
X133527520Y-84922600D03*
D14*
X145297520Y-69452600D03*
D13*
X133787520Y-74622600D03*
X143917520Y-85362600D03*
X133297520Y-65972600D03*
D15*
X146377520Y-74912600D03*
D14*
X136187520Y-60732600D03*
D13*
X144457520Y-62182600D03*
X143547520Y-70442600D03*
X158197520Y-64202600D03*
X133487520Y-69732600D03*
D14*
X155322520Y-78977600D03*
X150697520Y-79082600D03*
D15*
X148847520Y-79762600D03*
D13*
X138797520Y-81042600D03*
X156247520Y-81312600D03*
X141017520Y-86662600D03*
D14*
%TO.N,3V3*%
X144047520Y-75842600D03*
X144767520Y-82862600D03*
D15*
X141597520Y-78982600D03*
X143367520Y-76502600D03*
X147327520Y-78862600D03*
X147267520Y-82182600D03*
X147267520Y-75782600D03*
D13*
X144727520Y-85922600D03*
X150887520Y-80542600D03*
D15*
X148017520Y-79752600D03*
X144847520Y-76582600D03*
D14*
X140917520Y-78982600D03*
X144667520Y-73062600D03*
D13*
X145017520Y-86762600D03*
D14*
X144107520Y-73062600D03*
D13*
X138357520Y-80132600D03*
D14*
X144127520Y-82862600D03*
X144117520Y-78252600D03*
X145207520Y-72882600D03*
D13*
X150007520Y-80542600D03*
X138347537Y-79302600D03*
D15*
%TO.N,A6_FPGA*%
X148847520Y-82182600D03*
%TO.N,RW_FPGA*%
X143417520Y-84752600D03*
%TO.N,A5_FPGA*%
X148847520Y-82982600D03*
%TO.N,A4_FPGA*%
X150637520Y-83672600D03*
%TO.N,A3_FPGA*%
X148847520Y-83782600D03*
%TO.N,A2_FPGA*%
X149567520Y-82902600D03*
%TO.N,AS_FPGA*%
X143367520Y-83862600D03*
%TO.N,TDI*%
X145037520Y-77492600D03*
D14*
X155697520Y-69262600D03*
D15*
%TO.N,TMS*%
X145417520Y-73572600D03*
D14*
X144627520Y-67332600D03*
D15*
%TO.N,TDO*%
X145547520Y-78252600D03*
D14*
X145357520Y-66622600D03*
D15*
%TO.N,TCK*%
X144847520Y-74982600D03*
D14*
X145257520Y-68312600D03*
D15*
%TO.N,nSTATUS*%
X148047520Y-76562600D03*
D14*
X157777520Y-77002600D03*
%TO.N,CONF_DONE*%
X157097520Y-76652600D03*
D15*
X147967520Y-77482600D03*
%TO.N,CSS_FPGA*%
X147607520Y-73462600D03*
%TO.N,DACK_FPGA*%
X146907520Y-73982600D03*
%TO.N,DREQ_FPGA*%
X145627520Y-74202600D03*
%TO.N,D20_FPGA*%
X142047520Y-74002600D03*
%TO.N,D18_FPGA*%
X141647520Y-74982600D03*
%TO.N,D17_FPGA*%
X140927520Y-74262600D03*
%TO.N,CSX0_FPGA*%
X148887520Y-75022600D03*
%TO.N,IOR_FPGA*%
X148087520Y-75022600D03*
%TO.N,IOW_FPGA*%
X148017520Y-75752600D03*
%TO.N,D22_FPGA*%
X143357520Y-75672600D03*
%TO.N,D21_FPGA*%
X142447520Y-74982600D03*
%TO.N,D19_FPGA*%
X143167520Y-74262600D03*
%TO.N,D23_FPGA*%
X141597520Y-75732600D03*
%TO.N,D16_FPGA*%
X140597520Y-73442600D03*
%TO.N,CSX1_FPGA*%
X148847520Y-75762600D03*
%TO.N,PD15_FPGA*%
X145727520Y-76472600D03*
%TO.N,D1_FPGA*%
X140047520Y-75782600D03*
%TO.N,IORDY_FPGA*%
X149657520Y-76582600D03*
%TO.N,D24_FPGA*%
X140847520Y-76582600D03*
%TO.N,D26_FPGA*%
X140847520Y-77382600D03*
%TO.N,D2_FPGA*%
X140047520Y-76582600D03*
%TO.N,D0_FPGA*%
X148847520Y-78182600D03*
%TO.N,PD14_FPGA*%
X148757520Y-76682600D03*
%TO.N,D25_FPGA*%
X141617520Y-77412600D03*
%TO.N,D27_FPGA*%
X140847520Y-78182600D03*
%TO.N,D3_FPGA*%
X140047520Y-77382600D03*
%TO.N,PD11_FPGA*%
X147267520Y-78182600D03*
%TO.N,PD12_FPGA*%
X148047520Y-78182600D03*
%TO.N,D4_FPGA*%
X139327520Y-78262600D03*
%TO.N,INTA_FPGA*%
X149977520Y-79102600D03*
%TO.N,BGACK_FPGA*%
X149657520Y-78172600D03*
%TO.N,D28_FPGA*%
X140737520Y-79702600D03*
%TO.N,D5_FPGA*%
X138827520Y-77682600D03*
%TO.N,INC_ADD_FPGA*%
X150377520Y-79652600D03*
%TO.N,D29_FPGA*%
X141737520Y-79892600D03*
%TO.N,D30_FPGA*%
X140847520Y-80582600D03*
%TO.N,D15_FPGA*%
X140847520Y-74982600D03*
%TO.N,DMAEN_FPGA*%
X150407520Y-81332600D03*
%TO.N,PD7_FPGA*%
X148137520Y-80672600D03*
%TO.N,PD8_FPGA*%
X147247520Y-80582600D03*
%TO.N,PD9_FPGA*%
X145537520Y-80652600D03*
%TO.N,INTB_FPGA*%
X144047520Y-80582600D03*
%TO.N,D31_FPGA*%
X140797520Y-81332600D03*
%TO.N,D6_FPGA*%
X140047520Y-80582600D03*
%TO.N,PD6_FPGA*%
X147327520Y-81502600D03*
%TO.N,PD5_FPGA*%
X145597520Y-82132600D03*
%TO.N,STERM_FPGA*%
X140847520Y-82182600D03*
%TO.N,D13_FPGA*%
X140047520Y-81382600D03*
%TO.N,D12_FPGA*%
X139967520Y-82102600D03*
%TO.N,PD4_FPGA*%
X148047520Y-82182600D03*
%TO.N,D11_FPGA*%
X140117520Y-82872600D03*
%TO.N,D10_FPGA*%
X139117520Y-82902600D03*
%TO.N,PD0_FPGA*%
X147307520Y-83722600D03*
%TO.N,PD3_FPGA*%
X147177520Y-83082600D03*
%TO.N,BERR_FPGA*%
X145557520Y-83722600D03*
%TO.N,DSACK1_FPGA*%
X141647520Y-82982600D03*
%TO.N,D7_FPGA*%
X140847520Y-83782600D03*
%TO.N,D8_FPGA*%
X140047520Y-83782600D03*
%TO.N,D9_FPGA*%
X139247520Y-83782600D03*
%TO.N,PD2_FPGA*%
X148847520Y-84582600D03*
%TO.N,PD1_FPGA*%
X148047520Y-83782600D03*
%TO.N,CPUCLK_FPGA*%
X145567520Y-84482600D03*
%TO.N,SCSI_FPGA*%
X147277520Y-84652600D03*
%TO.N,IORST_FPGA*%
X145557520Y-85122600D03*
%TO.N,DS_FPGA*%
X141647520Y-83782600D03*
%TO.N,INT2_FPGA*%
X141567520Y-84582600D03*
%TO.N,SIZ1_FPGA*%
X140847520Y-84582600D03*
%TO.N,SBR_FPGA*%
X149957520Y-81842600D03*
%TO.N,PD13_FPGA*%
X145657520Y-77392600D03*
D13*
%TO.N,CPUCLK*%
X151902420Y-86301700D03*
D14*
%TO.N,PD10*%
X156627520Y-78977600D03*
D15*
%TO.N,DSACK0_FPGA*%
X141647520Y-82202600D03*
%TO.N,TP1*%
X140847520Y-82982600D03*
D14*
X130591820Y-76357600D03*
%TO.N,JP1*%
X152357520Y-65562600D03*
D15*
X148887520Y-74032600D03*
%TO.N,nCONFIG*%
X147267520Y-79782600D03*
D14*
X157097520Y-77352600D03*
D15*
%TO.N,D14_FPGA*%
X140047520Y-79782600D03*
%TO.N,SBG_FPGA*%
X148847520Y-78982600D03*
%TO.N,PD10_FPGA*%
X148047520Y-78982600D03*
%TD*%
D16*
%TO.N,3V3*%
X138667537Y-78982600D02*
X138347537Y-79302600D01*
X140917520Y-78982600D02*
X141597520Y-78982600D01*
X140917520Y-78982600D02*
X138667537Y-78982600D01*
D17*
%TO.N,TDI*%
X145037520Y-77174402D02*
X145279322Y-76932600D01*
X147847520Y-74532600D02*
X150427520Y-74532600D01*
X145279322Y-76932600D02*
X146157520Y-76932600D01*
X146337520Y-76042600D02*
X147847520Y-74532600D01*
X150427520Y-74532600D02*
X155697520Y-69262600D01*
X145037520Y-77492600D02*
X145037520Y-77174402D01*
X146337520Y-76752600D02*
X146337520Y-76042600D01*
X146157520Y-76932600D02*
X146337520Y-76752600D01*
%TO.N,TMS*%
X144627520Y-70296878D02*
X145807500Y-71476858D01*
X144627520Y-67332600D02*
X144627520Y-70296878D01*
X145807500Y-73182620D02*
X145417520Y-73572600D01*
X145807500Y-71476858D02*
X145807500Y-73182620D01*
%TO.N,TDO*%
X145847520Y-75172600D02*
X146157520Y-75482600D01*
X147597530Y-68862610D02*
X145357520Y-66622600D01*
X148307520Y-73642600D02*
X148307520Y-72422600D01*
X144997520Y-78252600D02*
X144307520Y-77562600D01*
X148307520Y-72422600D02*
X147597530Y-71712610D01*
X146157520Y-75482600D02*
X146467520Y-75482600D01*
X146467520Y-75482600D02*
X148307520Y-73642600D01*
X145477520Y-75172600D02*
X145847520Y-75172600D01*
X144307520Y-76342600D02*
X145477520Y-75172600D01*
X144307520Y-77562600D02*
X144307520Y-76342600D01*
X147597530Y-71712610D02*
X147597530Y-68862610D01*
X145547520Y-78252600D02*
X144997520Y-78252600D01*
%TO.N,TCK*%
X144847520Y-74982600D02*
X145127520Y-74702600D01*
X146107510Y-69162590D02*
X145257520Y-68312600D01*
X146107510Y-74402610D02*
X146107510Y-69162590D01*
X145127520Y-74702600D02*
X145807520Y-74702600D01*
X145807520Y-74702600D02*
X146107510Y-74402610D01*
%TO.N,nSTATUS*%
X148047520Y-76638602D02*
X148047520Y-76562600D01*
X157290522Y-76142600D02*
X156717520Y-76142600D01*
X156717520Y-76142600D02*
X155697530Y-77162590D01*
X157777520Y-76629598D02*
X157290522Y-76142600D01*
X157777520Y-77002600D02*
X157777520Y-76629598D01*
X155697530Y-77162590D02*
X148571508Y-77162590D01*
X148571508Y-77162590D02*
X148047520Y-76638602D01*
%TO.N,CONF_DONE*%
X156287520Y-77462600D02*
X157097520Y-76652600D01*
X156287520Y-77462600D02*
X147987520Y-77462600D01*
X147987520Y-77462600D02*
X147967520Y-77482600D01*
%TO.N,TP1*%
X130591820Y-76357600D02*
X130591820Y-78897600D01*
X133796820Y-82102600D02*
X138983522Y-82102600D01*
X140507519Y-83322601D02*
X140847520Y-82982600D01*
X139827521Y-83322601D02*
X140507519Y-83322601D01*
X130591820Y-78897600D02*
X133796820Y-82102600D01*
X139617520Y-83112600D02*
X139827521Y-83322601D01*
X139617520Y-82736598D02*
X139617520Y-83112600D01*
X138983522Y-82102600D02*
X139617520Y-82736598D01*
%TO.N,JP1*%
X152357520Y-65562600D02*
X152357520Y-70562600D01*
X152357520Y-70562600D02*
X148887520Y-74032600D01*
%TO.N,nCONFIG*%
X156687510Y-77762610D02*
X157097520Y-77352600D01*
X150817510Y-77762610D02*
X156687510Y-77762610D01*
X148977520Y-80382600D02*
X149437520Y-79922600D01*
X148487520Y-80212600D02*
X148657520Y-80382600D01*
X147697520Y-80212600D02*
X148487520Y-80212600D01*
X149617520Y-78632600D02*
X149947520Y-78632600D01*
X149947520Y-78632600D02*
X150817510Y-77762610D01*
X148657520Y-80382600D02*
X148977520Y-80382600D01*
X149437520Y-79922600D02*
X149437520Y-78812600D01*
X149437520Y-78812600D02*
X149617520Y-78632600D01*
X147267520Y-79782600D02*
X147697520Y-80212600D01*
%TD*%
%TA.AperFunction,Conductor*%
%TO.N,VCC*%
G36*
X163185020Y-55587648D02*
G01*
X163212472Y-55615100D01*
X163222520Y-55652600D01*
X163222521Y-93152600D01*
X163212473Y-93190100D01*
X163185021Y-93217552D01*
X163147521Y-93227600D01*
X125647520Y-93227600D01*
X125610020Y-93217552D01*
X125582568Y-93190100D01*
X125572520Y-93152600D01*
X125572520Y-88851785D01*
X131196432Y-88851785D01*
X131196432Y-90144414D01*
X131199691Y-90177507D01*
X131208267Y-90205777D01*
X131222197Y-90231839D01*
X131240941Y-90254678D01*
X131263780Y-90273422D01*
X131289842Y-90287352D01*
X131318112Y-90295928D01*
X131351205Y-90299188D01*
X132143835Y-90299188D01*
X132176927Y-90295928D01*
X132205197Y-90287352D01*
X132231259Y-90273422D01*
X132254098Y-90254678D01*
X132272842Y-90231839D01*
X132286772Y-90205777D01*
X132295348Y-90177507D01*
X132298608Y-90144414D01*
X132298608Y-88851785D01*
X132466432Y-88851785D01*
X132466432Y-90144414D01*
X132469691Y-90177507D01*
X132478267Y-90205777D01*
X132492197Y-90231839D01*
X132510941Y-90254678D01*
X132533780Y-90273422D01*
X132559842Y-90287352D01*
X132588112Y-90295928D01*
X132621205Y-90299188D01*
X133413835Y-90299188D01*
X133446927Y-90295928D01*
X133475197Y-90287352D01*
X133501259Y-90273422D01*
X133524098Y-90254678D01*
X133542842Y-90231839D01*
X133556772Y-90205777D01*
X133565348Y-90177507D01*
X133568608Y-90144414D01*
X133568608Y-88851785D01*
X133736432Y-88851785D01*
X133736432Y-90144414D01*
X133739691Y-90177507D01*
X133748267Y-90205777D01*
X133762197Y-90231839D01*
X133780941Y-90254678D01*
X133803780Y-90273422D01*
X133829842Y-90287352D01*
X133858112Y-90295928D01*
X133891205Y-90299188D01*
X134683835Y-90299188D01*
X134716927Y-90295928D01*
X134745197Y-90287352D01*
X134771259Y-90273422D01*
X134794098Y-90254678D01*
X134812842Y-90231839D01*
X134826772Y-90205777D01*
X134835348Y-90177507D01*
X134838608Y-90144414D01*
X134838608Y-88851785D01*
X135006032Y-88851785D01*
X135006032Y-90144414D01*
X135009291Y-90177507D01*
X135017867Y-90205777D01*
X135031797Y-90231839D01*
X135050541Y-90254678D01*
X135073380Y-90273422D01*
X135099442Y-90287352D01*
X135127712Y-90295928D01*
X135160805Y-90299188D01*
X135953435Y-90299188D01*
X135986527Y-90295928D01*
X136014797Y-90287352D01*
X136040859Y-90273422D01*
X136063698Y-90254678D01*
X136082442Y-90231839D01*
X136096372Y-90205777D01*
X136104948Y-90177507D01*
X136108208Y-90144414D01*
X136108208Y-88851785D01*
X136276432Y-88851785D01*
X136276432Y-90144414D01*
X136279691Y-90177507D01*
X136288267Y-90205777D01*
X136302197Y-90231839D01*
X136320941Y-90254678D01*
X136343780Y-90273422D01*
X136369842Y-90287352D01*
X136398112Y-90295928D01*
X136431205Y-90299188D01*
X137223835Y-90299188D01*
X137256927Y-90295928D01*
X137285197Y-90287352D01*
X137311259Y-90273422D01*
X137334098Y-90254678D01*
X137352842Y-90231839D01*
X137366772Y-90205777D01*
X137375348Y-90177507D01*
X137378608Y-90144414D01*
X137378608Y-88851785D01*
X137546432Y-88851785D01*
X137546432Y-90144414D01*
X137549691Y-90177507D01*
X137558267Y-90205777D01*
X137572197Y-90231839D01*
X137590941Y-90254678D01*
X137613780Y-90273422D01*
X137639842Y-90287352D01*
X137668112Y-90295928D01*
X137701205Y-90299188D01*
X138493835Y-90299188D01*
X138526927Y-90295928D01*
X138555197Y-90287352D01*
X138581259Y-90273422D01*
X138604098Y-90254678D01*
X138622842Y-90231839D01*
X138636772Y-90205777D01*
X138645348Y-90177507D01*
X138648608Y-90144414D01*
X138648608Y-88851785D01*
X138816432Y-88851785D01*
X138816432Y-90144414D01*
X138819691Y-90177507D01*
X138828267Y-90205777D01*
X138842197Y-90231839D01*
X138860941Y-90254678D01*
X138883780Y-90273422D01*
X138909842Y-90287352D01*
X138938112Y-90295928D01*
X138971205Y-90299188D01*
X139763835Y-90299188D01*
X139796927Y-90295928D01*
X139825197Y-90287352D01*
X139851259Y-90273422D01*
X139874098Y-90254678D01*
X139892842Y-90231839D01*
X139906772Y-90205777D01*
X139915348Y-90177507D01*
X139918608Y-90144414D01*
X139918608Y-88851785D01*
X140086432Y-88851785D01*
X140086432Y-90144414D01*
X140089691Y-90177507D01*
X140098267Y-90205777D01*
X140112197Y-90231839D01*
X140130941Y-90254678D01*
X140153780Y-90273422D01*
X140179842Y-90287352D01*
X140208112Y-90295928D01*
X140241205Y-90299188D01*
X141033835Y-90299188D01*
X141066927Y-90295928D01*
X141095197Y-90287352D01*
X141121259Y-90273422D01*
X141144098Y-90254678D01*
X141162842Y-90231839D01*
X141176772Y-90205777D01*
X141185348Y-90177507D01*
X141188608Y-90144414D01*
X141188608Y-88851785D01*
X141356432Y-88851785D01*
X141356432Y-90144414D01*
X141359691Y-90177507D01*
X141368267Y-90205777D01*
X141382197Y-90231839D01*
X141400941Y-90254678D01*
X141423780Y-90273422D01*
X141449842Y-90287352D01*
X141478112Y-90295928D01*
X141511205Y-90299188D01*
X142303835Y-90299188D01*
X142336927Y-90295928D01*
X142365197Y-90287352D01*
X142391259Y-90273422D01*
X142414098Y-90254678D01*
X142432842Y-90231839D01*
X142446772Y-90205777D01*
X142455348Y-90177507D01*
X142458608Y-90144414D01*
X142458608Y-88851785D01*
X142626432Y-88851785D01*
X142626432Y-90144414D01*
X142629691Y-90177507D01*
X142638267Y-90205777D01*
X142652197Y-90231839D01*
X142670941Y-90254678D01*
X142693780Y-90273422D01*
X142719842Y-90287352D01*
X142748112Y-90295928D01*
X142781205Y-90299188D01*
X143573835Y-90299188D01*
X143606927Y-90295928D01*
X143635197Y-90287352D01*
X143661259Y-90273422D01*
X143684098Y-90254678D01*
X143702842Y-90231839D01*
X143716772Y-90205777D01*
X143725348Y-90177507D01*
X143728608Y-90144414D01*
X143728608Y-88851785D01*
X143896432Y-88851785D01*
X143896432Y-90144414D01*
X143899691Y-90177507D01*
X143908267Y-90205777D01*
X143922197Y-90231839D01*
X143940941Y-90254678D01*
X143963780Y-90273422D01*
X143989842Y-90287352D01*
X144018112Y-90295928D01*
X144051205Y-90299188D01*
X144843835Y-90299188D01*
X144876927Y-90295928D01*
X144905197Y-90287352D01*
X144931259Y-90273422D01*
X144954098Y-90254678D01*
X144972842Y-90231839D01*
X144986772Y-90205777D01*
X144995348Y-90177507D01*
X144998608Y-90144414D01*
X144998608Y-88851785D01*
X145166432Y-88851785D01*
X145166432Y-90144414D01*
X145169691Y-90177507D01*
X145178267Y-90205777D01*
X145192197Y-90231839D01*
X145210941Y-90254678D01*
X145233780Y-90273422D01*
X145259842Y-90287352D01*
X145288112Y-90295928D01*
X145321205Y-90299188D01*
X146113835Y-90299188D01*
X146146927Y-90295928D01*
X146175197Y-90287352D01*
X146201259Y-90273422D01*
X146224098Y-90254678D01*
X146242842Y-90231839D01*
X146256772Y-90205777D01*
X146265348Y-90177507D01*
X146268608Y-90144414D01*
X146268608Y-88851785D01*
X146436432Y-88851785D01*
X146436432Y-90144414D01*
X146439691Y-90177507D01*
X146448267Y-90205777D01*
X146462197Y-90231839D01*
X146480941Y-90254678D01*
X146503780Y-90273422D01*
X146529842Y-90287352D01*
X146558112Y-90295928D01*
X146591205Y-90299188D01*
X147383835Y-90299188D01*
X147416927Y-90295928D01*
X147445197Y-90287352D01*
X147471259Y-90273422D01*
X147494098Y-90254678D01*
X147512842Y-90231839D01*
X147526772Y-90205777D01*
X147535348Y-90177507D01*
X147538608Y-90144414D01*
X147538608Y-88851785D01*
X147706432Y-88851785D01*
X147706432Y-90144414D01*
X147709691Y-90177507D01*
X147718267Y-90205777D01*
X147732197Y-90231839D01*
X147750941Y-90254678D01*
X147773780Y-90273422D01*
X147799842Y-90287352D01*
X147828112Y-90295928D01*
X147861205Y-90299188D01*
X148653835Y-90299188D01*
X148686927Y-90295928D01*
X148715197Y-90287352D01*
X148741259Y-90273422D01*
X148764098Y-90254678D01*
X148782842Y-90231839D01*
X148796772Y-90205777D01*
X148805348Y-90177507D01*
X148808608Y-90144414D01*
X148808608Y-88851785D01*
X148976432Y-88851785D01*
X148976432Y-90144414D01*
X148979691Y-90177507D01*
X148988267Y-90205777D01*
X149002197Y-90231839D01*
X149020941Y-90254678D01*
X149043780Y-90273422D01*
X149069842Y-90287352D01*
X149098112Y-90295928D01*
X149131205Y-90299188D01*
X149923835Y-90299188D01*
X149956927Y-90295928D01*
X149985197Y-90287352D01*
X150011259Y-90273422D01*
X150034098Y-90254678D01*
X150052842Y-90231839D01*
X150066772Y-90205777D01*
X150075348Y-90177507D01*
X150078608Y-90144414D01*
X150078608Y-88851785D01*
X150246432Y-88851785D01*
X150246432Y-90144414D01*
X150249691Y-90177507D01*
X150258267Y-90205777D01*
X150272197Y-90231839D01*
X150290941Y-90254678D01*
X150313780Y-90273422D01*
X150339842Y-90287352D01*
X150368112Y-90295928D01*
X150401205Y-90299188D01*
X151193835Y-90299188D01*
X151226927Y-90295928D01*
X151255197Y-90287352D01*
X151281259Y-90273422D01*
X151304098Y-90254678D01*
X151322842Y-90231839D01*
X151336772Y-90205777D01*
X151345348Y-90177507D01*
X151348608Y-90144414D01*
X151348608Y-88851785D01*
X151516432Y-88851785D01*
X151516432Y-90144414D01*
X151519691Y-90177507D01*
X151528267Y-90205777D01*
X151542197Y-90231839D01*
X151560941Y-90254678D01*
X151583780Y-90273422D01*
X151609842Y-90287352D01*
X151638112Y-90295928D01*
X151671205Y-90299188D01*
X152463835Y-90299188D01*
X152496927Y-90295928D01*
X152525197Y-90287352D01*
X152551259Y-90273422D01*
X152574098Y-90254678D01*
X152592842Y-90231839D01*
X152606772Y-90205777D01*
X152615348Y-90177507D01*
X152618608Y-90144414D01*
X152618608Y-88851785D01*
X152786432Y-88851785D01*
X152786432Y-90144414D01*
X152789691Y-90177507D01*
X152798267Y-90205777D01*
X152812197Y-90231839D01*
X152830941Y-90254678D01*
X152853780Y-90273422D01*
X152879842Y-90287352D01*
X152908112Y-90295928D01*
X152941205Y-90299188D01*
X153733835Y-90299188D01*
X153766927Y-90295928D01*
X153795197Y-90287352D01*
X153821259Y-90273422D01*
X153844098Y-90254678D01*
X153862842Y-90231839D01*
X153876772Y-90205777D01*
X153885348Y-90177507D01*
X153888608Y-90144414D01*
X153888608Y-88851785D01*
X154056432Y-88851785D01*
X154056432Y-90144414D01*
X154059691Y-90177507D01*
X154068267Y-90205777D01*
X154082197Y-90231839D01*
X154100941Y-90254678D01*
X154123780Y-90273422D01*
X154149842Y-90287352D01*
X154178112Y-90295928D01*
X154211205Y-90299188D01*
X155003835Y-90299188D01*
X155036927Y-90295928D01*
X155065197Y-90287352D01*
X155091259Y-90273422D01*
X155114098Y-90254678D01*
X155132842Y-90231839D01*
X155146772Y-90205777D01*
X155155348Y-90177507D01*
X155158608Y-90144414D01*
X155158608Y-88851785D01*
X155326432Y-88851785D01*
X155326432Y-90144414D01*
X155329691Y-90177507D01*
X155338267Y-90205777D01*
X155352197Y-90231839D01*
X155370941Y-90254678D01*
X155393780Y-90273422D01*
X155419842Y-90287352D01*
X155448112Y-90295928D01*
X155481205Y-90299188D01*
X156273835Y-90299188D01*
X156306927Y-90295928D01*
X156335197Y-90287352D01*
X156361259Y-90273422D01*
X156384098Y-90254678D01*
X156402842Y-90231839D01*
X156416772Y-90205777D01*
X156425348Y-90177507D01*
X156428608Y-90144414D01*
X156428608Y-88851785D01*
X156596432Y-88851785D01*
X156596432Y-90144414D01*
X156599691Y-90177507D01*
X156608267Y-90205777D01*
X156622197Y-90231839D01*
X156640941Y-90254678D01*
X156663780Y-90273422D01*
X156689842Y-90287352D01*
X156718112Y-90295928D01*
X156751205Y-90299188D01*
X157543835Y-90299188D01*
X157576927Y-90295928D01*
X157605197Y-90287352D01*
X157631259Y-90273422D01*
X157654098Y-90254678D01*
X157672842Y-90231839D01*
X157686772Y-90205777D01*
X157695348Y-90177507D01*
X157698608Y-90144414D01*
X157698608Y-88851785D01*
X157695348Y-88818692D01*
X157686772Y-88790422D01*
X157672842Y-88764360D01*
X157654098Y-88741521D01*
X157631259Y-88722777D01*
X157605197Y-88708847D01*
X157576927Y-88700271D01*
X157543835Y-88697012D01*
X156751205Y-88697012D01*
X156718112Y-88700271D01*
X156689842Y-88708847D01*
X156663780Y-88722777D01*
X156640941Y-88741521D01*
X156622197Y-88764360D01*
X156608267Y-88790422D01*
X156599691Y-88818692D01*
X156596432Y-88851785D01*
X156428608Y-88851785D01*
X156425348Y-88818692D01*
X156416772Y-88790422D01*
X156402842Y-88764360D01*
X156384098Y-88741521D01*
X156361259Y-88722777D01*
X156335197Y-88708847D01*
X156306927Y-88700271D01*
X156273835Y-88697012D01*
X155481205Y-88697012D01*
X155448112Y-88700271D01*
X155419842Y-88708847D01*
X155393780Y-88722777D01*
X155370941Y-88741521D01*
X155352197Y-88764360D01*
X155338267Y-88790422D01*
X155329691Y-88818692D01*
X155326432Y-88851785D01*
X155158608Y-88851785D01*
X155155348Y-88818692D01*
X155146772Y-88790422D01*
X155132842Y-88764360D01*
X155114098Y-88741521D01*
X155091259Y-88722777D01*
X155065197Y-88708847D01*
X155036927Y-88700271D01*
X155003835Y-88697012D01*
X154211205Y-88697012D01*
X154178112Y-88700271D01*
X154149842Y-88708847D01*
X154123780Y-88722777D01*
X154100941Y-88741521D01*
X154082197Y-88764360D01*
X154068267Y-88790422D01*
X154059691Y-88818692D01*
X154056432Y-88851785D01*
X153888608Y-88851785D01*
X153885348Y-88818692D01*
X153876772Y-88790422D01*
X153862842Y-88764360D01*
X153844098Y-88741521D01*
X153821259Y-88722777D01*
X153795197Y-88708847D01*
X153766927Y-88700271D01*
X153733835Y-88697012D01*
X152941205Y-88697012D01*
X152908112Y-88700271D01*
X152879842Y-88708847D01*
X152853780Y-88722777D01*
X152830941Y-88741521D01*
X152812197Y-88764360D01*
X152798267Y-88790422D01*
X152789691Y-88818692D01*
X152786432Y-88851785D01*
X152618608Y-88851785D01*
X152615348Y-88818692D01*
X152606772Y-88790422D01*
X152592842Y-88764360D01*
X152574098Y-88741521D01*
X152551259Y-88722777D01*
X152525197Y-88708847D01*
X152496927Y-88700271D01*
X152463835Y-88697012D01*
X151671205Y-88697012D01*
X151638112Y-88700271D01*
X151609842Y-88708847D01*
X151583780Y-88722777D01*
X151560941Y-88741521D01*
X151542197Y-88764360D01*
X151528267Y-88790422D01*
X151519691Y-88818692D01*
X151516432Y-88851785D01*
X151348608Y-88851785D01*
X151345348Y-88818692D01*
X151336772Y-88790422D01*
X151322842Y-88764360D01*
X151304098Y-88741521D01*
X151281259Y-88722777D01*
X151255197Y-88708847D01*
X151226927Y-88700271D01*
X151193835Y-88697012D01*
X150401205Y-88697012D01*
X150368112Y-88700271D01*
X150339842Y-88708847D01*
X150313780Y-88722777D01*
X150290941Y-88741521D01*
X150272197Y-88764360D01*
X150258267Y-88790422D01*
X150249691Y-88818692D01*
X150246432Y-88851785D01*
X150078608Y-88851785D01*
X150075348Y-88818692D01*
X150066772Y-88790422D01*
X150052842Y-88764360D01*
X150034098Y-88741521D01*
X150011259Y-88722777D01*
X149985197Y-88708847D01*
X149956927Y-88700271D01*
X149923835Y-88697012D01*
X149131205Y-88697012D01*
X149098112Y-88700271D01*
X149069842Y-88708847D01*
X149043780Y-88722777D01*
X149020941Y-88741521D01*
X149002197Y-88764360D01*
X148988267Y-88790422D01*
X148979691Y-88818692D01*
X148976432Y-88851785D01*
X148808608Y-88851785D01*
X148805348Y-88818692D01*
X148796772Y-88790422D01*
X148782842Y-88764360D01*
X148764098Y-88741521D01*
X148741259Y-88722777D01*
X148715197Y-88708847D01*
X148686927Y-88700271D01*
X148653835Y-88697012D01*
X147861205Y-88697012D01*
X147828112Y-88700271D01*
X147799842Y-88708847D01*
X147773780Y-88722777D01*
X147750941Y-88741521D01*
X147732197Y-88764360D01*
X147718267Y-88790422D01*
X147709691Y-88818692D01*
X147706432Y-88851785D01*
X147538608Y-88851785D01*
X147535348Y-88818692D01*
X147526772Y-88790422D01*
X147512842Y-88764360D01*
X147494098Y-88741521D01*
X147471259Y-88722777D01*
X147445197Y-88708847D01*
X147416927Y-88700271D01*
X147383835Y-88697012D01*
X146591205Y-88697012D01*
X146558112Y-88700271D01*
X146529842Y-88708847D01*
X146503780Y-88722777D01*
X146480941Y-88741521D01*
X146462197Y-88764360D01*
X146448267Y-88790422D01*
X146439691Y-88818692D01*
X146436432Y-88851785D01*
X146268608Y-88851785D01*
X146265348Y-88818692D01*
X146256772Y-88790422D01*
X146242842Y-88764360D01*
X146224098Y-88741521D01*
X146201259Y-88722777D01*
X146175197Y-88708847D01*
X146146927Y-88700271D01*
X146113835Y-88697012D01*
X145321205Y-88697012D01*
X145288112Y-88700271D01*
X145259842Y-88708847D01*
X145233780Y-88722777D01*
X145210941Y-88741521D01*
X145192197Y-88764360D01*
X145178267Y-88790422D01*
X145169691Y-88818692D01*
X145166432Y-88851785D01*
X144998608Y-88851785D01*
X144995348Y-88818692D01*
X144986772Y-88790422D01*
X144972842Y-88764360D01*
X144954098Y-88741521D01*
X144931259Y-88722777D01*
X144905197Y-88708847D01*
X144876927Y-88700271D01*
X144843835Y-88697012D01*
X144051205Y-88697012D01*
X144018112Y-88700271D01*
X143989842Y-88708847D01*
X143963780Y-88722777D01*
X143940941Y-88741521D01*
X143922197Y-88764360D01*
X143908267Y-88790422D01*
X143899691Y-88818692D01*
X143896432Y-88851785D01*
X143728608Y-88851785D01*
X143725348Y-88818692D01*
X143716772Y-88790422D01*
X143702842Y-88764360D01*
X143684098Y-88741521D01*
X143661259Y-88722777D01*
X143635197Y-88708847D01*
X143606927Y-88700271D01*
X143573835Y-88697012D01*
X142781205Y-88697012D01*
X142748112Y-88700271D01*
X142719842Y-88708847D01*
X142693780Y-88722777D01*
X142670941Y-88741521D01*
X142652197Y-88764360D01*
X142638267Y-88790422D01*
X142629691Y-88818692D01*
X142626432Y-88851785D01*
X142458608Y-88851785D01*
X142455348Y-88818692D01*
X142446772Y-88790422D01*
X142432842Y-88764360D01*
X142414098Y-88741521D01*
X142391259Y-88722777D01*
X142365197Y-88708847D01*
X142336927Y-88700271D01*
X142303835Y-88697012D01*
X141511205Y-88697012D01*
X141478112Y-88700271D01*
X141449842Y-88708847D01*
X141423780Y-88722777D01*
X141400941Y-88741521D01*
X141382197Y-88764360D01*
X141368267Y-88790422D01*
X141359691Y-88818692D01*
X141356432Y-88851785D01*
X141188608Y-88851785D01*
X141185348Y-88818692D01*
X141176772Y-88790422D01*
X141162842Y-88764360D01*
X141144098Y-88741521D01*
X141121259Y-88722777D01*
X141095197Y-88708847D01*
X141066927Y-88700271D01*
X141033835Y-88697012D01*
X140241205Y-88697012D01*
X140208112Y-88700271D01*
X140179842Y-88708847D01*
X140153780Y-88722777D01*
X140130941Y-88741521D01*
X140112197Y-88764360D01*
X140098267Y-88790422D01*
X140089691Y-88818692D01*
X140086432Y-88851785D01*
X139918608Y-88851785D01*
X139915348Y-88818692D01*
X139906772Y-88790422D01*
X139892842Y-88764360D01*
X139874098Y-88741521D01*
X139851259Y-88722777D01*
X139825197Y-88708847D01*
X139796927Y-88700271D01*
X139763835Y-88697012D01*
X138971205Y-88697012D01*
X138938112Y-88700271D01*
X138909842Y-88708847D01*
X138883780Y-88722777D01*
X138860941Y-88741521D01*
X138842197Y-88764360D01*
X138828267Y-88790422D01*
X138819691Y-88818692D01*
X138816432Y-88851785D01*
X138648608Y-88851785D01*
X138645348Y-88818692D01*
X138636772Y-88790422D01*
X138622842Y-88764360D01*
X138604098Y-88741521D01*
X138581259Y-88722777D01*
X138555197Y-88708847D01*
X138526927Y-88700271D01*
X138493835Y-88697012D01*
X137701205Y-88697012D01*
X137668112Y-88700271D01*
X137639842Y-88708847D01*
X137613780Y-88722777D01*
X137590941Y-88741521D01*
X137572197Y-88764360D01*
X137558267Y-88790422D01*
X137549691Y-88818692D01*
X137546432Y-88851785D01*
X137378608Y-88851785D01*
X137375348Y-88818692D01*
X137366772Y-88790422D01*
X137352842Y-88764360D01*
X137334098Y-88741521D01*
X137311259Y-88722777D01*
X137285197Y-88708847D01*
X137256927Y-88700271D01*
X137223835Y-88697012D01*
X136431205Y-88697012D01*
X136398112Y-88700271D01*
X136369842Y-88708847D01*
X136343780Y-88722777D01*
X136320941Y-88741521D01*
X136302197Y-88764360D01*
X136288267Y-88790422D01*
X136279691Y-88818692D01*
X136276432Y-88851785D01*
X136108208Y-88851785D01*
X136104948Y-88818692D01*
X136096372Y-88790422D01*
X136082442Y-88764360D01*
X136063698Y-88741521D01*
X136040859Y-88722777D01*
X136014797Y-88708847D01*
X135986527Y-88700271D01*
X135953435Y-88697012D01*
X135160805Y-88697012D01*
X135127712Y-88700271D01*
X135099442Y-88708847D01*
X135073380Y-88722777D01*
X135050541Y-88741521D01*
X135031797Y-88764360D01*
X135017867Y-88790422D01*
X135009291Y-88818692D01*
X135006032Y-88851785D01*
X134838608Y-88851785D01*
X134835348Y-88818692D01*
X134826772Y-88790422D01*
X134812842Y-88764360D01*
X134794098Y-88741521D01*
X134771259Y-88722777D01*
X134745197Y-88708847D01*
X134716927Y-88700271D01*
X134683835Y-88697012D01*
X133891205Y-88697012D01*
X133858112Y-88700271D01*
X133829842Y-88708847D01*
X133803780Y-88722777D01*
X133780941Y-88741521D01*
X133762197Y-88764360D01*
X133748267Y-88790422D01*
X133739691Y-88818692D01*
X133736432Y-88851785D01*
X133568608Y-88851785D01*
X133565348Y-88818692D01*
X133556772Y-88790422D01*
X133542842Y-88764360D01*
X133524098Y-88741521D01*
X133501259Y-88722777D01*
X133475197Y-88708847D01*
X133446927Y-88700271D01*
X133413835Y-88697012D01*
X132621205Y-88697012D01*
X132588112Y-88700271D01*
X132559842Y-88708847D01*
X132533780Y-88722777D01*
X132510941Y-88741521D01*
X132492197Y-88764360D01*
X132478267Y-88790422D01*
X132469691Y-88818692D01*
X132466432Y-88851785D01*
X132298608Y-88851785D01*
X132295348Y-88818692D01*
X132286772Y-88790422D01*
X132272842Y-88764360D01*
X132254098Y-88741521D01*
X132231259Y-88722777D01*
X132205197Y-88708847D01*
X132176927Y-88700271D01*
X132143835Y-88697012D01*
X131351205Y-88697012D01*
X131318112Y-88700271D01*
X131289842Y-88708847D01*
X131263780Y-88722777D01*
X131240941Y-88741521D01*
X131222197Y-88764360D01*
X131208267Y-88790422D01*
X131199691Y-88818692D01*
X131196432Y-88851785D01*
X125572520Y-88851785D01*
X125572520Y-86756285D01*
X128600932Y-86756285D01*
X128600932Y-87548914D01*
X128604191Y-87582007D01*
X128612767Y-87610277D01*
X128626697Y-87636339D01*
X128645441Y-87659178D01*
X128668280Y-87677922D01*
X128694342Y-87691852D01*
X128722612Y-87700428D01*
X128755705Y-87703688D01*
X130048335Y-87703688D01*
X130081427Y-87700428D01*
X130109697Y-87691852D01*
X130135759Y-87677922D01*
X130158598Y-87659178D01*
X130177342Y-87636339D01*
X130191272Y-87610277D01*
X130199848Y-87582007D01*
X130203108Y-87548914D01*
X130203108Y-86756285D01*
X130199848Y-86723192D01*
X130191272Y-86694922D01*
X130177342Y-86668860D01*
X130158598Y-86646021D01*
X130135759Y-86627277D01*
X130109697Y-86613347D01*
X130081427Y-86604771D01*
X130048335Y-86601512D01*
X128755705Y-86601512D01*
X128722612Y-86604771D01*
X128694342Y-86613347D01*
X128668280Y-86627277D01*
X128645441Y-86646021D01*
X128626697Y-86668860D01*
X128612767Y-86694922D01*
X128604191Y-86723192D01*
X128600932Y-86756285D01*
X125572520Y-86756285D01*
X125572520Y-85486285D01*
X128600932Y-85486285D01*
X128600932Y-86278914D01*
X128604191Y-86312007D01*
X128612767Y-86340277D01*
X128626697Y-86366339D01*
X128645441Y-86389178D01*
X128668280Y-86407922D01*
X128694342Y-86421852D01*
X128722612Y-86430428D01*
X128755705Y-86433688D01*
X130048335Y-86433688D01*
X130081427Y-86430428D01*
X130086273Y-86428958D01*
X131482520Y-86428958D01*
X131482520Y-86606241D01*
X131517106Y-86780121D01*
X131584950Y-86943910D01*
X131683444Y-87091317D01*
X131808802Y-87216675D01*
X131956209Y-87315169D01*
X132119998Y-87383013D01*
X132293878Y-87417600D01*
X132471162Y-87417600D01*
X132645041Y-87383013D01*
X132808830Y-87315169D01*
X132956237Y-87216675D01*
X133081595Y-87091317D01*
X133180089Y-86943910D01*
X133247933Y-86780121D01*
X133282520Y-86606241D01*
X133282520Y-86428958D01*
X133247933Y-86255078D01*
X133180089Y-86091289D01*
X133081595Y-85943882D01*
X132956237Y-85818524D01*
X132808830Y-85720030D01*
X132645041Y-85652186D01*
X132471162Y-85617600D01*
X132293878Y-85617600D01*
X132119998Y-85652186D01*
X131956209Y-85720030D01*
X131808802Y-85818524D01*
X131683444Y-85943882D01*
X131584950Y-86091289D01*
X131517106Y-86255078D01*
X131482520Y-86428958D01*
X130086273Y-86428958D01*
X130109697Y-86421852D01*
X130135759Y-86407922D01*
X130158598Y-86389178D01*
X130171063Y-86373991D01*
X130177342Y-86366339D01*
X130191272Y-86340277D01*
X130199848Y-86312007D01*
X130203108Y-86278914D01*
X130203108Y-85486285D01*
X130199848Y-85453192D01*
X130191272Y-85424922D01*
X130177342Y-85398860D01*
X130158598Y-85376021D01*
X130135759Y-85357277D01*
X130109697Y-85343347D01*
X130081427Y-85334771D01*
X130048335Y-85331512D01*
X128755705Y-85331512D01*
X128722612Y-85334771D01*
X128694342Y-85343347D01*
X128668280Y-85357277D01*
X128645441Y-85376021D01*
X128626697Y-85398860D01*
X128612767Y-85424922D01*
X128604191Y-85453192D01*
X128600932Y-85486285D01*
X125572520Y-85486285D01*
X125572520Y-84216285D01*
X128600932Y-84216285D01*
X128600932Y-85008914D01*
X128604191Y-85042007D01*
X128612767Y-85070277D01*
X128626697Y-85096339D01*
X128645441Y-85119178D01*
X128668280Y-85137922D01*
X128694342Y-85151852D01*
X128722612Y-85160428D01*
X128755705Y-85163688D01*
X130048335Y-85163688D01*
X130081427Y-85160428D01*
X130109697Y-85151852D01*
X130135759Y-85137922D01*
X130158598Y-85119178D01*
X130177342Y-85096339D01*
X130191272Y-85070277D01*
X130199848Y-85042007D01*
X130201275Y-85027526D01*
X130214950Y-84991192D01*
X130244960Y-84966562D01*
X130283265Y-84960238D01*
X130319599Y-84973913D01*
X130328947Y-84981844D01*
X130346915Y-84999812D01*
X130436997Y-85060003D01*
X130537089Y-85101462D01*
X130643351Y-85122600D01*
X130751689Y-85122600D01*
X130857950Y-85101462D01*
X130958042Y-85060003D01*
X131048124Y-84999812D01*
X131124732Y-84923204D01*
X131161331Y-84868430D01*
X132977520Y-84868430D01*
X132977520Y-84976769D01*
X132998657Y-85083030D01*
X133040116Y-85183122D01*
X133100307Y-85273204D01*
X133176915Y-85349812D01*
X133266997Y-85410003D01*
X133367089Y-85451462D01*
X133473351Y-85472600D01*
X133581689Y-85472600D01*
X133687950Y-85451462D01*
X133788042Y-85410003D01*
X133878124Y-85349812D01*
X133954732Y-85273204D01*
X134014923Y-85183122D01*
X134056382Y-85083030D01*
X134077520Y-84976769D01*
X134077520Y-84868430D01*
X134056382Y-84762169D01*
X134014923Y-84662077D01*
X133954732Y-84571995D01*
X133878124Y-84495387D01*
X133788042Y-84435196D01*
X133687950Y-84393737D01*
X133581689Y-84372600D01*
X133473351Y-84372600D01*
X133367089Y-84393737D01*
X133266997Y-84435196D01*
X133176915Y-84495387D01*
X133100307Y-84571995D01*
X133040116Y-84662077D01*
X132998657Y-84762169D01*
X132977520Y-84868430D01*
X131161331Y-84868430D01*
X131184923Y-84833122D01*
X131185247Y-84832342D01*
X131226382Y-84733030D01*
X131247520Y-84626769D01*
X131247520Y-84518430D01*
X131226382Y-84412169D01*
X131184923Y-84312077D01*
X131124732Y-84221995D01*
X131048124Y-84145387D01*
X130958042Y-84085196D01*
X130857950Y-84043737D01*
X130751689Y-84022600D01*
X130643351Y-84022600D01*
X130537089Y-84043737D01*
X130436997Y-84085196D01*
X130346915Y-84145387D01*
X130313673Y-84178630D01*
X130280051Y-84198041D01*
X130241229Y-84198041D01*
X130207607Y-84178630D01*
X130194496Y-84160952D01*
X130177342Y-84128860D01*
X130158598Y-84106021D01*
X130135759Y-84087277D01*
X130109697Y-84073347D01*
X130081427Y-84064771D01*
X130048335Y-84061512D01*
X128755705Y-84061512D01*
X128722612Y-84064771D01*
X128694342Y-84073347D01*
X128668280Y-84087277D01*
X128645441Y-84106021D01*
X128626697Y-84128860D01*
X128612767Y-84154922D01*
X128604191Y-84183192D01*
X128600932Y-84216285D01*
X125572520Y-84216285D01*
X125572520Y-82946285D01*
X128600932Y-82946285D01*
X128600932Y-83738914D01*
X128604191Y-83772007D01*
X128612767Y-83800277D01*
X128626697Y-83826339D01*
X128645441Y-83849178D01*
X128668280Y-83867922D01*
X128694342Y-83881852D01*
X128722612Y-83890428D01*
X128755705Y-83893688D01*
X130048335Y-83893688D01*
X130081427Y-83890428D01*
X130109697Y-83881852D01*
X130135759Y-83867922D01*
X130158598Y-83849178D01*
X130177342Y-83826339D01*
X130191272Y-83800277D01*
X130199848Y-83772007D01*
X130203108Y-83738914D01*
X130203108Y-82946285D01*
X130199848Y-82913192D01*
X130191272Y-82884922D01*
X130177342Y-82858860D01*
X130158598Y-82836021D01*
X130135759Y-82817277D01*
X130109697Y-82803347D01*
X130081427Y-82794771D01*
X130048335Y-82791512D01*
X128755705Y-82791512D01*
X128722612Y-82794771D01*
X128694342Y-82803347D01*
X128668280Y-82817277D01*
X128645441Y-82836021D01*
X128626697Y-82858860D01*
X128612767Y-82884922D01*
X128604191Y-82913192D01*
X128600932Y-82946285D01*
X125572520Y-82946285D01*
X125572520Y-81676285D01*
X128600932Y-81676285D01*
X128600932Y-82468914D01*
X128604191Y-82502007D01*
X128612767Y-82530277D01*
X128626697Y-82556339D01*
X128645441Y-82579178D01*
X128668280Y-82597922D01*
X128694342Y-82611852D01*
X128722612Y-82620428D01*
X128755705Y-82623688D01*
X130048335Y-82623688D01*
X130081427Y-82620428D01*
X130109697Y-82611852D01*
X130135759Y-82597922D01*
X130158598Y-82579178D01*
X130177342Y-82556339D01*
X130191272Y-82530277D01*
X130199848Y-82502007D01*
X130203108Y-82468914D01*
X130203108Y-81676285D01*
X130199848Y-81643192D01*
X130191272Y-81614922D01*
X130177342Y-81588860D01*
X130158598Y-81566021D01*
X130135759Y-81547277D01*
X130109697Y-81533347D01*
X130081427Y-81524771D01*
X130048335Y-81521512D01*
X128755705Y-81521512D01*
X128722612Y-81524771D01*
X128694342Y-81533347D01*
X128668280Y-81547277D01*
X128645441Y-81566021D01*
X128626697Y-81588860D01*
X128612767Y-81614922D01*
X128604191Y-81643192D01*
X128600932Y-81676285D01*
X125572520Y-81676285D01*
X125572520Y-80406285D01*
X128600932Y-80406285D01*
X128600932Y-81198914D01*
X128604191Y-81232007D01*
X128612767Y-81260277D01*
X128626697Y-81286339D01*
X128645441Y-81309178D01*
X128668280Y-81327922D01*
X128694342Y-81341852D01*
X128722612Y-81350428D01*
X128755705Y-81353688D01*
X130048335Y-81353688D01*
X130081427Y-81350428D01*
X130109697Y-81341852D01*
X130135759Y-81327922D01*
X130158598Y-81309178D01*
X130177342Y-81286339D01*
X130191272Y-81260277D01*
X130199848Y-81232007D01*
X130203108Y-81198914D01*
X130203108Y-80406285D01*
X130199848Y-80373192D01*
X130191272Y-80344922D01*
X130177342Y-80318860D01*
X130158598Y-80296021D01*
X130135759Y-80277277D01*
X130109697Y-80263347D01*
X130081427Y-80254771D01*
X130048335Y-80251512D01*
X128755705Y-80251512D01*
X128722612Y-80254771D01*
X128694342Y-80263347D01*
X128668280Y-80277277D01*
X128645441Y-80296021D01*
X128626697Y-80318860D01*
X128612767Y-80344922D01*
X128604191Y-80373192D01*
X128600932Y-80406285D01*
X125572520Y-80406285D01*
X125572520Y-79136285D01*
X128600932Y-79136285D01*
X128600932Y-79928914D01*
X128604191Y-79962007D01*
X128612767Y-79990277D01*
X128626697Y-80016339D01*
X128645441Y-80039178D01*
X128668280Y-80057922D01*
X128694342Y-80071852D01*
X128722612Y-80080428D01*
X128755705Y-80083688D01*
X130048335Y-80083688D01*
X130081427Y-80080428D01*
X130109697Y-80071852D01*
X130135759Y-80057922D01*
X130158598Y-80039178D01*
X130177342Y-80016339D01*
X130191272Y-79990277D01*
X130199848Y-79962007D01*
X130203108Y-79928914D01*
X130203108Y-79136285D01*
X130199848Y-79103192D01*
X130191272Y-79074922D01*
X130177342Y-79048860D01*
X130158598Y-79026021D01*
X130135759Y-79007277D01*
X130109697Y-78993347D01*
X130081427Y-78984771D01*
X130048335Y-78981512D01*
X128755705Y-78981512D01*
X128722612Y-78984771D01*
X128694342Y-78993347D01*
X128668280Y-79007277D01*
X128645441Y-79026021D01*
X128626697Y-79048860D01*
X128612767Y-79074922D01*
X128604191Y-79103192D01*
X128600932Y-79136285D01*
X125572520Y-79136285D01*
X125572520Y-77866285D01*
X128600932Y-77866285D01*
X128600932Y-78658914D01*
X128604191Y-78692007D01*
X128612767Y-78720277D01*
X128626697Y-78746339D01*
X128645441Y-78769178D01*
X128668280Y-78787922D01*
X128694342Y-78801852D01*
X128722612Y-78810428D01*
X128755705Y-78813688D01*
X130048335Y-78813688D01*
X130081427Y-78810428D01*
X130109697Y-78801852D01*
X130135759Y-78787922D01*
X130158598Y-78769178D01*
X130177342Y-78746339D01*
X130191272Y-78720277D01*
X130199848Y-78692007D01*
X130203108Y-78658914D01*
X130203108Y-77866285D01*
X130199848Y-77833192D01*
X130191272Y-77804922D01*
X130177342Y-77778860D01*
X130158598Y-77756021D01*
X130135759Y-77737277D01*
X130109697Y-77723347D01*
X130081427Y-77714771D01*
X130048335Y-77711512D01*
X128755705Y-77711512D01*
X128722612Y-77714771D01*
X128694342Y-77723347D01*
X128668280Y-77737277D01*
X128645441Y-77756021D01*
X128626697Y-77778860D01*
X128612767Y-77804922D01*
X128604191Y-77833192D01*
X128600932Y-77866285D01*
X125572520Y-77866285D01*
X125572520Y-75326285D01*
X128600932Y-75326285D01*
X128600932Y-76118914D01*
X128604191Y-76152007D01*
X128612767Y-76180277D01*
X128626697Y-76206339D01*
X128645441Y-76229178D01*
X128668280Y-76247922D01*
X128694342Y-76261852D01*
X128722612Y-76270428D01*
X128755705Y-76273688D01*
X130048335Y-76273688D01*
X130081427Y-76270428D01*
X130095048Y-76266297D01*
X130133850Y-76265026D01*
X130168089Y-76283327D01*
X130188590Y-76316295D01*
X130191820Y-76338067D01*
X130191820Y-76377133D01*
X130181772Y-76414633D01*
X130154320Y-76442085D01*
X130116820Y-76452133D01*
X130095048Y-76448903D01*
X130081427Y-76444771D01*
X130048335Y-76441512D01*
X128755705Y-76441512D01*
X128722612Y-76444771D01*
X128694342Y-76453347D01*
X128668280Y-76467277D01*
X128645441Y-76486021D01*
X128626697Y-76508860D01*
X128612767Y-76534922D01*
X128604191Y-76563192D01*
X128600932Y-76596285D01*
X128600932Y-77388914D01*
X128604191Y-77422007D01*
X128612767Y-77450277D01*
X128626697Y-77476339D01*
X128645441Y-77499178D01*
X128668280Y-77517922D01*
X128694342Y-77531852D01*
X128722612Y-77540428D01*
X128755705Y-77543688D01*
X130048335Y-77543688D01*
X130081427Y-77540428D01*
X130109697Y-77531852D01*
X130135759Y-77517922D01*
X130158598Y-77499178D01*
X130177342Y-77476339D01*
X130191272Y-77450277D01*
X130199848Y-77422007D01*
X130203108Y-77388914D01*
X130203108Y-76715639D01*
X130213156Y-76678139D01*
X130240608Y-76650687D01*
X130278108Y-76640639D01*
X130315608Y-76650687D01*
X130331141Y-76662606D01*
X130342058Y-76673523D01*
X130340978Y-76674602D01*
X130359089Y-76695260D01*
X130366820Y-76728424D01*
X130366821Y-78882867D01*
X130366460Y-78890218D01*
X130365732Y-78897600D01*
X130366460Y-78904982D01*
X130366460Y-78904984D01*
X130368280Y-78923465D01*
X130370077Y-78941709D01*
X130382941Y-78984116D01*
X130403837Y-79023210D01*
X130427246Y-79051734D01*
X130431951Y-79057467D01*
X130437685Y-79062173D01*
X130443139Y-79067116D01*
X133627303Y-82251281D01*
X133632245Y-82256734D01*
X133636950Y-82262467D01*
X133642684Y-82267173D01*
X133642685Y-82267174D01*
X133671209Y-82290583D01*
X133692552Y-82301991D01*
X133692554Y-82301992D01*
X133710302Y-82311478D01*
X133752710Y-82324343D01*
X133789425Y-82327959D01*
X133789451Y-82327961D01*
X133796819Y-82328686D01*
X133804187Y-82327961D01*
X133811539Y-82327600D01*
X136447720Y-82327600D01*
X136485220Y-82337648D01*
X136512672Y-82365100D01*
X136522720Y-82402600D01*
X136522720Y-87378915D01*
X136526003Y-87412261D01*
X136534656Y-87440783D01*
X136548703Y-87467063D01*
X136567613Y-87490106D01*
X136590656Y-87509016D01*
X136616936Y-87523063D01*
X136645458Y-87531716D01*
X136678804Y-87535000D01*
X152013036Y-87535000D01*
X152046381Y-87531716D01*
X152074903Y-87523063D01*
X152101183Y-87509016D01*
X152124226Y-87490106D01*
X152143136Y-87467063D01*
X152157183Y-87440783D01*
X152165836Y-87412261D01*
X152169120Y-87378915D01*
X152169120Y-86825064D01*
X152179168Y-86787564D01*
X152202452Y-86762704D01*
X152253024Y-86728912D01*
X152329632Y-86652304D01*
X152389823Y-86562222D01*
X152431282Y-86462130D01*
X152437881Y-86428958D01*
X155612520Y-86428958D01*
X155612520Y-86606241D01*
X155647106Y-86780121D01*
X155714950Y-86943910D01*
X155813444Y-87091317D01*
X155938802Y-87216675D01*
X156086209Y-87315169D01*
X156249998Y-87383013D01*
X156423878Y-87417600D01*
X156601162Y-87417600D01*
X156775041Y-87383013D01*
X156938830Y-87315169D01*
X157086237Y-87216675D01*
X157211595Y-87091317D01*
X157310089Y-86943910D01*
X157377934Y-86780120D01*
X157382675Y-86756285D01*
X158691932Y-86756285D01*
X158691932Y-87548914D01*
X158695191Y-87582007D01*
X158703767Y-87610277D01*
X158717697Y-87636339D01*
X158736441Y-87659178D01*
X158759280Y-87677922D01*
X158785342Y-87691852D01*
X158813612Y-87700428D01*
X158846705Y-87703688D01*
X160139335Y-87703688D01*
X160172427Y-87700428D01*
X160200697Y-87691852D01*
X160226759Y-87677922D01*
X160249598Y-87659178D01*
X160268342Y-87636339D01*
X160282272Y-87610277D01*
X160290848Y-87582007D01*
X160294108Y-87548914D01*
X160294108Y-86756285D01*
X160290848Y-86723192D01*
X160282272Y-86694922D01*
X160268342Y-86668860D01*
X160249598Y-86646021D01*
X160226759Y-86627277D01*
X160200697Y-86613347D01*
X160172427Y-86604771D01*
X160139335Y-86601512D01*
X158846705Y-86601512D01*
X158813612Y-86604771D01*
X158785342Y-86613347D01*
X158759280Y-86627277D01*
X158736441Y-86646021D01*
X158717697Y-86668860D01*
X158703767Y-86694922D01*
X158695191Y-86723192D01*
X158691932Y-86756285D01*
X157382675Y-86756285D01*
X157386318Y-86737969D01*
X157386318Y-86737968D01*
X157412520Y-86606241D01*
X157412520Y-86428958D01*
X157377933Y-86255078D01*
X157310089Y-86091289D01*
X157211595Y-85943882D01*
X157086237Y-85818524D01*
X156938830Y-85720030D01*
X156775041Y-85652186D01*
X156601162Y-85617600D01*
X156423878Y-85617600D01*
X156249998Y-85652186D01*
X156086209Y-85720030D01*
X155938802Y-85818524D01*
X155813444Y-85943882D01*
X155714950Y-86091289D01*
X155647106Y-86255078D01*
X155612520Y-86428958D01*
X152437881Y-86428958D01*
X152442261Y-86406939D01*
X152442261Y-86406938D01*
X152452420Y-86355868D01*
X152452420Y-86247530D01*
X152431282Y-86141269D01*
X152389823Y-86041177D01*
X152329632Y-85951095D01*
X152253024Y-85874487D01*
X152202452Y-85840696D01*
X152176855Y-85811508D01*
X152169120Y-85778336D01*
X152169120Y-85486285D01*
X158691932Y-85486285D01*
X158691932Y-86278914D01*
X158695191Y-86312007D01*
X158703767Y-86340277D01*
X158717697Y-86366339D01*
X158736441Y-86389178D01*
X158759280Y-86407922D01*
X158785342Y-86421852D01*
X158813612Y-86430428D01*
X158846705Y-86433688D01*
X160139335Y-86433688D01*
X160172427Y-86430428D01*
X160200697Y-86421852D01*
X160226759Y-86407922D01*
X160249598Y-86389178D01*
X160268342Y-86366339D01*
X160282272Y-86340277D01*
X160290848Y-86312007D01*
X160294108Y-86278914D01*
X160294108Y-85486285D01*
X160290848Y-85453192D01*
X160282272Y-85424922D01*
X160268342Y-85398860D01*
X160249598Y-85376021D01*
X160226759Y-85357277D01*
X160200697Y-85343347D01*
X160172427Y-85334771D01*
X160139335Y-85331512D01*
X158846705Y-85331512D01*
X158813612Y-85334771D01*
X158785342Y-85343347D01*
X158759280Y-85357277D01*
X158736441Y-85376021D01*
X158717697Y-85398860D01*
X158703767Y-85424922D01*
X158695191Y-85453192D01*
X158691932Y-85486285D01*
X152169120Y-85486285D01*
X152169120Y-84216285D01*
X158691932Y-84216285D01*
X158691932Y-85008914D01*
X158695191Y-85042007D01*
X158703767Y-85070277D01*
X158717697Y-85096339D01*
X158736441Y-85119178D01*
X158759280Y-85137922D01*
X158785342Y-85151852D01*
X158813612Y-85160428D01*
X158846705Y-85163688D01*
X160139335Y-85163688D01*
X160172427Y-85160428D01*
X160200697Y-85151852D01*
X160226759Y-85137922D01*
X160249598Y-85119178D01*
X160268342Y-85096339D01*
X160282272Y-85070277D01*
X160290848Y-85042007D01*
X160294108Y-85008914D01*
X160294108Y-84216285D01*
X160290848Y-84183192D01*
X160282272Y-84154922D01*
X160268342Y-84128860D01*
X160249598Y-84106021D01*
X160226759Y-84087277D01*
X160200697Y-84073347D01*
X160172427Y-84064771D01*
X160139335Y-84061512D01*
X158846705Y-84061512D01*
X158813612Y-84064771D01*
X158785342Y-84073347D01*
X158759280Y-84087277D01*
X158736441Y-84106021D01*
X158717697Y-84128860D01*
X158703767Y-84154922D01*
X158695191Y-84183192D01*
X158691932Y-84216285D01*
X152169120Y-84216285D01*
X152169120Y-82946285D01*
X158691932Y-82946285D01*
X158691932Y-83738914D01*
X158695191Y-83772007D01*
X158703767Y-83800277D01*
X158717697Y-83826339D01*
X158736441Y-83849178D01*
X158759280Y-83867922D01*
X158785342Y-83881852D01*
X158813612Y-83890428D01*
X158846705Y-83893688D01*
X160139335Y-83893688D01*
X160172427Y-83890428D01*
X160200697Y-83881852D01*
X160226759Y-83867922D01*
X160249598Y-83849178D01*
X160268342Y-83826339D01*
X160282272Y-83800277D01*
X160290848Y-83772007D01*
X160294108Y-83738914D01*
X160294108Y-82946285D01*
X160290848Y-82913192D01*
X160282272Y-82884922D01*
X160268342Y-82858860D01*
X160249598Y-82836021D01*
X160226759Y-82817277D01*
X160200697Y-82803347D01*
X160172427Y-82794771D01*
X160139335Y-82791512D01*
X158846705Y-82791512D01*
X158813612Y-82794771D01*
X158785342Y-82803347D01*
X158759280Y-82817277D01*
X158736441Y-82836021D01*
X158717697Y-82858860D01*
X158703767Y-82884922D01*
X158695191Y-82913192D01*
X158691932Y-82946285D01*
X152169120Y-82946285D01*
X152169120Y-81258430D01*
X155697520Y-81258430D01*
X155697520Y-81366769D01*
X155718657Y-81473030D01*
X155760116Y-81573122D01*
X155820307Y-81663204D01*
X155896915Y-81739812D01*
X155986997Y-81800003D01*
X156087089Y-81841462D01*
X156193351Y-81862600D01*
X156301689Y-81862600D01*
X156407950Y-81841462D01*
X156508042Y-81800003D01*
X156598124Y-81739812D01*
X156661651Y-81676285D01*
X158691932Y-81676285D01*
X158691932Y-82468914D01*
X158695191Y-82502007D01*
X158703767Y-82530277D01*
X158717697Y-82556339D01*
X158736441Y-82579178D01*
X158759280Y-82597922D01*
X158785342Y-82611852D01*
X158813612Y-82620428D01*
X158846705Y-82623688D01*
X160139335Y-82623688D01*
X160172427Y-82620428D01*
X160200697Y-82611852D01*
X160226759Y-82597922D01*
X160249598Y-82579178D01*
X160268342Y-82556339D01*
X160282272Y-82530277D01*
X160290848Y-82502007D01*
X160294108Y-82468914D01*
X160294108Y-81676285D01*
X160290848Y-81643192D01*
X160282272Y-81614922D01*
X160268342Y-81588860D01*
X160249598Y-81566021D01*
X160226759Y-81547277D01*
X160200697Y-81533347D01*
X160172427Y-81524771D01*
X160139335Y-81521512D01*
X158846705Y-81521512D01*
X158813612Y-81524771D01*
X158785342Y-81533347D01*
X158759280Y-81547277D01*
X158736441Y-81566021D01*
X158717697Y-81588860D01*
X158703767Y-81614922D01*
X158695191Y-81643192D01*
X158691932Y-81676285D01*
X156661651Y-81676285D01*
X156674731Y-81663205D01*
X156696295Y-81630933D01*
X156696296Y-81630932D01*
X156734923Y-81573122D01*
X156776382Y-81473030D01*
X156797520Y-81366769D01*
X156797520Y-81258430D01*
X156776382Y-81152169D01*
X156734923Y-81052077D01*
X156674732Y-80961995D01*
X156598124Y-80885387D01*
X156508042Y-80825196D01*
X156407950Y-80783737D01*
X156301689Y-80762600D01*
X156193351Y-80762600D01*
X156087089Y-80783737D01*
X155986997Y-80825196D01*
X155896915Y-80885387D01*
X155820307Y-80961995D01*
X155760116Y-81052077D01*
X155718657Y-81152169D01*
X155697520Y-81258430D01*
X152169120Y-81258430D01*
X152169120Y-80406285D01*
X158691932Y-80406285D01*
X158691932Y-81198914D01*
X158695191Y-81232007D01*
X158703767Y-81260277D01*
X158717697Y-81286339D01*
X158736441Y-81309178D01*
X158759280Y-81327922D01*
X158785342Y-81341852D01*
X158813612Y-81350428D01*
X158846705Y-81353688D01*
X160139335Y-81353688D01*
X160172427Y-81350428D01*
X160200697Y-81341852D01*
X160226759Y-81327922D01*
X160249598Y-81309178D01*
X160268342Y-81286339D01*
X160282272Y-81260277D01*
X160290848Y-81232007D01*
X160294108Y-81198914D01*
X160294108Y-80406285D01*
X160290848Y-80373192D01*
X160282272Y-80344922D01*
X160268342Y-80318860D01*
X160249598Y-80296021D01*
X160226759Y-80277277D01*
X160200697Y-80263347D01*
X160172427Y-80254771D01*
X160139335Y-80251512D01*
X158846705Y-80251512D01*
X158813612Y-80254771D01*
X158785342Y-80263347D01*
X158759280Y-80277277D01*
X158736441Y-80296021D01*
X158717697Y-80318860D01*
X158703767Y-80344922D01*
X158695191Y-80373192D01*
X158691932Y-80406285D01*
X152169120Y-80406285D01*
X152169120Y-78938204D01*
X154922520Y-78938204D01*
X154922520Y-79016995D01*
X154937892Y-79094276D01*
X154968044Y-79167071D01*
X155011820Y-79232585D01*
X155067534Y-79288299D01*
X155133048Y-79332075D01*
X155205843Y-79362227D01*
X155283125Y-79377600D01*
X155361915Y-79377600D01*
X155439196Y-79362227D01*
X155511990Y-79332075D01*
X155560852Y-79299427D01*
X155597615Y-79286948D01*
X155635692Y-79294521D01*
X155644188Y-79299427D01*
X155693049Y-79332075D01*
X155765843Y-79362227D01*
X155843125Y-79377600D01*
X155921915Y-79377600D01*
X155999196Y-79362227D01*
X156071991Y-79332075D01*
X156137505Y-79288299D01*
X156198443Y-79227362D01*
X156198970Y-79227889D01*
X156221848Y-79207826D01*
X156259925Y-79200252D01*
X156296688Y-79212731D01*
X156311458Y-79227501D01*
X156311597Y-79227362D01*
X156372534Y-79288299D01*
X156438048Y-79332075D01*
X156510843Y-79362227D01*
X156588125Y-79377600D01*
X156666915Y-79377600D01*
X156744196Y-79362227D01*
X156816991Y-79332075D01*
X156882505Y-79288299D01*
X156938219Y-79232585D01*
X156981994Y-79167071D01*
X156994746Y-79136285D01*
X158691932Y-79136285D01*
X158691932Y-79928914D01*
X158695191Y-79962007D01*
X158703767Y-79990277D01*
X158717697Y-80016339D01*
X158736441Y-80039178D01*
X158759280Y-80057922D01*
X158785342Y-80071852D01*
X158813612Y-80080428D01*
X158846705Y-80083688D01*
X160139335Y-80083688D01*
X160172427Y-80080428D01*
X160200697Y-80071852D01*
X160226759Y-80057922D01*
X160249598Y-80039178D01*
X160268342Y-80016339D01*
X160282272Y-79990277D01*
X160290848Y-79962007D01*
X160294108Y-79928914D01*
X160294108Y-79136285D01*
X160290848Y-79103192D01*
X160282272Y-79074922D01*
X160268342Y-79048860D01*
X160249598Y-79026021D01*
X160226759Y-79007277D01*
X160200697Y-78993347D01*
X160172427Y-78984771D01*
X160139335Y-78981512D01*
X158846705Y-78981512D01*
X158813612Y-78984771D01*
X158785342Y-78993347D01*
X158759280Y-79007277D01*
X158736441Y-79026021D01*
X158717697Y-79048860D01*
X158703767Y-79074922D01*
X158695191Y-79103192D01*
X158691932Y-79136285D01*
X156994746Y-79136285D01*
X157008161Y-79103899D01*
X157008163Y-79103895D01*
X157012147Y-79094275D01*
X157027520Y-79016995D01*
X157027520Y-78938204D01*
X157012147Y-78860923D01*
X156981995Y-78788128D01*
X156938219Y-78722614D01*
X156882505Y-78666900D01*
X156816991Y-78623124D01*
X156744196Y-78592972D01*
X156666915Y-78577600D01*
X156588125Y-78577600D01*
X156510843Y-78592972D01*
X156438048Y-78623124D01*
X156372534Y-78666900D01*
X156311597Y-78727838D01*
X156311069Y-78727310D01*
X156288192Y-78747374D01*
X156250115Y-78754948D01*
X156213352Y-78742469D01*
X156198582Y-78727699D01*
X156198443Y-78727838D01*
X156137505Y-78666900D01*
X156071991Y-78623124D01*
X155999196Y-78592972D01*
X155921915Y-78577600D01*
X155843125Y-78577600D01*
X155765843Y-78592972D01*
X155693049Y-78623124D01*
X155644188Y-78655773D01*
X155607425Y-78668252D01*
X155569348Y-78660679D01*
X155560852Y-78655773D01*
X155511990Y-78623124D01*
X155439196Y-78592972D01*
X155361915Y-78577600D01*
X155283125Y-78577600D01*
X155205843Y-78592972D01*
X155133048Y-78623124D01*
X155067534Y-78666900D01*
X155011820Y-78722614D01*
X154968044Y-78788128D01*
X154937892Y-78860923D01*
X154922520Y-78938204D01*
X152169120Y-78938204D01*
X152169120Y-78062610D01*
X152179168Y-78025110D01*
X152206620Y-77997658D01*
X152244120Y-77987610D01*
X156672787Y-77987610D01*
X156680138Y-77987971D01*
X156687510Y-77988697D01*
X156694882Y-77987971D01*
X156694901Y-77987970D01*
X156731619Y-77984353D01*
X156774027Y-77971488D01*
X156813118Y-77950594D01*
X156847378Y-77922478D01*
X156852087Y-77916741D01*
X156857030Y-77911287D01*
X156902032Y-77866285D01*
X158691932Y-77866285D01*
X158691932Y-78658914D01*
X158695191Y-78692007D01*
X158703767Y-78720277D01*
X158717697Y-78746339D01*
X158736441Y-78769178D01*
X158759280Y-78787922D01*
X158785342Y-78801852D01*
X158813612Y-78810428D01*
X158846705Y-78813688D01*
X160139335Y-78813688D01*
X160172427Y-78810428D01*
X160200697Y-78801852D01*
X160226759Y-78787922D01*
X160249598Y-78769178D01*
X160268342Y-78746339D01*
X160282272Y-78720277D01*
X160290848Y-78692007D01*
X160294108Y-78658914D01*
X160294108Y-77866285D01*
X160290848Y-77833192D01*
X160282272Y-77804922D01*
X160268342Y-77778860D01*
X160249598Y-77756021D01*
X160226759Y-77737277D01*
X160200697Y-77723347D01*
X160172427Y-77714771D01*
X160139335Y-77711512D01*
X158846705Y-77711512D01*
X158813612Y-77714771D01*
X158785342Y-77723347D01*
X158759280Y-77737277D01*
X158736441Y-77756021D01*
X158717697Y-77778860D01*
X158703767Y-77804922D01*
X158695191Y-77833192D01*
X158691932Y-77866285D01*
X156902032Y-77866285D01*
X156958751Y-77809566D01*
X156994408Y-77773910D01*
X157028030Y-77754499D01*
X157050737Y-77753756D01*
X157050737Y-77752600D01*
X157136915Y-77752600D01*
X157214196Y-77737227D01*
X157286991Y-77707075D01*
X157352505Y-77663299D01*
X157408219Y-77607585D01*
X157451995Y-77542071D01*
X157482147Y-77469275D01*
X157493000Y-77414721D01*
X157510171Y-77379902D01*
X157542451Y-77358333D01*
X157581191Y-77355794D01*
X157595260Y-77360062D01*
X157660843Y-77387227D01*
X157738125Y-77402600D01*
X157816915Y-77402600D01*
X157894196Y-77387227D01*
X157966991Y-77357075D01*
X158032505Y-77313299D01*
X158088219Y-77257585D01*
X158131995Y-77192071D01*
X158162147Y-77119276D01*
X158177520Y-77041995D01*
X158177520Y-76963204D01*
X158162147Y-76885923D01*
X158131995Y-76813128D01*
X158088219Y-76747614D01*
X158027282Y-76686677D01*
X158028618Y-76685340D01*
X158011416Y-76665727D01*
X158005663Y-76636816D01*
X158004331Y-76636948D01*
X158002881Y-76622225D01*
X158002879Y-76622201D01*
X158000689Y-76599953D01*
X158000689Y-76599954D01*
X158000327Y-76596285D01*
X158691932Y-76596285D01*
X158691932Y-77388914D01*
X158695191Y-77422007D01*
X158703767Y-77450277D01*
X158717697Y-77476339D01*
X158736441Y-77499178D01*
X158759280Y-77517922D01*
X158785342Y-77531852D01*
X158813612Y-77540428D01*
X158846705Y-77543688D01*
X160139335Y-77543688D01*
X160172427Y-77540428D01*
X160200697Y-77531852D01*
X160226759Y-77517922D01*
X160249598Y-77499178D01*
X160268342Y-77476339D01*
X160282272Y-77450277D01*
X160290848Y-77422007D01*
X160294108Y-77388914D01*
X160294108Y-76596285D01*
X160290848Y-76563192D01*
X160282272Y-76534922D01*
X160268342Y-76508860D01*
X160249598Y-76486021D01*
X160226759Y-76467277D01*
X160200697Y-76453347D01*
X160172427Y-76444771D01*
X160139335Y-76441512D01*
X158846705Y-76441512D01*
X158813612Y-76444771D01*
X158785342Y-76453347D01*
X158759280Y-76467277D01*
X158736441Y-76486021D01*
X158717697Y-76508860D01*
X158703767Y-76534922D01*
X158695191Y-76563192D01*
X158691932Y-76596285D01*
X158000327Y-76596285D01*
X157999263Y-76585488D01*
X157986398Y-76543077D01*
X157974318Y-76520477D01*
X157974317Y-76520477D01*
X157965502Y-76503986D01*
X157942094Y-76475463D01*
X157942093Y-76475462D01*
X157937388Y-76469729D01*
X157931656Y-76465025D01*
X157926202Y-76460082D01*
X157641753Y-76175633D01*
X157585182Y-76119062D01*
X158691945Y-76119062D01*
X158695190Y-76152007D01*
X158703766Y-76180278D01*
X158717696Y-76206339D01*
X158736440Y-76229179D01*
X158759280Y-76247923D01*
X158785341Y-76261853D01*
X158813612Y-76270429D01*
X158846625Y-76273681D01*
X159330638Y-76272665D01*
X159343020Y-76260284D01*
X159643020Y-76260284D01*
X159655401Y-76272665D01*
X160139414Y-76273681D01*
X160172427Y-76270429D01*
X160200698Y-76261853D01*
X160226759Y-76247923D01*
X160249599Y-76229179D01*
X160268343Y-76206339D01*
X160282273Y-76180278D01*
X160290849Y-76152007D01*
X160294094Y-76119062D01*
X160293146Y-75885042D01*
X160280704Y-75872600D01*
X159643020Y-75872600D01*
X159643020Y-76260284D01*
X159343020Y-76260284D01*
X159343020Y-75872600D01*
X158705336Y-75872600D01*
X158692893Y-75885042D01*
X158691945Y-76119062D01*
X157585182Y-76119062D01*
X157460042Y-75993923D01*
X157455099Y-75988469D01*
X157450390Y-75982731D01*
X157416130Y-75954615D01*
X157377039Y-75933721D01*
X157334631Y-75920856D01*
X157297913Y-75917239D01*
X157297894Y-75917239D01*
X157290522Y-75916512D01*
X157283150Y-75917239D01*
X157275799Y-75917600D01*
X156732250Y-75917600D01*
X156724898Y-75917239D01*
X156717520Y-75916512D01*
X156710142Y-75917239D01*
X156710134Y-75917239D01*
X156673408Y-75920856D01*
X156637093Y-75931872D01*
X156637094Y-75931873D01*
X156631000Y-75933721D01*
X156591910Y-75954615D01*
X156563390Y-75978020D01*
X156563378Y-75978032D01*
X156557651Y-75982731D01*
X156552952Y-75988458D01*
X156548009Y-75993912D01*
X155626300Y-76915623D01*
X155592679Y-76935034D01*
X155573267Y-76937590D01*
X152244120Y-76937590D01*
X152206620Y-76927542D01*
X152179168Y-76900090D01*
X152169120Y-76862590D01*
X152169120Y-75326137D01*
X158691945Y-75326137D01*
X158692893Y-75560157D01*
X158705336Y-75572600D01*
X159343020Y-75572600D01*
X159343020Y-75184916D01*
X159643020Y-75184916D01*
X159643020Y-75572600D01*
X160280704Y-75572600D01*
X160293146Y-75560157D01*
X160294094Y-75326137D01*
X160290849Y-75293192D01*
X160282273Y-75264921D01*
X160268343Y-75238860D01*
X160249599Y-75216020D01*
X160226759Y-75197276D01*
X160200698Y-75183346D01*
X160172427Y-75174770D01*
X160139414Y-75171518D01*
X159655401Y-75172534D01*
X159643020Y-75184916D01*
X159343020Y-75184916D01*
X159330638Y-75172534D01*
X158846625Y-75171518D01*
X158813612Y-75174770D01*
X158785341Y-75183346D01*
X158759280Y-75197276D01*
X158736440Y-75216020D01*
X158717696Y-75238860D01*
X158703766Y-75264921D01*
X158695190Y-75293192D01*
X158691945Y-75326137D01*
X152169120Y-75326137D01*
X152169120Y-74056285D01*
X158691932Y-74056285D01*
X158691932Y-74848914D01*
X158695191Y-74882007D01*
X158703767Y-74910277D01*
X158717697Y-74936339D01*
X158736441Y-74959178D01*
X158759280Y-74977922D01*
X158785342Y-74991852D01*
X158813612Y-75000428D01*
X158846705Y-75003688D01*
X160139335Y-75003688D01*
X160172427Y-75000428D01*
X160200697Y-74991852D01*
X160226759Y-74977922D01*
X160249598Y-74959178D01*
X160268342Y-74936339D01*
X160282272Y-74910277D01*
X160290848Y-74882007D01*
X160294108Y-74848914D01*
X160294108Y-74056285D01*
X160290848Y-74023192D01*
X160282272Y-73994922D01*
X160268342Y-73968860D01*
X160249598Y-73946021D01*
X160226759Y-73927277D01*
X160200697Y-73913347D01*
X160172427Y-73904771D01*
X160139335Y-73901512D01*
X158846705Y-73901512D01*
X158813612Y-73904771D01*
X158785342Y-73913347D01*
X158759280Y-73927277D01*
X158736441Y-73946021D01*
X158717697Y-73968860D01*
X158703767Y-73994922D01*
X158695191Y-74023192D01*
X158691932Y-74056285D01*
X152169120Y-74056285D01*
X152169120Y-73140263D01*
X152179168Y-73102763D01*
X152191087Y-73087230D01*
X152492032Y-72786285D01*
X158691932Y-72786285D01*
X158691932Y-73578914D01*
X158695191Y-73612007D01*
X158703767Y-73640277D01*
X158717697Y-73666339D01*
X158736441Y-73689178D01*
X158759280Y-73707922D01*
X158785342Y-73721852D01*
X158813612Y-73730428D01*
X158846705Y-73733688D01*
X160139335Y-73733688D01*
X160172427Y-73730428D01*
X160200697Y-73721852D01*
X160226759Y-73707922D01*
X160249598Y-73689178D01*
X160268342Y-73666339D01*
X160282272Y-73640277D01*
X160290848Y-73612007D01*
X160294108Y-73578914D01*
X160294108Y-72786285D01*
X160290848Y-72753192D01*
X160282272Y-72724922D01*
X160268342Y-72698860D01*
X160249598Y-72676021D01*
X160226759Y-72657277D01*
X160200697Y-72643347D01*
X160172427Y-72634771D01*
X160139335Y-72631512D01*
X158846705Y-72631512D01*
X158813612Y-72634771D01*
X158785342Y-72643347D01*
X158759280Y-72657277D01*
X158736441Y-72676021D01*
X158717697Y-72698860D01*
X158703767Y-72724922D01*
X158695191Y-72753192D01*
X158691932Y-72786285D01*
X152492032Y-72786285D01*
X153762032Y-71516285D01*
X158691932Y-71516285D01*
X158691932Y-72308914D01*
X158695191Y-72342007D01*
X158703767Y-72370277D01*
X158717697Y-72396339D01*
X158736441Y-72419178D01*
X158759280Y-72437922D01*
X158785342Y-72451852D01*
X158813612Y-72460428D01*
X158846705Y-72463688D01*
X160139335Y-72463688D01*
X160172427Y-72460428D01*
X160200697Y-72451852D01*
X160226759Y-72437922D01*
X160249598Y-72419178D01*
X160268342Y-72396339D01*
X160282272Y-72370277D01*
X160290848Y-72342007D01*
X160294108Y-72308914D01*
X160294108Y-71516285D01*
X160290848Y-71483192D01*
X160282272Y-71454922D01*
X160268342Y-71428860D01*
X160249598Y-71406021D01*
X160226759Y-71387277D01*
X160200697Y-71373347D01*
X160172427Y-71364771D01*
X160139335Y-71361512D01*
X158846705Y-71361512D01*
X158813612Y-71364771D01*
X158785342Y-71373347D01*
X158759280Y-71387277D01*
X158736441Y-71406021D01*
X158717697Y-71428860D01*
X158703767Y-71454922D01*
X158695191Y-71483192D01*
X158691932Y-71516285D01*
X153762032Y-71516285D01*
X154959887Y-70318430D01*
X155517520Y-70318430D01*
X155517520Y-70426769D01*
X155538657Y-70533030D01*
X155580116Y-70633122D01*
X155640307Y-70723204D01*
X155716915Y-70799812D01*
X155806997Y-70860003D01*
X155907089Y-70901462D01*
X156013351Y-70922600D01*
X156121689Y-70922600D01*
X156227950Y-70901462D01*
X156328042Y-70860003D01*
X156418124Y-70799812D01*
X156494732Y-70723204D01*
X156554923Y-70633122D01*
X156596382Y-70533030D01*
X156617520Y-70426769D01*
X156617520Y-70318430D01*
X156605347Y-70257233D01*
X156603169Y-70246285D01*
X158691932Y-70246285D01*
X158691932Y-71038914D01*
X158695191Y-71072007D01*
X158703767Y-71100277D01*
X158717697Y-71126339D01*
X158736441Y-71149178D01*
X158759280Y-71167922D01*
X158785342Y-71181852D01*
X158813612Y-71190428D01*
X158846705Y-71193688D01*
X160139335Y-71193688D01*
X160172427Y-71190428D01*
X160200697Y-71181852D01*
X160226759Y-71167922D01*
X160249598Y-71149178D01*
X160268342Y-71126339D01*
X160282272Y-71100277D01*
X160290848Y-71072007D01*
X160294108Y-71038914D01*
X160294108Y-70246285D01*
X160290848Y-70213192D01*
X160282272Y-70184922D01*
X160268342Y-70158860D01*
X160249598Y-70136021D01*
X160226759Y-70117277D01*
X160200697Y-70103347D01*
X160172427Y-70094771D01*
X160139335Y-70091512D01*
X158846705Y-70091512D01*
X158813612Y-70094771D01*
X158785342Y-70103347D01*
X158759280Y-70117277D01*
X158736441Y-70136021D01*
X158717697Y-70158860D01*
X158703767Y-70184922D01*
X158695191Y-70213192D01*
X158691932Y-70246285D01*
X156603169Y-70246285D01*
X156596382Y-70212169D01*
X156554923Y-70112077D01*
X156494732Y-70021995D01*
X156418124Y-69945387D01*
X156328042Y-69885196D01*
X156227950Y-69843737D01*
X156121689Y-69822600D01*
X156013351Y-69822600D01*
X155907089Y-69843737D01*
X155806997Y-69885196D01*
X155716915Y-69945387D01*
X155640307Y-70021995D01*
X155580116Y-70112077D01*
X155538657Y-70212169D01*
X155517520Y-70318430D01*
X154959887Y-70318430D01*
X155020307Y-70258010D01*
X155594407Y-69683911D01*
X155628029Y-69664500D01*
X155650737Y-69663757D01*
X155650737Y-69662600D01*
X155736915Y-69662600D01*
X155814196Y-69647227D01*
X155886991Y-69617075D01*
X155952505Y-69573299D01*
X156008219Y-69517585D01*
X156051995Y-69452071D01*
X156082147Y-69379276D01*
X156097520Y-69301995D01*
X156097520Y-69223204D01*
X156082147Y-69145923D01*
X156051993Y-69073126D01*
X156012667Y-69014269D01*
X156012667Y-69014270D01*
X156008219Y-69007614D01*
X155976890Y-68976285D01*
X158691932Y-68976285D01*
X158691932Y-69768914D01*
X158695191Y-69802007D01*
X158703767Y-69830277D01*
X158717697Y-69856339D01*
X158736441Y-69879178D01*
X158759280Y-69897922D01*
X158785342Y-69911852D01*
X158813612Y-69920428D01*
X158846705Y-69923688D01*
X160139335Y-69923688D01*
X160172427Y-69920428D01*
X160200697Y-69911852D01*
X160226759Y-69897922D01*
X160249598Y-69879178D01*
X160268342Y-69856339D01*
X160282272Y-69830277D01*
X160290848Y-69802007D01*
X160294108Y-69768914D01*
X160294108Y-68976285D01*
X160290848Y-68943192D01*
X160282272Y-68914922D01*
X160268342Y-68888860D01*
X160249598Y-68866021D01*
X160226759Y-68847277D01*
X160200697Y-68833347D01*
X160172427Y-68824771D01*
X160139335Y-68821512D01*
X158846705Y-68821512D01*
X158813612Y-68824771D01*
X158785342Y-68833347D01*
X158759280Y-68847277D01*
X158736441Y-68866021D01*
X158717697Y-68888860D01*
X158703767Y-68914922D01*
X158695191Y-68943192D01*
X158691932Y-68976285D01*
X155976890Y-68976285D01*
X155952505Y-68951900D01*
X155886991Y-68908124D01*
X155814196Y-68877972D01*
X155736915Y-68862600D01*
X155658125Y-68862600D01*
X155580843Y-68877972D01*
X155508048Y-68908124D01*
X155442534Y-68951900D01*
X155386820Y-69007614D01*
X155343044Y-69073128D01*
X155312892Y-69145923D01*
X155297520Y-69223204D01*
X155297520Y-69309383D01*
X155295991Y-69309383D01*
X155294197Y-69336784D01*
X155276209Y-69365713D01*
X152297153Y-72344770D01*
X152263531Y-72364181D01*
X152224709Y-72364181D01*
X152191087Y-72344770D01*
X152171676Y-72311148D01*
X152169120Y-72291737D01*
X152169120Y-71269970D01*
X152165864Y-71236774D01*
X152157233Y-71208236D01*
X152139727Y-71175419D01*
X152141577Y-71174431D01*
X152131153Y-71151358D01*
X152134999Y-71112726D01*
X152152131Y-71086187D01*
X152506202Y-70732116D01*
X152511656Y-70727173D01*
X152517388Y-70722468D01*
X152522093Y-70716736D01*
X152522094Y-70716735D01*
X152545502Y-70688211D01*
X152566399Y-70649114D01*
X152579263Y-70606709D01*
X152582881Y-70569982D01*
X152582881Y-70569973D01*
X152583607Y-70562601D01*
X152582881Y-70555229D01*
X152582520Y-70547878D01*
X152582520Y-67448430D01*
X154877520Y-67448430D01*
X154877520Y-67556769D01*
X154898657Y-67663030D01*
X154940116Y-67763122D01*
X155000307Y-67853204D01*
X155076915Y-67929812D01*
X155166997Y-67990003D01*
X155267089Y-68031462D01*
X155373351Y-68052600D01*
X155481689Y-68052600D01*
X155587950Y-68031462D01*
X155688042Y-67990003D01*
X155778124Y-67929812D01*
X155854732Y-67853204D01*
X155914924Y-67763120D01*
X155938466Y-67706285D01*
X158691932Y-67706285D01*
X158691932Y-68498914D01*
X158695191Y-68532007D01*
X158703767Y-68560277D01*
X158717697Y-68586339D01*
X158736441Y-68609178D01*
X158759280Y-68627922D01*
X158785342Y-68641852D01*
X158813612Y-68650428D01*
X158846705Y-68653688D01*
X160139335Y-68653688D01*
X160172427Y-68650428D01*
X160200697Y-68641852D01*
X160226759Y-68627922D01*
X160249598Y-68609178D01*
X160268342Y-68586339D01*
X160282272Y-68560277D01*
X160290848Y-68532007D01*
X160294108Y-68498914D01*
X160294108Y-67706285D01*
X160290848Y-67673192D01*
X160282272Y-67644922D01*
X160268342Y-67618860D01*
X160249598Y-67596021D01*
X160226759Y-67577277D01*
X160200697Y-67563347D01*
X160172427Y-67554771D01*
X160139335Y-67551512D01*
X158846705Y-67551512D01*
X158813612Y-67554771D01*
X158785342Y-67563347D01*
X158759280Y-67577277D01*
X158736441Y-67596021D01*
X158717697Y-67618860D01*
X158703767Y-67644922D01*
X158695191Y-67673192D01*
X158691932Y-67706285D01*
X155938466Y-67706285D01*
X155951880Y-67673900D01*
X155951881Y-67673896D01*
X155956383Y-67663027D01*
X155977520Y-67556769D01*
X155977520Y-67448430D01*
X155956382Y-67342169D01*
X155914923Y-67242077D01*
X155854732Y-67151995D01*
X155778124Y-67075387D01*
X155688042Y-67015196D01*
X155587950Y-66973737D01*
X155481689Y-66952600D01*
X155373351Y-66952600D01*
X155267089Y-66973737D01*
X155166997Y-67015196D01*
X155076915Y-67075387D01*
X155000307Y-67151995D01*
X154940116Y-67242077D01*
X154898657Y-67342169D01*
X154877520Y-67448430D01*
X152582520Y-67448430D01*
X152582520Y-66436285D01*
X158691932Y-66436285D01*
X158691932Y-67228914D01*
X158695191Y-67262007D01*
X158703767Y-67290277D01*
X158717697Y-67316339D01*
X158736441Y-67339178D01*
X158759280Y-67357922D01*
X158785342Y-67371852D01*
X158813612Y-67380428D01*
X158846705Y-67383688D01*
X160139335Y-67383688D01*
X160172427Y-67380428D01*
X160200697Y-67371852D01*
X160226759Y-67357922D01*
X160249598Y-67339178D01*
X160268342Y-67316339D01*
X160282272Y-67290277D01*
X160290848Y-67262007D01*
X160294108Y-67228914D01*
X160294108Y-66436285D01*
X160290848Y-66403192D01*
X160282272Y-66374922D01*
X160268342Y-66348860D01*
X160249598Y-66326021D01*
X160226759Y-66307277D01*
X160200697Y-66293347D01*
X160172427Y-66284771D01*
X160139335Y-66281512D01*
X158846705Y-66281512D01*
X158813612Y-66284771D01*
X158785342Y-66293347D01*
X158759280Y-66307277D01*
X158736441Y-66326021D01*
X158717697Y-66348860D01*
X158703767Y-66374922D01*
X158695191Y-66403192D01*
X158691932Y-66436285D01*
X152582520Y-66436285D01*
X152582520Y-65933424D01*
X152592568Y-65895924D01*
X152608098Y-65879339D01*
X152607282Y-65878523D01*
X152668219Y-65817585D01*
X152711995Y-65752071D01*
X152742147Y-65679276D01*
X152757520Y-65601995D01*
X152757520Y-65523204D01*
X152742147Y-65445923D01*
X152711995Y-65373128D01*
X152668219Y-65307614D01*
X152612504Y-65251899D01*
X152572188Y-65224961D01*
X152546990Y-65208124D01*
X152474196Y-65177972D01*
X152415441Y-65166285D01*
X158691932Y-65166285D01*
X158691932Y-65958914D01*
X158695191Y-65992007D01*
X158703767Y-66020277D01*
X158717697Y-66046339D01*
X158736441Y-66069178D01*
X158759280Y-66087922D01*
X158785342Y-66101852D01*
X158813612Y-66110428D01*
X158846705Y-66113688D01*
X160139335Y-66113688D01*
X160172427Y-66110428D01*
X160200697Y-66101852D01*
X160226759Y-66087922D01*
X160249598Y-66069178D01*
X160268342Y-66046339D01*
X160282272Y-66020277D01*
X160290848Y-65992007D01*
X160294108Y-65958914D01*
X160294108Y-65166285D01*
X160290848Y-65133192D01*
X160282272Y-65104922D01*
X160268342Y-65078860D01*
X160249598Y-65056021D01*
X160226759Y-65037277D01*
X160200697Y-65023347D01*
X160172427Y-65014771D01*
X160139335Y-65011512D01*
X158846705Y-65011512D01*
X158813612Y-65014771D01*
X158785342Y-65023347D01*
X158759280Y-65037277D01*
X158736441Y-65056021D01*
X158717697Y-65078860D01*
X158703767Y-65104922D01*
X158695191Y-65133192D01*
X158691932Y-65166285D01*
X152415441Y-65166285D01*
X152396915Y-65162600D01*
X152318125Y-65162600D01*
X152240843Y-65177972D01*
X152168048Y-65208124D01*
X152102534Y-65251900D01*
X152046820Y-65307614D01*
X152003044Y-65373128D01*
X151972892Y-65445923D01*
X151957520Y-65523204D01*
X151957520Y-65601995D01*
X151972892Y-65679276D01*
X152003044Y-65752071D01*
X152046820Y-65817585D01*
X152107758Y-65878523D01*
X152106678Y-65879602D01*
X152124789Y-65900260D01*
X152132520Y-65933424D01*
X152132521Y-70438335D01*
X152122473Y-70475835D01*
X152110554Y-70491368D01*
X151510452Y-71091470D01*
X151476830Y-71110881D01*
X151457357Y-71113437D01*
X149106086Y-71111490D01*
X149068594Y-71101411D01*
X149041165Y-71073936D01*
X149031148Y-71036428D01*
X149041227Y-70998936D01*
X149043788Y-70994821D01*
X149044925Y-70993119D01*
X149086382Y-70893030D01*
X149107520Y-70786769D01*
X149107520Y-70678430D01*
X149086382Y-70572169D01*
X149044923Y-70472077D01*
X148984732Y-70381995D01*
X148908124Y-70305387D01*
X148818042Y-70245196D01*
X148717950Y-70203737D01*
X148611689Y-70182600D01*
X148503351Y-70182600D01*
X148397089Y-70203737D01*
X148296997Y-70245196D01*
X148206915Y-70305387D01*
X148130307Y-70381995D01*
X148070116Y-70472077D01*
X148028657Y-70572169D01*
X148007520Y-70678430D01*
X148007520Y-70786769D01*
X148028657Y-70893030D01*
X148070115Y-70993121D01*
X148070646Y-70993915D01*
X148071560Y-70996609D01*
X148072943Y-70999947D01*
X148072724Y-71000037D01*
X148083124Y-71030678D01*
X148075550Y-71068755D01*
X148049952Y-71097943D01*
X148013189Y-71110421D01*
X148008223Y-71110582D01*
X147897468Y-71110490D01*
X147859976Y-71100411D01*
X147832547Y-71072936D01*
X147822530Y-71035490D01*
X147822530Y-68877340D01*
X147822891Y-68869988D01*
X147823617Y-68862607D01*
X147822804Y-68854343D01*
X147819273Y-68818500D01*
X147806408Y-68776090D01*
X147802562Y-68768895D01*
X147802560Y-68768892D01*
X147785515Y-68737003D01*
X147762104Y-68708476D01*
X147762104Y-68708475D01*
X147762103Y-68708474D01*
X147757398Y-68702741D01*
X147751666Y-68698037D01*
X147746212Y-68693094D01*
X145778831Y-66725714D01*
X145759420Y-66692092D01*
X145758676Y-66669383D01*
X145757520Y-66669383D01*
X145757520Y-66583204D01*
X145742147Y-66505923D01*
X145711995Y-66433128D01*
X145668219Y-66367614D01*
X145612505Y-66311900D01*
X145546991Y-66268124D01*
X145474196Y-66237972D01*
X145396915Y-66222600D01*
X145318125Y-66222600D01*
X145240843Y-66237972D01*
X145168048Y-66268124D01*
X145102534Y-66311900D01*
X145046820Y-66367614D01*
X145003044Y-66433128D01*
X144972892Y-66505923D01*
X144957520Y-66583204D01*
X144957520Y-66661995D01*
X144972892Y-66739276D01*
X145003044Y-66812071D01*
X145046820Y-66877585D01*
X145102534Y-66933299D01*
X145168048Y-66977075D01*
X145240843Y-67007227D01*
X145318125Y-67022600D01*
X145404303Y-67022600D01*
X145404303Y-67024127D01*
X145431709Y-67025924D01*
X145460634Y-67043911D01*
X147350564Y-68933842D01*
X147369975Y-68967464D01*
X147372531Y-68986875D01*
X147372530Y-71034993D01*
X147362482Y-71072493D01*
X147335030Y-71099945D01*
X147297530Y-71109993D01*
X147297468Y-71109993D01*
X146407448Y-71109256D01*
X146369956Y-71099177D01*
X146342527Y-71071702D01*
X146332510Y-71034256D01*
X146332510Y-69177312D01*
X146332871Y-69169961D01*
X146333597Y-69162589D01*
X146332871Y-69155217D01*
X146332871Y-69155208D01*
X146329253Y-69118480D01*
X146316388Y-69076072D01*
X146301014Y-69047308D01*
X146301013Y-69047306D01*
X146295493Y-69036979D01*
X146272084Y-69008455D01*
X146272083Y-69008454D01*
X146267378Y-69002721D01*
X146261646Y-68998017D01*
X146256192Y-68993074D01*
X145678831Y-68415714D01*
X145659420Y-68382092D01*
X145658676Y-68359383D01*
X145657520Y-68359383D01*
X145657520Y-68273204D01*
X145642147Y-68195923D01*
X145611995Y-68123128D01*
X145568219Y-68057614D01*
X145512505Y-68001900D01*
X145446991Y-67958124D01*
X145374196Y-67927972D01*
X145296915Y-67912600D01*
X145218125Y-67912600D01*
X145140843Y-67927972D01*
X145068048Y-67958124D01*
X145002534Y-68001900D01*
X144980553Y-68023882D01*
X144946931Y-68043293D01*
X144908109Y-68043293D01*
X144874487Y-68023882D01*
X144855076Y-67990260D01*
X144852520Y-67970849D01*
X144852520Y-67703424D01*
X144862568Y-67665924D01*
X144878098Y-67649339D01*
X144877282Y-67648523D01*
X144938219Y-67587585D01*
X144981995Y-67522071D01*
X145012147Y-67449276D01*
X145027520Y-67371995D01*
X145027520Y-67293204D01*
X145012147Y-67215923D01*
X144981995Y-67143128D01*
X144938219Y-67077614D01*
X144882505Y-67021900D01*
X144816991Y-66978124D01*
X144744196Y-66947972D01*
X144666915Y-66932600D01*
X144588125Y-66932600D01*
X144510843Y-66947972D01*
X144438048Y-66978124D01*
X144372534Y-67021900D01*
X144316820Y-67077614D01*
X144273044Y-67143128D01*
X144242892Y-67215923D01*
X144227520Y-67293204D01*
X144227520Y-67371995D01*
X144242892Y-67449276D01*
X144273044Y-67522071D01*
X144316820Y-67587585D01*
X144377758Y-67648523D01*
X144376678Y-67649602D01*
X144394789Y-67670260D01*
X144402520Y-67703424D01*
X144402521Y-70282145D01*
X144402160Y-70289496D01*
X144401432Y-70296877D01*
X144405777Y-70340987D01*
X144418641Y-70383394D01*
X144439537Y-70422488D01*
X144462946Y-70451012D01*
X144467651Y-70456745D01*
X144473384Y-70461450D01*
X144478838Y-70466393D01*
X144992452Y-70980008D01*
X145011863Y-71013630D01*
X145011863Y-71052452D01*
X144992452Y-71086074D01*
X144958830Y-71105485D01*
X144939357Y-71108041D01*
X143757572Y-71107063D01*
X143720080Y-71096984D01*
X143692651Y-71069509D01*
X143682634Y-71032001D01*
X143692713Y-70994509D01*
X143720188Y-70967080D01*
X143728933Y-70962772D01*
X143808042Y-70930003D01*
X143898124Y-70869812D01*
X143974732Y-70793204D01*
X144034923Y-70703122D01*
X144076382Y-70603030D01*
X144097520Y-70496769D01*
X144097520Y-70388430D01*
X144076382Y-70282169D01*
X144034923Y-70182077D01*
X143974732Y-70091995D01*
X143908370Y-70025633D01*
X143888959Y-69992011D01*
X143888959Y-69953189D01*
X143908370Y-69919567D01*
X143974732Y-69853204D01*
X144034923Y-69763122D01*
X144076382Y-69663030D01*
X144097520Y-69556769D01*
X144097520Y-69448430D01*
X144076382Y-69342169D01*
X144034923Y-69242077D01*
X143974732Y-69151995D01*
X143898124Y-69075387D01*
X143808042Y-69015196D01*
X143707950Y-68973737D01*
X143601689Y-68952600D01*
X143493351Y-68952600D01*
X143387089Y-68973737D01*
X143286997Y-69015196D01*
X143196915Y-69075387D01*
X143120307Y-69151995D01*
X143060116Y-69242077D01*
X143018657Y-69342169D01*
X142997520Y-69448430D01*
X142997520Y-69556769D01*
X143018657Y-69663030D01*
X143060116Y-69763122D01*
X143120307Y-69853204D01*
X143186670Y-69919567D01*
X143206081Y-69953189D01*
X143206081Y-69992011D01*
X143186670Y-70025633D01*
X143120307Y-70091995D01*
X143060116Y-70182077D01*
X143018657Y-70282169D01*
X142997520Y-70388430D01*
X142997520Y-70496769D01*
X143018657Y-70603030D01*
X143060116Y-70703122D01*
X143120307Y-70793204D01*
X143196915Y-70869812D01*
X143286997Y-70930003D01*
X143365266Y-70962423D01*
X143396066Y-70986056D01*
X143410923Y-71021924D01*
X143405856Y-71060415D01*
X143382223Y-71091215D01*
X143346355Y-71106072D01*
X143336503Y-71106714D01*
X136678946Y-71101203D01*
X136645443Y-71104488D01*
X136616936Y-71113136D01*
X136590656Y-71127183D01*
X136567613Y-71146093D01*
X136548703Y-71169136D01*
X136534656Y-71195416D01*
X136526003Y-71223938D01*
X136522720Y-71257284D01*
X136522720Y-81802600D01*
X136512672Y-81840100D01*
X136485220Y-81867552D01*
X136447720Y-81877600D01*
X133921084Y-81877600D01*
X133883584Y-81867552D01*
X133868051Y-81855633D01*
X130981268Y-78968850D01*
X130935622Y-78923204D01*
X133337520Y-78923204D01*
X133337520Y-79001995D01*
X133352892Y-79079276D01*
X133383044Y-79152071D01*
X133426820Y-79217585D01*
X133482534Y-79273299D01*
X133548048Y-79317075D01*
X133620843Y-79347227D01*
X133698125Y-79362600D01*
X133776915Y-79362600D01*
X133854196Y-79347227D01*
X133926991Y-79317075D01*
X133992505Y-79273299D01*
X134048219Y-79217585D01*
X134091995Y-79152071D01*
X134122147Y-79079276D01*
X134137520Y-79001995D01*
X134137520Y-78923204D01*
X134122147Y-78845923D01*
X134091995Y-78773128D01*
X134048219Y-78707614D01*
X133992505Y-78651900D01*
X133926991Y-78608124D01*
X133854196Y-78577972D01*
X133776915Y-78562600D01*
X133698125Y-78562600D01*
X133620843Y-78577972D01*
X133548048Y-78608124D01*
X133482534Y-78651900D01*
X133426820Y-78707614D01*
X133383044Y-78773128D01*
X133352892Y-78845923D01*
X133337520Y-78923204D01*
X130935622Y-78923204D01*
X130838787Y-78826370D01*
X130819376Y-78792749D01*
X130816820Y-78773337D01*
X130816820Y-76728424D01*
X130826868Y-76690924D01*
X130842398Y-76674339D01*
X130841582Y-76673523D01*
X130902519Y-76612585D01*
X130946295Y-76547071D01*
X130976447Y-76474276D01*
X130991820Y-76396995D01*
X130991820Y-76318204D01*
X130976447Y-76240923D01*
X130946295Y-76168128D01*
X130902519Y-76102614D01*
X130846805Y-76046900D01*
X130781291Y-76003124D01*
X130708496Y-75972972D01*
X130631215Y-75957600D01*
X130552425Y-75957600D01*
X130475143Y-75972972D01*
X130402348Y-76003124D01*
X130336834Y-76046900D01*
X130331141Y-76052594D01*
X130297519Y-76072005D01*
X130258697Y-76072005D01*
X130225075Y-76052594D01*
X130205664Y-76018972D01*
X130203108Y-75999561D01*
X130203108Y-75326285D01*
X130199848Y-75293192D01*
X130191272Y-75264922D01*
X130177342Y-75238860D01*
X130158598Y-75216021D01*
X130135759Y-75197277D01*
X130109697Y-75183347D01*
X130081427Y-75174771D01*
X130048335Y-75171512D01*
X128755705Y-75171512D01*
X128722612Y-75174771D01*
X128694342Y-75183347D01*
X128668280Y-75197277D01*
X128645441Y-75216021D01*
X128626697Y-75238860D01*
X128612767Y-75264922D01*
X128604191Y-75293192D01*
X128600932Y-75326285D01*
X125572520Y-75326285D01*
X125572520Y-74056285D01*
X128600932Y-74056285D01*
X128600932Y-74848914D01*
X128604191Y-74882007D01*
X128612767Y-74910277D01*
X128626697Y-74936339D01*
X128645441Y-74959178D01*
X128668280Y-74977922D01*
X128694342Y-74991852D01*
X128722612Y-75000428D01*
X128755705Y-75003688D01*
X130048335Y-75003688D01*
X130081427Y-75000428D01*
X130109697Y-74991852D01*
X130135759Y-74977922D01*
X130158598Y-74959178D01*
X130177342Y-74936339D01*
X130191272Y-74910277D01*
X130199848Y-74882007D01*
X130203108Y-74848914D01*
X130203108Y-74568430D01*
X133237520Y-74568430D01*
X133237520Y-74676769D01*
X133258657Y-74783030D01*
X133300116Y-74883122D01*
X133360307Y-74973204D01*
X133436915Y-75049812D01*
X133526997Y-75110003D01*
X133627089Y-75151462D01*
X133733351Y-75172600D01*
X133841689Y-75172600D01*
X133947950Y-75151462D01*
X134048042Y-75110003D01*
X134138124Y-75049812D01*
X134214732Y-74973204D01*
X134274923Y-74883122D01*
X134316382Y-74783030D01*
X134337520Y-74676769D01*
X134337520Y-74568430D01*
X134316382Y-74462169D01*
X134274923Y-74362077D01*
X134214732Y-74271995D01*
X134138124Y-74195387D01*
X134048042Y-74135196D01*
X133947950Y-74093737D01*
X133841689Y-74072600D01*
X133733351Y-74072600D01*
X133627089Y-74093737D01*
X133526997Y-74135196D01*
X133436915Y-74195387D01*
X133360307Y-74271995D01*
X133300116Y-74362077D01*
X133258657Y-74462169D01*
X133237520Y-74568430D01*
X130203108Y-74568430D01*
X130203108Y-74056285D01*
X130199848Y-74023192D01*
X130191272Y-73994922D01*
X130177342Y-73968860D01*
X130158598Y-73946021D01*
X130135759Y-73927277D01*
X130109697Y-73913347D01*
X130081427Y-73904771D01*
X130048335Y-73901512D01*
X128755705Y-73901512D01*
X128722612Y-73904771D01*
X128694342Y-73913347D01*
X128668280Y-73927277D01*
X128645441Y-73946021D01*
X128626697Y-73968860D01*
X128612767Y-73994922D01*
X128604191Y-74023192D01*
X128600932Y-74056285D01*
X125572520Y-74056285D01*
X125572520Y-73579062D01*
X128600945Y-73579062D01*
X128604190Y-73612007D01*
X128612766Y-73640278D01*
X128626696Y-73666339D01*
X128645440Y-73689179D01*
X128668280Y-73707923D01*
X128694341Y-73721853D01*
X128722612Y-73730429D01*
X128755625Y-73733681D01*
X129239638Y-73732665D01*
X129252020Y-73720284D01*
X129552020Y-73720284D01*
X129564401Y-73732665D01*
X130048414Y-73733681D01*
X130081427Y-73730429D01*
X130109698Y-73721853D01*
X130135759Y-73707923D01*
X130158599Y-73689179D01*
X130177343Y-73666339D01*
X130191273Y-73640278D01*
X130199849Y-73612007D01*
X130203094Y-73579062D01*
X130202146Y-73345042D01*
X130189704Y-73332600D01*
X129552020Y-73332600D01*
X129552020Y-73720284D01*
X129252020Y-73720284D01*
X129252020Y-73332600D01*
X128614336Y-73332600D01*
X128601893Y-73345042D01*
X128600945Y-73579062D01*
X125572520Y-73579062D01*
X125572520Y-72786137D01*
X128600945Y-72786137D01*
X128601893Y-73020157D01*
X128614336Y-73032600D01*
X129252020Y-73032600D01*
X129252020Y-72644916D01*
X129552020Y-72644916D01*
X129552020Y-73032600D01*
X130189704Y-73032600D01*
X130202146Y-73020157D01*
X130203094Y-72786137D01*
X130199849Y-72753192D01*
X130191273Y-72724921D01*
X130177343Y-72698860D01*
X130158599Y-72676020D01*
X130135759Y-72657276D01*
X130109698Y-72643346D01*
X130081427Y-72634770D01*
X130048414Y-72631518D01*
X129564401Y-72632534D01*
X129552020Y-72644916D01*
X129252020Y-72644916D01*
X129239638Y-72632534D01*
X128755625Y-72631518D01*
X128722612Y-72634770D01*
X128694341Y-72643346D01*
X128668280Y-72657276D01*
X128645440Y-72676020D01*
X128626696Y-72698860D01*
X128612766Y-72724921D01*
X128604190Y-72753192D01*
X128600945Y-72786137D01*
X125572520Y-72786137D01*
X125572520Y-71516285D01*
X128600932Y-71516285D01*
X128600932Y-72308914D01*
X128604191Y-72342007D01*
X128612767Y-72370277D01*
X128626697Y-72396339D01*
X128645441Y-72419178D01*
X128668280Y-72437922D01*
X128694342Y-72451852D01*
X128722612Y-72460428D01*
X128755705Y-72463688D01*
X130048335Y-72463688D01*
X130081427Y-72460428D01*
X130109697Y-72451852D01*
X130135759Y-72437922D01*
X130158598Y-72419178D01*
X130177342Y-72396339D01*
X130191272Y-72370277D01*
X130199848Y-72342007D01*
X130203108Y-72308914D01*
X130203108Y-71516285D01*
X130199848Y-71483192D01*
X130191272Y-71454922D01*
X130177342Y-71428860D01*
X130158598Y-71406021D01*
X130135759Y-71387277D01*
X130109697Y-71373347D01*
X130081427Y-71364771D01*
X130048335Y-71361512D01*
X128755705Y-71361512D01*
X128722612Y-71364771D01*
X128694342Y-71373347D01*
X128668280Y-71387277D01*
X128645441Y-71406021D01*
X128626697Y-71428860D01*
X128612767Y-71454922D01*
X128604191Y-71483192D01*
X128600932Y-71516285D01*
X125572520Y-71516285D01*
X125572520Y-70246285D01*
X128600932Y-70246285D01*
X128600932Y-71038914D01*
X128604191Y-71072007D01*
X128612767Y-71100277D01*
X128626697Y-71126339D01*
X128645441Y-71149178D01*
X128668280Y-71167922D01*
X128694342Y-71181852D01*
X128722612Y-71190428D01*
X128755705Y-71193688D01*
X130048335Y-71193688D01*
X130081427Y-71190428D01*
X130109697Y-71181852D01*
X130135759Y-71167922D01*
X130158598Y-71149178D01*
X130177342Y-71126339D01*
X130191272Y-71100277D01*
X130199848Y-71072007D01*
X130203108Y-71038914D01*
X130203108Y-70246285D01*
X130199848Y-70213192D01*
X130191272Y-70184922D01*
X130177342Y-70158860D01*
X130158598Y-70136021D01*
X130135759Y-70117277D01*
X130109697Y-70103347D01*
X130081427Y-70094771D01*
X130048335Y-70091512D01*
X128755705Y-70091512D01*
X128722612Y-70094771D01*
X128694342Y-70103347D01*
X128668280Y-70117277D01*
X128645441Y-70136021D01*
X128626697Y-70158860D01*
X128612767Y-70184922D01*
X128604191Y-70213192D01*
X128600932Y-70246285D01*
X125572520Y-70246285D01*
X125572520Y-68976285D01*
X128600932Y-68976285D01*
X128600932Y-69768914D01*
X128604191Y-69802007D01*
X128612767Y-69830277D01*
X128626697Y-69856339D01*
X128645441Y-69879178D01*
X128668280Y-69897922D01*
X128694342Y-69911852D01*
X128722612Y-69920428D01*
X128755705Y-69923688D01*
X130048335Y-69923688D01*
X130081427Y-69920428D01*
X130109697Y-69911852D01*
X130135759Y-69897922D01*
X130158598Y-69879178D01*
X130177342Y-69856339D01*
X130191272Y-69830277D01*
X130199848Y-69802007D01*
X130203108Y-69768914D01*
X130203108Y-69678430D01*
X132937520Y-69678430D01*
X132937520Y-69786769D01*
X132958657Y-69893030D01*
X133000116Y-69993122D01*
X133060307Y-70083204D01*
X133136915Y-70159812D01*
X133226997Y-70220003D01*
X133327089Y-70261462D01*
X133433351Y-70282600D01*
X133541689Y-70282600D01*
X133647950Y-70261462D01*
X133748042Y-70220003D01*
X133838124Y-70159812D01*
X133914732Y-70083204D01*
X133974923Y-69993122D01*
X134016382Y-69893030D01*
X134037520Y-69786769D01*
X134037520Y-69678430D01*
X134016382Y-69572169D01*
X133974923Y-69472077D01*
X133914732Y-69381995D01*
X133838124Y-69305387D01*
X133748042Y-69245196D01*
X133647950Y-69203737D01*
X133541689Y-69182600D01*
X133433351Y-69182600D01*
X133327089Y-69203737D01*
X133226997Y-69245196D01*
X133136915Y-69305387D01*
X133060307Y-69381995D01*
X133000116Y-69472077D01*
X132958657Y-69572169D01*
X132937520Y-69678430D01*
X130203108Y-69678430D01*
X130203108Y-68976285D01*
X130199848Y-68943192D01*
X130191272Y-68914922D01*
X130177342Y-68888860D01*
X130158598Y-68866021D01*
X130135759Y-68847277D01*
X130109697Y-68833347D01*
X130081427Y-68824771D01*
X130048335Y-68821512D01*
X128755705Y-68821512D01*
X128722612Y-68824771D01*
X128694342Y-68833347D01*
X128668280Y-68847277D01*
X128645441Y-68866021D01*
X128626697Y-68888860D01*
X128612767Y-68914922D01*
X128604191Y-68943192D01*
X128600932Y-68976285D01*
X125572520Y-68976285D01*
X125572520Y-67706285D01*
X128600932Y-67706285D01*
X128600932Y-68498914D01*
X128604191Y-68532007D01*
X128612767Y-68560277D01*
X128626697Y-68586339D01*
X128645441Y-68609178D01*
X128668280Y-68627922D01*
X128694342Y-68641852D01*
X128722612Y-68650428D01*
X128755705Y-68653688D01*
X130048335Y-68653688D01*
X130081427Y-68650428D01*
X130109697Y-68641852D01*
X130135759Y-68627922D01*
X130158598Y-68609178D01*
X130177342Y-68586339D01*
X130191272Y-68560277D01*
X130199848Y-68532007D01*
X130203108Y-68498914D01*
X130203108Y-67706285D01*
X130199848Y-67673192D01*
X130191272Y-67644922D01*
X130177342Y-67618860D01*
X130158598Y-67596021D01*
X130135759Y-67577277D01*
X130109697Y-67563347D01*
X130081427Y-67554771D01*
X130048335Y-67551512D01*
X128755705Y-67551512D01*
X128722612Y-67554771D01*
X128694342Y-67563347D01*
X128668280Y-67577277D01*
X128645441Y-67596021D01*
X128626697Y-67618860D01*
X128612767Y-67644922D01*
X128604191Y-67673192D01*
X128600932Y-67706285D01*
X125572520Y-67706285D01*
X125572520Y-66436285D01*
X128600932Y-66436285D01*
X128600932Y-67228914D01*
X128604191Y-67262007D01*
X128612767Y-67290277D01*
X128626697Y-67316339D01*
X128645441Y-67339178D01*
X128668280Y-67357922D01*
X128694342Y-67371852D01*
X128722612Y-67380428D01*
X128755705Y-67383688D01*
X130048335Y-67383688D01*
X130081427Y-67380428D01*
X130109697Y-67371852D01*
X130135759Y-67357922D01*
X130158598Y-67339178D01*
X130177342Y-67316339D01*
X130191272Y-67290277D01*
X130199848Y-67262007D01*
X130203108Y-67228914D01*
X130203108Y-66436285D01*
X130199848Y-66403192D01*
X130191272Y-66374922D01*
X130177342Y-66348860D01*
X130158598Y-66326021D01*
X130135759Y-66307277D01*
X130109697Y-66293347D01*
X130081427Y-66284771D01*
X130048335Y-66281512D01*
X128755705Y-66281512D01*
X128722612Y-66284771D01*
X128694342Y-66293347D01*
X128668280Y-66307277D01*
X128645441Y-66326021D01*
X128626697Y-66348860D01*
X128612767Y-66374922D01*
X128604191Y-66403192D01*
X128600932Y-66436285D01*
X125572520Y-66436285D01*
X125572520Y-65166285D01*
X128600932Y-65166285D01*
X128600932Y-65958914D01*
X128604191Y-65992007D01*
X128612767Y-66020277D01*
X128626697Y-66046339D01*
X128645441Y-66069178D01*
X128668280Y-66087922D01*
X128694342Y-66101852D01*
X128722612Y-66110428D01*
X128755705Y-66113688D01*
X130048335Y-66113688D01*
X130081427Y-66110428D01*
X130109697Y-66101852D01*
X130135759Y-66087922D01*
X130158598Y-66069178D01*
X130177342Y-66046339D01*
X130191272Y-66020277D01*
X130199848Y-65992007D01*
X130203108Y-65958914D01*
X130203108Y-65918430D01*
X132747520Y-65918430D01*
X132747520Y-66026769D01*
X132768657Y-66133030D01*
X132810116Y-66233122D01*
X132870307Y-66323204D01*
X132946915Y-66399812D01*
X133036997Y-66460003D01*
X133137089Y-66501462D01*
X133243351Y-66522600D01*
X133351689Y-66522600D01*
X133457950Y-66501462D01*
X133558042Y-66460003D01*
X133648124Y-66399812D01*
X133724732Y-66323204D01*
X133784923Y-66233122D01*
X133826382Y-66133030D01*
X133847520Y-66026769D01*
X133847520Y-65918430D01*
X133826382Y-65812169D01*
X133784923Y-65712077D01*
X133724732Y-65621995D01*
X133648124Y-65545387D01*
X133558042Y-65485196D01*
X133457950Y-65443737D01*
X133351689Y-65422600D01*
X133243351Y-65422600D01*
X133137089Y-65443737D01*
X133036997Y-65485196D01*
X132946915Y-65545387D01*
X132870307Y-65621995D01*
X132810116Y-65712077D01*
X132768657Y-65812169D01*
X132747520Y-65918430D01*
X130203108Y-65918430D01*
X130203108Y-65166285D01*
X130199848Y-65133192D01*
X130191272Y-65104922D01*
X130177342Y-65078860D01*
X130158598Y-65056021D01*
X130135759Y-65037277D01*
X130109697Y-65023347D01*
X130081427Y-65014771D01*
X130048335Y-65011512D01*
X128755705Y-65011512D01*
X128722612Y-65014771D01*
X128694342Y-65023347D01*
X128668280Y-65037277D01*
X128645441Y-65056021D01*
X128626697Y-65078860D01*
X128612767Y-65104922D01*
X128604191Y-65133192D01*
X128600932Y-65166285D01*
X125572520Y-65166285D01*
X125572520Y-65008430D01*
X130447520Y-65008430D01*
X130447520Y-65116769D01*
X130468657Y-65223030D01*
X130510116Y-65323122D01*
X130570307Y-65413204D01*
X130646915Y-65489812D01*
X130736997Y-65550003D01*
X130837089Y-65591462D01*
X130943351Y-65612600D01*
X131051689Y-65612600D01*
X131157950Y-65591462D01*
X131258042Y-65550003D01*
X131348124Y-65489812D01*
X131424732Y-65413204D01*
X131484923Y-65323122D01*
X131526382Y-65223030D01*
X131547520Y-65116769D01*
X131547520Y-65008430D01*
X131526382Y-64902169D01*
X131484923Y-64802077D01*
X131424732Y-64711995D01*
X131348124Y-64635387D01*
X131258042Y-64575196D01*
X131157950Y-64533737D01*
X131051689Y-64512600D01*
X130943351Y-64512600D01*
X130837089Y-64533737D01*
X130736997Y-64575196D01*
X130646915Y-64635387D01*
X130570307Y-64711995D01*
X130510116Y-64802077D01*
X130468657Y-64902169D01*
X130447520Y-65008430D01*
X125572520Y-65008430D01*
X125572520Y-63896285D01*
X128600932Y-63896285D01*
X128600932Y-64688914D01*
X128604191Y-64722007D01*
X128612767Y-64750277D01*
X128626697Y-64776339D01*
X128645441Y-64799178D01*
X128668280Y-64817922D01*
X128694342Y-64831852D01*
X128722612Y-64840428D01*
X128755705Y-64843688D01*
X130048335Y-64843688D01*
X130081427Y-64840428D01*
X130109697Y-64831852D01*
X130135759Y-64817922D01*
X130158598Y-64799178D01*
X130177342Y-64776339D01*
X130191272Y-64750277D01*
X130199848Y-64722007D01*
X130203108Y-64688914D01*
X130203108Y-64148430D01*
X157647520Y-64148430D01*
X157647520Y-64256769D01*
X157668657Y-64363030D01*
X157710116Y-64463122D01*
X157770307Y-64553204D01*
X157846915Y-64629812D01*
X157936997Y-64690003D01*
X158037089Y-64731462D01*
X158143351Y-64752600D01*
X158251689Y-64752600D01*
X158357950Y-64731462D01*
X158458042Y-64690003D01*
X158548124Y-64629812D01*
X158563899Y-64614038D01*
X158597521Y-64594627D01*
X158636343Y-64594627D01*
X158669965Y-64614038D01*
X158689376Y-64647660D01*
X158691932Y-64667071D01*
X158691932Y-64688914D01*
X158695191Y-64722007D01*
X158703767Y-64750277D01*
X158717697Y-64776339D01*
X158736441Y-64799178D01*
X158759280Y-64817922D01*
X158785342Y-64831852D01*
X158813612Y-64840428D01*
X158846705Y-64843688D01*
X160139335Y-64843688D01*
X160172427Y-64840428D01*
X160200697Y-64831852D01*
X160226759Y-64817922D01*
X160249598Y-64799178D01*
X160268342Y-64776339D01*
X160282272Y-64750277D01*
X160290848Y-64722007D01*
X160294108Y-64688914D01*
X160294108Y-63896285D01*
X160290848Y-63863192D01*
X160282272Y-63834922D01*
X160268342Y-63808860D01*
X160249598Y-63786021D01*
X160226759Y-63767277D01*
X160200697Y-63753347D01*
X160172427Y-63744771D01*
X160139335Y-63741512D01*
X158846705Y-63741512D01*
X158813612Y-63744771D01*
X158785342Y-63753347D01*
X158759280Y-63767277D01*
X158736441Y-63786021D01*
X158713010Y-63814572D01*
X158712524Y-63814173D01*
X158691415Y-63836707D01*
X158654263Y-63847973D01*
X158616455Y-63839154D01*
X158598783Y-63826046D01*
X158548124Y-63775387D01*
X158458042Y-63715196D01*
X158357950Y-63673737D01*
X158251689Y-63652600D01*
X158143351Y-63652600D01*
X158037089Y-63673737D01*
X157936997Y-63715196D01*
X157846915Y-63775387D01*
X157770307Y-63851995D01*
X157710116Y-63942077D01*
X157668657Y-64042169D01*
X157647520Y-64148430D01*
X130203108Y-64148430D01*
X130203108Y-63896285D01*
X130199848Y-63863192D01*
X130191272Y-63834922D01*
X130177342Y-63808860D01*
X130158598Y-63786021D01*
X130135759Y-63767277D01*
X130109697Y-63753347D01*
X130081427Y-63744771D01*
X130048335Y-63741512D01*
X128755705Y-63741512D01*
X128722612Y-63744771D01*
X128694342Y-63753347D01*
X128668280Y-63767277D01*
X128645441Y-63786021D01*
X128626697Y-63808860D01*
X128612767Y-63834922D01*
X128604191Y-63863192D01*
X128600932Y-63896285D01*
X125572520Y-63896285D01*
X125572520Y-62626285D01*
X128600932Y-62626285D01*
X128600932Y-63418914D01*
X128604191Y-63452007D01*
X128612767Y-63480277D01*
X128626697Y-63506339D01*
X128645441Y-63529178D01*
X128668280Y-63547922D01*
X128694342Y-63561852D01*
X128722612Y-63570428D01*
X128755705Y-63573688D01*
X130048335Y-63573688D01*
X130081427Y-63570428D01*
X130109697Y-63561852D01*
X130135759Y-63547922D01*
X130158598Y-63529178D01*
X130177342Y-63506339D01*
X130191272Y-63480277D01*
X130199848Y-63452007D01*
X130203108Y-63418914D01*
X130203108Y-62626285D01*
X130199848Y-62593192D01*
X130191272Y-62564922D01*
X130177342Y-62538860D01*
X130158598Y-62516021D01*
X130135759Y-62497277D01*
X130109697Y-62483347D01*
X130081427Y-62474771D01*
X130048335Y-62471512D01*
X128755705Y-62471512D01*
X128722612Y-62474771D01*
X128694342Y-62483347D01*
X128668280Y-62497277D01*
X128645441Y-62516021D01*
X128626697Y-62538860D01*
X128612767Y-62564922D01*
X128604191Y-62593192D01*
X128600932Y-62626285D01*
X125572520Y-62626285D01*
X125572520Y-61356285D01*
X128600932Y-61356285D01*
X128600932Y-62148914D01*
X128604191Y-62182007D01*
X128612767Y-62210277D01*
X128626697Y-62236339D01*
X128645441Y-62259178D01*
X128668280Y-62277922D01*
X128694342Y-62291852D01*
X128722612Y-62300428D01*
X128755705Y-62303688D01*
X130048335Y-62303688D01*
X130081427Y-62300428D01*
X130086273Y-62298958D01*
X131482520Y-62298958D01*
X131482520Y-62476241D01*
X131517106Y-62650121D01*
X131584950Y-62813910D01*
X131683444Y-62961317D01*
X131808802Y-63086675D01*
X131956209Y-63185169D01*
X132119998Y-63253013D01*
X132293878Y-63287600D01*
X132471162Y-63287600D01*
X132645041Y-63253013D01*
X132808830Y-63185169D01*
X132956237Y-63086675D01*
X133081595Y-62961317D01*
X133180089Y-62813910D01*
X133247933Y-62650121D01*
X133282520Y-62476241D01*
X133282520Y-62298957D01*
X133250042Y-62135676D01*
X133248600Y-62128430D01*
X143907520Y-62128430D01*
X143907520Y-62236769D01*
X143928657Y-62343030D01*
X143970116Y-62443122D01*
X144030307Y-62533204D01*
X144106915Y-62609812D01*
X144196997Y-62670003D01*
X144297089Y-62711462D01*
X144403351Y-62732600D01*
X144511689Y-62732600D01*
X144617950Y-62711462D01*
X144718042Y-62670003D01*
X144808124Y-62609812D01*
X144884732Y-62533204D01*
X144944923Y-62443122D01*
X144986382Y-62343030D01*
X144995149Y-62298958D01*
X155612520Y-62298958D01*
X155612520Y-62476241D01*
X155647106Y-62650121D01*
X155714950Y-62813910D01*
X155813444Y-62961317D01*
X155938802Y-63086675D01*
X156086209Y-63185169D01*
X156249998Y-63253013D01*
X156423878Y-63287600D01*
X156601162Y-63287600D01*
X156775041Y-63253013D01*
X156938830Y-63185169D01*
X157086237Y-63086675D01*
X157211595Y-62961317D01*
X157310089Y-62813910D01*
X157377934Y-62650120D01*
X157382675Y-62626285D01*
X158691932Y-62626285D01*
X158691932Y-63418914D01*
X158695191Y-63452007D01*
X158703767Y-63480277D01*
X158717697Y-63506339D01*
X158736441Y-63529178D01*
X158759280Y-63547922D01*
X158785342Y-63561852D01*
X158813612Y-63570428D01*
X158846705Y-63573688D01*
X160139335Y-63573688D01*
X160172427Y-63570428D01*
X160200697Y-63561852D01*
X160226759Y-63547922D01*
X160249598Y-63529178D01*
X160268342Y-63506339D01*
X160282272Y-63480277D01*
X160290848Y-63452007D01*
X160294108Y-63418914D01*
X160294108Y-62626285D01*
X160290848Y-62593192D01*
X160282272Y-62564922D01*
X160268342Y-62538860D01*
X160249598Y-62516021D01*
X160226759Y-62497277D01*
X160200697Y-62483347D01*
X160172427Y-62474771D01*
X160139335Y-62471512D01*
X158846705Y-62471512D01*
X158813612Y-62474771D01*
X158785342Y-62483347D01*
X158759280Y-62497277D01*
X158736441Y-62516021D01*
X158717697Y-62538860D01*
X158703767Y-62564922D01*
X158695191Y-62593192D01*
X158691932Y-62626285D01*
X157382675Y-62626285D01*
X157386318Y-62607969D01*
X157386318Y-62607968D01*
X157412520Y-62476241D01*
X157412520Y-62298958D01*
X157377933Y-62125078D01*
X157310089Y-61961289D01*
X157211595Y-61813882D01*
X157086237Y-61688524D01*
X156938830Y-61590030D01*
X156775041Y-61522186D01*
X156601162Y-61487600D01*
X156423878Y-61487600D01*
X156249998Y-61522186D01*
X156086209Y-61590030D01*
X155938802Y-61688524D01*
X155813444Y-61813882D01*
X155714950Y-61961289D01*
X155647106Y-62125078D01*
X155612520Y-62298958D01*
X144995149Y-62298958D01*
X144999529Y-62276939D01*
X144999529Y-62276938D01*
X145007520Y-62236767D01*
X145007520Y-62128430D01*
X144986382Y-62022169D01*
X144944923Y-61922077D01*
X144884732Y-61831995D01*
X144808124Y-61755387D01*
X144718042Y-61695196D01*
X144617950Y-61653737D01*
X144511689Y-61632600D01*
X144403351Y-61632600D01*
X144297089Y-61653737D01*
X144196997Y-61695196D01*
X144106915Y-61755387D01*
X144030307Y-61831995D01*
X143970116Y-61922077D01*
X143928657Y-62022169D01*
X143907520Y-62128430D01*
X133248600Y-62128430D01*
X133247933Y-62125078D01*
X133180089Y-61961289D01*
X133081595Y-61813882D01*
X132956237Y-61688524D01*
X132808830Y-61590030D01*
X132645041Y-61522186D01*
X132471162Y-61487600D01*
X132293878Y-61487600D01*
X132119998Y-61522186D01*
X131956209Y-61590030D01*
X131808802Y-61688524D01*
X131683444Y-61813882D01*
X131584950Y-61961289D01*
X131517106Y-62125078D01*
X131482520Y-62298958D01*
X130086273Y-62298958D01*
X130109697Y-62291852D01*
X130135759Y-62277922D01*
X130158598Y-62259178D01*
X130171063Y-62243991D01*
X130177342Y-62236339D01*
X130191272Y-62210277D01*
X130199848Y-62182007D01*
X130203108Y-62148914D01*
X130203108Y-61356285D01*
X130199848Y-61323192D01*
X130191272Y-61294922D01*
X130177342Y-61268860D01*
X130158598Y-61246021D01*
X130135759Y-61227277D01*
X130109697Y-61213347D01*
X130081427Y-61204771D01*
X130048335Y-61201512D01*
X128755705Y-61201512D01*
X128722612Y-61204771D01*
X128694342Y-61213347D01*
X128668280Y-61227277D01*
X128645441Y-61246021D01*
X128626697Y-61268860D01*
X128612767Y-61294922D01*
X128604191Y-61323192D01*
X128600932Y-61356285D01*
X125572520Y-61356285D01*
X125572520Y-60693204D01*
X135787520Y-60693204D01*
X135787520Y-60771995D01*
X135802892Y-60849276D01*
X135833044Y-60922071D01*
X135876820Y-60987585D01*
X135932534Y-61043299D01*
X135998048Y-61087075D01*
X136070843Y-61117227D01*
X136148125Y-61132600D01*
X136226915Y-61132600D01*
X136304196Y-61117227D01*
X136376991Y-61087075D01*
X136442505Y-61043299D01*
X136498219Y-60987585D01*
X136531063Y-60938430D01*
X142627520Y-60938430D01*
X142627520Y-61046769D01*
X142648657Y-61153030D01*
X142690116Y-61253122D01*
X142750307Y-61343204D01*
X142826915Y-61419812D01*
X142916997Y-61480003D01*
X143017089Y-61521462D01*
X143123351Y-61542600D01*
X143231689Y-61542600D01*
X143337950Y-61521462D01*
X143438042Y-61480003D01*
X143528124Y-61419812D01*
X143591651Y-61356285D01*
X158691932Y-61356285D01*
X158691932Y-62148914D01*
X158695191Y-62182007D01*
X158703767Y-62210277D01*
X158717697Y-62236339D01*
X158736441Y-62259178D01*
X158759280Y-62277922D01*
X158785342Y-62291852D01*
X158813612Y-62300428D01*
X158846705Y-62303688D01*
X160139335Y-62303688D01*
X160172427Y-62300428D01*
X160200697Y-62291852D01*
X160226759Y-62277922D01*
X160249598Y-62259178D01*
X160268342Y-62236339D01*
X160282272Y-62210277D01*
X160290848Y-62182007D01*
X160294108Y-62148914D01*
X160294108Y-61356285D01*
X160290848Y-61323192D01*
X160282272Y-61294922D01*
X160268342Y-61268860D01*
X160249598Y-61246021D01*
X160226759Y-61227277D01*
X160200697Y-61213347D01*
X160172427Y-61204771D01*
X160139335Y-61201512D01*
X158846705Y-61201512D01*
X158813612Y-61204771D01*
X158785342Y-61213347D01*
X158759280Y-61227277D01*
X158736441Y-61246021D01*
X158717697Y-61268860D01*
X158703767Y-61294922D01*
X158695191Y-61323192D01*
X158691932Y-61356285D01*
X143591651Y-61356285D01*
X143604731Y-61343205D01*
X143626295Y-61310933D01*
X143626296Y-61310932D01*
X143664923Y-61253122D01*
X143706382Y-61153030D01*
X143727520Y-61046769D01*
X143727520Y-60938430D01*
X143706382Y-60832169D01*
X143664923Y-60732077D01*
X143604732Y-60641995D01*
X143528124Y-60565387D01*
X143438042Y-60505196D01*
X143337950Y-60463737D01*
X143231689Y-60442600D01*
X143123351Y-60442600D01*
X143017089Y-60463737D01*
X142916997Y-60505196D01*
X142826915Y-60565387D01*
X142750307Y-60641995D01*
X142690116Y-60732077D01*
X142648657Y-60832169D01*
X142627520Y-60938430D01*
X136531063Y-60938430D01*
X136541994Y-60922071D01*
X136550167Y-60902342D01*
X136550167Y-60902341D01*
X136572148Y-60849274D01*
X136587520Y-60771995D01*
X136587520Y-60693204D01*
X136572147Y-60615923D01*
X136541995Y-60543128D01*
X136498219Y-60477614D01*
X136442505Y-60421900D01*
X136376991Y-60378124D01*
X136304196Y-60347972D01*
X136226915Y-60332600D01*
X136148125Y-60332600D01*
X136070843Y-60347972D01*
X135998048Y-60378124D01*
X135932534Y-60421900D01*
X135876820Y-60477614D01*
X135833044Y-60543128D01*
X135802892Y-60615923D01*
X135787520Y-60693204D01*
X125572520Y-60693204D01*
X125572520Y-59506152D01*
X125582568Y-59468652D01*
X125594487Y-59453119D01*
X126286821Y-58760785D01*
X131196432Y-58760785D01*
X131196432Y-60053414D01*
X131199691Y-60086507D01*
X131208267Y-60114777D01*
X131222197Y-60140839D01*
X131240941Y-60163678D01*
X131263780Y-60182422D01*
X131289842Y-60196352D01*
X131318112Y-60204928D01*
X131351205Y-60208188D01*
X132143835Y-60208188D01*
X132176927Y-60204928D01*
X132205197Y-60196352D01*
X132231259Y-60182422D01*
X132254098Y-60163678D01*
X132272842Y-60140839D01*
X132286772Y-60114777D01*
X132295348Y-60086507D01*
X132298608Y-60053414D01*
X132298608Y-58760785D01*
X132466432Y-58760785D01*
X132466432Y-60053414D01*
X132469691Y-60086507D01*
X132478267Y-60114777D01*
X132492197Y-60140839D01*
X132510941Y-60163678D01*
X132533780Y-60182422D01*
X132559842Y-60196352D01*
X132588112Y-60204928D01*
X132621205Y-60208188D01*
X133413835Y-60208188D01*
X133446927Y-60204928D01*
X133475197Y-60196352D01*
X133501259Y-60182422D01*
X133524098Y-60163678D01*
X133542842Y-60140839D01*
X133556772Y-60114777D01*
X133565348Y-60086507D01*
X133568608Y-60053414D01*
X133568608Y-58760785D01*
X133736432Y-58760785D01*
X133736432Y-60053414D01*
X133739691Y-60086507D01*
X133748267Y-60114777D01*
X133762197Y-60140839D01*
X133780941Y-60163678D01*
X133803780Y-60182422D01*
X133829842Y-60196352D01*
X133858112Y-60204928D01*
X133891205Y-60208188D01*
X134683835Y-60208188D01*
X134716927Y-60204928D01*
X134745197Y-60196352D01*
X134771259Y-60182422D01*
X134794098Y-60163678D01*
X134812842Y-60140839D01*
X134826772Y-60114777D01*
X134835348Y-60086507D01*
X134838608Y-60053414D01*
X134838608Y-58760785D01*
X135006432Y-58760785D01*
X135006432Y-60053414D01*
X135009691Y-60086507D01*
X135018267Y-60114777D01*
X135032197Y-60140839D01*
X135050941Y-60163678D01*
X135073780Y-60182422D01*
X135099842Y-60196352D01*
X135128112Y-60204928D01*
X135161205Y-60208188D01*
X135953835Y-60208188D01*
X135986927Y-60204928D01*
X136015197Y-60196352D01*
X136041259Y-60182422D01*
X136064098Y-60163678D01*
X136082842Y-60140839D01*
X136096772Y-60114777D01*
X136105348Y-60086507D01*
X136108608Y-60053414D01*
X136108608Y-58760785D01*
X136276432Y-58760785D01*
X136276432Y-60053414D01*
X136279691Y-60086507D01*
X136288267Y-60114777D01*
X136302197Y-60140839D01*
X136320941Y-60163678D01*
X136343780Y-60182422D01*
X136369842Y-60196352D01*
X136398112Y-60204928D01*
X136431205Y-60208188D01*
X137223835Y-60208188D01*
X137256927Y-60204928D01*
X137285197Y-60196352D01*
X137311259Y-60182422D01*
X137334098Y-60163678D01*
X137352842Y-60140839D01*
X137366772Y-60114777D01*
X137375348Y-60086507D01*
X137378608Y-60053414D01*
X137378608Y-58760785D01*
X137546432Y-58760785D01*
X137546432Y-60053414D01*
X137549691Y-60086507D01*
X137558267Y-60114777D01*
X137572197Y-60140839D01*
X137590941Y-60163678D01*
X137613780Y-60182422D01*
X137639842Y-60196352D01*
X137668112Y-60204928D01*
X137701205Y-60208188D01*
X138493835Y-60208188D01*
X138526927Y-60204928D01*
X138555197Y-60196352D01*
X138581259Y-60182422D01*
X138604098Y-60163678D01*
X138622842Y-60140839D01*
X138636772Y-60114777D01*
X138645348Y-60086507D01*
X138648608Y-60053414D01*
X138648608Y-58760785D01*
X138816432Y-58760785D01*
X138816432Y-60053414D01*
X138819691Y-60086507D01*
X138828267Y-60114777D01*
X138842197Y-60140839D01*
X138860941Y-60163678D01*
X138883780Y-60182422D01*
X138909842Y-60196352D01*
X138938112Y-60204928D01*
X138971205Y-60208188D01*
X139763835Y-60208188D01*
X139796927Y-60204928D01*
X139825197Y-60196352D01*
X139851259Y-60182422D01*
X139874098Y-60163678D01*
X139892842Y-60140839D01*
X139906772Y-60114777D01*
X139915348Y-60086507D01*
X139918608Y-60053414D01*
X139918608Y-58760785D01*
X140086432Y-58760785D01*
X140086432Y-60053414D01*
X140089691Y-60086507D01*
X140098267Y-60114777D01*
X140112197Y-60140839D01*
X140130941Y-60163678D01*
X140153780Y-60182422D01*
X140179842Y-60196352D01*
X140208112Y-60204928D01*
X140241205Y-60208188D01*
X141033835Y-60208188D01*
X141066927Y-60204928D01*
X141095197Y-60196352D01*
X141121259Y-60182422D01*
X141144098Y-60163678D01*
X141162842Y-60140839D01*
X141176772Y-60114777D01*
X141185348Y-60086507D01*
X141188608Y-60053414D01*
X141188608Y-58760785D01*
X141356432Y-58760785D01*
X141356432Y-60053414D01*
X141359691Y-60086507D01*
X141368267Y-60114777D01*
X141382197Y-60140839D01*
X141400941Y-60163678D01*
X141423780Y-60182422D01*
X141449842Y-60196352D01*
X141478112Y-60204928D01*
X141511205Y-60208188D01*
X142303835Y-60208188D01*
X142336927Y-60204928D01*
X142365197Y-60196352D01*
X142391259Y-60182422D01*
X142414098Y-60163678D01*
X142432842Y-60140839D01*
X142446772Y-60114777D01*
X142455348Y-60086507D01*
X142458608Y-60053414D01*
X142458608Y-58760785D01*
X142626432Y-58760785D01*
X142626432Y-60053414D01*
X142629691Y-60086507D01*
X142638267Y-60114777D01*
X142652197Y-60140839D01*
X142670941Y-60163678D01*
X142693780Y-60182422D01*
X142719842Y-60196352D01*
X142748112Y-60204928D01*
X142781205Y-60208188D01*
X143573835Y-60208188D01*
X143606927Y-60204928D01*
X143635197Y-60196352D01*
X143661259Y-60182422D01*
X143684098Y-60163678D01*
X143702842Y-60140839D01*
X143716772Y-60114777D01*
X143725348Y-60086507D01*
X143728608Y-60053414D01*
X143728608Y-58760785D01*
X143896432Y-58760785D01*
X143896432Y-60053414D01*
X143899691Y-60086507D01*
X143908267Y-60114777D01*
X143922197Y-60140839D01*
X143940941Y-60163678D01*
X143963780Y-60182422D01*
X143989842Y-60196352D01*
X144018112Y-60204928D01*
X144051205Y-60208188D01*
X144843835Y-60208188D01*
X144876927Y-60204928D01*
X144905197Y-60196352D01*
X144931259Y-60182422D01*
X144954098Y-60163678D01*
X144972842Y-60140839D01*
X144986772Y-60114777D01*
X144995348Y-60086507D01*
X144998608Y-60053414D01*
X144998608Y-58760785D01*
X145166432Y-58760785D01*
X145166432Y-60053414D01*
X145169691Y-60086507D01*
X145178267Y-60114777D01*
X145192197Y-60140839D01*
X145210941Y-60163678D01*
X145233780Y-60182422D01*
X145259842Y-60196352D01*
X145288112Y-60204928D01*
X145321205Y-60208188D01*
X146113835Y-60208188D01*
X146146927Y-60204928D01*
X146175197Y-60196352D01*
X146201259Y-60182422D01*
X146224098Y-60163678D01*
X146242842Y-60140839D01*
X146256772Y-60114777D01*
X146265348Y-60086507D01*
X146268608Y-60053414D01*
X146268608Y-58760785D01*
X146436432Y-58760785D01*
X146436432Y-60053414D01*
X146439691Y-60086507D01*
X146448267Y-60114777D01*
X146462197Y-60140839D01*
X146480941Y-60163678D01*
X146503780Y-60182422D01*
X146529842Y-60196352D01*
X146558112Y-60204928D01*
X146591205Y-60208188D01*
X147383835Y-60208188D01*
X147416927Y-60204928D01*
X147445197Y-60196352D01*
X147471259Y-60182422D01*
X147494098Y-60163678D01*
X147512842Y-60140839D01*
X147526772Y-60114777D01*
X147535348Y-60086507D01*
X147538608Y-60053414D01*
X147538608Y-58760785D01*
X147706432Y-58760785D01*
X147706432Y-60053414D01*
X147709691Y-60086507D01*
X147718267Y-60114777D01*
X147732197Y-60140839D01*
X147750941Y-60163678D01*
X147773780Y-60182422D01*
X147799842Y-60196352D01*
X147828112Y-60204928D01*
X147861205Y-60208188D01*
X148653835Y-60208188D01*
X148686927Y-60204928D01*
X148715197Y-60196352D01*
X148741259Y-60182422D01*
X148764098Y-60163678D01*
X148782842Y-60140839D01*
X148796772Y-60114777D01*
X148805348Y-60086507D01*
X148808608Y-60053414D01*
X148808608Y-58760785D01*
X148976432Y-58760785D01*
X148976432Y-60053414D01*
X148979691Y-60086507D01*
X148988267Y-60114777D01*
X149002197Y-60140839D01*
X149020941Y-60163678D01*
X149043780Y-60182422D01*
X149069842Y-60196352D01*
X149098112Y-60204928D01*
X149131205Y-60208188D01*
X149923835Y-60208188D01*
X149956927Y-60204928D01*
X149985197Y-60196352D01*
X150011259Y-60182422D01*
X150034098Y-60163678D01*
X150052842Y-60140839D01*
X150066772Y-60114777D01*
X150075348Y-60086507D01*
X150078608Y-60053414D01*
X150078608Y-58760785D01*
X150246432Y-58760785D01*
X150246432Y-60053414D01*
X150249691Y-60086507D01*
X150258267Y-60114777D01*
X150272197Y-60140839D01*
X150290941Y-60163678D01*
X150313780Y-60182422D01*
X150339842Y-60196352D01*
X150368112Y-60204928D01*
X150401205Y-60208188D01*
X151193835Y-60208188D01*
X151226927Y-60204928D01*
X151255197Y-60196352D01*
X151281259Y-60182422D01*
X151304098Y-60163678D01*
X151322842Y-60140839D01*
X151336772Y-60114777D01*
X151345348Y-60086507D01*
X151348608Y-60053414D01*
X151348608Y-58760785D01*
X151516432Y-58760785D01*
X151516432Y-60053414D01*
X151519691Y-60086507D01*
X151528267Y-60114777D01*
X151542197Y-60140839D01*
X151560941Y-60163678D01*
X151583780Y-60182422D01*
X151609842Y-60196352D01*
X151638112Y-60204928D01*
X151671205Y-60208188D01*
X152463835Y-60208188D01*
X152496927Y-60204928D01*
X152525197Y-60196352D01*
X152551259Y-60182422D01*
X152574098Y-60163678D01*
X152592842Y-60140839D01*
X152606772Y-60114777D01*
X152615348Y-60086507D01*
X152618608Y-60053414D01*
X152618608Y-58760785D01*
X152786432Y-58760785D01*
X152786432Y-60053414D01*
X152789691Y-60086507D01*
X152798267Y-60114777D01*
X152812197Y-60140839D01*
X152830941Y-60163678D01*
X152853780Y-60182422D01*
X152879842Y-60196352D01*
X152908112Y-60204928D01*
X152941205Y-60208188D01*
X153733835Y-60208188D01*
X153766927Y-60204928D01*
X153795197Y-60196352D01*
X153821259Y-60182422D01*
X153844098Y-60163678D01*
X153862842Y-60140839D01*
X153876772Y-60114777D01*
X153885348Y-60086507D01*
X153888608Y-60053414D01*
X153888608Y-58760785D01*
X154056432Y-58760785D01*
X154056432Y-60053414D01*
X154059691Y-60086507D01*
X154068267Y-60114777D01*
X154082197Y-60140839D01*
X154100941Y-60163678D01*
X154123780Y-60182422D01*
X154149842Y-60196352D01*
X154178112Y-60204928D01*
X154211205Y-60208188D01*
X155003835Y-60208188D01*
X155036927Y-60204928D01*
X155065197Y-60196352D01*
X155091259Y-60182422D01*
X155114098Y-60163678D01*
X155132842Y-60140839D01*
X155146772Y-60114777D01*
X155155348Y-60086507D01*
X155158608Y-60053414D01*
X155158608Y-58760785D01*
X155326432Y-58760785D01*
X155326432Y-60053414D01*
X155329691Y-60086507D01*
X155338267Y-60114777D01*
X155352197Y-60140839D01*
X155370941Y-60163678D01*
X155393780Y-60182422D01*
X155419842Y-60196352D01*
X155448112Y-60204928D01*
X155481205Y-60208188D01*
X156273835Y-60208188D01*
X156306927Y-60204928D01*
X156335197Y-60196352D01*
X156361259Y-60182422D01*
X156384098Y-60163678D01*
X156402842Y-60140839D01*
X156416772Y-60114777D01*
X156425348Y-60086507D01*
X156428608Y-60053414D01*
X156428608Y-58760785D01*
X156596432Y-58760785D01*
X156596432Y-60053414D01*
X156599691Y-60086507D01*
X156608267Y-60114777D01*
X156622197Y-60140839D01*
X156640941Y-60163678D01*
X156663780Y-60182422D01*
X156689842Y-60196352D01*
X156718112Y-60204928D01*
X156751205Y-60208188D01*
X157543835Y-60208188D01*
X157576927Y-60204928D01*
X157605197Y-60196352D01*
X157631259Y-60182422D01*
X157654098Y-60163678D01*
X157672842Y-60140839D01*
X157686772Y-60114777D01*
X157695348Y-60086507D01*
X157698608Y-60053414D01*
X157698608Y-58760785D01*
X157695348Y-58727692D01*
X157686772Y-58699422D01*
X157672842Y-58673360D01*
X157654098Y-58650521D01*
X157631259Y-58631777D01*
X157605197Y-58617847D01*
X157576927Y-58609271D01*
X157543835Y-58606012D01*
X156751205Y-58606012D01*
X156718112Y-58609271D01*
X156689842Y-58617847D01*
X156663780Y-58631777D01*
X156640941Y-58650521D01*
X156622197Y-58673360D01*
X156608267Y-58699422D01*
X156599691Y-58727692D01*
X156596432Y-58760785D01*
X156428608Y-58760785D01*
X156425348Y-58727692D01*
X156416772Y-58699422D01*
X156402842Y-58673360D01*
X156384098Y-58650521D01*
X156361259Y-58631777D01*
X156335197Y-58617847D01*
X156306927Y-58609271D01*
X156273835Y-58606012D01*
X155481205Y-58606012D01*
X155448112Y-58609271D01*
X155419842Y-58617847D01*
X155393780Y-58631777D01*
X155370941Y-58650521D01*
X155352197Y-58673360D01*
X155338267Y-58699422D01*
X155329691Y-58727692D01*
X155326432Y-58760785D01*
X155158608Y-58760785D01*
X155155348Y-58727692D01*
X155146772Y-58699422D01*
X155132842Y-58673360D01*
X155114098Y-58650521D01*
X155091259Y-58631777D01*
X155065197Y-58617847D01*
X155036927Y-58609271D01*
X155003835Y-58606012D01*
X154211205Y-58606012D01*
X154178112Y-58609271D01*
X154149842Y-58617847D01*
X154123780Y-58631777D01*
X154100941Y-58650521D01*
X154082197Y-58673360D01*
X154068267Y-58699422D01*
X154059691Y-58727692D01*
X154056432Y-58760785D01*
X153888608Y-58760785D01*
X153885348Y-58727692D01*
X153876772Y-58699422D01*
X153862842Y-58673360D01*
X153844098Y-58650521D01*
X153821259Y-58631777D01*
X153795197Y-58617847D01*
X153766927Y-58609271D01*
X153733835Y-58606012D01*
X152941205Y-58606012D01*
X152908112Y-58609271D01*
X152879842Y-58617847D01*
X152853780Y-58631777D01*
X152830941Y-58650521D01*
X152812197Y-58673360D01*
X152798267Y-58699422D01*
X152789691Y-58727692D01*
X152786432Y-58760785D01*
X152618608Y-58760785D01*
X152615348Y-58727692D01*
X152606772Y-58699422D01*
X152592842Y-58673360D01*
X152574098Y-58650521D01*
X152551259Y-58631777D01*
X152525197Y-58617847D01*
X152496927Y-58609271D01*
X152463835Y-58606012D01*
X151671205Y-58606012D01*
X151638112Y-58609271D01*
X151609842Y-58617847D01*
X151583780Y-58631777D01*
X151560941Y-58650521D01*
X151542197Y-58673360D01*
X151528267Y-58699422D01*
X151519691Y-58727692D01*
X151516432Y-58760785D01*
X151348608Y-58760785D01*
X151345348Y-58727692D01*
X151336772Y-58699422D01*
X151322842Y-58673360D01*
X151304098Y-58650521D01*
X151281259Y-58631777D01*
X151255197Y-58617847D01*
X151226927Y-58609271D01*
X151193835Y-58606012D01*
X150401205Y-58606012D01*
X150368112Y-58609271D01*
X150339842Y-58617847D01*
X150313780Y-58631777D01*
X150290941Y-58650521D01*
X150272197Y-58673360D01*
X150258267Y-58699422D01*
X150249691Y-58727692D01*
X150246432Y-58760785D01*
X150078608Y-58760785D01*
X150075348Y-58727692D01*
X150066772Y-58699422D01*
X150052842Y-58673360D01*
X150034098Y-58650521D01*
X150011259Y-58631777D01*
X149985197Y-58617847D01*
X149956927Y-58609271D01*
X149923835Y-58606012D01*
X149131205Y-58606012D01*
X149098112Y-58609271D01*
X149069842Y-58617847D01*
X149043780Y-58631777D01*
X149020941Y-58650521D01*
X149002197Y-58673360D01*
X148988267Y-58699422D01*
X148979691Y-58727692D01*
X148976432Y-58760785D01*
X148808608Y-58760785D01*
X148805348Y-58727692D01*
X148796772Y-58699422D01*
X148782842Y-58673360D01*
X148764098Y-58650521D01*
X148741259Y-58631777D01*
X148715197Y-58617847D01*
X148686927Y-58609271D01*
X148653835Y-58606012D01*
X147861205Y-58606012D01*
X147828112Y-58609271D01*
X147799842Y-58617847D01*
X147773780Y-58631777D01*
X147750941Y-58650521D01*
X147732197Y-58673360D01*
X147718267Y-58699422D01*
X147709691Y-58727692D01*
X147706432Y-58760785D01*
X147538608Y-58760785D01*
X147535348Y-58727692D01*
X147526772Y-58699422D01*
X147512842Y-58673360D01*
X147494098Y-58650521D01*
X147471259Y-58631777D01*
X147445197Y-58617847D01*
X147416927Y-58609271D01*
X147383835Y-58606012D01*
X146591205Y-58606012D01*
X146558112Y-58609271D01*
X146529842Y-58617847D01*
X146503780Y-58631777D01*
X146480941Y-58650521D01*
X146462197Y-58673360D01*
X146448267Y-58699422D01*
X146439691Y-58727692D01*
X146436432Y-58760785D01*
X146268608Y-58760785D01*
X146265348Y-58727692D01*
X146256772Y-58699422D01*
X146242842Y-58673360D01*
X146224098Y-58650521D01*
X146201259Y-58631777D01*
X146175197Y-58617847D01*
X146146927Y-58609271D01*
X146113835Y-58606012D01*
X145321205Y-58606012D01*
X145288112Y-58609271D01*
X145259842Y-58617847D01*
X145233780Y-58631777D01*
X145210941Y-58650521D01*
X145192197Y-58673360D01*
X145178267Y-58699422D01*
X145169691Y-58727692D01*
X145166432Y-58760785D01*
X144998608Y-58760785D01*
X144995348Y-58727692D01*
X144986772Y-58699422D01*
X144972842Y-58673360D01*
X144954098Y-58650521D01*
X144931259Y-58631777D01*
X144905197Y-58617847D01*
X144876927Y-58609271D01*
X144843835Y-58606012D01*
X144051205Y-58606012D01*
X144018112Y-58609271D01*
X143989842Y-58617847D01*
X143963780Y-58631777D01*
X143940941Y-58650521D01*
X143922197Y-58673360D01*
X143908267Y-58699422D01*
X143899691Y-58727692D01*
X143896432Y-58760785D01*
X143728608Y-58760785D01*
X143725348Y-58727692D01*
X143716772Y-58699422D01*
X143702842Y-58673360D01*
X143684098Y-58650521D01*
X143661259Y-58631777D01*
X143635197Y-58617847D01*
X143606927Y-58609271D01*
X143573835Y-58606012D01*
X142781205Y-58606012D01*
X142748112Y-58609271D01*
X142719842Y-58617847D01*
X142693780Y-58631777D01*
X142670941Y-58650521D01*
X142652197Y-58673360D01*
X142638267Y-58699422D01*
X142629691Y-58727692D01*
X142626432Y-58760785D01*
X142458608Y-58760785D01*
X142455348Y-58727692D01*
X142446772Y-58699422D01*
X142432842Y-58673360D01*
X142414098Y-58650521D01*
X142391259Y-58631777D01*
X142365197Y-58617847D01*
X142336927Y-58609271D01*
X142303835Y-58606012D01*
X141511205Y-58606012D01*
X141478112Y-58609271D01*
X141449842Y-58617847D01*
X141423780Y-58631777D01*
X141400941Y-58650521D01*
X141382197Y-58673360D01*
X141368267Y-58699422D01*
X141359691Y-58727692D01*
X141356432Y-58760785D01*
X141188608Y-58760785D01*
X141185348Y-58727692D01*
X141176772Y-58699422D01*
X141162842Y-58673360D01*
X141144098Y-58650521D01*
X141121259Y-58631777D01*
X141095197Y-58617847D01*
X141066927Y-58609271D01*
X141033835Y-58606012D01*
X140241205Y-58606012D01*
X140208112Y-58609271D01*
X140179842Y-58617847D01*
X140153780Y-58631777D01*
X140130941Y-58650521D01*
X140112197Y-58673360D01*
X140098267Y-58699422D01*
X140089691Y-58727692D01*
X140086432Y-58760785D01*
X139918608Y-58760785D01*
X139915348Y-58727692D01*
X139906772Y-58699422D01*
X139892842Y-58673360D01*
X139874098Y-58650521D01*
X139851259Y-58631777D01*
X139825197Y-58617847D01*
X139796927Y-58609271D01*
X139763835Y-58606012D01*
X138971205Y-58606012D01*
X138938112Y-58609271D01*
X138909842Y-58617847D01*
X138883780Y-58631777D01*
X138860941Y-58650521D01*
X138842197Y-58673360D01*
X138828267Y-58699422D01*
X138819691Y-58727692D01*
X138816432Y-58760785D01*
X138648608Y-58760785D01*
X138645348Y-58727692D01*
X138636772Y-58699422D01*
X138622842Y-58673360D01*
X138604098Y-58650521D01*
X138581259Y-58631777D01*
X138555197Y-58617847D01*
X138526927Y-58609271D01*
X138493835Y-58606012D01*
X137701205Y-58606012D01*
X137668112Y-58609271D01*
X137639842Y-58617847D01*
X137613780Y-58631777D01*
X137590941Y-58650521D01*
X137572197Y-58673360D01*
X137558267Y-58699422D01*
X137549691Y-58727692D01*
X137546432Y-58760785D01*
X137378608Y-58760785D01*
X137375348Y-58727692D01*
X137366772Y-58699422D01*
X137352842Y-58673360D01*
X137334098Y-58650521D01*
X137311259Y-58631777D01*
X137285197Y-58617847D01*
X137256927Y-58609271D01*
X137223835Y-58606012D01*
X136431205Y-58606012D01*
X136398112Y-58609271D01*
X136369842Y-58617847D01*
X136343780Y-58631777D01*
X136320941Y-58650521D01*
X136302197Y-58673360D01*
X136288267Y-58699422D01*
X136279691Y-58727692D01*
X136276432Y-58760785D01*
X136108608Y-58760785D01*
X136105348Y-58727692D01*
X136096772Y-58699422D01*
X136082842Y-58673360D01*
X136064098Y-58650521D01*
X136041259Y-58631777D01*
X136015197Y-58617847D01*
X135986927Y-58609271D01*
X135953835Y-58606012D01*
X135161205Y-58606012D01*
X135128112Y-58609271D01*
X135099842Y-58617847D01*
X135073780Y-58631777D01*
X135050941Y-58650521D01*
X135032197Y-58673360D01*
X135018267Y-58699422D01*
X135009691Y-58727692D01*
X135006432Y-58760785D01*
X134838608Y-58760785D01*
X134835348Y-58727692D01*
X134826772Y-58699422D01*
X134812842Y-58673360D01*
X134794098Y-58650521D01*
X134771259Y-58631777D01*
X134745197Y-58617847D01*
X134716927Y-58609271D01*
X134683835Y-58606012D01*
X133891205Y-58606012D01*
X133858112Y-58609271D01*
X133829842Y-58617847D01*
X133803780Y-58631777D01*
X133780941Y-58650521D01*
X133762197Y-58673360D01*
X133748267Y-58699422D01*
X133739691Y-58727692D01*
X133736432Y-58760785D01*
X133568608Y-58760785D01*
X133565348Y-58727692D01*
X133556772Y-58699422D01*
X133542842Y-58673360D01*
X133524098Y-58650521D01*
X133501259Y-58631777D01*
X133475197Y-58617847D01*
X133446927Y-58609271D01*
X133413835Y-58606012D01*
X132621205Y-58606012D01*
X132588112Y-58609271D01*
X132559842Y-58617847D01*
X132533780Y-58631777D01*
X132510941Y-58650521D01*
X132492197Y-58673360D01*
X132478267Y-58699422D01*
X132469691Y-58727692D01*
X132466432Y-58760785D01*
X132298608Y-58760785D01*
X132295348Y-58727692D01*
X132286772Y-58699422D01*
X132272842Y-58673360D01*
X132254098Y-58650521D01*
X132231259Y-58631777D01*
X132205197Y-58617847D01*
X132176927Y-58609271D01*
X132143835Y-58606012D01*
X131351205Y-58606012D01*
X131318112Y-58609271D01*
X131289842Y-58617847D01*
X131263780Y-58631777D01*
X131240941Y-58650521D01*
X131222197Y-58673360D01*
X131208267Y-58699422D01*
X131199691Y-58727692D01*
X131196432Y-58760785D01*
X126286821Y-58760785D01*
X126343539Y-58704067D01*
X129448041Y-55599567D01*
X129481663Y-55580156D01*
X129501074Y-55577600D01*
X163147520Y-55577600D01*
X163185020Y-55587648D01*
G37*
%TD.AperFunction*%
%TD*%
%TA.AperFunction,Conductor*%
%TO.N,3V3*%
G36*
X145238239Y-71260689D02*
G01*
X145276331Y-71270929D01*
X145292058Y-71283007D01*
X145557782Y-71548731D01*
X145577504Y-71582891D01*
X145580100Y-71602613D01*
X145580101Y-73056864D01*
X145569892Y-73094964D01*
X145557783Y-73110746D01*
X145495647Y-73172882D01*
X145461487Y-73192604D01*
X145441765Y-73195200D01*
X145380349Y-73195200D01*
X145307434Y-73209703D01*
X145238754Y-73238151D01*
X145176945Y-73279451D01*
X145124371Y-73332025D01*
X145083071Y-73393834D01*
X145054623Y-73462514D01*
X145040120Y-73535428D01*
X145040120Y-73609771D01*
X145054623Y-73682685D01*
X145083071Y-73751365D01*
X145124371Y-73813174D01*
X145176945Y-73865748D01*
X145238752Y-73907046D01*
X145256634Y-73914453D01*
X145287927Y-73938465D01*
X145303022Y-73974906D01*
X145297874Y-74014013D01*
X145294614Y-74020111D01*
X145264623Y-74092514D01*
X145250120Y-74165428D01*
X145250120Y-74239771D01*
X145264622Y-74312680D01*
X145288298Y-74369839D01*
X145293446Y-74408946D01*
X145278352Y-74445388D01*
X145247059Y-74469400D01*
X145217898Y-74475200D01*
X145142424Y-74475200D01*
X145134955Y-74474833D01*
X145127520Y-74474100D01*
X145120085Y-74474833D01*
X145082943Y-74478491D01*
X145040077Y-74491494D01*
X145000569Y-74512611D01*
X144965945Y-74541026D01*
X144961201Y-74546808D01*
X144956180Y-74552349D01*
X144925647Y-74582882D01*
X144891487Y-74602604D01*
X144871765Y-74605200D01*
X144810349Y-74605200D01*
X144737434Y-74619703D01*
X144668754Y-74648151D01*
X144606945Y-74689451D01*
X144554371Y-74742025D01*
X144513071Y-74803834D01*
X144484623Y-74872514D01*
X144470120Y-74945428D01*
X144470120Y-75019771D01*
X144484623Y-75092685D01*
X144513071Y-75161365D01*
X144554371Y-75223174D01*
X144606945Y-75275748D01*
X144668754Y-75317048D01*
X144737434Y-75345496D01*
X144802463Y-75358431D01*
X144837839Y-75375876D01*
X144859754Y-75408672D01*
X144862334Y-75448032D01*
X144844889Y-75483408D01*
X144841480Y-75487048D01*
X144157269Y-76171260D01*
X144151727Y-76176283D01*
X144145946Y-76181026D01*
X144117531Y-76215651D01*
X144117054Y-76216544D01*
X144117054Y-76216545D01*
X144096415Y-76255156D01*
X144083410Y-76298026D01*
X144079020Y-76342599D01*
X144079754Y-76350045D01*
X144080121Y-76357514D01*
X144080120Y-77547696D01*
X144079753Y-77555165D01*
X144079020Y-77562599D01*
X144081719Y-77589990D01*
X144081719Y-77589992D01*
X144083411Y-77607175D01*
X144096414Y-77650041D01*
X144117531Y-77689548D01*
X144145947Y-77724174D01*
X144151733Y-77728923D01*
X144157274Y-77733945D01*
X144826185Y-78402858D01*
X144831206Y-78408398D01*
X144835946Y-78414173D01*
X144870569Y-78442588D01*
X144910077Y-78463705D01*
X144942405Y-78473512D01*
X144942406Y-78473512D01*
X144952944Y-78476709D01*
X144997518Y-78481099D01*
X145004954Y-78480367D01*
X145012423Y-78480000D01*
X145209633Y-78480000D01*
X145247733Y-78490209D01*
X145263515Y-78502318D01*
X145306945Y-78545748D01*
X145374994Y-78591217D01*
X145373792Y-78593015D01*
X145394076Y-78608562D01*
X145409191Y-78644995D01*
X145404065Y-78684105D01*
X145387531Y-78708866D01*
X145354371Y-78742025D01*
X145313071Y-78803834D01*
X145284623Y-78872514D01*
X145270120Y-78945428D01*
X145270120Y-79019771D01*
X145284623Y-79092685D01*
X145313071Y-79161365D01*
X145354371Y-79223174D01*
X145406945Y-79275748D01*
X145468754Y-79317048D01*
X145537434Y-79345496D01*
X145610349Y-79360000D01*
X145684691Y-79360000D01*
X145757605Y-79345496D01*
X145826285Y-79317048D01*
X145888094Y-79275748D01*
X145940668Y-79223174D01*
X145981968Y-79161365D01*
X146010416Y-79092685D01*
X146024920Y-79019771D01*
X146024920Y-78945428D01*
X146010416Y-78872514D01*
X145981968Y-78803834D01*
X145940668Y-78742025D01*
X145888094Y-78689451D01*
X145820046Y-78643983D01*
X145821247Y-78642184D01*
X145800964Y-78626638D01*
X145785849Y-78590205D01*
X145790975Y-78551095D01*
X145807509Y-78526334D01*
X145840668Y-78493174D01*
X145881968Y-78431365D01*
X145910416Y-78362685D01*
X145924920Y-78289771D01*
X145924920Y-78215428D01*
X145910416Y-78142514D01*
X145881968Y-78073834D01*
X145840668Y-78012025D01*
X145788094Y-77959451D01*
X145726289Y-77918154D01*
X145706477Y-77909948D01*
X145675184Y-77885935D01*
X145660090Y-77849494D01*
X145665238Y-77810387D01*
X145689251Y-77779094D01*
X145720773Y-77764812D01*
X145767605Y-77755496D01*
X145836285Y-77727048D01*
X145898094Y-77685748D01*
X145950668Y-77633174D01*
X145991968Y-77571365D01*
X146020416Y-77502685D01*
X146034920Y-77429771D01*
X146034920Y-77355428D01*
X146020417Y-77282517D01*
X146013311Y-77265362D01*
X146008162Y-77226255D01*
X146023255Y-77189814D01*
X146054548Y-77165801D01*
X146083710Y-77160000D01*
X146142616Y-77160000D01*
X146150085Y-77160367D01*
X146157520Y-77161099D01*
X146164955Y-77160367D01*
X146202096Y-77156708D01*
X146244962Y-77143705D01*
X146284470Y-77122588D01*
X146319093Y-77094174D01*
X146323841Y-77088389D01*
X146328864Y-77082847D01*
X146487773Y-76923939D01*
X146493314Y-76918917D01*
X146499094Y-76914173D01*
X146527508Y-76879550D01*
X146548625Y-76840041D01*
X146559919Y-76802814D01*
X146561628Y-76797177D01*
X146566019Y-76752601D01*
X146565287Y-76745166D01*
X146564920Y-76737697D01*
X146564920Y-76168354D01*
X146575129Y-76130254D01*
X146587238Y-76114472D01*
X147598410Y-75103300D01*
X147632570Y-75083578D01*
X147672014Y-75083578D01*
X147706174Y-75103300D01*
X147722691Y-75128021D01*
X147753071Y-75201365D01*
X147794371Y-75263174D01*
X147839396Y-75308199D01*
X147859118Y-75342359D01*
X147859118Y-75381803D01*
X147839396Y-75415963D01*
X147827849Y-75425439D01*
X147776943Y-75459453D01*
X147724371Y-75512025D01*
X147683071Y-75573834D01*
X147654623Y-75642514D01*
X147640120Y-75715428D01*
X147640120Y-75789771D01*
X147654623Y-75862685D01*
X147683071Y-75931365D01*
X147724371Y-75993174D01*
X147776945Y-76045748D01*
X147838752Y-76087046D01*
X147855929Y-76094161D01*
X147887222Y-76118173D01*
X147902317Y-76154614D01*
X147897169Y-76193721D01*
X147873157Y-76225014D01*
X147869104Y-76227919D01*
X147806943Y-76269453D01*
X147753910Y-76322487D01*
X147719750Y-76342209D01*
X147680306Y-76342209D01*
X147646146Y-76322487D01*
X147636670Y-76310940D01*
X147610666Y-76272023D01*
X147558094Y-76219451D01*
X147496285Y-76178151D01*
X147427605Y-76149703D01*
X147354691Y-76135200D01*
X147280349Y-76135200D01*
X147207434Y-76149703D01*
X147138754Y-76178151D01*
X147076945Y-76219451D01*
X147024371Y-76272025D01*
X146983071Y-76333834D01*
X146954623Y-76402514D01*
X146940120Y-76475428D01*
X146940120Y-76549771D01*
X146954623Y-76622685D01*
X146983071Y-76691365D01*
X147024371Y-76753174D01*
X147076945Y-76805748D01*
X147138754Y-76847048D01*
X147207434Y-76875496D01*
X147280349Y-76890000D01*
X147354691Y-76890000D01*
X147427605Y-76875496D01*
X147496285Y-76847048D01*
X147558094Y-76805748D01*
X147611130Y-76752713D01*
X147645290Y-76732991D01*
X147684734Y-76732991D01*
X147718894Y-76752713D01*
X147728370Y-76764260D01*
X147754373Y-76803176D01*
X147806945Y-76855748D01*
X147868754Y-76897048D01*
X147937434Y-76925496D01*
X148008871Y-76939706D01*
X148044248Y-76957152D01*
X148047888Y-76960560D01*
X148062446Y-76975118D01*
X148082168Y-77009278D01*
X148082168Y-77048722D01*
X148062446Y-77082882D01*
X148028286Y-77102604D01*
X148008564Y-77105200D01*
X147930349Y-77105200D01*
X147857434Y-77119703D01*
X147788754Y-77148151D01*
X147726945Y-77189451D01*
X147674371Y-77242025D01*
X147633071Y-77303834D01*
X147604623Y-77372514D01*
X147590120Y-77445428D01*
X147590120Y-77519771D01*
X147604623Y-77592685D01*
X147633071Y-77661365D01*
X147674371Y-77723174D01*
X147726943Y-77775746D01*
X147765860Y-77801750D01*
X147791867Y-77831406D01*
X147799562Y-77870092D01*
X147786883Y-77907443D01*
X147777407Y-77918990D01*
X147754373Y-77942023D01*
X147720878Y-77992153D01*
X147691222Y-78018160D01*
X147652536Y-78025855D01*
X147615185Y-78013176D01*
X147594162Y-77992153D01*
X147560666Y-77942023D01*
X147508094Y-77889451D01*
X147446285Y-77848151D01*
X147377605Y-77819703D01*
X147304691Y-77805200D01*
X147230349Y-77805200D01*
X147157434Y-77819703D01*
X147088754Y-77848151D01*
X147026945Y-77889451D01*
X146974371Y-77942025D01*
X146933071Y-78003834D01*
X146904623Y-78072514D01*
X146890120Y-78145428D01*
X146890120Y-78219771D01*
X146904623Y-78292685D01*
X146933071Y-78361365D01*
X146974371Y-78423174D01*
X147026945Y-78475748D01*
X147088754Y-78517048D01*
X147157434Y-78545496D01*
X147230349Y-78560000D01*
X147304691Y-78560000D01*
X147377605Y-78545496D01*
X147446285Y-78517048D01*
X147508094Y-78475748D01*
X147560666Y-78423176D01*
X147594162Y-78373047D01*
X147623818Y-78347040D01*
X147662504Y-78339345D01*
X147699855Y-78352024D01*
X147720878Y-78373047D01*
X147754373Y-78423176D01*
X147806943Y-78475746D01*
X147872039Y-78519242D01*
X147898046Y-78548898D01*
X147905741Y-78587584D01*
X147893062Y-78624935D01*
X147872039Y-78645958D01*
X147806943Y-78689453D01*
X147754371Y-78742025D01*
X147713071Y-78803834D01*
X147684623Y-78872514D01*
X147670120Y-78945428D01*
X147670120Y-79019771D01*
X147684623Y-79092685D01*
X147713071Y-79161365D01*
X147754371Y-79223174D01*
X147806945Y-79275748D01*
X147868754Y-79317048D01*
X147937434Y-79345496D01*
X148010349Y-79360000D01*
X148084691Y-79360000D01*
X148157605Y-79345496D01*
X148226285Y-79317048D01*
X148288094Y-79275748D01*
X148340666Y-79223176D01*
X148384162Y-79158081D01*
X148413818Y-79132074D01*
X148452504Y-79124379D01*
X148489855Y-79137058D01*
X148510878Y-79158081D01*
X148554373Y-79223176D01*
X148606943Y-79275746D01*
X148657073Y-79309242D01*
X148683080Y-79338898D01*
X148690775Y-79377584D01*
X148678096Y-79414935D01*
X148657073Y-79435958D01*
X148606943Y-79469453D01*
X148554371Y-79522025D01*
X148513071Y-79583834D01*
X148484623Y-79652514D01*
X148470120Y-79725428D01*
X148470120Y-79799771D01*
X148484623Y-79872685D01*
X148487587Y-79879841D01*
X148492735Y-79918947D01*
X148477640Y-79955389D01*
X148446346Y-79979400D01*
X148417187Y-79985200D01*
X147823275Y-79985200D01*
X147785175Y-79974991D01*
X147769393Y-79962882D01*
X147667238Y-79860727D01*
X147647516Y-79826567D01*
X147644920Y-79806845D01*
X147644920Y-79745428D01*
X147630416Y-79672514D01*
X147601968Y-79603834D01*
X147560668Y-79542025D01*
X147508094Y-79489451D01*
X147446285Y-79448151D01*
X147377605Y-79419703D01*
X147304691Y-79405200D01*
X147230349Y-79405200D01*
X147157434Y-79419703D01*
X147088754Y-79448151D01*
X147026945Y-79489451D01*
X146974371Y-79542025D01*
X146933071Y-79603834D01*
X146904623Y-79672514D01*
X146890120Y-79745428D01*
X146890120Y-79819771D01*
X146904623Y-79892685D01*
X146933071Y-79961365D01*
X146974371Y-80023174D01*
X147026943Y-80075746D01*
X147083692Y-80113665D01*
X147109699Y-80143321D01*
X147117394Y-80182007D01*
X147104715Y-80219358D01*
X147075059Y-80245365D01*
X147070515Y-80247424D01*
X147068750Y-80248154D01*
X147006945Y-80289451D01*
X146954371Y-80342025D01*
X146913071Y-80403834D01*
X146884623Y-80472514D01*
X146870120Y-80545428D01*
X146870120Y-80619771D01*
X146884623Y-80692685D01*
X146913071Y-80761365D01*
X146954371Y-80823174D01*
X147006945Y-80875748D01*
X147068754Y-80917048D01*
X147137434Y-80945496D01*
X147210349Y-80960000D01*
X147284691Y-80960000D01*
X147357605Y-80945496D01*
X147426285Y-80917048D01*
X147488094Y-80875748D01*
X147540668Y-80823174D01*
X147581968Y-80761365D01*
X147613290Y-80685749D01*
X147615258Y-80686564D01*
X147626632Y-80663504D01*
X147659430Y-80641592D01*
X147698790Y-80639014D01*
X147734165Y-80656461D01*
X147756077Y-80689259D01*
X147758261Y-80702489D01*
X147758656Y-80702411D01*
X147774623Y-80782685D01*
X147803071Y-80851365D01*
X147844371Y-80913174D01*
X147896945Y-80965748D01*
X147958754Y-81007048D01*
X148027434Y-81035496D01*
X148100349Y-81050000D01*
X148174691Y-81050000D01*
X148247605Y-81035496D01*
X148316285Y-81007048D01*
X148378094Y-80965748D01*
X148430668Y-80913174D01*
X148471968Y-80851365D01*
X148500416Y-80782685D01*
X148514920Y-80709771D01*
X148514920Y-80679718D01*
X148525129Y-80641618D01*
X148553020Y-80613727D01*
X148591120Y-80603518D01*
X148612026Y-80606618D01*
X148657518Y-80611099D01*
X148664954Y-80610367D01*
X148672423Y-80610000D01*
X148962616Y-80610000D01*
X148970085Y-80610367D01*
X148977520Y-80611099D01*
X148984955Y-80610367D01*
X149022096Y-80606708D01*
X149064962Y-80593705D01*
X149104470Y-80572588D01*
X149139096Y-80544171D01*
X149143845Y-80538386D01*
X149148865Y-80532847D01*
X149587779Y-80093934D01*
X149593320Y-80088912D01*
X149599094Y-80084173D01*
X149627508Y-80049550D01*
X149648625Y-80010042D01*
X149661628Y-79967176D01*
X149665287Y-79930035D01*
X149665287Y-79930033D01*
X149666019Y-79922599D01*
X149665287Y-79915166D01*
X149664920Y-79907697D01*
X149664920Y-79490182D01*
X149675129Y-79452082D01*
X149703020Y-79424191D01*
X149741120Y-79413982D01*
X149779220Y-79424191D01*
X149783455Y-79426825D01*
X149798754Y-79437047D01*
X149867434Y-79465496D01*
X149947709Y-79481464D01*
X149947302Y-79483508D01*
X149972308Y-79490209D01*
X150000199Y-79518100D01*
X150010408Y-79556200D01*
X150008944Y-79571065D01*
X150000120Y-79615428D01*
X150000120Y-79689771D01*
X150014623Y-79762685D01*
X150043071Y-79831365D01*
X150084371Y-79893174D01*
X150136945Y-79945748D01*
X150198754Y-79987048D01*
X150267434Y-80015496D01*
X150340349Y-80030000D01*
X150414691Y-80030000D01*
X150487605Y-80015496D01*
X150556285Y-79987048D01*
X150618094Y-79945748D01*
X150670668Y-79893174D01*
X150711968Y-79831365D01*
X150740416Y-79762685D01*
X150754920Y-79689771D01*
X150754920Y-79615430D01*
X150744153Y-79561301D01*
X150746733Y-79521941D01*
X150768647Y-79489145D01*
X150804023Y-79471699D01*
X150814894Y-79469536D01*
X150888131Y-79439200D01*
X150954031Y-79395167D01*
X151010087Y-79339111D01*
X151054120Y-79273211D01*
X151084456Y-79199974D01*
X151099920Y-79122232D01*
X151099920Y-79042966D01*
X151086728Y-78976643D01*
X151089308Y-78937284D01*
X151111222Y-78904487D01*
X151119130Y-78898420D01*
X151138094Y-78885748D01*
X151190668Y-78833174D01*
X151231968Y-78771365D01*
X151260416Y-78702685D01*
X151274920Y-78629771D01*
X151274920Y-78555428D01*
X151260416Y-78482514D01*
X151231968Y-78413834D01*
X151190667Y-78352024D01*
X151138094Y-78299451D01*
X151076285Y-78258151D01*
X151007605Y-78229703D01*
X150934691Y-78215200D01*
X150870475Y-78215200D01*
X150832375Y-78204991D01*
X150804484Y-78177100D01*
X150794275Y-78139000D01*
X150804484Y-78100900D01*
X150816593Y-78085118D01*
X150889383Y-78012328D01*
X150923543Y-77992606D01*
X150943265Y-77990010D01*
X151940520Y-77990010D01*
X151978620Y-78000219D01*
X152006511Y-78028110D01*
X152016720Y-78066210D01*
X152016720Y-85673100D01*
X152006511Y-85711200D01*
X151978620Y-85739091D01*
X151940520Y-85749300D01*
X151848013Y-85749300D01*
X151741291Y-85770527D01*
X151640761Y-85812168D01*
X151550287Y-85872621D01*
X151473341Y-85949567D01*
X151412888Y-86040041D01*
X151371247Y-86140571D01*
X151350020Y-86247292D01*
X151350020Y-86356107D01*
X151371247Y-86462828D01*
X151412888Y-86563358D01*
X151473341Y-86653832D01*
X151550287Y-86730778D01*
X151640761Y-86791231D01*
X151741291Y-86832872D01*
X151848013Y-86854100D01*
X151940520Y-86854100D01*
X151978620Y-86864309D01*
X152006511Y-86892200D01*
X152016720Y-86930300D01*
X152016720Y-87306400D01*
X152006511Y-87344500D01*
X151978620Y-87372391D01*
X151940520Y-87382600D01*
X136751320Y-87382600D01*
X136713220Y-87372391D01*
X136685329Y-87344500D01*
X136675120Y-87306400D01*
X136675120Y-86608192D01*
X140465120Y-86608192D01*
X140465120Y-86717007D01*
X140486347Y-86823728D01*
X140527988Y-86924258D01*
X140588441Y-87014732D01*
X140665387Y-87091678D01*
X140755861Y-87152131D01*
X140856391Y-87193772D01*
X140963113Y-87215000D01*
X141071927Y-87215000D01*
X141178648Y-87193772D01*
X141279178Y-87152131D01*
X141369652Y-87091678D01*
X141446598Y-87014732D01*
X141507051Y-86924258D01*
X141548692Y-86823728D01*
X141569920Y-86717007D01*
X141569920Y-86608192D01*
X141548692Y-86501471D01*
X141507051Y-86400941D01*
X141446598Y-86310467D01*
X141369652Y-86233521D01*
X141279178Y-86173068D01*
X141178648Y-86131427D01*
X141071927Y-86110200D01*
X140963113Y-86110200D01*
X140856391Y-86131427D01*
X140755861Y-86173068D01*
X140665387Y-86233521D01*
X140588441Y-86310467D01*
X140527988Y-86400941D01*
X140486347Y-86501471D01*
X140465120Y-86608192D01*
X136675120Y-86608192D01*
X136675120Y-82406200D01*
X136685329Y-82368100D01*
X136713220Y-82340209D01*
X136751320Y-82330000D01*
X138857768Y-82330000D01*
X138895868Y-82340209D01*
X138911650Y-82352318D01*
X138991567Y-82432235D01*
X139011289Y-82466395D01*
X139011289Y-82505839D01*
X138991567Y-82539999D01*
X138966846Y-82556516D01*
X138938754Y-82568151D01*
X138876945Y-82609451D01*
X138824371Y-82662025D01*
X138783071Y-82723834D01*
X138754623Y-82792514D01*
X138740120Y-82865428D01*
X138740120Y-82939771D01*
X138754623Y-83012685D01*
X138783071Y-83081365D01*
X138824371Y-83143174D01*
X138876945Y-83195748D01*
X138938754Y-83237048D01*
X139007434Y-83265496D01*
X139080349Y-83280000D01*
X139091626Y-83280000D01*
X139129726Y-83290209D01*
X139157617Y-83318100D01*
X139167826Y-83356200D01*
X139157617Y-83394300D01*
X139129726Y-83422191D01*
X139120787Y-83426599D01*
X139068754Y-83448151D01*
X139006945Y-83489451D01*
X138954371Y-83542025D01*
X138913071Y-83603834D01*
X138884623Y-83672514D01*
X138870120Y-83745428D01*
X138870120Y-83819771D01*
X138884623Y-83892685D01*
X138913071Y-83961365D01*
X138954371Y-84023174D01*
X139006945Y-84075748D01*
X139068754Y-84117048D01*
X139137434Y-84145496D01*
X139210349Y-84160000D01*
X139284691Y-84160000D01*
X139357605Y-84145496D01*
X139426285Y-84117048D01*
X139488094Y-84075748D01*
X139540666Y-84023176D01*
X139584162Y-83958081D01*
X139613818Y-83932074D01*
X139652504Y-83924379D01*
X139689855Y-83937058D01*
X139710878Y-83958081D01*
X139754373Y-84023176D01*
X139806945Y-84075748D01*
X139868754Y-84117048D01*
X139937434Y-84145496D01*
X140010349Y-84160000D01*
X140084691Y-84160000D01*
X140157605Y-84145496D01*
X140226285Y-84117048D01*
X140288094Y-84075748D01*
X140340666Y-84023176D01*
X140384162Y-83958081D01*
X140413818Y-83932074D01*
X140452504Y-83924379D01*
X140489855Y-83937058D01*
X140510878Y-83958081D01*
X140554373Y-84023176D01*
X140606943Y-84075746D01*
X140672039Y-84119242D01*
X140698046Y-84148898D01*
X140705741Y-84187584D01*
X140693062Y-84224935D01*
X140672039Y-84245958D01*
X140606943Y-84289453D01*
X140554371Y-84342025D01*
X140513071Y-84403834D01*
X140484623Y-84472514D01*
X140470120Y-84545428D01*
X140470120Y-84619771D01*
X140484623Y-84692685D01*
X140513071Y-84761365D01*
X140554371Y-84823174D01*
X140606945Y-84875748D01*
X140668754Y-84917048D01*
X140737434Y-84945496D01*
X140810349Y-84960000D01*
X140884691Y-84960000D01*
X140957605Y-84945496D01*
X141026285Y-84917048D01*
X141088094Y-84875748D01*
X141140668Y-84823174D01*
X141144162Y-84817946D01*
X141173818Y-84791938D01*
X141212504Y-84784243D01*
X141249854Y-84796922D01*
X141270878Y-84817946D01*
X141274371Y-84823174D01*
X141326945Y-84875748D01*
X141388754Y-84917048D01*
X141457434Y-84945496D01*
X141530349Y-84960000D01*
X141604691Y-84960000D01*
X141677605Y-84945496D01*
X141746285Y-84917048D01*
X141808094Y-84875748D01*
X141860668Y-84823174D01*
X141901968Y-84761365D01*
X141930416Y-84692685D01*
X141944920Y-84619771D01*
X141944920Y-84545428D01*
X141930416Y-84472514D01*
X141901968Y-84403834D01*
X141860668Y-84342025D01*
X141808094Y-84289451D01*
X141774310Y-84266878D01*
X141748303Y-84237223D01*
X141740607Y-84198537D01*
X141753286Y-84161186D01*
X141782941Y-84135179D01*
X141787483Y-84133121D01*
X141826284Y-84117048D01*
X141888094Y-84075748D01*
X141940668Y-84023174D01*
X141981968Y-83961365D01*
X142010416Y-83892685D01*
X142024920Y-83819771D01*
X142024920Y-83745428D01*
X142010416Y-83672514D01*
X141981968Y-83603834D01*
X141940668Y-83542025D01*
X141888096Y-83489453D01*
X141823001Y-83445958D01*
X141796994Y-83416302D01*
X141789299Y-83377616D01*
X141801978Y-83340265D01*
X141823001Y-83319242D01*
X141888096Y-83275746D01*
X141940668Y-83223174D01*
X141981968Y-83161365D01*
X142010416Y-83092685D01*
X142023795Y-83025428D01*
X142990120Y-83025428D01*
X142990120Y-83099771D01*
X143004623Y-83172685D01*
X143033071Y-83241365D01*
X143074371Y-83303174D01*
X143126943Y-83355746D01*
X143192039Y-83399242D01*
X143218046Y-83428898D01*
X143225741Y-83467584D01*
X143213062Y-83504935D01*
X143192039Y-83525958D01*
X143126943Y-83569453D01*
X143074371Y-83622025D01*
X143033071Y-83683834D01*
X143004623Y-83752514D01*
X142990120Y-83825428D01*
X142990120Y-83899771D01*
X143004623Y-83972685D01*
X143033071Y-84041365D01*
X143074371Y-84103174D01*
X143126945Y-84155748D01*
X143188754Y-84197048D01*
X143257434Y-84225496D01*
X143319474Y-84237837D01*
X143354850Y-84255283D01*
X143376764Y-84288079D01*
X143379344Y-84327439D01*
X143361898Y-84362815D01*
X143329102Y-84384729D01*
X143319472Y-84387309D01*
X143307435Y-84389702D01*
X143238754Y-84418151D01*
X143176945Y-84459451D01*
X143124371Y-84512025D01*
X143083071Y-84573834D01*
X143054623Y-84642514D01*
X143040120Y-84715428D01*
X143040120Y-84789771D01*
X143054623Y-84862685D01*
X143083071Y-84931365D01*
X143124371Y-84993174D01*
X143176945Y-85045748D01*
X143238754Y-85087048D01*
X143307434Y-85115496D01*
X143325058Y-85119002D01*
X143360434Y-85136447D01*
X143382349Y-85169243D01*
X143384929Y-85208603D01*
X143365120Y-85308192D01*
X143365120Y-85417007D01*
X143386347Y-85523728D01*
X143427988Y-85624258D01*
X143488441Y-85714732D01*
X143565387Y-85791678D01*
X143655861Y-85852131D01*
X143756391Y-85893772D01*
X143863113Y-85915000D01*
X143971927Y-85915000D01*
X144078648Y-85893772D01*
X144179178Y-85852131D01*
X144269652Y-85791678D01*
X144346598Y-85714732D01*
X144407051Y-85624258D01*
X144448692Y-85523728D01*
X144469920Y-85417007D01*
X144469920Y-85308192D01*
X144448692Y-85201471D01*
X144407051Y-85100941D01*
X144346598Y-85010467D01*
X144269652Y-84933521D01*
X144179178Y-84873068D01*
X144078648Y-84831427D01*
X143971927Y-84810200D01*
X143871120Y-84810200D01*
X143833020Y-84799991D01*
X143805129Y-84772100D01*
X143794920Y-84734000D01*
X143794920Y-84715428D01*
X143780416Y-84642514D01*
X143751968Y-84573834D01*
X143710668Y-84512025D01*
X143658094Y-84459451D01*
X143596285Y-84418151D01*
X143527605Y-84389703D01*
X143465566Y-84377363D01*
X143430190Y-84359917D01*
X143408276Y-84327121D01*
X143405696Y-84287761D01*
X143423142Y-84252385D01*
X143455938Y-84230471D01*
X143465568Y-84227891D01*
X143477604Y-84225497D01*
X143546285Y-84197048D01*
X143608094Y-84155748D01*
X143660668Y-84103174D01*
X143701968Y-84041365D01*
X143730416Y-83972685D01*
X143744920Y-83899771D01*
X143744920Y-83825428D01*
X143730416Y-83752514D01*
X143711599Y-83707085D01*
X143702628Y-83685428D01*
X145180120Y-83685428D01*
X145180120Y-83759771D01*
X145194623Y-83832685D01*
X145223071Y-83901365D01*
X145264371Y-83963174D01*
X145316943Y-84015746D01*
X145357107Y-84042583D01*
X145383114Y-84072239D01*
X145390809Y-84110925D01*
X145378130Y-84148276D01*
X145357106Y-84169299D01*
X145326945Y-84189451D01*
X145274371Y-84242025D01*
X145233071Y-84303834D01*
X145204623Y-84372514D01*
X145190120Y-84445428D01*
X145190120Y-84519771D01*
X145204623Y-84592685D01*
X145233071Y-84661365D01*
X145274371Y-84723174D01*
X145294915Y-84743718D01*
X145314637Y-84777878D01*
X145314637Y-84817322D01*
X145294915Y-84851482D01*
X145264371Y-84882025D01*
X145223071Y-84943834D01*
X145194623Y-85012514D01*
X145180120Y-85085428D01*
X145180120Y-85159771D01*
X145194623Y-85232685D01*
X145223071Y-85301365D01*
X145264371Y-85363174D01*
X145316945Y-85415748D01*
X145378754Y-85457048D01*
X145447434Y-85485496D01*
X145520349Y-85500000D01*
X145594691Y-85500000D01*
X145667605Y-85485496D01*
X145736285Y-85457048D01*
X145798094Y-85415748D01*
X145850668Y-85363174D01*
X145891968Y-85301365D01*
X145920416Y-85232685D01*
X145934920Y-85159771D01*
X145934920Y-85085428D01*
X145920416Y-85012514D01*
X145891968Y-84943834D01*
X145850668Y-84882025D01*
X145830125Y-84861482D01*
X145810403Y-84827322D01*
X145810403Y-84787878D01*
X145830125Y-84753718D01*
X145860668Y-84723174D01*
X145901968Y-84661365D01*
X145920996Y-84615428D01*
X146900120Y-84615428D01*
X146900120Y-84689771D01*
X146914623Y-84762685D01*
X146943071Y-84831365D01*
X146984371Y-84893174D01*
X147036945Y-84945748D01*
X147098754Y-84987048D01*
X147167434Y-85015496D01*
X147240349Y-85030000D01*
X147314691Y-85030000D01*
X147387605Y-85015496D01*
X147456285Y-84987048D01*
X147518094Y-84945748D01*
X147570668Y-84893174D01*
X147611968Y-84831365D01*
X147640416Y-84762685D01*
X147654920Y-84689771D01*
X147654920Y-84615428D01*
X147640416Y-84542514D01*
X147611968Y-84473834D01*
X147570668Y-84412025D01*
X147518094Y-84359451D01*
X147456285Y-84318151D01*
X147387605Y-84289703D01*
X147314691Y-84275200D01*
X147240349Y-84275200D01*
X147167434Y-84289703D01*
X147098754Y-84318151D01*
X147036945Y-84359451D01*
X146984371Y-84412025D01*
X146943071Y-84473834D01*
X146914623Y-84542514D01*
X146900120Y-84615428D01*
X145920996Y-84615428D01*
X145930415Y-84592688D01*
X145944920Y-84519769D01*
X145944920Y-84445428D01*
X145930416Y-84372514D01*
X145901968Y-84303834D01*
X145860668Y-84242025D01*
X145808096Y-84189453D01*
X145767933Y-84162617D01*
X145741926Y-84132961D01*
X145734231Y-84094275D01*
X145746910Y-84056924D01*
X145767934Y-84035901D01*
X145798094Y-84015748D01*
X145850668Y-83963174D01*
X145891968Y-83901365D01*
X145920416Y-83832685D01*
X145934920Y-83759771D01*
X145934920Y-83685428D01*
X145920416Y-83612514D01*
X145891968Y-83543834D01*
X145850668Y-83482025D01*
X145798094Y-83429451D01*
X145736285Y-83388151D01*
X145667605Y-83359703D01*
X145594691Y-83345200D01*
X145520349Y-83345200D01*
X145447434Y-83359703D01*
X145378754Y-83388151D01*
X145316945Y-83429451D01*
X145264371Y-83482025D01*
X145223071Y-83543834D01*
X145194623Y-83612514D01*
X145180120Y-83685428D01*
X143702628Y-83685428D01*
X143701968Y-83683835D01*
X143660668Y-83622025D01*
X143608096Y-83569453D01*
X143543001Y-83525958D01*
X143516994Y-83496302D01*
X143509299Y-83457616D01*
X143521978Y-83420265D01*
X143543001Y-83399242D01*
X143608096Y-83355746D01*
X143660668Y-83303174D01*
X143701968Y-83241365D01*
X143730416Y-83172685D01*
X143744920Y-83099771D01*
X143744920Y-83045428D01*
X146800120Y-83045428D01*
X146800120Y-83119771D01*
X146814623Y-83192685D01*
X146843071Y-83261365D01*
X146884371Y-83323174D01*
X146936945Y-83375748D01*
X146976209Y-83401983D01*
X147002216Y-83431638D01*
X147009912Y-83470324D01*
X146997233Y-83507675D01*
X146973071Y-83543834D01*
X146944623Y-83612514D01*
X146930120Y-83685428D01*
X146930120Y-83759771D01*
X146944623Y-83832685D01*
X146973071Y-83901365D01*
X147014371Y-83963174D01*
X147066945Y-84015748D01*
X147128754Y-84057048D01*
X147197434Y-84085496D01*
X147270349Y-84100000D01*
X147344691Y-84100000D01*
X147417605Y-84085496D01*
X147486285Y-84057048D01*
X147548094Y-84015748D01*
X147603119Y-83960724D01*
X147637279Y-83941002D01*
X147676723Y-83941002D01*
X147710883Y-83960724D01*
X147720359Y-83972271D01*
X147754373Y-84023176D01*
X147806945Y-84075748D01*
X147868754Y-84117048D01*
X147937434Y-84145496D01*
X148010349Y-84160000D01*
X148084691Y-84160000D01*
X148157605Y-84145496D01*
X148226285Y-84117048D01*
X148288094Y-84075748D01*
X148340666Y-84023176D01*
X148384162Y-83958081D01*
X148413818Y-83932074D01*
X148452504Y-83924379D01*
X148489855Y-83937058D01*
X148510878Y-83958081D01*
X148554373Y-84023176D01*
X148606943Y-84075746D01*
X148672039Y-84119242D01*
X148698046Y-84148898D01*
X148705741Y-84187584D01*
X148693062Y-84224935D01*
X148672039Y-84245958D01*
X148606943Y-84289453D01*
X148554371Y-84342025D01*
X148513071Y-84403834D01*
X148484623Y-84472514D01*
X148470120Y-84545428D01*
X148470120Y-84619771D01*
X148484623Y-84692685D01*
X148513071Y-84761365D01*
X148554371Y-84823174D01*
X148606945Y-84875748D01*
X148668754Y-84917048D01*
X148737434Y-84945496D01*
X148810349Y-84960000D01*
X148884691Y-84960000D01*
X148957605Y-84945496D01*
X149026285Y-84917048D01*
X149088094Y-84875748D01*
X149140668Y-84823174D01*
X149181968Y-84761365D01*
X149210416Y-84692685D01*
X149224920Y-84619771D01*
X149224920Y-84545428D01*
X149210417Y-84472517D01*
X149184459Y-84409848D01*
X149184459Y-84409847D01*
X149181968Y-84403835D01*
X149171516Y-84388192D01*
X149965120Y-84388192D01*
X149965120Y-84497007D01*
X149986347Y-84603728D01*
X150027988Y-84704258D01*
X150088441Y-84794732D01*
X150165387Y-84871678D01*
X150255861Y-84932131D01*
X150356391Y-84973772D01*
X150463113Y-84995000D01*
X150571927Y-84995000D01*
X150678648Y-84973772D01*
X150779178Y-84932131D01*
X150869652Y-84871678D01*
X150946598Y-84794732D01*
X151007051Y-84704258D01*
X151048692Y-84603728D01*
X151069920Y-84497007D01*
X151069920Y-84388192D01*
X151048692Y-84281471D01*
X151007051Y-84180941D01*
X150946598Y-84090467D01*
X150903869Y-84047738D01*
X150884147Y-84013578D01*
X150884147Y-83974134D01*
X150903869Y-83939974D01*
X150930668Y-83913174D01*
X150971968Y-83851365D01*
X151000416Y-83782685D01*
X151014920Y-83709771D01*
X151014920Y-83635428D01*
X151000416Y-83562514D01*
X150971968Y-83493834D01*
X150930668Y-83432025D01*
X150878094Y-83379451D01*
X150816285Y-83338151D01*
X150747605Y-83309703D01*
X150674691Y-83295200D01*
X150600349Y-83295200D01*
X150527434Y-83309703D01*
X150458754Y-83338151D01*
X150396945Y-83379451D01*
X150344371Y-83432025D01*
X150303071Y-83493834D01*
X150274623Y-83562514D01*
X150260120Y-83635428D01*
X150260120Y-83709771D01*
X150274623Y-83782684D01*
X150302955Y-83851082D01*
X150308104Y-83890188D01*
X150293010Y-83926630D01*
X150261717Y-83950642D01*
X150255863Y-83953066D01*
X150165387Y-84013521D01*
X150088441Y-84090467D01*
X150027988Y-84180941D01*
X149986347Y-84281471D01*
X149965120Y-84388192D01*
X149171516Y-84388192D01*
X149140668Y-84342025D01*
X149088096Y-84289453D01*
X149023001Y-84245958D01*
X148996994Y-84216302D01*
X148989299Y-84177616D01*
X149001978Y-84140265D01*
X149023001Y-84119242D01*
X149088096Y-84075746D01*
X149140668Y-84023174D01*
X149181968Y-83961365D01*
X149210416Y-83892685D01*
X149224920Y-83819771D01*
X149224920Y-83745428D01*
X149210416Y-83672514D01*
X149181968Y-83603834D01*
X149140668Y-83542025D01*
X149088096Y-83489453D01*
X149023001Y-83445958D01*
X148996994Y-83416302D01*
X148989299Y-83377616D01*
X149001978Y-83340265D01*
X149023001Y-83319242D01*
X149088096Y-83275746D01*
X149140666Y-83223176D01*
X149174681Y-83172271D01*
X149204337Y-83146264D01*
X149243023Y-83138569D01*
X149280374Y-83151248D01*
X149291921Y-83160724D01*
X149326945Y-83195748D01*
X149388754Y-83237048D01*
X149457434Y-83265496D01*
X149530349Y-83280000D01*
X149604691Y-83280000D01*
X149677605Y-83265496D01*
X149746285Y-83237048D01*
X149808094Y-83195748D01*
X149860668Y-83143174D01*
X149901968Y-83081365D01*
X149930416Y-83012685D01*
X149944920Y-82939771D01*
X149944920Y-82865428D01*
X149930416Y-82792514D01*
X149901968Y-82723834D01*
X149860668Y-82662025D01*
X149808094Y-82609451D01*
X149746285Y-82568151D01*
X149677605Y-82539703D01*
X149604691Y-82525200D01*
X149530349Y-82525200D01*
X149457434Y-82539703D01*
X149388754Y-82568151D01*
X149326945Y-82609451D01*
X149274373Y-82662023D01*
X149240359Y-82712929D01*
X149210703Y-82738936D01*
X149172017Y-82746631D01*
X149134666Y-82733952D01*
X149123119Y-82724476D01*
X149088096Y-82689453D01*
X149023001Y-82645958D01*
X148996994Y-82616302D01*
X148989299Y-82577616D01*
X149001978Y-82540265D01*
X149023001Y-82519242D01*
X149088096Y-82475746D01*
X149140668Y-82423174D01*
X149181968Y-82361365D01*
X149210416Y-82292685D01*
X149224920Y-82219771D01*
X149224920Y-82145428D01*
X149210416Y-82072514D01*
X149181968Y-82003834D01*
X149140668Y-81942025D01*
X149088096Y-81889453D01*
X149045935Y-81861282D01*
X149045935Y-81861281D01*
X149026285Y-81848151D01*
X148957605Y-81819703D01*
X148885837Y-81805428D01*
X149580120Y-81805428D01*
X149580120Y-81879771D01*
X149594623Y-81952685D01*
X149623071Y-82021365D01*
X149664371Y-82083174D01*
X149716945Y-82135748D01*
X149778754Y-82177048D01*
X149847434Y-82205496D01*
X149920349Y-82220000D01*
X149994691Y-82220000D01*
X150067605Y-82205496D01*
X150136285Y-82177048D01*
X150198094Y-82135748D01*
X150250668Y-82083174D01*
X150291968Y-82021365D01*
X150320416Y-81952685D01*
X150334920Y-81879771D01*
X150334920Y-81805429D01*
X150334052Y-81801066D01*
X150336632Y-81761706D01*
X150358546Y-81728910D01*
X150393922Y-81711464D01*
X150408788Y-81710000D01*
X150444691Y-81710000D01*
X150517605Y-81695496D01*
X150586285Y-81667048D01*
X150648094Y-81625748D01*
X150700668Y-81573174D01*
X150741968Y-81511365D01*
X150770416Y-81442685D01*
X150784920Y-81369771D01*
X150784920Y-81295428D01*
X150770416Y-81222514D01*
X150741968Y-81153834D01*
X150700668Y-81092025D01*
X150648094Y-81039451D01*
X150586285Y-80998151D01*
X150517605Y-80969703D01*
X150444691Y-80955200D01*
X150370349Y-80955200D01*
X150297434Y-80969703D01*
X150228754Y-80998151D01*
X150166945Y-81039451D01*
X150114371Y-81092025D01*
X150073071Y-81153834D01*
X150044623Y-81222514D01*
X150030120Y-81295428D01*
X150030120Y-81369770D01*
X150030988Y-81374134D01*
X150028408Y-81413494D01*
X150006494Y-81446290D01*
X149971118Y-81463736D01*
X149956252Y-81465200D01*
X149920349Y-81465200D01*
X149847434Y-81479703D01*
X149778754Y-81508151D01*
X149716945Y-81549451D01*
X149664371Y-81602025D01*
X149623071Y-81663834D01*
X149594623Y-81732514D01*
X149580120Y-81805428D01*
X148885837Y-81805428D01*
X148884691Y-81805200D01*
X148810349Y-81805200D01*
X148737434Y-81819703D01*
X148668754Y-81848151D01*
X148606945Y-81889451D01*
X148554373Y-81942023D01*
X148510878Y-82007119D01*
X148481222Y-82033126D01*
X148442536Y-82040821D01*
X148405185Y-82028142D01*
X148384162Y-82007119D01*
X148340666Y-81942023D01*
X148288094Y-81889451D01*
X148226285Y-81848151D01*
X148157605Y-81819703D01*
X148084691Y-81805200D01*
X148010349Y-81805200D01*
X147937434Y-81819703D01*
X147868754Y-81848151D01*
X147806945Y-81889451D01*
X147754371Y-81942025D01*
X147713071Y-82003834D01*
X147684623Y-82072514D01*
X147670120Y-82145428D01*
X147670120Y-82219771D01*
X147684623Y-82292685D01*
X147713071Y-82361365D01*
X147754371Y-82423174D01*
X147806945Y-82475748D01*
X147868754Y-82517048D01*
X147937434Y-82545496D01*
X148010349Y-82560000D01*
X148084691Y-82560000D01*
X148157605Y-82545496D01*
X148226285Y-82517048D01*
X148288094Y-82475748D01*
X148340666Y-82423176D01*
X148384162Y-82358081D01*
X148413818Y-82332074D01*
X148452504Y-82324379D01*
X148489855Y-82337058D01*
X148510878Y-82358081D01*
X148554373Y-82423176D01*
X148606943Y-82475746D01*
X148672039Y-82519242D01*
X148698046Y-82548898D01*
X148705741Y-82587584D01*
X148693062Y-82624935D01*
X148672039Y-82645958D01*
X148606943Y-82689453D01*
X148554371Y-82742025D01*
X148513071Y-82803834D01*
X148484623Y-82872514D01*
X148470120Y-82945428D01*
X148470120Y-83019771D01*
X148484623Y-83092685D01*
X148513071Y-83161365D01*
X148554371Y-83223174D01*
X148606943Y-83275746D01*
X148672039Y-83319242D01*
X148698046Y-83348898D01*
X148705741Y-83387584D01*
X148693062Y-83424935D01*
X148672039Y-83445958D01*
X148606943Y-83489453D01*
X148554373Y-83542023D01*
X148510878Y-83607119D01*
X148481222Y-83633126D01*
X148442536Y-83640821D01*
X148405185Y-83628142D01*
X148384162Y-83607119D01*
X148340666Y-83542023D01*
X148288094Y-83489451D01*
X148226285Y-83448151D01*
X148157605Y-83419703D01*
X148084691Y-83405200D01*
X148010349Y-83405200D01*
X147937434Y-83419703D01*
X147868754Y-83448151D01*
X147806945Y-83489451D01*
X147751921Y-83544476D01*
X147717761Y-83564198D01*
X147678317Y-83564198D01*
X147644157Y-83544476D01*
X147634681Y-83532929D01*
X147600666Y-83482023D01*
X147548094Y-83429451D01*
X147508831Y-83403217D01*
X147482824Y-83373562D01*
X147475128Y-83334876D01*
X147487807Y-83297525D01*
X147511968Y-83261365D01*
X147540416Y-83192685D01*
X147554920Y-83119771D01*
X147554920Y-83045428D01*
X147540416Y-82972514D01*
X147511968Y-82903834D01*
X147470668Y-82842025D01*
X147418094Y-82789451D01*
X147356285Y-82748151D01*
X147287605Y-82719703D01*
X147214691Y-82705200D01*
X147140349Y-82705200D01*
X147067434Y-82719703D01*
X146998754Y-82748151D01*
X146936945Y-82789451D01*
X146884371Y-82842025D01*
X146843071Y-82903834D01*
X146814623Y-82972514D01*
X146800120Y-83045428D01*
X143744920Y-83045428D01*
X143744920Y-83025428D01*
X143730416Y-82952514D01*
X143701968Y-82883834D01*
X143660668Y-82822025D01*
X143608094Y-82769451D01*
X143546285Y-82728151D01*
X143477605Y-82699703D01*
X143404691Y-82685200D01*
X143330349Y-82685200D01*
X143257434Y-82699703D01*
X143188754Y-82728151D01*
X143126945Y-82769451D01*
X143074371Y-82822025D01*
X143033071Y-82883834D01*
X143004623Y-82952514D01*
X142990120Y-83025428D01*
X142023795Y-83025428D01*
X142024920Y-83019771D01*
X142024920Y-82945428D01*
X142010416Y-82872514D01*
X141981968Y-82803834D01*
X141940668Y-82742025D01*
X141888096Y-82689453D01*
X141837967Y-82655958D01*
X141811960Y-82626302D01*
X141804265Y-82587616D01*
X141816944Y-82550265D01*
X141837967Y-82529242D01*
X141888096Y-82495746D01*
X141940668Y-82443174D01*
X141981968Y-82381365D01*
X142010416Y-82312685D01*
X142024920Y-82239771D01*
X142024920Y-82165428D01*
X142012461Y-82102791D01*
X142010996Y-82095428D01*
X145220120Y-82095428D01*
X145220120Y-82169771D01*
X145234623Y-82242685D01*
X145263071Y-82311365D01*
X145304371Y-82373174D01*
X145356945Y-82425748D01*
X145418754Y-82467048D01*
X145487434Y-82495496D01*
X145560349Y-82510000D01*
X145634691Y-82510000D01*
X145707605Y-82495496D01*
X145776285Y-82467048D01*
X145838094Y-82425748D01*
X145890668Y-82373174D01*
X145931968Y-82311365D01*
X145960416Y-82242685D01*
X145974920Y-82169771D01*
X145974920Y-82095428D01*
X145960416Y-82022514D01*
X145931968Y-81953834D01*
X145890668Y-81892025D01*
X145838094Y-81839451D01*
X145776285Y-81798151D01*
X145707605Y-81769703D01*
X145634691Y-81755200D01*
X145560349Y-81755200D01*
X145487434Y-81769703D01*
X145418754Y-81798151D01*
X145356945Y-81839451D01*
X145304371Y-81892025D01*
X145263071Y-81953834D01*
X145234623Y-82022514D01*
X145220120Y-82095428D01*
X142010996Y-82095428D01*
X142010416Y-82092514D01*
X141981968Y-82023834D01*
X141940668Y-81962025D01*
X141888094Y-81909451D01*
X141826285Y-81868151D01*
X141757605Y-81839703D01*
X141684691Y-81825200D01*
X141610349Y-81825200D01*
X141537434Y-81839703D01*
X141468754Y-81868151D01*
X141406945Y-81909451D01*
X141354373Y-81962023D01*
X141316455Y-82018772D01*
X141286799Y-82044779D01*
X141248113Y-82052474D01*
X141210762Y-82039795D01*
X141184755Y-82010139D01*
X141182696Y-82005595D01*
X141181965Y-82003830D01*
X141140668Y-81942025D01*
X141088094Y-81889451D01*
X141026284Y-81848151D01*
X140952633Y-81817643D01*
X140921340Y-81793631D01*
X140906246Y-81757189D01*
X140911395Y-81718083D01*
X140935407Y-81686790D01*
X140952634Y-81676844D01*
X140976287Y-81667046D01*
X141038094Y-81625748D01*
X141090668Y-81573174D01*
X141130866Y-81513014D01*
X141160521Y-81487006D01*
X141199207Y-81479311D01*
X141236558Y-81491990D01*
X141257581Y-81513012D01*
X141264372Y-81523175D01*
X141316945Y-81575748D01*
X141378754Y-81617048D01*
X141447434Y-81645496D01*
X141520349Y-81660000D01*
X141594691Y-81660000D01*
X141667605Y-81645496D01*
X141736285Y-81617048D01*
X141798094Y-81575748D01*
X141850668Y-81523174D01*
X141891968Y-81461365D01*
X141920416Y-81392685D01*
X141934920Y-81319771D01*
X141934920Y-81245428D01*
X141920416Y-81172514D01*
X141891968Y-81103834D01*
X141850668Y-81042025D01*
X141798094Y-80989451D01*
X141736285Y-80948151D01*
X141667605Y-80919703D01*
X141594691Y-80905200D01*
X141520349Y-80905200D01*
X141447434Y-80919703D01*
X141378754Y-80948151D01*
X141316945Y-80989451D01*
X141264371Y-81042025D01*
X141224174Y-81102186D01*
X141194519Y-81128194D01*
X141155833Y-81135889D01*
X141118482Y-81123210D01*
X141097459Y-81102188D01*
X141090667Y-81092024D01*
X141038093Y-81039450D01*
X141035414Y-81037660D01*
X141009408Y-81008004D01*
X141001714Y-80969317D01*
X141014395Y-80931967D01*
X141035417Y-80910946D01*
X141088094Y-80875748D01*
X141140668Y-80823174D01*
X141181968Y-80761365D01*
X141210416Y-80692685D01*
X141224920Y-80619771D01*
X141224920Y-80545428D01*
X143670120Y-80545428D01*
X143670120Y-80619771D01*
X143684623Y-80692685D01*
X143713071Y-80761365D01*
X143754371Y-80823174D01*
X143806945Y-80875748D01*
X143868754Y-80917048D01*
X143937434Y-80945496D01*
X144010349Y-80960000D01*
X144084691Y-80960000D01*
X144157605Y-80945496D01*
X144226285Y-80917048D01*
X144288094Y-80875748D01*
X144340666Y-80823176D01*
X144384162Y-80758081D01*
X144413818Y-80732074D01*
X144452504Y-80724379D01*
X144489855Y-80737058D01*
X144510878Y-80758081D01*
X144554373Y-80823176D01*
X144606943Y-80875746D01*
X144672039Y-80919242D01*
X144698046Y-80948898D01*
X144705741Y-80987584D01*
X144693062Y-81024935D01*
X144672039Y-81045958D01*
X144606943Y-81089453D01*
X144554371Y-81142025D01*
X144513071Y-81203834D01*
X144484623Y-81272514D01*
X144470120Y-81345428D01*
X144470120Y-81419771D01*
X144484623Y-81492685D01*
X144513071Y-81561365D01*
X144554371Y-81623174D01*
X144606945Y-81675748D01*
X144668754Y-81717048D01*
X144737434Y-81745496D01*
X144810349Y-81760000D01*
X144884691Y-81760000D01*
X144957605Y-81745496D01*
X145026285Y-81717048D01*
X145088094Y-81675748D01*
X145140668Y-81623174D01*
X145181968Y-81561365D01*
X145210417Y-81492684D01*
X145215838Y-81465428D01*
X146950120Y-81465428D01*
X146950120Y-81539771D01*
X146964623Y-81612685D01*
X146993071Y-81681365D01*
X147034371Y-81743174D01*
X147086945Y-81795748D01*
X147148754Y-81837048D01*
X147217434Y-81865496D01*
X147290349Y-81880000D01*
X147364691Y-81880000D01*
X147437605Y-81865496D01*
X147506285Y-81837048D01*
X147568094Y-81795748D01*
X147620668Y-81743174D01*
X147661968Y-81681365D01*
X147690416Y-81612685D01*
X147704920Y-81539771D01*
X147704920Y-81465428D01*
X147690416Y-81392514D01*
X147661968Y-81323834D01*
X147620668Y-81262025D01*
X147568094Y-81209451D01*
X147506285Y-81168151D01*
X147437605Y-81139703D01*
X147364691Y-81125200D01*
X147290349Y-81125200D01*
X147217434Y-81139703D01*
X147148754Y-81168151D01*
X147086945Y-81209451D01*
X147034371Y-81262025D01*
X146993071Y-81323834D01*
X146964623Y-81392514D01*
X146950120Y-81465428D01*
X145215838Y-81465428D01*
X145220287Y-81443060D01*
X145220288Y-81443056D01*
X145224920Y-81419772D01*
X145224920Y-81345428D01*
X145210416Y-81272514D01*
X145181968Y-81203834D01*
X145140668Y-81142025D01*
X145088096Y-81089453D01*
X145023001Y-81045958D01*
X144996994Y-81016302D01*
X144989299Y-80977616D01*
X145001978Y-80940265D01*
X145023001Y-80919242D01*
X145088096Y-80875746D01*
X145109141Y-80854702D01*
X145143301Y-80834980D01*
X145182745Y-80834980D01*
X145216905Y-80854702D01*
X145226381Y-80866249D01*
X145244373Y-80893176D01*
X145296945Y-80945748D01*
X145358754Y-80987048D01*
X145427434Y-81015496D01*
X145500349Y-81030000D01*
X145574691Y-81030000D01*
X145647605Y-81015496D01*
X145716285Y-80987048D01*
X145778094Y-80945748D01*
X145830668Y-80893174D01*
X145871968Y-80831365D01*
X145900416Y-80762685D01*
X145914920Y-80689771D01*
X145914920Y-80615428D01*
X145900416Y-80542514D01*
X145871968Y-80473834D01*
X145830668Y-80412025D01*
X145778094Y-80359451D01*
X145716285Y-80318151D01*
X145647605Y-80289703D01*
X145574691Y-80275200D01*
X145500349Y-80275200D01*
X145427434Y-80289703D01*
X145358754Y-80318151D01*
X145296945Y-80359451D01*
X145275899Y-80380498D01*
X145241739Y-80400220D01*
X145202295Y-80400220D01*
X145168135Y-80380498D01*
X145158659Y-80368951D01*
X145140666Y-80342023D01*
X145125644Y-80327001D01*
X145105922Y-80292841D01*
X145105922Y-80253397D01*
X145125644Y-80219237D01*
X145137191Y-80209761D01*
X145188096Y-80175746D01*
X145240668Y-80123174D01*
X145281968Y-80061365D01*
X145310416Y-79992685D01*
X145324920Y-79919771D01*
X145324920Y-79845428D01*
X145310416Y-79772514D01*
X145281968Y-79703834D01*
X145240668Y-79642025D01*
X145188094Y-79589451D01*
X145126285Y-79548151D01*
X145057605Y-79519703D01*
X144984691Y-79505200D01*
X144910349Y-79505200D01*
X144837434Y-79519703D01*
X144768754Y-79548151D01*
X144706945Y-79589451D01*
X144654371Y-79642025D01*
X144613071Y-79703834D01*
X144584623Y-79772514D01*
X144570120Y-79845428D01*
X144570120Y-79919771D01*
X144584623Y-79992685D01*
X144613071Y-80061365D01*
X144654371Y-80123174D01*
X144669396Y-80138199D01*
X144689118Y-80172359D01*
X144689118Y-80211803D01*
X144669396Y-80245963D01*
X144657849Y-80255439D01*
X144606943Y-80289453D01*
X144554373Y-80342023D01*
X144510878Y-80407119D01*
X144481222Y-80433126D01*
X144442536Y-80440821D01*
X144405185Y-80428142D01*
X144384162Y-80407119D01*
X144340666Y-80342023D01*
X144288094Y-80289451D01*
X144226285Y-80248151D01*
X144157605Y-80219703D01*
X144084691Y-80205200D01*
X144010349Y-80205200D01*
X143937434Y-80219703D01*
X143868754Y-80248151D01*
X143806945Y-80289451D01*
X143754371Y-80342025D01*
X143713071Y-80403834D01*
X143684623Y-80472514D01*
X143670120Y-80545428D01*
X141224920Y-80545428D01*
X141210416Y-80472514D01*
X141181968Y-80403834D01*
X141140668Y-80342025D01*
X141088094Y-80289451D01*
X141026285Y-80248151D01*
X140957605Y-80219703D01*
X140878154Y-80203900D01*
X140842777Y-80186455D01*
X140820863Y-80153658D01*
X140818283Y-80114299D01*
X140835728Y-80078922D01*
X140863858Y-80058765D01*
X140916284Y-80037048D01*
X140978094Y-79995748D01*
X141030668Y-79943174D01*
X141071965Y-79881369D01*
X141082710Y-79855428D01*
X141360120Y-79855428D01*
X141360120Y-79929771D01*
X141374623Y-80002685D01*
X141403071Y-80071365D01*
X141444371Y-80133174D01*
X141496945Y-80185748D01*
X141558754Y-80227048D01*
X141627434Y-80255496D01*
X141700349Y-80270000D01*
X141774691Y-80270000D01*
X141847605Y-80255496D01*
X141916285Y-80227048D01*
X141978094Y-80185748D01*
X142030668Y-80133174D01*
X142071968Y-80071365D01*
X142100416Y-80002685D01*
X142114920Y-79929771D01*
X142114920Y-79855428D01*
X142100416Y-79782514D01*
X142071968Y-79713834D01*
X142030668Y-79652025D01*
X141978094Y-79599451D01*
X141916285Y-79558151D01*
X141847605Y-79529703D01*
X141774691Y-79515200D01*
X141700349Y-79515200D01*
X141627434Y-79529703D01*
X141558754Y-79558151D01*
X141496945Y-79599451D01*
X141444371Y-79652025D01*
X141403071Y-79713834D01*
X141374623Y-79782514D01*
X141360120Y-79855428D01*
X141082710Y-79855428D01*
X141097898Y-79818763D01*
X141097899Y-79818762D01*
X141100417Y-79812682D01*
X141114920Y-79739771D01*
X141114920Y-79665428D01*
X141100416Y-79592514D01*
X141071968Y-79523834D01*
X141030668Y-79462025D01*
X140978094Y-79409451D01*
X140916285Y-79368151D01*
X140847605Y-79339703D01*
X140774691Y-79325200D01*
X140700349Y-79325200D01*
X140627434Y-79339703D01*
X140558754Y-79368151D01*
X140496945Y-79409451D01*
X140444371Y-79462025D01*
X140422376Y-79494945D01*
X140392721Y-79520952D01*
X140354035Y-79528648D01*
X140316684Y-79515969D01*
X140305136Y-79506493D01*
X140288094Y-79489451D01*
X140226285Y-79448151D01*
X140157605Y-79419703D01*
X140084691Y-79405200D01*
X140010349Y-79405200D01*
X139937434Y-79419703D01*
X139868754Y-79448151D01*
X139806945Y-79489451D01*
X139754371Y-79542025D01*
X139713071Y-79603834D01*
X139684623Y-79672514D01*
X139670120Y-79745428D01*
X139670120Y-79819771D01*
X139684623Y-79892685D01*
X139713071Y-79961365D01*
X139754371Y-80023174D01*
X139806943Y-80075746D01*
X139872039Y-80119242D01*
X139898046Y-80148898D01*
X139905741Y-80187584D01*
X139893062Y-80224935D01*
X139872039Y-80245958D01*
X139806943Y-80289453D01*
X139754371Y-80342025D01*
X139713071Y-80403834D01*
X139684623Y-80472514D01*
X139670120Y-80545428D01*
X139670120Y-80619771D01*
X139684623Y-80692685D01*
X139713071Y-80761365D01*
X139754371Y-80823174D01*
X139806943Y-80875746D01*
X139872039Y-80919242D01*
X139898046Y-80948898D01*
X139905741Y-80987584D01*
X139893062Y-81024935D01*
X139872039Y-81045958D01*
X139806943Y-81089453D01*
X139754371Y-81142025D01*
X139713071Y-81203834D01*
X139684623Y-81272514D01*
X139670120Y-81345428D01*
X139670120Y-81419771D01*
X139684623Y-81492685D01*
X139713071Y-81561365D01*
X139754371Y-81623174D01*
X139789396Y-81658199D01*
X139809118Y-81692359D01*
X139809118Y-81731803D01*
X139789396Y-81765963D01*
X139777849Y-81775439D01*
X139726943Y-81809453D01*
X139674371Y-81862025D01*
X139633071Y-81923834D01*
X139604623Y-81992514D01*
X139590120Y-82065428D01*
X139590120Y-82139770D01*
X139602652Y-82202773D01*
X139600072Y-82242133D01*
X139578158Y-82274929D01*
X139542782Y-82292375D01*
X139503422Y-82289795D01*
X139474035Y-82271521D01*
X139154867Y-81952354D01*
X139149845Y-81946813D01*
X139145095Y-81941026D01*
X139110472Y-81912611D01*
X139070964Y-81891494D01*
X139028098Y-81878491D01*
X138990957Y-81874833D01*
X138983522Y-81874100D01*
X138976087Y-81874833D01*
X138968618Y-81875200D01*
X136751320Y-81875200D01*
X136713220Y-81864991D01*
X136685329Y-81837100D01*
X136675120Y-81799000D01*
X136675120Y-80988192D01*
X138245120Y-80988192D01*
X138245120Y-81097007D01*
X138266347Y-81203728D01*
X138307988Y-81304258D01*
X138368441Y-81394732D01*
X138445387Y-81471678D01*
X138535861Y-81532131D01*
X138636391Y-81573772D01*
X138743113Y-81595000D01*
X138851927Y-81595000D01*
X138958648Y-81573772D01*
X139059178Y-81532131D01*
X139149652Y-81471678D01*
X139226598Y-81394732D01*
X139287051Y-81304258D01*
X139328692Y-81203728D01*
X139349920Y-81097007D01*
X139349920Y-80988192D01*
X139328692Y-80881471D01*
X139287051Y-80780941D01*
X139226598Y-80690467D01*
X139149652Y-80613521D01*
X139059178Y-80553068D01*
X138958648Y-80511427D01*
X138851927Y-80490200D01*
X138743113Y-80490200D01*
X138636391Y-80511427D01*
X138535861Y-80553068D01*
X138445387Y-80613521D01*
X138368441Y-80690467D01*
X138307988Y-80780941D01*
X138266347Y-80881471D01*
X138245120Y-80988192D01*
X136675120Y-80988192D01*
X136675120Y-78945428D01*
X142870120Y-78945428D01*
X142870120Y-79019771D01*
X142884623Y-79092685D01*
X142913071Y-79161365D01*
X142954371Y-79223174D01*
X143006945Y-79275748D01*
X143068754Y-79317048D01*
X143137434Y-79345496D01*
X143210349Y-79360000D01*
X143284691Y-79360000D01*
X143357605Y-79345496D01*
X143426285Y-79317048D01*
X143488094Y-79275748D01*
X143540668Y-79223174D01*
X143581968Y-79161365D01*
X143610416Y-79092685D01*
X143624920Y-79019771D01*
X143624920Y-78945428D01*
X143610416Y-78872514D01*
X143581968Y-78803834D01*
X143540668Y-78742025D01*
X143488094Y-78689451D01*
X143426285Y-78648151D01*
X143374253Y-78626599D01*
X143342960Y-78602587D01*
X143327866Y-78566146D01*
X143333015Y-78527039D01*
X143357027Y-78495746D01*
X143393468Y-78480652D01*
X143403414Y-78480000D01*
X143404691Y-78480000D01*
X143477605Y-78465496D01*
X143546285Y-78437048D01*
X143608094Y-78395748D01*
X143660668Y-78343174D01*
X143701968Y-78281365D01*
X143730416Y-78212685D01*
X143744920Y-78139771D01*
X143744920Y-78065428D01*
X143730416Y-77992514D01*
X143701968Y-77923834D01*
X143660668Y-77862025D01*
X143608094Y-77809451D01*
X143546285Y-77768151D01*
X143477605Y-77739703D01*
X143404691Y-77725200D01*
X143330349Y-77725200D01*
X143257434Y-77739703D01*
X143188754Y-77768151D01*
X143126945Y-77809451D01*
X143074371Y-77862025D01*
X143033071Y-77923834D01*
X143004623Y-77992514D01*
X142990120Y-78065428D01*
X142990120Y-78139771D01*
X143004623Y-78212685D01*
X143033071Y-78281365D01*
X143074371Y-78343174D01*
X143126945Y-78395748D01*
X143188754Y-78437048D01*
X143240787Y-78458601D01*
X143272080Y-78482613D01*
X143287174Y-78519054D01*
X143282025Y-78558161D01*
X143258013Y-78589454D01*
X143221572Y-78604548D01*
X143211626Y-78605200D01*
X143210349Y-78605200D01*
X143137434Y-78619703D01*
X143068754Y-78648151D01*
X143006945Y-78689451D01*
X142954371Y-78742025D01*
X142913071Y-78803834D01*
X142884623Y-78872514D01*
X142870120Y-78945428D01*
X136675120Y-78945428D01*
X136675120Y-77645428D01*
X138450120Y-77645428D01*
X138450120Y-77719771D01*
X138464623Y-77792685D01*
X138493071Y-77861365D01*
X138534371Y-77923174D01*
X138586945Y-77975748D01*
X138648754Y-78017048D01*
X138717434Y-78045496D01*
X138790349Y-78060000D01*
X138864688Y-78060000D01*
X138876049Y-78057740D01*
X138915408Y-78060319D01*
X138948205Y-78082233D01*
X138965652Y-78117609D01*
X138965652Y-78147341D01*
X138950120Y-78225428D01*
X138950120Y-78299771D01*
X138964623Y-78372685D01*
X138993071Y-78441365D01*
X139034371Y-78503174D01*
X139086945Y-78555748D01*
X139148754Y-78597048D01*
X139217434Y-78625496D01*
X139290349Y-78640000D01*
X139364691Y-78640000D01*
X139437605Y-78625496D01*
X139506285Y-78597048D01*
X139568094Y-78555748D01*
X139620666Y-78503176D01*
X139654681Y-78452271D01*
X139684337Y-78426264D01*
X139723023Y-78418569D01*
X139760374Y-78431248D01*
X139771921Y-78440724D01*
X139806945Y-78475748D01*
X139868754Y-78517048D01*
X139937434Y-78545496D01*
X140010349Y-78560000D01*
X140084691Y-78560000D01*
X140157605Y-78545496D01*
X140226285Y-78517048D01*
X140288094Y-78475748D01*
X140340666Y-78423176D01*
X140384162Y-78358081D01*
X140413818Y-78332074D01*
X140452504Y-78324379D01*
X140489855Y-78337058D01*
X140510878Y-78358081D01*
X140554373Y-78423176D01*
X140606945Y-78475748D01*
X140668754Y-78517048D01*
X140737434Y-78545496D01*
X140810349Y-78560000D01*
X140884691Y-78560000D01*
X140957605Y-78545496D01*
X141026285Y-78517048D01*
X141088094Y-78475748D01*
X141140668Y-78423174D01*
X141181968Y-78361365D01*
X141210416Y-78292685D01*
X141224920Y-78219771D01*
X141224920Y-78145428D01*
X141210416Y-78072514D01*
X141181968Y-78003834D01*
X141140668Y-77942025D01*
X141088096Y-77889453D01*
X141023001Y-77845958D01*
X140996994Y-77816302D01*
X140989299Y-77777616D01*
X141001978Y-77740265D01*
X141023001Y-77719242D01*
X141088096Y-77675746D01*
X141140668Y-77623174D01*
X141159139Y-77595531D01*
X141188794Y-77569523D01*
X141227480Y-77561828D01*
X141264831Y-77574507D01*
X141285855Y-77595530D01*
X141324373Y-77653176D01*
X141376945Y-77705748D01*
X141438754Y-77747048D01*
X141507434Y-77775496D01*
X141580349Y-77790000D01*
X141654691Y-77790000D01*
X141727605Y-77775496D01*
X141796285Y-77747048D01*
X141858094Y-77705748D01*
X141910668Y-77653174D01*
X141951968Y-77591365D01*
X141980416Y-77522685D01*
X141994920Y-77449771D01*
X141994920Y-77375428D01*
X141980416Y-77302514D01*
X141951968Y-77233834D01*
X141910668Y-77172025D01*
X141858094Y-77119451D01*
X141796285Y-77078151D01*
X141727605Y-77049703D01*
X141654691Y-77035200D01*
X141580349Y-77035200D01*
X141507434Y-77049703D01*
X141438754Y-77078151D01*
X141376945Y-77119451D01*
X141324371Y-77172025D01*
X141305901Y-77199669D01*
X141276246Y-77225677D01*
X141237560Y-77233372D01*
X141200209Y-77220693D01*
X141179185Y-77199670D01*
X141140666Y-77142023D01*
X141088096Y-77089453D01*
X141023001Y-77045958D01*
X140996994Y-77016302D01*
X140989299Y-76977616D01*
X141001978Y-76940265D01*
X141023001Y-76919242D01*
X141088096Y-76875746D01*
X141140668Y-76823174D01*
X141181968Y-76761365D01*
X141210416Y-76692685D01*
X141224920Y-76619771D01*
X141224920Y-76545428D01*
X141210416Y-76472514D01*
X141181968Y-76403834D01*
X141140668Y-76342025D01*
X141088096Y-76289453D01*
X141023001Y-76245958D01*
X140996994Y-76216302D01*
X140989299Y-76177616D01*
X141001978Y-76140265D01*
X141023001Y-76119242D01*
X141088096Y-76075746D01*
X141140668Y-76023174D01*
X141175866Y-75970497D01*
X141205521Y-75944489D01*
X141244207Y-75936794D01*
X141281558Y-75949473D01*
X141302580Y-75970494D01*
X141304370Y-75973173D01*
X141356945Y-76025748D01*
X141418754Y-76067048D01*
X141487434Y-76095496D01*
X141560349Y-76110000D01*
X141634691Y-76110000D01*
X141707605Y-76095496D01*
X141776285Y-76067048D01*
X141838094Y-76025748D01*
X141890668Y-75973174D01*
X141931968Y-75911365D01*
X141960416Y-75842685D01*
X141974920Y-75769771D01*
X141974920Y-75695428D01*
X141960416Y-75622514D01*
X141931968Y-75553834D01*
X141890668Y-75492025D01*
X141838093Y-75439450D01*
X141835414Y-75437660D01*
X141809408Y-75408004D01*
X141801714Y-75369317D01*
X141814395Y-75331967D01*
X141835417Y-75310946D01*
X141888094Y-75275748D01*
X141940666Y-75223176D01*
X141984162Y-75158081D01*
X142013818Y-75132074D01*
X142052504Y-75124379D01*
X142089855Y-75137058D01*
X142110878Y-75158081D01*
X142154373Y-75223176D01*
X142206945Y-75275748D01*
X142268754Y-75317048D01*
X142337434Y-75345496D01*
X142410349Y-75360000D01*
X142484691Y-75360000D01*
X142557605Y-75345496D01*
X142626285Y-75317048D01*
X142688094Y-75275748D01*
X142740666Y-75223176D01*
X142784162Y-75158081D01*
X142813818Y-75132074D01*
X142852504Y-75124379D01*
X142889855Y-75137058D01*
X142910878Y-75158081D01*
X142954373Y-75223176D01*
X143006943Y-75275746D01*
X143057849Y-75309761D01*
X143083856Y-75339417D01*
X143091551Y-75378103D01*
X143078872Y-75415454D01*
X143069396Y-75427001D01*
X143064371Y-75432025D01*
X143023071Y-75493834D01*
X142994623Y-75562514D01*
X142980120Y-75635428D01*
X142980120Y-75709771D01*
X142994623Y-75782685D01*
X143023071Y-75851365D01*
X143064371Y-75913174D01*
X143116945Y-75965748D01*
X143178754Y-76007048D01*
X143247434Y-76035496D01*
X143320349Y-76050000D01*
X143394691Y-76050000D01*
X143467605Y-76035496D01*
X143536285Y-76007048D01*
X143598094Y-75965748D01*
X143650668Y-75913174D01*
X143691968Y-75851365D01*
X143720416Y-75782685D01*
X143734920Y-75709771D01*
X143734920Y-75635428D01*
X143720416Y-75562514D01*
X143691968Y-75493834D01*
X143650668Y-75432025D01*
X143598096Y-75379453D01*
X143547191Y-75345439D01*
X143521184Y-75315783D01*
X143513489Y-75277097D01*
X143526168Y-75239746D01*
X143535644Y-75228199D01*
X143540668Y-75223174D01*
X143581968Y-75161365D01*
X143610416Y-75092685D01*
X143624920Y-75019771D01*
X143624920Y-74945428D01*
X143610416Y-74872514D01*
X143581968Y-74803834D01*
X143540668Y-74742025D01*
X143488096Y-74689453D01*
X143437191Y-74655439D01*
X143411184Y-74625783D01*
X143403489Y-74587097D01*
X143416168Y-74549746D01*
X143425644Y-74538199D01*
X143460668Y-74503174D01*
X143501968Y-74441365D01*
X143530416Y-74372685D01*
X143544920Y-74299771D01*
X143544920Y-74225428D01*
X143530416Y-74152514D01*
X143501968Y-74083834D01*
X143460668Y-74022025D01*
X143408094Y-73969451D01*
X143346285Y-73928151D01*
X143277605Y-73899703D01*
X143204691Y-73885200D01*
X143130350Y-73885200D01*
X143111331Y-73888983D01*
X143071971Y-73886403D01*
X143039175Y-73864489D01*
X143021729Y-73829113D01*
X143021729Y-73829112D01*
X143020416Y-73822514D01*
X142991968Y-73753834D01*
X142950668Y-73692025D01*
X142898094Y-73639451D01*
X142836285Y-73598151D01*
X142767605Y-73569703D01*
X142694691Y-73555200D01*
X142620349Y-73555200D01*
X142547434Y-73569703D01*
X142478754Y-73598151D01*
X142416945Y-73639451D01*
X142367592Y-73688805D01*
X142333432Y-73708527D01*
X142293988Y-73708527D01*
X142271375Y-73698281D01*
X142226282Y-73668150D01*
X142157605Y-73639703D01*
X142084691Y-73625200D01*
X142010349Y-73625200D01*
X141937434Y-73639703D01*
X141868754Y-73668151D01*
X141806945Y-73709451D01*
X141754371Y-73762025D01*
X141713071Y-73823834D01*
X141684623Y-73892514D01*
X141670120Y-73965428D01*
X141670120Y-74039771D01*
X141684623Y-74112685D01*
X141713071Y-74181365D01*
X141754371Y-74243174D01*
X141806945Y-74295748D01*
X141868754Y-74337048D01*
X141937434Y-74365496D01*
X142010349Y-74380000D01*
X142084691Y-74380000D01*
X142157605Y-74365496D01*
X142226285Y-74337048D01*
X142288094Y-74295748D01*
X142337448Y-74246395D01*
X142371608Y-74226673D01*
X142411052Y-74226673D01*
X142433665Y-74236919D01*
X142478757Y-74267049D01*
X142547434Y-74295496D01*
X142620349Y-74310000D01*
X142694690Y-74310000D01*
X142713709Y-74306217D01*
X142753069Y-74308797D01*
X142785865Y-74330711D01*
X142803311Y-74366087D01*
X142803311Y-74366088D01*
X142804623Y-74372685D01*
X142833071Y-74441365D01*
X142874371Y-74503174D01*
X142926943Y-74555746D01*
X142977849Y-74589761D01*
X143003856Y-74619417D01*
X143011551Y-74658103D01*
X142998872Y-74695454D01*
X142989396Y-74707001D01*
X142954373Y-74742023D01*
X142910878Y-74807119D01*
X142881222Y-74833126D01*
X142842536Y-74840821D01*
X142805185Y-74828142D01*
X142784162Y-74807119D01*
X142740666Y-74742023D01*
X142688094Y-74689451D01*
X142626285Y-74648151D01*
X142557605Y-74619703D01*
X142484691Y-74605200D01*
X142410349Y-74605200D01*
X142337434Y-74619703D01*
X142268754Y-74648151D01*
X142206945Y-74689451D01*
X142154373Y-74742023D01*
X142110878Y-74807119D01*
X142081222Y-74833126D01*
X142042536Y-74840821D01*
X142005185Y-74828142D01*
X141984162Y-74807119D01*
X141940666Y-74742023D01*
X141888094Y-74689451D01*
X141826285Y-74648151D01*
X141757605Y-74619703D01*
X141684691Y-74605200D01*
X141610349Y-74605200D01*
X141537434Y-74619703D01*
X141468754Y-74648151D01*
X141406945Y-74689451D01*
X141354373Y-74742023D01*
X141310878Y-74807119D01*
X141281222Y-74833126D01*
X141242536Y-74840821D01*
X141205185Y-74828142D01*
X141184162Y-74807119D01*
X141140666Y-74742023D01*
X141105644Y-74707001D01*
X141085922Y-74672841D01*
X141085922Y-74633397D01*
X141105644Y-74599237D01*
X141117191Y-74589761D01*
X141168096Y-74555746D01*
X141220668Y-74503174D01*
X141261968Y-74441365D01*
X141290416Y-74372685D01*
X141304920Y-74299771D01*
X141304920Y-74225428D01*
X141290416Y-74152514D01*
X141261968Y-74083834D01*
X141220668Y-74022025D01*
X141168094Y-73969451D01*
X141106285Y-73928151D01*
X141037605Y-73899703D01*
X140964691Y-73885200D01*
X140890351Y-73885200D01*
X140873189Y-73888614D01*
X140833829Y-73886034D01*
X140801032Y-73864121D01*
X140783586Y-73828745D01*
X140786166Y-73789385D01*
X140808079Y-73756588D01*
X140815987Y-73750520D01*
X140838096Y-73735746D01*
X140890668Y-73683174D01*
X140931968Y-73621365D01*
X140960416Y-73552685D01*
X140974920Y-73479771D01*
X140974920Y-73405428D01*
X140960416Y-73332514D01*
X140931968Y-73263834D01*
X140890668Y-73202025D01*
X140838094Y-73149451D01*
X140776285Y-73108151D01*
X140707605Y-73079703D01*
X140634691Y-73065200D01*
X140560349Y-73065200D01*
X140487434Y-73079703D01*
X140418754Y-73108151D01*
X140356945Y-73149451D01*
X140304371Y-73202025D01*
X140263071Y-73263834D01*
X140234623Y-73332514D01*
X140220120Y-73405428D01*
X140220120Y-73479771D01*
X140234623Y-73552685D01*
X140263071Y-73621365D01*
X140304371Y-73683174D01*
X140356945Y-73735748D01*
X140418754Y-73777048D01*
X140487434Y-73805496D01*
X140560349Y-73820000D01*
X140634689Y-73820000D01*
X140651851Y-73816586D01*
X140691211Y-73819166D01*
X140724008Y-73841079D01*
X140741454Y-73876455D01*
X140738874Y-73915815D01*
X140716961Y-73948612D01*
X140709053Y-73954680D01*
X140686943Y-73969453D01*
X140634371Y-74022025D01*
X140593071Y-74083834D01*
X140564623Y-74152514D01*
X140550120Y-74225428D01*
X140550120Y-74299771D01*
X140564623Y-74372685D01*
X140593071Y-74441365D01*
X140634371Y-74503174D01*
X140669396Y-74538199D01*
X140689118Y-74572359D01*
X140689118Y-74611803D01*
X140669396Y-74645963D01*
X140657849Y-74655439D01*
X140606943Y-74689453D01*
X140554371Y-74742025D01*
X140513071Y-74803834D01*
X140484623Y-74872514D01*
X140470120Y-74945428D01*
X140470120Y-75019771D01*
X140484623Y-75092685D01*
X140513071Y-75161365D01*
X140554371Y-75223174D01*
X140606943Y-75275746D01*
X140672039Y-75319242D01*
X140698046Y-75348898D01*
X140705741Y-75387584D01*
X140693062Y-75424935D01*
X140672039Y-75445958D01*
X140606943Y-75489453D01*
X140554373Y-75542023D01*
X140510878Y-75607119D01*
X140481222Y-75633126D01*
X140442536Y-75640821D01*
X140405185Y-75628142D01*
X140384162Y-75607119D01*
X140340666Y-75542023D01*
X140288094Y-75489451D01*
X140226285Y-75448151D01*
X140157605Y-75419703D01*
X140084691Y-75405200D01*
X140010349Y-75405200D01*
X139937434Y-75419703D01*
X139868754Y-75448151D01*
X139806945Y-75489451D01*
X139754371Y-75542025D01*
X139713071Y-75603834D01*
X139684623Y-75672514D01*
X139670120Y-75745428D01*
X139670120Y-75819771D01*
X139684623Y-75892685D01*
X139713071Y-75961365D01*
X139754371Y-76023174D01*
X139806943Y-76075746D01*
X139872039Y-76119242D01*
X139898046Y-76148898D01*
X139905741Y-76187584D01*
X139893062Y-76224935D01*
X139872039Y-76245958D01*
X139806943Y-76289453D01*
X139754371Y-76342025D01*
X139713071Y-76403834D01*
X139684623Y-76472514D01*
X139670120Y-76545428D01*
X139670120Y-76619771D01*
X139684623Y-76692685D01*
X139713071Y-76761365D01*
X139754371Y-76823174D01*
X139806943Y-76875746D01*
X139872039Y-76919242D01*
X139898046Y-76948898D01*
X139905741Y-76987584D01*
X139893062Y-77024935D01*
X139872039Y-77045958D01*
X139806943Y-77089453D01*
X139754371Y-77142025D01*
X139713071Y-77203834D01*
X139684623Y-77272514D01*
X139670120Y-77345428D01*
X139670120Y-77419771D01*
X139684623Y-77492685D01*
X139713071Y-77561365D01*
X139754371Y-77623174D01*
X139806943Y-77675746D01*
X139872039Y-77719242D01*
X139898046Y-77748898D01*
X139905741Y-77787584D01*
X139893062Y-77824935D01*
X139872039Y-77845958D01*
X139806943Y-77889453D01*
X139754373Y-77942023D01*
X139720359Y-77992929D01*
X139690703Y-78018936D01*
X139652017Y-78026631D01*
X139614666Y-78013952D01*
X139603119Y-78004476D01*
X139568094Y-77969451D01*
X139506285Y-77928151D01*
X139437605Y-77899703D01*
X139364691Y-77885200D01*
X139290352Y-77885200D01*
X139278991Y-77887460D01*
X139239632Y-77884881D01*
X139206835Y-77862967D01*
X139189388Y-77827591D01*
X139189388Y-77797859D01*
X139204920Y-77719771D01*
X139204920Y-77645428D01*
X139190416Y-77572514D01*
X139161968Y-77503834D01*
X139120668Y-77442025D01*
X139068094Y-77389451D01*
X139006285Y-77348151D01*
X138937605Y-77319703D01*
X138864691Y-77305200D01*
X138790349Y-77305200D01*
X138717434Y-77319703D01*
X138648754Y-77348151D01*
X138586945Y-77389451D01*
X138534371Y-77442025D01*
X138493071Y-77503834D01*
X138464623Y-77572514D01*
X138450120Y-77645428D01*
X136675120Y-77645428D01*
X136675120Y-71329863D01*
X136685329Y-71291763D01*
X136713220Y-71263872D01*
X136751320Y-71253663D01*
X136751383Y-71253663D01*
X145238239Y-71260689D01*
G37*
%TD.AperFunction*%
%TA.AperFunction,Conductor*%
G36*
X145257471Y-75822005D02*
G01*
X145277193Y-75856164D01*
X145278325Y-75861021D01*
X145284623Y-75892685D01*
X145313071Y-75961365D01*
X145354371Y-76023174D01*
X145406945Y-76075748D01*
X145439865Y-76097744D01*
X145465872Y-76127399D01*
X145473568Y-76166085D01*
X145460889Y-76203436D01*
X145451413Y-76214984D01*
X145434371Y-76232025D01*
X145393071Y-76293834D01*
X145364623Y-76362514D01*
X145350120Y-76435428D01*
X145350120Y-76509771D01*
X145364622Y-76582682D01*
X145371729Y-76599838D01*
X145376878Y-76638945D01*
X145361785Y-76675386D01*
X145330492Y-76699399D01*
X145301330Y-76705200D01*
X145294226Y-76705200D01*
X145286757Y-76704833D01*
X145279322Y-76704100D01*
X145271887Y-76704833D01*
X145234745Y-76708491D01*
X145191879Y-76721494D01*
X145152371Y-76742611D01*
X145117747Y-76771026D01*
X145113003Y-76776808D01*
X145107982Y-76782348D01*
X144887269Y-77003062D01*
X144881727Y-77008085D01*
X144875946Y-77012828D01*
X144847530Y-77047453D01*
X144826414Y-77086958D01*
X144814703Y-77125567D01*
X144814702Y-77125566D01*
X144813411Y-77129822D01*
X144810276Y-77161659D01*
X144796382Y-77198575D01*
X144788325Y-77208072D01*
X144744371Y-77252025D01*
X144703071Y-77313834D01*
X144681519Y-77365867D01*
X144657507Y-77397160D01*
X144621066Y-77412254D01*
X144581959Y-77407105D01*
X144550666Y-77383093D01*
X144535572Y-77346652D01*
X144534920Y-77336706D01*
X144534920Y-76468354D01*
X144545129Y-76430254D01*
X144557239Y-76414472D01*
X145149708Y-75822004D01*
X145183867Y-75802282D01*
X145223311Y-75802282D01*
X145257471Y-75822005D01*
G37*
%TD.AperFunction*%
%TD*%
M02*
