%TF.GenerationSoftware,KiCad,Pcbnew,8.0.6*%
%TF.CreationDate,2025-04-08T14:13:57+02:00*%
%TF.ProjectId,ReSDMAC,52655344-4d41-4432-9e6b-696361645f70,rev?*%
%TF.SameCoordinates,Original*%
%TF.FileFunction,Legend,Top*%
%TF.FilePolarity,Positive*%
%FSLAX46Y46*%
G04 Gerber Fmt 4.6, Leading zero omitted, Abs format (unit mm)*
G04 Created by KiCad (PCBNEW 8.0.6) date 2025-04-08 14:13:57*
%MOMM*%
%LPD*%
G01*
G04 APERTURE LIST*
G04 Aperture macros list*
%AMRoundRect*
0 Rectangle with rounded corners*
0 $1 Rounding radius*
0 $2 $3 $4 $5 $6 $7 $8 $9 X,Y pos of 4 corners*
0 Add a 4 corners polygon primitive as box body*
4,1,4,$2,$3,$4,$5,$6,$7,$8,$9,$2,$3,0*
0 Add four circle primitives for the rounded corners*
1,1,$1+$1,$2,$3*
1,1,$1+$1,$4,$5*
1,1,$1+$1,$6,$7*
1,1,$1+$1,$8,$9*
0 Add four rect primitives between the rounded corners*
20,1,$1+$1,$2,$3,$4,$5,0*
20,1,$1+$1,$4,$5,$6,$7,0*
20,1,$1+$1,$6,$7,$8,$9,0*
20,1,$1+$1,$8,$9,$2,$3,0*%
G04 Aperture macros list end*
%ADD10C,0.120000*%
%ADD11C,0.150000*%
%ADD12C,0.200000*%
%ADD13C,0.127000*%
%ADD14C,0.100000*%
%ADD15RoundRect,0.250000X0.325000X0.450000X-0.325000X0.450000X-0.325000X-0.450000X0.325000X-0.450000X0*%
%ADD16RoundRect,0.237500X0.287500X0.237500X-0.287500X0.237500X-0.287500X-0.237500X0.287500X-0.237500X0*%
%ADD17RoundRect,0.250000X-0.325000X-0.450000X0.325000X-0.450000X0.325000X0.450000X-0.325000X0.450000X0*%
%ADD18C,0.350000*%
%ADD19RoundRect,0.237500X-0.287500X-0.237500X0.287500X-0.237500X0.287500X0.237500X-0.287500X0.237500X0*%
%ADD20RoundRect,0.250001X-0.462499X-0.624999X0.462499X-0.624999X0.462499X0.624999X-0.462499X0.624999X0*%
%ADD21R,1.500000X2.000000*%
%ADD22R,3.800000X2.000000*%
%ADD23R,1.000000X2.580000*%
%ADD24RoundRect,0.250001X0.624999X-0.462499X0.624999X0.462499X-0.624999X0.462499X-0.624999X-0.462499X0*%
%ADD25RoundRect,0.250001X-0.624999X0.462499X-0.624999X-0.462499X0.624999X-0.462499X0.624999X0.462499X0*%
%ADD26R,0.530000X0.970000*%
%ADD27O,1.500000X1.500000*%
%ADD28R,0.800000X1.300000*%
%ADD29R,1.300000X0.800000*%
%ADD30R,1.500000X1.500000*%
G04 APERTURE END LIST*
D10*
X155117520Y-63252600D02*
X155577520Y-63252600D01*
X155577520Y-63252600D02*
X156317520Y-63992600D01*
X144447520Y-57902600D02*
X144447520Y-58442600D01*
D11*
X144558948Y-69774895D02*
X145016091Y-69774895D01*
X144787519Y-70574895D02*
X144787519Y-69774895D01*
X145739901Y-70498704D02*
X145701805Y-70536800D01*
X145701805Y-70536800D02*
X145587520Y-70574895D01*
X145587520Y-70574895D02*
X145511329Y-70574895D01*
X145511329Y-70574895D02*
X145397043Y-70536800D01*
X145397043Y-70536800D02*
X145320853Y-70460609D01*
X145320853Y-70460609D02*
X145282758Y-70384419D01*
X145282758Y-70384419D02*
X145244662Y-70232038D01*
X145244662Y-70232038D02*
X145244662Y-70117752D01*
X145244662Y-70117752D02*
X145282758Y-69965371D01*
X145282758Y-69965371D02*
X145320853Y-69889180D01*
X145320853Y-69889180D02*
X145397043Y-69812990D01*
X145397043Y-69812990D02*
X145511329Y-69774895D01*
X145511329Y-69774895D02*
X145587520Y-69774895D01*
X145587520Y-69774895D02*
X145701805Y-69812990D01*
X145701805Y-69812990D02*
X145739901Y-69851085D01*
X146082758Y-70574895D02*
X146082758Y-69774895D01*
X146539901Y-70574895D02*
X146197043Y-70117752D01*
X146539901Y-69774895D02*
X146082758Y-70232038D01*
X147239901Y-69774895D02*
X147697044Y-69774895D01*
X147468472Y-70574895D02*
X147468472Y-69774895D01*
X147963711Y-70574895D02*
X147963711Y-69774895D01*
X147963711Y-69774895D02*
X148154187Y-69774895D01*
X148154187Y-69774895D02*
X148268473Y-69812990D01*
X148268473Y-69812990D02*
X148344663Y-69889180D01*
X148344663Y-69889180D02*
X148382758Y-69965371D01*
X148382758Y-69965371D02*
X148420854Y-70117752D01*
X148420854Y-70117752D02*
X148420854Y-70232038D01*
X148420854Y-70232038D02*
X148382758Y-70384419D01*
X148382758Y-70384419D02*
X148344663Y-70460609D01*
X148344663Y-70460609D02*
X148268473Y-70536800D01*
X148268473Y-70536800D02*
X148154187Y-70574895D01*
X148154187Y-70574895D02*
X147963711Y-70574895D01*
X148916092Y-69774895D02*
X149068473Y-69774895D01*
X149068473Y-69774895D02*
X149144663Y-69812990D01*
X149144663Y-69812990D02*
X149220854Y-69889180D01*
X149220854Y-69889180D02*
X149258949Y-70041561D01*
X149258949Y-70041561D02*
X149258949Y-70308228D01*
X149258949Y-70308228D02*
X149220854Y-70460609D01*
X149220854Y-70460609D02*
X149144663Y-70536800D01*
X149144663Y-70536800D02*
X149068473Y-70574895D01*
X149068473Y-70574895D02*
X148916092Y-70574895D01*
X148916092Y-70574895D02*
X148839901Y-70536800D01*
X148839901Y-70536800D02*
X148763711Y-70460609D01*
X148763711Y-70460609D02*
X148725615Y-70308228D01*
X148725615Y-70308228D02*
X148725615Y-70041561D01*
X148725615Y-70041561D02*
X148763711Y-69889180D01*
X148763711Y-69889180D02*
X148839901Y-69812990D01*
X148839901Y-69812990D02*
X148916092Y-69774895D01*
X149780853Y-69774895D02*
X150237996Y-69774895D01*
X150009424Y-70574895D02*
X150009424Y-69774895D01*
X150504663Y-70574895D02*
X150504663Y-69774895D01*
X150504663Y-69774895D02*
X150771329Y-70346323D01*
X150771329Y-70346323D02*
X151037996Y-69774895D01*
X151037996Y-69774895D02*
X151037996Y-70574895D01*
X151380853Y-70536800D02*
X151495139Y-70574895D01*
X151495139Y-70574895D02*
X151685615Y-70574895D01*
X151685615Y-70574895D02*
X151761806Y-70536800D01*
X151761806Y-70536800D02*
X151799901Y-70498704D01*
X151799901Y-70498704D02*
X151837996Y-70422514D01*
X151837996Y-70422514D02*
X151837996Y-70346323D01*
X151837996Y-70346323D02*
X151799901Y-70270133D01*
X151799901Y-70270133D02*
X151761806Y-70232038D01*
X151761806Y-70232038D02*
X151685615Y-70193942D01*
X151685615Y-70193942D02*
X151533234Y-70155847D01*
X151533234Y-70155847D02*
X151457044Y-70117752D01*
X151457044Y-70117752D02*
X151418949Y-70079657D01*
X151418949Y-70079657D02*
X151380853Y-70003466D01*
X151380853Y-70003466D02*
X151380853Y-69927276D01*
X151380853Y-69927276D02*
X151418949Y-69851085D01*
X151418949Y-69851085D02*
X151457044Y-69812990D01*
X151457044Y-69812990D02*
X151533234Y-69774895D01*
X151533234Y-69774895D02*
X151723711Y-69774895D01*
X151723711Y-69774895D02*
X151837996Y-69812990D01*
X154248472Y-69774895D02*
X154705615Y-69774895D01*
X154477043Y-70574895D02*
X154477043Y-69774895D01*
X154972282Y-70574895D02*
X154972282Y-69774895D01*
X154972282Y-69774895D02*
X155162758Y-69774895D01*
X155162758Y-69774895D02*
X155277044Y-69812990D01*
X155277044Y-69812990D02*
X155353234Y-69889180D01*
X155353234Y-69889180D02*
X155391329Y-69965371D01*
X155391329Y-69965371D02*
X155429425Y-70117752D01*
X155429425Y-70117752D02*
X155429425Y-70232038D01*
X155429425Y-70232038D02*
X155391329Y-70384419D01*
X155391329Y-70384419D02*
X155353234Y-70460609D01*
X155353234Y-70460609D02*
X155277044Y-70536800D01*
X155277044Y-70536800D02*
X155162758Y-70574895D01*
X155162758Y-70574895D02*
X154972282Y-70574895D01*
X155772282Y-70574895D02*
X155772282Y-69774895D01*
X147297043Y-60984895D02*
X147792281Y-60984895D01*
X147792281Y-60984895D02*
X147525615Y-61289657D01*
X147525615Y-61289657D02*
X147639900Y-61289657D01*
X147639900Y-61289657D02*
X147716091Y-61327752D01*
X147716091Y-61327752D02*
X147754186Y-61365847D01*
X147754186Y-61365847D02*
X147792281Y-61442038D01*
X147792281Y-61442038D02*
X147792281Y-61632514D01*
X147792281Y-61632514D02*
X147754186Y-61708704D01*
X147754186Y-61708704D02*
X147716091Y-61746800D01*
X147716091Y-61746800D02*
X147639900Y-61784895D01*
X147639900Y-61784895D02*
X147411329Y-61784895D01*
X147411329Y-61784895D02*
X147335138Y-61746800D01*
X147335138Y-61746800D02*
X147297043Y-61708704D01*
X148020853Y-60984895D02*
X148287520Y-61784895D01*
X148287520Y-61784895D02*
X148554186Y-60984895D01*
X148744662Y-60984895D02*
X149239900Y-60984895D01*
X149239900Y-60984895D02*
X148973234Y-61289657D01*
X148973234Y-61289657D02*
X149087519Y-61289657D01*
X149087519Y-61289657D02*
X149163710Y-61327752D01*
X149163710Y-61327752D02*
X149201805Y-61365847D01*
X149201805Y-61365847D02*
X149239900Y-61442038D01*
X149239900Y-61442038D02*
X149239900Y-61632514D01*
X149239900Y-61632514D02*
X149201805Y-61708704D01*
X149201805Y-61708704D02*
X149163710Y-61746800D01*
X149163710Y-61746800D02*
X149087519Y-61784895D01*
X149087519Y-61784895D02*
X148858948Y-61784895D01*
X148858948Y-61784895D02*
X148782757Y-61746800D01*
X148782757Y-61746800D02*
X148744662Y-61708704D01*
X152570853Y-60984895D02*
X152570853Y-61556323D01*
X152570853Y-61556323D02*
X152532758Y-61670609D01*
X152532758Y-61670609D02*
X152456567Y-61746800D01*
X152456567Y-61746800D02*
X152342282Y-61784895D01*
X152342282Y-61784895D02*
X152266091Y-61784895D01*
X152951806Y-61784895D02*
X152951806Y-60984895D01*
X152951806Y-60984895D02*
X153256568Y-60984895D01*
X153256568Y-60984895D02*
X153332758Y-61022990D01*
X153332758Y-61022990D02*
X153370853Y-61061085D01*
X153370853Y-61061085D02*
X153408949Y-61137276D01*
X153408949Y-61137276D02*
X153408949Y-61251561D01*
X153408949Y-61251561D02*
X153370853Y-61327752D01*
X153370853Y-61327752D02*
X153332758Y-61365847D01*
X153332758Y-61365847D02*
X153256568Y-61403942D01*
X153256568Y-61403942D02*
X152951806Y-61403942D01*
X154170853Y-61784895D02*
X153713710Y-61784895D01*
X153942282Y-61784895D02*
X153942282Y-60984895D01*
X153942282Y-60984895D02*
X153866091Y-61099180D01*
X153866091Y-61099180D02*
X153789901Y-61175371D01*
X153789901Y-61175371D02*
X153713710Y-61213466D01*
X149908949Y-61784895D02*
X149908949Y-60984895D01*
X149908949Y-60984895D02*
X150366092Y-61784895D01*
X150366092Y-61784895D02*
X150366092Y-60984895D01*
X151204187Y-61708704D02*
X151166091Y-61746800D01*
X151166091Y-61746800D02*
X151051806Y-61784895D01*
X151051806Y-61784895D02*
X150975615Y-61784895D01*
X150975615Y-61784895D02*
X150861329Y-61746800D01*
X150861329Y-61746800D02*
X150785139Y-61670609D01*
X150785139Y-61670609D02*
X150747044Y-61594419D01*
X150747044Y-61594419D02*
X150708948Y-61442038D01*
X150708948Y-61442038D02*
X150708948Y-61327752D01*
X150708948Y-61327752D02*
X150747044Y-61175371D01*
X150747044Y-61175371D02*
X150785139Y-61099180D01*
X150785139Y-61099180D02*
X150861329Y-61022990D01*
X150861329Y-61022990D02*
X150975615Y-60984895D01*
X150975615Y-60984895D02*
X151051806Y-60984895D01*
X151051806Y-60984895D02*
X151166091Y-61022990D01*
X151166091Y-61022990D02*
X151204187Y-61061085D01*
X144977996Y-61022990D02*
X144901806Y-60984895D01*
X144901806Y-60984895D02*
X144787520Y-60984895D01*
X144787520Y-60984895D02*
X144673234Y-61022990D01*
X144673234Y-61022990D02*
X144597044Y-61099180D01*
X144597044Y-61099180D02*
X144558949Y-61175371D01*
X144558949Y-61175371D02*
X144520853Y-61327752D01*
X144520853Y-61327752D02*
X144520853Y-61442038D01*
X144520853Y-61442038D02*
X144558949Y-61594419D01*
X144558949Y-61594419D02*
X144597044Y-61670609D01*
X144597044Y-61670609D02*
X144673234Y-61746800D01*
X144673234Y-61746800D02*
X144787520Y-61784895D01*
X144787520Y-61784895D02*
X144863711Y-61784895D01*
X144863711Y-61784895D02*
X144977996Y-61746800D01*
X144977996Y-61746800D02*
X145016092Y-61708704D01*
X145016092Y-61708704D02*
X145016092Y-61442038D01*
X145016092Y-61442038D02*
X144863711Y-61442038D01*
X145358949Y-61784895D02*
X145358949Y-60984895D01*
X145358949Y-60984895D02*
X145816092Y-61784895D01*
X145816092Y-61784895D02*
X145816092Y-60984895D01*
X146197044Y-61784895D02*
X146197044Y-60984895D01*
X146197044Y-60984895D02*
X146387520Y-60984895D01*
X146387520Y-60984895D02*
X146501806Y-61022990D01*
X146501806Y-61022990D02*
X146577996Y-61099180D01*
X146577996Y-61099180D02*
X146616091Y-61175371D01*
X146616091Y-61175371D02*
X146654187Y-61327752D01*
X146654187Y-61327752D02*
X146654187Y-61442038D01*
X146654187Y-61442038D02*
X146616091Y-61594419D01*
X146616091Y-61594419D02*
X146577996Y-61670609D01*
X146577996Y-61670609D02*
X146501806Y-61746800D01*
X146501806Y-61746800D02*
X146387520Y-61784895D01*
X146387520Y-61784895D02*
X146197044Y-61784895D01*
X156387996Y-64402990D02*
X156311806Y-64364895D01*
X156311806Y-64364895D02*
X156197520Y-64364895D01*
X156197520Y-64364895D02*
X156083234Y-64402990D01*
X156083234Y-64402990D02*
X156007044Y-64479180D01*
X156007044Y-64479180D02*
X155968949Y-64555371D01*
X155968949Y-64555371D02*
X155930853Y-64707752D01*
X155930853Y-64707752D02*
X155930853Y-64822038D01*
X155930853Y-64822038D02*
X155968949Y-64974419D01*
X155968949Y-64974419D02*
X156007044Y-65050609D01*
X156007044Y-65050609D02*
X156083234Y-65126800D01*
X156083234Y-65126800D02*
X156197520Y-65164895D01*
X156197520Y-65164895D02*
X156273711Y-65164895D01*
X156273711Y-65164895D02*
X156387996Y-65126800D01*
X156387996Y-65126800D02*
X156426092Y-65088704D01*
X156426092Y-65088704D02*
X156426092Y-64822038D01*
X156426092Y-64822038D02*
X156273711Y-64822038D01*
X156768949Y-65164895D02*
X156768949Y-64364895D01*
X156768949Y-64364895D02*
X157226092Y-65164895D01*
X157226092Y-65164895D02*
X157226092Y-64364895D01*
X157607044Y-65164895D02*
X157607044Y-64364895D01*
X157607044Y-64364895D02*
X157797520Y-64364895D01*
X157797520Y-64364895D02*
X157911806Y-64402990D01*
X157911806Y-64402990D02*
X157987996Y-64479180D01*
X157987996Y-64479180D02*
X158026091Y-64555371D01*
X158026091Y-64555371D02*
X158064187Y-64707752D01*
X158064187Y-64707752D02*
X158064187Y-64822038D01*
X158064187Y-64822038D02*
X158026091Y-64974419D01*
X158026091Y-64974419D02*
X157987996Y-65050609D01*
X157987996Y-65050609D02*
X157911806Y-65126800D01*
X157911806Y-65126800D02*
X157797520Y-65164895D01*
X157797520Y-65164895D02*
X157607044Y-65164895D01*
X127504663Y-92388728D02*
X127004663Y-91674442D01*
X126647520Y-92388728D02*
X126647520Y-90888728D01*
X126647520Y-90888728D02*
X127218949Y-90888728D01*
X127218949Y-90888728D02*
X127361806Y-90960157D01*
X127361806Y-90960157D02*
X127433235Y-91031585D01*
X127433235Y-91031585D02*
X127504663Y-91174442D01*
X127504663Y-91174442D02*
X127504663Y-91388728D01*
X127504663Y-91388728D02*
X127433235Y-91531585D01*
X127433235Y-91531585D02*
X127361806Y-91603014D01*
X127361806Y-91603014D02*
X127218949Y-91674442D01*
X127218949Y-91674442D02*
X126647520Y-91674442D01*
X128718949Y-92317300D02*
X128576092Y-92388728D01*
X128576092Y-92388728D02*
X128290378Y-92388728D01*
X128290378Y-92388728D02*
X128147520Y-92317300D01*
X128147520Y-92317300D02*
X128076092Y-92174442D01*
X128076092Y-92174442D02*
X128076092Y-91603014D01*
X128076092Y-91603014D02*
X128147520Y-91460157D01*
X128147520Y-91460157D02*
X128290378Y-91388728D01*
X128290378Y-91388728D02*
X128576092Y-91388728D01*
X128576092Y-91388728D02*
X128718949Y-91460157D01*
X128718949Y-91460157D02*
X128790378Y-91603014D01*
X128790378Y-91603014D02*
X128790378Y-91745871D01*
X128790378Y-91745871D02*
X128076092Y-91888728D01*
X129361806Y-92317300D02*
X129576092Y-92388728D01*
X129576092Y-92388728D02*
X129933234Y-92388728D01*
X129933234Y-92388728D02*
X130076092Y-92317300D01*
X130076092Y-92317300D02*
X130147520Y-92245871D01*
X130147520Y-92245871D02*
X130218949Y-92103014D01*
X130218949Y-92103014D02*
X130218949Y-91960157D01*
X130218949Y-91960157D02*
X130147520Y-91817300D01*
X130147520Y-91817300D02*
X130076092Y-91745871D01*
X130076092Y-91745871D02*
X129933234Y-91674442D01*
X129933234Y-91674442D02*
X129647520Y-91603014D01*
X129647520Y-91603014D02*
X129504663Y-91531585D01*
X129504663Y-91531585D02*
X129433234Y-91460157D01*
X129433234Y-91460157D02*
X129361806Y-91317300D01*
X129361806Y-91317300D02*
X129361806Y-91174442D01*
X129361806Y-91174442D02*
X129433234Y-91031585D01*
X129433234Y-91031585D02*
X129504663Y-90960157D01*
X129504663Y-90960157D02*
X129647520Y-90888728D01*
X129647520Y-90888728D02*
X130004663Y-90888728D01*
X130004663Y-90888728D02*
X130218949Y-90960157D01*
X130861805Y-92388728D02*
X130861805Y-90888728D01*
X130861805Y-90888728D02*
X131218948Y-90888728D01*
X131218948Y-90888728D02*
X131433234Y-90960157D01*
X131433234Y-90960157D02*
X131576091Y-91103014D01*
X131576091Y-91103014D02*
X131647520Y-91245871D01*
X131647520Y-91245871D02*
X131718948Y-91531585D01*
X131718948Y-91531585D02*
X131718948Y-91745871D01*
X131718948Y-91745871D02*
X131647520Y-92031585D01*
X131647520Y-92031585D02*
X131576091Y-92174442D01*
X131576091Y-92174442D02*
X131433234Y-92317300D01*
X131433234Y-92317300D02*
X131218948Y-92388728D01*
X131218948Y-92388728D02*
X130861805Y-92388728D01*
X132361805Y-92388728D02*
X132361805Y-90888728D01*
X132361805Y-90888728D02*
X132861805Y-91960157D01*
X132861805Y-91960157D02*
X133361805Y-90888728D01*
X133361805Y-90888728D02*
X133361805Y-92388728D01*
X134004663Y-91960157D02*
X134718949Y-91960157D01*
X133861806Y-92388728D02*
X134361806Y-90888728D01*
X134361806Y-90888728D02*
X134861806Y-92388728D01*
X136218948Y-92245871D02*
X136147520Y-92317300D01*
X136147520Y-92317300D02*
X135933234Y-92388728D01*
X135933234Y-92388728D02*
X135790377Y-92388728D01*
X135790377Y-92388728D02*
X135576091Y-92317300D01*
X135576091Y-92317300D02*
X135433234Y-92174442D01*
X135433234Y-92174442D02*
X135361805Y-92031585D01*
X135361805Y-92031585D02*
X135290377Y-91745871D01*
X135290377Y-91745871D02*
X135290377Y-91531585D01*
X135290377Y-91531585D02*
X135361805Y-91245871D01*
X135361805Y-91245871D02*
X135433234Y-91103014D01*
X135433234Y-91103014D02*
X135576091Y-90960157D01*
X135576091Y-90960157D02*
X135790377Y-90888728D01*
X135790377Y-90888728D02*
X135933234Y-90888728D01*
X135933234Y-90888728D02*
X136147520Y-90960157D01*
X136147520Y-90960157D02*
X136218948Y-91031585D01*
X154911806Y-57788728D02*
X154411806Y-57074442D01*
X154054663Y-57788728D02*
X154054663Y-56288728D01*
X154054663Y-56288728D02*
X154626092Y-56288728D01*
X154626092Y-56288728D02*
X154768949Y-56360157D01*
X154768949Y-56360157D02*
X154840378Y-56431585D01*
X154840378Y-56431585D02*
X154911806Y-56574442D01*
X154911806Y-56574442D02*
X154911806Y-56788728D01*
X154911806Y-56788728D02*
X154840378Y-56931585D01*
X154840378Y-56931585D02*
X154768949Y-57003014D01*
X154768949Y-57003014D02*
X154626092Y-57074442D01*
X154626092Y-57074442D02*
X154054663Y-57074442D01*
X156126092Y-57717300D02*
X155983235Y-57788728D01*
X155983235Y-57788728D02*
X155697521Y-57788728D01*
X155697521Y-57788728D02*
X155554663Y-57717300D01*
X155554663Y-57717300D02*
X155483235Y-57574442D01*
X155483235Y-57574442D02*
X155483235Y-57003014D01*
X155483235Y-57003014D02*
X155554663Y-56860157D01*
X155554663Y-56860157D02*
X155697521Y-56788728D01*
X155697521Y-56788728D02*
X155983235Y-56788728D01*
X155983235Y-56788728D02*
X156126092Y-56860157D01*
X156126092Y-56860157D02*
X156197521Y-57003014D01*
X156197521Y-57003014D02*
X156197521Y-57145871D01*
X156197521Y-57145871D02*
X155483235Y-57288728D01*
X156697520Y-56788728D02*
X157054663Y-57788728D01*
X157054663Y-57788728D02*
X157411806Y-56788728D01*
X157983234Y-57645871D02*
X158054663Y-57717300D01*
X158054663Y-57717300D02*
X157983234Y-57788728D01*
X157983234Y-57788728D02*
X157911806Y-57717300D01*
X157911806Y-57717300D02*
X157983234Y-57645871D01*
X157983234Y-57645871D02*
X157983234Y-57788728D01*
X160626092Y-57788728D02*
X159768949Y-57788728D01*
X160197520Y-57788728D02*
X160197520Y-56288728D01*
X160197520Y-56288728D02*
X160054663Y-56503014D01*
X160054663Y-56503014D02*
X159911806Y-56645871D01*
X159911806Y-56645871D02*
X159768949Y-56717300D01*
X161197520Y-57360157D02*
X161911806Y-57360157D01*
X161054663Y-57788728D02*
X161554663Y-56288728D01*
X161554663Y-56288728D02*
X162054663Y-57788728D01*
X144876092Y-57458728D02*
X144018949Y-57458728D01*
X144447520Y-57458728D02*
X144447520Y-55958728D01*
X144447520Y-55958728D02*
X144304663Y-56173014D01*
X144304663Y-56173014D02*
X144161806Y-56315871D01*
X144161806Y-56315871D02*
X144018949Y-56387300D01*
X154026092Y-90888728D02*
X154954664Y-90888728D01*
X154954664Y-90888728D02*
X154454664Y-91460157D01*
X154454664Y-91460157D02*
X154668949Y-91460157D01*
X154668949Y-91460157D02*
X154811807Y-91531585D01*
X154811807Y-91531585D02*
X154883235Y-91603014D01*
X154883235Y-91603014D02*
X154954664Y-91745871D01*
X154954664Y-91745871D02*
X154954664Y-92103014D01*
X154954664Y-92103014D02*
X154883235Y-92245871D01*
X154883235Y-92245871D02*
X154811807Y-92317300D01*
X154811807Y-92317300D02*
X154668949Y-92388728D01*
X154668949Y-92388728D02*
X154240378Y-92388728D01*
X154240378Y-92388728D02*
X154097521Y-92317300D01*
X154097521Y-92317300D02*
X154026092Y-92245871D01*
X155668949Y-92388728D02*
X155954663Y-92388728D01*
X155954663Y-92388728D02*
X156097520Y-92317300D01*
X156097520Y-92317300D02*
X156168949Y-92245871D01*
X156168949Y-92245871D02*
X156311806Y-92031585D01*
X156311806Y-92031585D02*
X156383235Y-91745871D01*
X156383235Y-91745871D02*
X156383235Y-91174442D01*
X156383235Y-91174442D02*
X156311806Y-91031585D01*
X156311806Y-91031585D02*
X156240378Y-90960157D01*
X156240378Y-90960157D02*
X156097520Y-90888728D01*
X156097520Y-90888728D02*
X155811806Y-90888728D01*
X155811806Y-90888728D02*
X155668949Y-90960157D01*
X155668949Y-90960157D02*
X155597520Y-91031585D01*
X155597520Y-91031585D02*
X155526092Y-91174442D01*
X155526092Y-91174442D02*
X155526092Y-91531585D01*
X155526092Y-91531585D02*
X155597520Y-91674442D01*
X155597520Y-91674442D02*
X155668949Y-91745871D01*
X155668949Y-91745871D02*
X155811806Y-91817300D01*
X155811806Y-91817300D02*
X156097520Y-91817300D01*
X156097520Y-91817300D02*
X156240378Y-91745871D01*
X156240378Y-91745871D02*
X156311806Y-91674442D01*
X156311806Y-91674442D02*
X156383235Y-91531585D01*
X157311806Y-90888728D02*
X157454663Y-90888728D01*
X157454663Y-90888728D02*
X157597520Y-90960157D01*
X157597520Y-90960157D02*
X157668949Y-91031585D01*
X157668949Y-91031585D02*
X157740377Y-91174442D01*
X157740377Y-91174442D02*
X157811806Y-91460157D01*
X157811806Y-91460157D02*
X157811806Y-91817300D01*
X157811806Y-91817300D02*
X157740377Y-92103014D01*
X157740377Y-92103014D02*
X157668949Y-92245871D01*
X157668949Y-92245871D02*
X157597520Y-92317300D01*
X157597520Y-92317300D02*
X157454663Y-92388728D01*
X157454663Y-92388728D02*
X157311806Y-92388728D01*
X157311806Y-92388728D02*
X157168949Y-92317300D01*
X157168949Y-92317300D02*
X157097520Y-92245871D01*
X157097520Y-92245871D02*
X157026091Y-92103014D01*
X157026091Y-92103014D02*
X156954663Y-91817300D01*
X156954663Y-91817300D02*
X156954663Y-91460157D01*
X156954663Y-91460157D02*
X157026091Y-91174442D01*
X157026091Y-91174442D02*
X157097520Y-91031585D01*
X157097520Y-91031585D02*
X157168949Y-90960157D01*
X157168949Y-90960157D02*
X157311806Y-90888728D01*
X159168948Y-90888728D02*
X158454662Y-90888728D01*
X158454662Y-90888728D02*
X158383234Y-91603014D01*
X158383234Y-91603014D02*
X158454662Y-91531585D01*
X158454662Y-91531585D02*
X158597520Y-91460157D01*
X158597520Y-91460157D02*
X158954662Y-91460157D01*
X158954662Y-91460157D02*
X159097520Y-91531585D01*
X159097520Y-91531585D02*
X159168948Y-91603014D01*
X159168948Y-91603014D02*
X159240377Y-91745871D01*
X159240377Y-91745871D02*
X159240377Y-92103014D01*
X159240377Y-92103014D02*
X159168948Y-92245871D01*
X159168948Y-92245871D02*
X159097520Y-92317300D01*
X159097520Y-92317300D02*
X158954662Y-92388728D01*
X158954662Y-92388728D02*
X158597520Y-92388728D01*
X158597520Y-92388728D02*
X158454662Y-92317300D01*
X158454662Y-92317300D02*
X158383234Y-92245871D01*
X159740376Y-90888728D02*
X160668948Y-90888728D01*
X160668948Y-90888728D02*
X160168948Y-91460157D01*
X160168948Y-91460157D02*
X160383233Y-91460157D01*
X160383233Y-91460157D02*
X160526091Y-91531585D01*
X160526091Y-91531585D02*
X160597519Y-91603014D01*
X160597519Y-91603014D02*
X160668948Y-91745871D01*
X160668948Y-91745871D02*
X160668948Y-92103014D01*
X160668948Y-92103014D02*
X160597519Y-92245871D01*
X160597519Y-92245871D02*
X160526091Y-92317300D01*
X160526091Y-92317300D02*
X160383233Y-92388728D01*
X160383233Y-92388728D02*
X159954662Y-92388728D01*
X159954662Y-92388728D02*
X159811805Y-92317300D01*
X159811805Y-92317300D02*
X159740376Y-92245871D01*
X161168947Y-90888728D02*
X162168947Y-90888728D01*
X162168947Y-90888728D02*
X161526090Y-92388728D01*
X152498949Y-70574895D02*
X152498949Y-69774895D01*
X152498949Y-69774895D02*
X152956092Y-70574895D01*
X152956092Y-70574895D02*
X152956092Y-69774895D01*
X153794187Y-70498704D02*
X153756091Y-70536800D01*
X153756091Y-70536800D02*
X153641806Y-70574895D01*
X153641806Y-70574895D02*
X153565615Y-70574895D01*
X153565615Y-70574895D02*
X153451329Y-70536800D01*
X153451329Y-70536800D02*
X153375139Y-70460609D01*
X153375139Y-70460609D02*
X153337044Y-70384419D01*
X153337044Y-70384419D02*
X153298948Y-70232038D01*
X153298948Y-70232038D02*
X153298948Y-70117752D01*
X153298948Y-70117752D02*
X153337044Y-69965371D01*
X153337044Y-69965371D02*
X153375139Y-69889180D01*
X153375139Y-69889180D02*
X153451329Y-69812990D01*
X153451329Y-69812990D02*
X153565615Y-69774895D01*
X153565615Y-69774895D02*
X153641806Y-69774895D01*
X153641806Y-69774895D02*
X153756091Y-69812990D01*
X153756091Y-69812990D02*
X153794187Y-69851085D01*
X155243362Y-80182180D02*
X155195743Y-80229800D01*
X155195743Y-80229800D02*
X155052886Y-80277419D01*
X155052886Y-80277419D02*
X154957648Y-80277419D01*
X154957648Y-80277419D02*
X154814791Y-80229800D01*
X154814791Y-80229800D02*
X154719553Y-80134561D01*
X154719553Y-80134561D02*
X154671934Y-80039323D01*
X154671934Y-80039323D02*
X154624315Y-79848847D01*
X154624315Y-79848847D02*
X154624315Y-79705990D01*
X154624315Y-79705990D02*
X154671934Y-79515514D01*
X154671934Y-79515514D02*
X154719553Y-79420276D01*
X154719553Y-79420276D02*
X154814791Y-79325038D01*
X154814791Y-79325038D02*
X154957648Y-79277419D01*
X154957648Y-79277419D02*
X155052886Y-79277419D01*
X155052886Y-79277419D02*
X155195743Y-79325038D01*
X155195743Y-79325038D02*
X155243362Y-79372657D01*
X156195743Y-80277419D02*
X155624315Y-80277419D01*
X155910029Y-80277419D02*
X155910029Y-79277419D01*
X155910029Y-79277419D02*
X155814791Y-79420276D01*
X155814791Y-79420276D02*
X155719553Y-79515514D01*
X155719553Y-79515514D02*
X155624315Y-79563133D01*
X156814791Y-79277419D02*
X156910029Y-79277419D01*
X156910029Y-79277419D02*
X157005267Y-79325038D01*
X157005267Y-79325038D02*
X157052886Y-79372657D01*
X157052886Y-79372657D02*
X157100505Y-79467895D01*
X157100505Y-79467895D02*
X157148124Y-79658371D01*
X157148124Y-79658371D02*
X157148124Y-79896466D01*
X157148124Y-79896466D02*
X157100505Y-80086942D01*
X157100505Y-80086942D02*
X157052886Y-80182180D01*
X157052886Y-80182180D02*
X157005267Y-80229800D01*
X157005267Y-80229800D02*
X156910029Y-80277419D01*
X156910029Y-80277419D02*
X156814791Y-80277419D01*
X156814791Y-80277419D02*
X156719553Y-80229800D01*
X156719553Y-80229800D02*
X156671934Y-80182180D01*
X156671934Y-80182180D02*
X156624315Y-80086942D01*
X156624315Y-80086942D02*
X156576696Y-79896466D01*
X156576696Y-79896466D02*
X156576696Y-79658371D01*
X156576696Y-79658371D02*
X156624315Y-79467895D01*
X156624315Y-79467895D02*
X156671934Y-79372657D01*
X156671934Y-79372657D02*
X156719553Y-79325038D01*
X156719553Y-79325038D02*
X156814791Y-79277419D01*
X147464662Y-73212180D02*
X147417043Y-73259800D01*
X147417043Y-73259800D02*
X147274186Y-73307419D01*
X147274186Y-73307419D02*
X147178948Y-73307419D01*
X147178948Y-73307419D02*
X147036091Y-73259800D01*
X147036091Y-73259800D02*
X146940853Y-73164561D01*
X146940853Y-73164561D02*
X146893234Y-73069323D01*
X146893234Y-73069323D02*
X146845615Y-72878847D01*
X146845615Y-72878847D02*
X146845615Y-72735990D01*
X146845615Y-72735990D02*
X146893234Y-72545514D01*
X146893234Y-72545514D02*
X146940853Y-72450276D01*
X146940853Y-72450276D02*
X147036091Y-72355038D01*
X147036091Y-72355038D02*
X147178948Y-72307419D01*
X147178948Y-72307419D02*
X147274186Y-72307419D01*
X147274186Y-72307419D02*
X147417043Y-72355038D01*
X147417043Y-72355038D02*
X147464662Y-72402657D01*
X148417043Y-73307419D02*
X147845615Y-73307419D01*
X148131329Y-73307419D02*
X148131329Y-72307419D01*
X148131329Y-72307419D02*
X148036091Y-72450276D01*
X148036091Y-72450276D02*
X147940853Y-72545514D01*
X147940853Y-72545514D02*
X147845615Y-72593133D01*
X148797996Y-72402657D02*
X148845615Y-72355038D01*
X148845615Y-72355038D02*
X148940853Y-72307419D01*
X148940853Y-72307419D02*
X149178948Y-72307419D01*
X149178948Y-72307419D02*
X149274186Y-72355038D01*
X149274186Y-72355038D02*
X149321805Y-72402657D01*
X149321805Y-72402657D02*
X149369424Y-72497895D01*
X149369424Y-72497895D02*
X149369424Y-72593133D01*
X149369424Y-72593133D02*
X149321805Y-72735990D01*
X149321805Y-72735990D02*
X148750377Y-73307419D01*
X148750377Y-73307419D02*
X149369424Y-73307419D01*
X141960853Y-70372180D02*
X141913234Y-70419800D01*
X141913234Y-70419800D02*
X141770377Y-70467419D01*
X141770377Y-70467419D02*
X141675139Y-70467419D01*
X141675139Y-70467419D02*
X141532282Y-70419800D01*
X141532282Y-70419800D02*
X141437044Y-70324561D01*
X141437044Y-70324561D02*
X141389425Y-70229323D01*
X141389425Y-70229323D02*
X141341806Y-70038847D01*
X141341806Y-70038847D02*
X141341806Y-69895990D01*
X141341806Y-69895990D02*
X141389425Y-69705514D01*
X141389425Y-69705514D02*
X141437044Y-69610276D01*
X141437044Y-69610276D02*
X141532282Y-69515038D01*
X141532282Y-69515038D02*
X141675139Y-69467419D01*
X141675139Y-69467419D02*
X141770377Y-69467419D01*
X141770377Y-69467419D02*
X141913234Y-69515038D01*
X141913234Y-69515038D02*
X141960853Y-69562657D01*
X142817996Y-69800752D02*
X142817996Y-70467419D01*
X142579901Y-69419800D02*
X142341806Y-70134085D01*
X142341806Y-70134085D02*
X142960853Y-70134085D01*
X133430853Y-80222180D02*
X133383234Y-80269800D01*
X133383234Y-80269800D02*
X133240377Y-80317419D01*
X133240377Y-80317419D02*
X133145139Y-80317419D01*
X133145139Y-80317419D02*
X133002282Y-80269800D01*
X133002282Y-80269800D02*
X132907044Y-80174561D01*
X132907044Y-80174561D02*
X132859425Y-80079323D01*
X132859425Y-80079323D02*
X132811806Y-79888847D01*
X132811806Y-79888847D02*
X132811806Y-79745990D01*
X132811806Y-79745990D02*
X132859425Y-79555514D01*
X132859425Y-79555514D02*
X132907044Y-79460276D01*
X132907044Y-79460276D02*
X133002282Y-79365038D01*
X133002282Y-79365038D02*
X133145139Y-79317419D01*
X133145139Y-79317419D02*
X133240377Y-79317419D01*
X133240377Y-79317419D02*
X133383234Y-79365038D01*
X133383234Y-79365038D02*
X133430853Y-79412657D01*
X133764187Y-79317419D02*
X134430853Y-79317419D01*
X134430853Y-79317419D02*
X134002282Y-80317419D01*
X155244662Y-83362180D02*
X155197043Y-83409800D01*
X155197043Y-83409800D02*
X155054186Y-83457419D01*
X155054186Y-83457419D02*
X154958948Y-83457419D01*
X154958948Y-83457419D02*
X154816091Y-83409800D01*
X154816091Y-83409800D02*
X154720853Y-83314561D01*
X154720853Y-83314561D02*
X154673234Y-83219323D01*
X154673234Y-83219323D02*
X154625615Y-83028847D01*
X154625615Y-83028847D02*
X154625615Y-82885990D01*
X154625615Y-82885990D02*
X154673234Y-82695514D01*
X154673234Y-82695514D02*
X154720853Y-82600276D01*
X154720853Y-82600276D02*
X154816091Y-82505038D01*
X154816091Y-82505038D02*
X154958948Y-82457419D01*
X154958948Y-82457419D02*
X155054186Y-82457419D01*
X155054186Y-82457419D02*
X155197043Y-82505038D01*
X155197043Y-82505038D02*
X155244662Y-82552657D01*
X156197043Y-83457419D02*
X155625615Y-83457419D01*
X155911329Y-83457419D02*
X155911329Y-82457419D01*
X155911329Y-82457419D02*
X155816091Y-82600276D01*
X155816091Y-82600276D02*
X155720853Y-82695514D01*
X155720853Y-82695514D02*
X155625615Y-82743133D01*
X156530377Y-82457419D02*
X157197043Y-82457419D01*
X157197043Y-82457419D02*
X156768472Y-83457419D01*
X133658467Y-77838704D02*
X133620371Y-77876800D01*
X133620371Y-77876800D02*
X133506086Y-77914895D01*
X133506086Y-77914895D02*
X133429895Y-77914895D01*
X133429895Y-77914895D02*
X133315609Y-77876800D01*
X133315609Y-77876800D02*
X133239419Y-77800609D01*
X133239419Y-77800609D02*
X133201324Y-77724419D01*
X133201324Y-77724419D02*
X133163228Y-77572038D01*
X133163228Y-77572038D02*
X133163228Y-77457752D01*
X133163228Y-77457752D02*
X133201324Y-77305371D01*
X133201324Y-77305371D02*
X133239419Y-77229180D01*
X133239419Y-77229180D02*
X133315609Y-77152990D01*
X133315609Y-77152990D02*
X133429895Y-77114895D01*
X133429895Y-77114895D02*
X133506086Y-77114895D01*
X133506086Y-77114895D02*
X133620371Y-77152990D01*
X133620371Y-77152990D02*
X133658467Y-77191085D01*
X134344181Y-77114895D02*
X134191800Y-77114895D01*
X134191800Y-77114895D02*
X134115609Y-77152990D01*
X134115609Y-77152990D02*
X134077514Y-77191085D01*
X134077514Y-77191085D02*
X134001324Y-77305371D01*
X134001324Y-77305371D02*
X133963228Y-77457752D01*
X133963228Y-77457752D02*
X133963228Y-77762514D01*
X133963228Y-77762514D02*
X134001324Y-77838704D01*
X134001324Y-77838704D02*
X134039419Y-77876800D01*
X134039419Y-77876800D02*
X134115609Y-77914895D01*
X134115609Y-77914895D02*
X134267990Y-77914895D01*
X134267990Y-77914895D02*
X134344181Y-77876800D01*
X134344181Y-77876800D02*
X134382276Y-77838704D01*
X134382276Y-77838704D02*
X134420371Y-77762514D01*
X134420371Y-77762514D02*
X134420371Y-77572038D01*
X134420371Y-77572038D02*
X134382276Y-77495847D01*
X134382276Y-77495847D02*
X134344181Y-77457752D01*
X134344181Y-77457752D02*
X134267990Y-77419657D01*
X134267990Y-77419657D02*
X134115609Y-77419657D01*
X134115609Y-77419657D02*
X134039419Y-77457752D01*
X134039419Y-77457752D02*
X134001324Y-77495847D01*
X134001324Y-77495847D02*
X133963228Y-77572038D01*
X139245615Y-72097419D02*
X139245615Y-72906942D01*
X139245615Y-72906942D02*
X139293234Y-73002180D01*
X139293234Y-73002180D02*
X139340853Y-73049800D01*
X139340853Y-73049800D02*
X139436091Y-73097419D01*
X139436091Y-73097419D02*
X139626567Y-73097419D01*
X139626567Y-73097419D02*
X139721805Y-73049800D01*
X139721805Y-73049800D02*
X139769424Y-73002180D01*
X139769424Y-73002180D02*
X139817043Y-72906942D01*
X139817043Y-72906942D02*
X139817043Y-72097419D01*
X140817043Y-73097419D02*
X140245615Y-73097419D01*
X140531329Y-73097419D02*
X140531329Y-72097419D01*
X140531329Y-72097419D02*
X140436091Y-72240276D01*
X140436091Y-72240276D02*
X140340853Y-72335514D01*
X140340853Y-72335514D02*
X140245615Y-72383133D01*
X132584662Y-81662180D02*
X132537043Y-81709800D01*
X132537043Y-81709800D02*
X132394186Y-81757419D01*
X132394186Y-81757419D02*
X132298948Y-81757419D01*
X132298948Y-81757419D02*
X132156091Y-81709800D01*
X132156091Y-81709800D02*
X132060853Y-81614561D01*
X132060853Y-81614561D02*
X132013234Y-81519323D01*
X132013234Y-81519323D02*
X131965615Y-81328847D01*
X131965615Y-81328847D02*
X131965615Y-81185990D01*
X131965615Y-81185990D02*
X132013234Y-80995514D01*
X132013234Y-80995514D02*
X132060853Y-80900276D01*
X132060853Y-80900276D02*
X132156091Y-80805038D01*
X132156091Y-80805038D02*
X132298948Y-80757419D01*
X132298948Y-80757419D02*
X132394186Y-80757419D01*
X132394186Y-80757419D02*
X132537043Y-80805038D01*
X132537043Y-80805038D02*
X132584662Y-80852657D01*
X133537043Y-81757419D02*
X132965615Y-81757419D01*
X133251329Y-81757419D02*
X133251329Y-80757419D01*
X133251329Y-80757419D02*
X133156091Y-80900276D01*
X133156091Y-80900276D02*
X133060853Y-80995514D01*
X133060853Y-80995514D02*
X132965615Y-81043133D01*
X133870377Y-80757419D02*
X134489424Y-80757419D01*
X134489424Y-80757419D02*
X134156091Y-81138371D01*
X134156091Y-81138371D02*
X134298948Y-81138371D01*
X134298948Y-81138371D02*
X134394186Y-81185990D01*
X134394186Y-81185990D02*
X134441805Y-81233609D01*
X134441805Y-81233609D02*
X134489424Y-81328847D01*
X134489424Y-81328847D02*
X134489424Y-81566942D01*
X134489424Y-81566942D02*
X134441805Y-81662180D01*
X134441805Y-81662180D02*
X134394186Y-81709800D01*
X134394186Y-81709800D02*
X134298948Y-81757419D01*
X134298948Y-81757419D02*
X134013234Y-81757419D01*
X134013234Y-81757419D02*
X133917996Y-81709800D01*
X133917996Y-81709800D02*
X133870377Y-81662180D01*
X135530853Y-86742180D02*
X135483234Y-86789800D01*
X135483234Y-86789800D02*
X135340377Y-86837419D01*
X135340377Y-86837419D02*
X135245139Y-86837419D01*
X135245139Y-86837419D02*
X135102282Y-86789800D01*
X135102282Y-86789800D02*
X135007044Y-86694561D01*
X135007044Y-86694561D02*
X134959425Y-86599323D01*
X134959425Y-86599323D02*
X134911806Y-86408847D01*
X134911806Y-86408847D02*
X134911806Y-86265990D01*
X134911806Y-86265990D02*
X134959425Y-86075514D01*
X134959425Y-86075514D02*
X135007044Y-85980276D01*
X135007044Y-85980276D02*
X135102282Y-85885038D01*
X135102282Y-85885038D02*
X135245139Y-85837419D01*
X135245139Y-85837419D02*
X135340377Y-85837419D01*
X135340377Y-85837419D02*
X135483234Y-85885038D01*
X135483234Y-85885038D02*
X135530853Y-85932657D01*
X136102282Y-86265990D02*
X136007044Y-86218371D01*
X136007044Y-86218371D02*
X135959425Y-86170752D01*
X135959425Y-86170752D02*
X135911806Y-86075514D01*
X135911806Y-86075514D02*
X135911806Y-86027895D01*
X135911806Y-86027895D02*
X135959425Y-85932657D01*
X135959425Y-85932657D02*
X136007044Y-85885038D01*
X136007044Y-85885038D02*
X136102282Y-85837419D01*
X136102282Y-85837419D02*
X136292758Y-85837419D01*
X136292758Y-85837419D02*
X136387996Y-85885038D01*
X136387996Y-85885038D02*
X136435615Y-85932657D01*
X136435615Y-85932657D02*
X136483234Y-86027895D01*
X136483234Y-86027895D02*
X136483234Y-86075514D01*
X136483234Y-86075514D02*
X136435615Y-86170752D01*
X136435615Y-86170752D02*
X136387996Y-86218371D01*
X136387996Y-86218371D02*
X136292758Y-86265990D01*
X136292758Y-86265990D02*
X136102282Y-86265990D01*
X136102282Y-86265990D02*
X136007044Y-86313609D01*
X136007044Y-86313609D02*
X135959425Y-86361228D01*
X135959425Y-86361228D02*
X135911806Y-86456466D01*
X135911806Y-86456466D02*
X135911806Y-86646942D01*
X135911806Y-86646942D02*
X135959425Y-86742180D01*
X135959425Y-86742180D02*
X136007044Y-86789800D01*
X136007044Y-86789800D02*
X136102282Y-86837419D01*
X136102282Y-86837419D02*
X136292758Y-86837419D01*
X136292758Y-86837419D02*
X136387996Y-86789800D01*
X136387996Y-86789800D02*
X136435615Y-86742180D01*
X136435615Y-86742180D02*
X136483234Y-86646942D01*
X136483234Y-86646942D02*
X136483234Y-86456466D01*
X136483234Y-86456466D02*
X136435615Y-86361228D01*
X136435615Y-86361228D02*
X136387996Y-86313609D01*
X136387996Y-86313609D02*
X136292758Y-86265990D01*
X135580853Y-71722180D02*
X135533234Y-71769800D01*
X135533234Y-71769800D02*
X135390377Y-71817419D01*
X135390377Y-71817419D02*
X135295139Y-71817419D01*
X135295139Y-71817419D02*
X135152282Y-71769800D01*
X135152282Y-71769800D02*
X135057044Y-71674561D01*
X135057044Y-71674561D02*
X135009425Y-71579323D01*
X135009425Y-71579323D02*
X134961806Y-71388847D01*
X134961806Y-71388847D02*
X134961806Y-71245990D01*
X134961806Y-71245990D02*
X135009425Y-71055514D01*
X135009425Y-71055514D02*
X135057044Y-70960276D01*
X135057044Y-70960276D02*
X135152282Y-70865038D01*
X135152282Y-70865038D02*
X135295139Y-70817419D01*
X135295139Y-70817419D02*
X135390377Y-70817419D01*
X135390377Y-70817419D02*
X135533234Y-70865038D01*
X135533234Y-70865038D02*
X135580853Y-70912657D01*
X135914187Y-70817419D02*
X136533234Y-70817419D01*
X136533234Y-70817419D02*
X136199901Y-71198371D01*
X136199901Y-71198371D02*
X136342758Y-71198371D01*
X136342758Y-71198371D02*
X136437996Y-71245990D01*
X136437996Y-71245990D02*
X136485615Y-71293609D01*
X136485615Y-71293609D02*
X136533234Y-71388847D01*
X136533234Y-71388847D02*
X136533234Y-71626942D01*
X136533234Y-71626942D02*
X136485615Y-71722180D01*
X136485615Y-71722180D02*
X136437996Y-71769800D01*
X136437996Y-71769800D02*
X136342758Y-71817419D01*
X136342758Y-71817419D02*
X136057044Y-71817419D01*
X136057044Y-71817419D02*
X135961806Y-71769800D01*
X135961806Y-71769800D02*
X135914187Y-71722180D01*
X134025615Y-68647419D02*
X134025615Y-69456942D01*
X134025615Y-69456942D02*
X134073234Y-69552180D01*
X134073234Y-69552180D02*
X134120853Y-69599800D01*
X134120853Y-69599800D02*
X134216091Y-69647419D01*
X134216091Y-69647419D02*
X134406567Y-69647419D01*
X134406567Y-69647419D02*
X134501805Y-69599800D01*
X134501805Y-69599800D02*
X134549424Y-69552180D01*
X134549424Y-69552180D02*
X134597043Y-69456942D01*
X134597043Y-69456942D02*
X134597043Y-68647419D01*
X135025615Y-68742657D02*
X135073234Y-68695038D01*
X135073234Y-68695038D02*
X135168472Y-68647419D01*
X135168472Y-68647419D02*
X135406567Y-68647419D01*
X135406567Y-68647419D02*
X135501805Y-68695038D01*
X135501805Y-68695038D02*
X135549424Y-68742657D01*
X135549424Y-68742657D02*
X135597043Y-68837895D01*
X135597043Y-68837895D02*
X135597043Y-68933133D01*
X135597043Y-68933133D02*
X135549424Y-69075990D01*
X135549424Y-69075990D02*
X134977996Y-69647419D01*
X134977996Y-69647419D02*
X135597043Y-69647419D01*
X133930853Y-63352180D02*
X133883234Y-63399800D01*
X133883234Y-63399800D02*
X133740377Y-63447419D01*
X133740377Y-63447419D02*
X133645139Y-63447419D01*
X133645139Y-63447419D02*
X133502282Y-63399800D01*
X133502282Y-63399800D02*
X133407044Y-63304561D01*
X133407044Y-63304561D02*
X133359425Y-63209323D01*
X133359425Y-63209323D02*
X133311806Y-63018847D01*
X133311806Y-63018847D02*
X133311806Y-62875990D01*
X133311806Y-62875990D02*
X133359425Y-62685514D01*
X133359425Y-62685514D02*
X133407044Y-62590276D01*
X133407044Y-62590276D02*
X133502282Y-62495038D01*
X133502282Y-62495038D02*
X133645139Y-62447419D01*
X133645139Y-62447419D02*
X133740377Y-62447419D01*
X133740377Y-62447419D02*
X133883234Y-62495038D01*
X133883234Y-62495038D02*
X133930853Y-62542657D01*
X134883234Y-63447419D02*
X134311806Y-63447419D01*
X134597520Y-63447419D02*
X134597520Y-62447419D01*
X134597520Y-62447419D02*
X134502282Y-62590276D01*
X134502282Y-62590276D02*
X134407044Y-62685514D01*
X134407044Y-62685514D02*
X134311806Y-62733133D01*
X142930853Y-63152180D02*
X142883234Y-63199800D01*
X142883234Y-63199800D02*
X142740377Y-63247419D01*
X142740377Y-63247419D02*
X142645139Y-63247419D01*
X142645139Y-63247419D02*
X142502282Y-63199800D01*
X142502282Y-63199800D02*
X142407044Y-63104561D01*
X142407044Y-63104561D02*
X142359425Y-63009323D01*
X142359425Y-63009323D02*
X142311806Y-62818847D01*
X142311806Y-62818847D02*
X142311806Y-62675990D01*
X142311806Y-62675990D02*
X142359425Y-62485514D01*
X142359425Y-62485514D02*
X142407044Y-62390276D01*
X142407044Y-62390276D02*
X142502282Y-62295038D01*
X142502282Y-62295038D02*
X142645139Y-62247419D01*
X142645139Y-62247419D02*
X142740377Y-62247419D01*
X142740377Y-62247419D02*
X142883234Y-62295038D01*
X142883234Y-62295038D02*
X142930853Y-62342657D01*
X143311806Y-62342657D02*
X143359425Y-62295038D01*
X143359425Y-62295038D02*
X143454663Y-62247419D01*
X143454663Y-62247419D02*
X143692758Y-62247419D01*
X143692758Y-62247419D02*
X143787996Y-62295038D01*
X143787996Y-62295038D02*
X143835615Y-62342657D01*
X143835615Y-62342657D02*
X143883234Y-62437895D01*
X143883234Y-62437895D02*
X143883234Y-62533133D01*
X143883234Y-62533133D02*
X143835615Y-62675990D01*
X143835615Y-62675990D02*
X143264187Y-63247419D01*
X143264187Y-63247419D02*
X143883234Y-63247419D01*
X133658467Y-75758704D02*
X133620371Y-75796800D01*
X133620371Y-75796800D02*
X133506086Y-75834895D01*
X133506086Y-75834895D02*
X133429895Y-75834895D01*
X133429895Y-75834895D02*
X133315609Y-75796800D01*
X133315609Y-75796800D02*
X133239419Y-75720609D01*
X133239419Y-75720609D02*
X133201324Y-75644419D01*
X133201324Y-75644419D02*
X133163228Y-75492038D01*
X133163228Y-75492038D02*
X133163228Y-75377752D01*
X133163228Y-75377752D02*
X133201324Y-75225371D01*
X133201324Y-75225371D02*
X133239419Y-75149180D01*
X133239419Y-75149180D02*
X133315609Y-75072990D01*
X133315609Y-75072990D02*
X133429895Y-75034895D01*
X133429895Y-75034895D02*
X133506086Y-75034895D01*
X133506086Y-75034895D02*
X133620371Y-75072990D01*
X133620371Y-75072990D02*
X133658467Y-75111085D01*
X134382276Y-75034895D02*
X134001324Y-75034895D01*
X134001324Y-75034895D02*
X133963228Y-75415847D01*
X133963228Y-75415847D02*
X134001324Y-75377752D01*
X134001324Y-75377752D02*
X134077514Y-75339657D01*
X134077514Y-75339657D02*
X134267990Y-75339657D01*
X134267990Y-75339657D02*
X134344181Y-75377752D01*
X134344181Y-75377752D02*
X134382276Y-75415847D01*
X134382276Y-75415847D02*
X134420371Y-75492038D01*
X134420371Y-75492038D02*
X134420371Y-75682514D01*
X134420371Y-75682514D02*
X134382276Y-75758704D01*
X134382276Y-75758704D02*
X134344181Y-75796800D01*
X134344181Y-75796800D02*
X134267990Y-75834895D01*
X134267990Y-75834895D02*
X134077514Y-75834895D01*
X134077514Y-75834895D02*
X134001324Y-75796800D01*
X134001324Y-75796800D02*
X133963228Y-75758704D01*
X138784662Y-87122180D02*
X138737043Y-87169800D01*
X138737043Y-87169800D02*
X138594186Y-87217419D01*
X138594186Y-87217419D02*
X138498948Y-87217419D01*
X138498948Y-87217419D02*
X138356091Y-87169800D01*
X138356091Y-87169800D02*
X138260853Y-87074561D01*
X138260853Y-87074561D02*
X138213234Y-86979323D01*
X138213234Y-86979323D02*
X138165615Y-86788847D01*
X138165615Y-86788847D02*
X138165615Y-86645990D01*
X138165615Y-86645990D02*
X138213234Y-86455514D01*
X138213234Y-86455514D02*
X138260853Y-86360276D01*
X138260853Y-86360276D02*
X138356091Y-86265038D01*
X138356091Y-86265038D02*
X138498948Y-86217419D01*
X138498948Y-86217419D02*
X138594186Y-86217419D01*
X138594186Y-86217419D02*
X138737043Y-86265038D01*
X138737043Y-86265038D02*
X138784662Y-86312657D01*
X139737043Y-87217419D02*
X139165615Y-87217419D01*
X139451329Y-87217419D02*
X139451329Y-86217419D01*
X139451329Y-86217419D02*
X139356091Y-86360276D01*
X139356091Y-86360276D02*
X139260853Y-86455514D01*
X139260853Y-86455514D02*
X139165615Y-86503133D01*
X140641805Y-86217419D02*
X140165615Y-86217419D01*
X140165615Y-86217419D02*
X140117996Y-86693609D01*
X140117996Y-86693609D02*
X140165615Y-86645990D01*
X140165615Y-86645990D02*
X140260853Y-86598371D01*
X140260853Y-86598371D02*
X140498948Y-86598371D01*
X140498948Y-86598371D02*
X140594186Y-86645990D01*
X140594186Y-86645990D02*
X140641805Y-86693609D01*
X140641805Y-86693609D02*
X140689424Y-86788847D01*
X140689424Y-86788847D02*
X140689424Y-87026942D01*
X140689424Y-87026942D02*
X140641805Y-87122180D01*
X140641805Y-87122180D02*
X140594186Y-87169800D01*
X140594186Y-87169800D02*
X140498948Y-87217419D01*
X140498948Y-87217419D02*
X140260853Y-87217419D01*
X140260853Y-87217419D02*
X140165615Y-87169800D01*
X140165615Y-87169800D02*
X140117996Y-87122180D01*
X152992339Y-77043076D02*
X152516148Y-77376409D01*
X152992339Y-77614504D02*
X151992339Y-77614504D01*
X151992339Y-77614504D02*
X151992339Y-77233552D01*
X151992339Y-77233552D02*
X152039958Y-77138314D01*
X152039958Y-77138314D02*
X152087577Y-77090695D01*
X152087577Y-77090695D02*
X152182815Y-77043076D01*
X152182815Y-77043076D02*
X152325672Y-77043076D01*
X152325672Y-77043076D02*
X152420910Y-77090695D01*
X152420910Y-77090695D02*
X152468529Y-77138314D01*
X152468529Y-77138314D02*
X152516148Y-77233552D01*
X152516148Y-77233552D02*
X152516148Y-77614504D01*
X152992339Y-76614504D02*
X151992339Y-76614504D01*
X151992339Y-76614504D02*
X152992339Y-76043076D01*
X152992339Y-76043076D02*
X151992339Y-76043076D01*
X152992339Y-75043076D02*
X152992339Y-75614504D01*
X152992339Y-75328790D02*
X151992339Y-75328790D01*
X151992339Y-75328790D02*
X152135196Y-75424028D01*
X152135196Y-75424028D02*
X152230434Y-75519266D01*
X152230434Y-75519266D02*
X152278053Y-75614504D01*
X152992339Y-73013076D02*
X152516148Y-73346409D01*
X152992339Y-73584504D02*
X151992339Y-73584504D01*
X151992339Y-73584504D02*
X151992339Y-73203552D01*
X151992339Y-73203552D02*
X152039958Y-73108314D01*
X152039958Y-73108314D02*
X152087577Y-73060695D01*
X152087577Y-73060695D02*
X152182815Y-73013076D01*
X152182815Y-73013076D02*
X152325672Y-73013076D01*
X152325672Y-73013076D02*
X152420910Y-73060695D01*
X152420910Y-73060695D02*
X152468529Y-73108314D01*
X152468529Y-73108314D02*
X152516148Y-73203552D01*
X152516148Y-73203552D02*
X152516148Y-73584504D01*
X152992339Y-72584504D02*
X151992339Y-72584504D01*
X151992339Y-72584504D02*
X152992339Y-72013076D01*
X152992339Y-72013076D02*
X151992339Y-72013076D01*
X152087577Y-71584504D02*
X152039958Y-71536885D01*
X152039958Y-71536885D02*
X151992339Y-71441647D01*
X151992339Y-71441647D02*
X151992339Y-71203552D01*
X151992339Y-71203552D02*
X152039958Y-71108314D01*
X152039958Y-71108314D02*
X152087577Y-71060695D01*
X152087577Y-71060695D02*
X152182815Y-71013076D01*
X152182815Y-71013076D02*
X152278053Y-71013076D01*
X152278053Y-71013076D02*
X152420910Y-71060695D01*
X152420910Y-71060695D02*
X152992339Y-71632123D01*
X152992339Y-71632123D02*
X152992339Y-71013076D01*
X155244662Y-81672180D02*
X155197043Y-81719800D01*
X155197043Y-81719800D02*
X155054186Y-81767419D01*
X155054186Y-81767419D02*
X154958948Y-81767419D01*
X154958948Y-81767419D02*
X154816091Y-81719800D01*
X154816091Y-81719800D02*
X154720853Y-81624561D01*
X154720853Y-81624561D02*
X154673234Y-81529323D01*
X154673234Y-81529323D02*
X154625615Y-81338847D01*
X154625615Y-81338847D02*
X154625615Y-81195990D01*
X154625615Y-81195990D02*
X154673234Y-81005514D01*
X154673234Y-81005514D02*
X154720853Y-80910276D01*
X154720853Y-80910276D02*
X154816091Y-80815038D01*
X154816091Y-80815038D02*
X154958948Y-80767419D01*
X154958948Y-80767419D02*
X155054186Y-80767419D01*
X155054186Y-80767419D02*
X155197043Y-80815038D01*
X155197043Y-80815038D02*
X155244662Y-80862657D01*
X156197043Y-81767419D02*
X155625615Y-81767419D01*
X155911329Y-81767419D02*
X155911329Y-80767419D01*
X155911329Y-80767419D02*
X155816091Y-80910276D01*
X155816091Y-80910276D02*
X155720853Y-81005514D01*
X155720853Y-81005514D02*
X155625615Y-81053133D01*
X157054186Y-80767419D02*
X156863710Y-80767419D01*
X156863710Y-80767419D02*
X156768472Y-80815038D01*
X156768472Y-80815038D02*
X156720853Y-80862657D01*
X156720853Y-80862657D02*
X156625615Y-81005514D01*
X156625615Y-81005514D02*
X156577996Y-81195990D01*
X156577996Y-81195990D02*
X156577996Y-81576942D01*
X156577996Y-81576942D02*
X156625615Y-81672180D01*
X156625615Y-81672180D02*
X156673234Y-81719800D01*
X156673234Y-81719800D02*
X156768472Y-81767419D01*
X156768472Y-81767419D02*
X156958948Y-81767419D01*
X156958948Y-81767419D02*
X157054186Y-81719800D01*
X157054186Y-81719800D02*
X157101805Y-81672180D01*
X157101805Y-81672180D02*
X157149424Y-81576942D01*
X157149424Y-81576942D02*
X157149424Y-81338847D01*
X157149424Y-81338847D02*
X157101805Y-81243609D01*
X157101805Y-81243609D02*
X157054186Y-81195990D01*
X157054186Y-81195990D02*
X156958948Y-81148371D01*
X156958948Y-81148371D02*
X156768472Y-81148371D01*
X156768472Y-81148371D02*
X156673234Y-81195990D01*
X156673234Y-81195990D02*
X156625615Y-81243609D01*
X156625615Y-81243609D02*
X156577996Y-81338847D01*
X132584662Y-83132180D02*
X132537043Y-83179800D01*
X132537043Y-83179800D02*
X132394186Y-83227419D01*
X132394186Y-83227419D02*
X132298948Y-83227419D01*
X132298948Y-83227419D02*
X132156091Y-83179800D01*
X132156091Y-83179800D02*
X132060853Y-83084561D01*
X132060853Y-83084561D02*
X132013234Y-82989323D01*
X132013234Y-82989323D02*
X131965615Y-82798847D01*
X131965615Y-82798847D02*
X131965615Y-82655990D01*
X131965615Y-82655990D02*
X132013234Y-82465514D01*
X132013234Y-82465514D02*
X132060853Y-82370276D01*
X132060853Y-82370276D02*
X132156091Y-82275038D01*
X132156091Y-82275038D02*
X132298948Y-82227419D01*
X132298948Y-82227419D02*
X132394186Y-82227419D01*
X132394186Y-82227419D02*
X132537043Y-82275038D01*
X132537043Y-82275038D02*
X132584662Y-82322657D01*
X133537043Y-83227419D02*
X132965615Y-83227419D01*
X133251329Y-83227419D02*
X133251329Y-82227419D01*
X133251329Y-82227419D02*
X133156091Y-82370276D01*
X133156091Y-82370276D02*
X133060853Y-82465514D01*
X133060853Y-82465514D02*
X132965615Y-82513133D01*
X134394186Y-82560752D02*
X134394186Y-83227419D01*
X134156091Y-82179800D02*
X133917996Y-82894085D01*
X133917996Y-82894085D02*
X134537043Y-82894085D01*
X150030853Y-87362180D02*
X149983234Y-87409800D01*
X149983234Y-87409800D02*
X149840377Y-87457419D01*
X149840377Y-87457419D02*
X149745139Y-87457419D01*
X149745139Y-87457419D02*
X149602282Y-87409800D01*
X149602282Y-87409800D02*
X149507044Y-87314561D01*
X149507044Y-87314561D02*
X149459425Y-87219323D01*
X149459425Y-87219323D02*
X149411806Y-87028847D01*
X149411806Y-87028847D02*
X149411806Y-86885990D01*
X149411806Y-86885990D02*
X149459425Y-86695514D01*
X149459425Y-86695514D02*
X149507044Y-86600276D01*
X149507044Y-86600276D02*
X149602282Y-86505038D01*
X149602282Y-86505038D02*
X149745139Y-86457419D01*
X149745139Y-86457419D02*
X149840377Y-86457419D01*
X149840377Y-86457419D02*
X149983234Y-86505038D01*
X149983234Y-86505038D02*
X150030853Y-86552657D01*
X150507044Y-87457419D02*
X150697520Y-87457419D01*
X150697520Y-87457419D02*
X150792758Y-87409800D01*
X150792758Y-87409800D02*
X150840377Y-87362180D01*
X150840377Y-87362180D02*
X150935615Y-87219323D01*
X150935615Y-87219323D02*
X150983234Y-87028847D01*
X150983234Y-87028847D02*
X150983234Y-86647895D01*
X150983234Y-86647895D02*
X150935615Y-86552657D01*
X150935615Y-86552657D02*
X150887996Y-86505038D01*
X150887996Y-86505038D02*
X150792758Y-86457419D01*
X150792758Y-86457419D02*
X150602282Y-86457419D01*
X150602282Y-86457419D02*
X150507044Y-86505038D01*
X150507044Y-86505038D02*
X150459425Y-86552657D01*
X150459425Y-86552657D02*
X150411806Y-86647895D01*
X150411806Y-86647895D02*
X150411806Y-86885990D01*
X150411806Y-86885990D02*
X150459425Y-86981228D01*
X150459425Y-86981228D02*
X150507044Y-87028847D01*
X150507044Y-87028847D02*
X150602282Y-87076466D01*
X150602282Y-87076466D02*
X150792758Y-87076466D01*
X150792758Y-87076466D02*
X150887996Y-87028847D01*
X150887996Y-87028847D02*
X150935615Y-86981228D01*
X150935615Y-86981228D02*
X150983234Y-86885990D01*
X130460215Y-74161419D02*
X131031643Y-74161419D01*
X130745929Y-75161419D02*
X130745929Y-74161419D01*
X131364977Y-75161419D02*
X131364977Y-74161419D01*
X131364977Y-74161419D02*
X131745929Y-74161419D01*
X131745929Y-74161419D02*
X131841167Y-74209038D01*
X131841167Y-74209038D02*
X131888786Y-74256657D01*
X131888786Y-74256657D02*
X131936405Y-74351895D01*
X131936405Y-74351895D02*
X131936405Y-74494752D01*
X131936405Y-74494752D02*
X131888786Y-74589990D01*
X131888786Y-74589990D02*
X131841167Y-74637609D01*
X131841167Y-74637609D02*
X131745929Y-74685228D01*
X131745929Y-74685228D02*
X131364977Y-74685228D01*
X132888786Y-75161419D02*
X132317358Y-75161419D01*
X132603072Y-75161419D02*
X132603072Y-74161419D01*
X132603072Y-74161419D02*
X132507834Y-74304276D01*
X132507834Y-74304276D02*
X132412596Y-74399514D01*
X132412596Y-74399514D02*
X132317358Y-74447133D01*
X153454662Y-86762180D02*
X153407043Y-86809800D01*
X153407043Y-86809800D02*
X153264186Y-86857419D01*
X153264186Y-86857419D02*
X153168948Y-86857419D01*
X153168948Y-86857419D02*
X153026091Y-86809800D01*
X153026091Y-86809800D02*
X152930853Y-86714561D01*
X152930853Y-86714561D02*
X152883234Y-86619323D01*
X152883234Y-86619323D02*
X152835615Y-86428847D01*
X152835615Y-86428847D02*
X152835615Y-86285990D01*
X152835615Y-86285990D02*
X152883234Y-86095514D01*
X152883234Y-86095514D02*
X152930853Y-86000276D01*
X152930853Y-86000276D02*
X153026091Y-85905038D01*
X153026091Y-85905038D02*
X153168948Y-85857419D01*
X153168948Y-85857419D02*
X153264186Y-85857419D01*
X153264186Y-85857419D02*
X153407043Y-85905038D01*
X153407043Y-85905038D02*
X153454662Y-85952657D01*
X154407043Y-86857419D02*
X153835615Y-86857419D01*
X154121329Y-86857419D02*
X154121329Y-85857419D01*
X154121329Y-85857419D02*
X154026091Y-86000276D01*
X154026091Y-86000276D02*
X153930853Y-86095514D01*
X153930853Y-86095514D02*
X153835615Y-86143133D01*
X155359424Y-86857419D02*
X154787996Y-86857419D01*
X155073710Y-86857419D02*
X155073710Y-85857419D01*
X155073710Y-85857419D02*
X154978472Y-86000276D01*
X154978472Y-86000276D02*
X154883234Y-86095514D01*
X154883234Y-86095514D02*
X154787996Y-86143133D01*
D10*
%TO.C,C10*%
X152968772Y-78922600D02*
X152446268Y-78922600D01*
X152968772Y-80342600D02*
X152446268Y-80342600D01*
%TO.C,C12*%
X148058787Y-71092600D02*
X147716253Y-71092600D01*
X148058787Y-72112600D02*
X147716253Y-72112600D01*
%TO.C,C4*%
X142966268Y-70892600D02*
X143488772Y-70892600D01*
X142966268Y-72312600D02*
X143488772Y-72312600D01*
%TO.C,C7*%
X135926268Y-78922600D02*
X136448772Y-78922600D01*
X135926268Y-80341260D02*
X136448772Y-80341260D01*
%TO.C,C17*%
X152728787Y-82262600D02*
X152386253Y-82262600D01*
X152728787Y-83282600D02*
X152386253Y-83282600D01*
%TO.C,C6*%
X135926268Y-76842600D02*
X136448772Y-76842600D01*
X135926268Y-78262600D02*
X136448772Y-78262600D01*
D11*
%TO.C,U1*%
X138797520Y-73732800D02*
X141547520Y-73732800D01*
X138797520Y-76482800D02*
X138797520Y-73732800D01*
X138797520Y-82282800D02*
X138797520Y-85032800D01*
X138797520Y-85032800D02*
X141547520Y-85032800D01*
X149147520Y-73732800D02*
X147347520Y-73732800D01*
X150097520Y-74682800D02*
X149147520Y-73732800D01*
X150097520Y-76482800D02*
X150097520Y-74682800D01*
X150097520Y-82282800D02*
X150097520Y-85032800D01*
X150097520Y-82282800D02*
X150097520Y-85032800D01*
X150097520Y-82282800D02*
X150097520Y-85032800D01*
X150097520Y-85032800D02*
X147347520Y-85032800D01*
X150097520Y-85032800D02*
X147347520Y-85032800D01*
X150097520Y-85032800D02*
X147347520Y-85032800D01*
D12*
X150297520Y-73632800D02*
G75*
G02*
X150097520Y-73632800I-100000J0D01*
G01*
X150097520Y-73632800D02*
G75*
G02*
X150297520Y-73632800I100000J0D01*
G01*
X150452471Y-73632800D02*
G75*
G02*
X149942569Y-73632800I-254951J0D01*
G01*
X149942569Y-73632800D02*
G75*
G02*
X150452471Y-73632800I254951J0D01*
G01*
D10*
%TO.C,C13*%
X136166253Y-80802600D02*
X136508787Y-80802600D01*
X136166253Y-81822600D02*
X136508787Y-81822600D01*
%TO.C,C8*%
X135976268Y-83922600D02*
X136498772Y-83922600D01*
X135976268Y-85342600D02*
X136498772Y-85342600D01*
%TO.C,C3*%
X135135456Y-72191320D02*
X136339584Y-72191320D01*
X135135456Y-74011320D02*
X136339584Y-74011320D01*
%TO.C,U2*%
X134817520Y-64192600D02*
X134817520Y-67952600D01*
X134817520Y-67952600D02*
X136077520Y-67952600D01*
X141637520Y-61942600D02*
X141637520Y-67952600D01*
X141637520Y-67952600D02*
X140377520Y-67952600D01*
%TO.C,JTAG1*%
X145297520Y-63822600D02*
X145597520Y-63822600D01*
X145297520Y-66282600D02*
X145297520Y-63822600D01*
X145297520Y-67942600D02*
X145297520Y-66952600D01*
X145297520Y-67942600D02*
X145597520Y-67942600D01*
X145597520Y-69197600D02*
X145597520Y-67942600D01*
X147117520Y-63822600D02*
X147597520Y-63822600D01*
X147117520Y-67942600D02*
X147597520Y-67942600D01*
X149117520Y-63822600D02*
X149597520Y-63822600D01*
X149117520Y-67942600D02*
X149597520Y-67942600D01*
X151117520Y-63822600D02*
X151597520Y-63822600D01*
X151117520Y-67942600D02*
X151597520Y-67942600D01*
X153117520Y-63822600D02*
X153597520Y-63822600D01*
X153117520Y-67942600D02*
X153597520Y-67942600D01*
X155117520Y-63822600D02*
X155417520Y-63822600D01*
X155117520Y-67942600D02*
X155417520Y-67942600D01*
X155417520Y-67112600D02*
X155417520Y-63822600D01*
%TO.C,C1*%
X132457520Y-66644664D02*
X132457520Y-65440536D01*
X134277520Y-66644664D02*
X134277520Y-65440536D01*
%TO.C,C2*%
X142177520Y-65440536D02*
X142177520Y-66644664D01*
X143997520Y-65440536D02*
X143997520Y-66644664D01*
%TO.C,C5*%
X135926268Y-74762600D02*
X136448772Y-74762600D01*
X135926268Y-76182600D02*
X136448772Y-76182600D01*
%TO.C,C15*%
X142866253Y-86252600D02*
X143208787Y-86252600D01*
X142866253Y-87272600D02*
X143208787Y-87272600D01*
D13*
%TO.C,RN1*%
X153267520Y-77252600D02*
X153267520Y-75452600D01*
X156667520Y-75452600D02*
X156667520Y-77252600D01*
%TO.C,RN2*%
X153267520Y-73222600D02*
X153267520Y-71422600D01*
X156667520Y-71422600D02*
X156667520Y-73222600D01*
D10*
%TO.C,C16*%
X152728787Y-80802600D02*
X152386253Y-80802600D01*
X152728787Y-81822600D02*
X152386253Y-81822600D01*
%TO.C,C14*%
X136166253Y-82262600D02*
X136508787Y-82262600D01*
X136166253Y-83282600D02*
X136508787Y-83282600D01*
D14*
%TO.C,U8*%
X129122520Y-60277600D02*
X129122520Y-60777600D01*
X129122520Y-89777600D02*
X129122520Y-88127600D01*
X130272520Y-59127600D02*
X129122520Y-60277600D01*
X130772520Y-59127600D02*
X130272520Y-59127600D01*
X130772520Y-89777600D02*
X129122520Y-89777600D01*
X158122520Y-59127600D02*
X159772520Y-59127600D01*
X158122520Y-89777600D02*
X159772520Y-89777600D01*
X159772520Y-59127600D02*
X159772520Y-60777600D01*
X159772520Y-89777600D02*
X159772520Y-88127600D01*
D10*
%TO.C,C9*%
X147618772Y-86282600D02*
X147096268Y-86282600D01*
X147618772Y-87702600D02*
X147096268Y-87702600D01*
%TO.C,TP1*%
X130911820Y-75560000D02*
X132811820Y-75560000D01*
X130911820Y-77460000D02*
X130911820Y-75560000D01*
X132811820Y-75560000D02*
X132811820Y-77460000D01*
X132811820Y-77460000D02*
X130911820Y-77460000D01*
%TO.C,C11*%
X152968772Y-83922600D02*
X152446268Y-83922600D01*
X152968772Y-85342600D02*
X152446268Y-85342600D01*
%TD*%
%LPC*%
D15*
%TO.C,C10*%
X153732520Y-79632600D03*
X151682520Y-79632600D03*
%TD*%
D16*
%TO.C,C12*%
X148762520Y-71602600D03*
X147012520Y-71602600D03*
%TD*%
D17*
%TO.C,C4*%
X142202520Y-71602600D03*
X144252520Y-71602600D03*
%TD*%
%TO.C,C7*%
X135162520Y-79632600D03*
X137212520Y-79632600D03*
%TD*%
D16*
%TO.C,C17*%
X153432520Y-82772600D03*
X151682520Y-82772600D03*
%TD*%
D17*
%TO.C,C6*%
X135162520Y-77552600D03*
X137212520Y-77552600D03*
%TD*%
D18*
%TO.C,U1*%
X149247520Y-74582800D03*
X149247520Y-75382800D03*
X149247520Y-76182800D03*
X149247520Y-76982800D03*
X149247520Y-77782800D03*
X149247520Y-78582800D03*
X149247520Y-79382800D03*
X149247520Y-80182800D03*
X149247520Y-80982800D03*
X149247520Y-81782800D03*
X149247520Y-82582800D03*
X149247520Y-83382800D03*
X149247520Y-84182800D03*
X148447520Y-74582800D03*
X148447520Y-75382800D03*
X148447520Y-76182800D03*
X148447520Y-76982800D03*
X148447520Y-77782800D03*
X148447520Y-78582800D03*
X148447520Y-79382800D03*
X148447520Y-80182800D03*
X148447520Y-80982800D03*
X148447520Y-81782800D03*
X148447520Y-82582800D03*
X148447520Y-83382800D03*
X148447520Y-84182800D03*
X147647520Y-74582800D03*
X147647520Y-75382800D03*
X147647520Y-76182800D03*
X147647520Y-76982800D03*
X147647520Y-77782800D03*
X147647520Y-78582800D03*
X147647520Y-79382800D03*
X147647520Y-80182800D03*
X147647520Y-80982800D03*
X147647520Y-81782800D03*
X147647520Y-82582800D03*
X147647520Y-83382800D03*
X147647520Y-84182800D03*
X146847520Y-74582800D03*
X146847520Y-75382800D03*
X146847520Y-76182800D03*
X146847520Y-76982800D03*
X146847520Y-77782800D03*
X146847520Y-78582800D03*
X146847520Y-79382800D03*
X146847520Y-80182800D03*
X146847520Y-80982800D03*
X146847520Y-81782800D03*
X146847520Y-82582800D03*
X146847520Y-83382800D03*
X146847520Y-84182800D03*
X146047520Y-74582800D03*
X146047520Y-75382800D03*
X146047520Y-76182800D03*
X146047520Y-76982800D03*
X146047520Y-77782800D03*
X146047520Y-78582800D03*
X146047520Y-79382800D03*
X146047520Y-80182800D03*
X146047520Y-80982800D03*
X146047520Y-81782800D03*
X146047520Y-82582800D03*
X146047520Y-83382800D03*
X146047520Y-84182800D03*
X145247520Y-74582800D03*
X145247520Y-75382800D03*
X145247520Y-76182800D03*
X145247520Y-76982800D03*
X145247520Y-77782800D03*
X145247520Y-78582800D03*
X145247520Y-79382800D03*
X145247520Y-80182800D03*
X145247520Y-80982800D03*
X145247520Y-81782800D03*
X145247520Y-82582800D03*
X145247520Y-83382800D03*
X145247520Y-84182800D03*
X144447520Y-74582800D03*
X144447520Y-75382800D03*
X144447520Y-76182800D03*
X144447520Y-76982800D03*
X144447520Y-77782800D03*
X144447520Y-78582800D03*
X144447520Y-79382800D03*
X144447520Y-80182800D03*
X144447520Y-80982800D03*
X144447520Y-81782800D03*
X144447520Y-82582800D03*
X144447520Y-83382800D03*
X144447520Y-84182800D03*
X143647520Y-74582800D03*
X143647520Y-75382800D03*
X143647520Y-76182800D03*
X143647520Y-76982800D03*
X143647520Y-77782800D03*
X143647520Y-78582800D03*
X143647520Y-79382800D03*
X143647520Y-80182800D03*
X143647520Y-80982800D03*
X143647520Y-81782800D03*
X143647520Y-82582800D03*
X143647520Y-83382800D03*
X143647520Y-84182800D03*
X142847520Y-74582800D03*
X142847520Y-75382800D03*
X142847520Y-76182800D03*
X142847520Y-76982800D03*
X142847520Y-77782800D03*
X142847520Y-78582800D03*
X142847520Y-79382800D03*
X142847520Y-80182800D03*
X142847520Y-80982800D03*
X142847520Y-81782800D03*
X142847520Y-82582800D03*
X142847520Y-83382800D03*
X142847520Y-84182800D03*
X142047520Y-74582800D03*
X142047520Y-75382800D03*
X142047520Y-76182800D03*
X142047520Y-76982800D03*
X142047520Y-77782800D03*
X142047520Y-78582800D03*
X142047520Y-79382800D03*
X142047520Y-80182800D03*
X142047520Y-80982800D03*
X142047520Y-81782800D03*
X142047520Y-82582800D03*
X142047520Y-83382800D03*
X142047520Y-84182800D03*
X141247520Y-74582800D03*
X141247520Y-75382800D03*
X141247520Y-76182800D03*
X141247520Y-76982800D03*
X141247520Y-77782800D03*
X141247520Y-78582800D03*
X141247520Y-79382800D03*
X141247520Y-80182800D03*
X141247520Y-80982800D03*
X141247520Y-81782800D03*
X141247520Y-82582800D03*
X141247520Y-83382800D03*
X141247520Y-84182800D03*
X140447520Y-74582800D03*
X140447520Y-75382800D03*
X140447520Y-76182800D03*
X140447520Y-76982800D03*
X140447520Y-77782800D03*
X140447520Y-78582800D03*
X140447520Y-79382800D03*
X140447520Y-80182800D03*
X140447520Y-80982800D03*
X140447520Y-81782800D03*
X140447520Y-82582800D03*
X140447520Y-83382800D03*
X140447520Y-84182800D03*
X139647520Y-74582800D03*
X139647520Y-75382800D03*
X139647520Y-76182800D03*
X139647520Y-76982800D03*
X139647520Y-77782800D03*
X139647520Y-78582800D03*
X139647520Y-79382800D03*
X139647520Y-80182800D03*
X139647520Y-80982800D03*
X139647520Y-81782800D03*
X139647520Y-82582800D03*
X139647520Y-83382800D03*
X139647520Y-84182800D03*
%TD*%
D19*
%TO.C,C13*%
X135462520Y-81312600D03*
X137212520Y-81312600D03*
%TD*%
D17*
%TO.C,C8*%
X135212520Y-84632600D03*
X137262520Y-84632600D03*
%TD*%
D20*
%TO.C,C3*%
X134250020Y-73101320D03*
X137225020Y-73101320D03*
%TD*%
D21*
%TO.C,U2*%
X140527520Y-62892600D03*
X138227520Y-62892600D03*
X135927520Y-62892600D03*
D22*
X138227520Y-69192600D03*
%TD*%
D23*
%TO.C,JTAG1*%
X146357520Y-67967600D03*
X146357520Y-63797600D03*
X148357520Y-67967600D03*
X148357520Y-63797600D03*
X150357520Y-67967600D03*
X150357520Y-63797600D03*
X152357520Y-67967600D03*
X152357520Y-63797600D03*
X154357520Y-67967600D03*
X154357520Y-63797600D03*
%TD*%
D24*
%TO.C,C1*%
X133367520Y-67530100D03*
X133367520Y-64555100D03*
%TD*%
D25*
%TO.C,C2*%
X143087520Y-64555100D03*
X143087520Y-67530100D03*
%TD*%
D17*
%TO.C,C5*%
X135162520Y-75472600D03*
X137212520Y-75472600D03*
%TD*%
D19*
%TO.C,C15*%
X142162520Y-86762600D03*
X143912520Y-86762600D03*
%TD*%
D26*
%TO.C,RN1*%
X153767520Y-77227600D03*
X154567520Y-77227600D03*
X155367520Y-77227600D03*
X156167520Y-77227600D03*
X156167520Y-75477600D03*
X155367520Y-75477600D03*
X154567520Y-75477600D03*
X153767520Y-75477600D03*
%TD*%
%TO.C,RN2*%
X156167520Y-71447600D03*
X155367520Y-71447600D03*
X154567520Y-71447600D03*
X153767520Y-71447600D03*
X153767520Y-73197600D03*
X154567520Y-73197600D03*
X155367520Y-73197600D03*
X156167520Y-73197600D03*
%TD*%
D16*
%TO.C,C16*%
X153432520Y-81312600D03*
X151682520Y-81312600D03*
%TD*%
D19*
%TO.C,C14*%
X135462520Y-82772600D03*
X137212520Y-82772600D03*
%TD*%
D27*
%TO.C,U8*%
X132382520Y-62387600D03*
X132382520Y-86517600D03*
X156512520Y-62387600D03*
X156512520Y-86517600D03*
D28*
X144447520Y-59407100D03*
X143177520Y-59407100D03*
X141907520Y-59407100D03*
X140637520Y-59407100D03*
X139367520Y-59407100D03*
X138097520Y-59407100D03*
X136827520Y-59407100D03*
X135557520Y-59407100D03*
X134287520Y-59407100D03*
X133017520Y-59407100D03*
X131747520Y-59407100D03*
D29*
X129402020Y-61752600D03*
X129402020Y-63022600D03*
X129402020Y-64292600D03*
X129402020Y-65562600D03*
X129402020Y-66832600D03*
X129402020Y-68102600D03*
X129402020Y-69372600D03*
X129402020Y-70642600D03*
X129402020Y-71912600D03*
X129402020Y-73182600D03*
X129402020Y-74452600D03*
X129402020Y-75722600D03*
X129402020Y-76992600D03*
X129402020Y-78262600D03*
X129402020Y-79532600D03*
X129402020Y-80802600D03*
X129402020Y-82072600D03*
X129402020Y-83342600D03*
X129402020Y-84612600D03*
X129402020Y-85882600D03*
X129402020Y-87152600D03*
D28*
X131747520Y-89498100D03*
X133017520Y-89498100D03*
X134287520Y-89498100D03*
X135557120Y-89498100D03*
X136827520Y-89498100D03*
X138097520Y-89498100D03*
X139367520Y-89498100D03*
X140637520Y-89498100D03*
X141907520Y-89498100D03*
X143177520Y-89498100D03*
X144447520Y-89498100D03*
X145717520Y-89498100D03*
X146987520Y-89498100D03*
X148257520Y-89498100D03*
X149527520Y-89498100D03*
X150797520Y-89498100D03*
X152067520Y-89498100D03*
X153337520Y-89498100D03*
X154607520Y-89498100D03*
X155877520Y-89498100D03*
X157147520Y-89498100D03*
D29*
X159493020Y-87152600D03*
X159493020Y-85882600D03*
X159493020Y-84612600D03*
X159493020Y-83342600D03*
X159493020Y-82072600D03*
X159493020Y-80802600D03*
X159493020Y-79532600D03*
X159493020Y-78262600D03*
X159493020Y-76992600D03*
X159493020Y-75722600D03*
X159493020Y-74452600D03*
X159493020Y-73182600D03*
X159493020Y-71912600D03*
X159493020Y-70642600D03*
X159493020Y-69372600D03*
X159493020Y-68102600D03*
X159493020Y-66832600D03*
X159493020Y-65562600D03*
X159493020Y-64292600D03*
X159493020Y-63022600D03*
X159493020Y-61752600D03*
D28*
X157147520Y-59407100D03*
X155877520Y-59407100D03*
X154607520Y-59407100D03*
X153337520Y-59407100D03*
X152067520Y-59407100D03*
X150797520Y-59407100D03*
X149527520Y-59407100D03*
X148257520Y-59407100D03*
X146987520Y-59407100D03*
X145717520Y-59407100D03*
%TD*%
D15*
%TO.C,C9*%
X148382520Y-86992600D03*
X146332520Y-86992600D03*
%TD*%
D30*
%TO.C,TP1*%
X131861820Y-76510000D03*
%TD*%
D15*
%TO.C,C11*%
X153732520Y-84632600D03*
X151682520Y-84632600D03*
%TD*%
%LPD*%
M02*
